<?xml version="1.0" encoding="utf-8"?>
<!-- Generator: Adobe Illustrator 21.1.0, SVG Export Plug-In . SVG Version: 6.00 Build 0)  -->
<svg version="1.1" id="Layer_1" xmlns="http://www.w3.org/2000/svg" xmlns:xlink="http://www.w3.org/1999/xlink" x="0px" y="0px"
	 viewBox="0 0 183.5 41.4" style="enable-background:new 0 0 183.5 41.4;" xml:space="preserve">
<style type="text/css">
	.st0{fill:#FFFFFF;}
</style>
<g>
	<g>
		<path class="st0" d="M55.7,10.4v0.5H53l6.8,19.8h0.1l3.9-11.2l-2.9-8.6h-2v-0.5h11.2v0.5h-3.5l6.8,19.8h0.1l6.9-19.8h-3.2v-0.5
			h6.9v0.5h-3l-9.7,27.2h-1.1l-6.2-17.8H64l-6.3,17.8h-1.1l-9.3-27.2h-3.1v-0.5H55.7z"/>
		<path class="st0" d="M83.2,29.4c0,0.9,0,1.8,0.1,2.7c0.1,0.9,0.3,1.7,0.6,2.5c0.3,0.7,0.8,1.3,1.4,1.8c0.6,0.5,1.5,0.7,2.6,0.7
			c1,0,1.8-0.2,2.5-0.6c0.7-0.4,1.3-0.8,1.7-1.3c0.4-0.5,0.8-1,1-1.4c0.2-0.5,0.3-0.8,0.4-1.1L94,33c-0.1,0.5-0.3,1-0.6,1.5
			c-0.3,0.5-0.7,1-1.2,1.5c-0.5,0.5-1.2,0.9-2,1.2c-0.8,0.3-1.7,0.5-2.8,0.5c-1.3,0-2.5-0.2-3.6-0.6c-1.1-0.4-2.1-1-2.9-1.7
			c-0.8-0.7-1.5-1.6-2-2.7c-0.5-1.1-0.7-2.3-0.7-3.6c0-1.1,0.2-2.1,0.7-3.2c0.5-1,1.1-1.9,1.9-2.7c0.8-0.8,1.7-1.4,2.8-1.9
			c1.1-0.5,2.2-0.7,3.4-0.7c0.9,0,1.8,0.1,2.6,0.4c0.9,0.3,1.7,0.7,2.4,1.3c0.7,0.6,1.3,1.3,1.7,2.2c0.5,0.9,0.7,2,0.7,3.3H83.2
			V29.4z M89.2,24.7c0-0.3,0-0.6,0-1c0-0.4-0.1-0.8-0.3-1.2c-0.2-0.4-0.4-0.7-0.7-1c-0.3-0.3-0.8-0.4-1.4-0.4c-0.9,0-1.5,0.2-2,0.6
			c-0.5,0.4-0.8,0.9-1,1.5c-0.2,0.6-0.4,1.3-0.4,2c-0.1,0.7-0.1,1.4-0.1,2h6V24.7z"/>
		<path class="st0" d="M118.8,18.1c-0.3-0.8-0.6-1.7-1-2.6c-0.4-0.9-0.9-1.8-1.5-2.5c-0.6-0.8-1.4-1.4-2.3-1.9
			c-0.9-0.5-2-0.7-3.4-0.7c-1.8,0-3.3,0.3-4.3,1c-1.1,0.7-1.8,1.6-2.4,2.8c-0.5,1.2-0.9,2.6-1,4.3c-0.2,1.7-0.2,3.5-0.2,5.5
			c0,2.6,0.2,4.8,0.5,6.5c0.3,1.7,0.8,3.1,1.4,4.1c0.6,1,1.5,1.7,2.5,2.1c1,0.4,2.2,0.6,3.6,0.6c1.1,0,2.1-0.2,3.1-0.7
			c0.9-0.5,1.7-1,2.4-1.8c0.7-0.7,1.3-1.6,1.8-2.5c0.5-1,0.8-1.9,1.1-3h0.6v8h-0.6c-0.1-0.3-0.3-0.5-0.5-0.6
			c-0.2-0.1-0.4-0.2-0.8-0.2c-0.3,0-0.7,0.1-1.2,0.2c-0.5,0.1-1,0.3-1.6,0.5c-0.6,0.2-1.3,0.3-2,0.5c-0.7,0.1-1.5,0.2-2.3,0.2
			c-1.8,0-3.6-0.4-5.3-1.1c-1.7-0.7-3.2-1.7-4.5-2.9c-1.3-1.2-2.3-2.7-3.1-4.4c-0.8-1.7-1.2-3.5-1.2-5.4c0-2.1,0.4-4.1,1.3-5.8
			c0.9-1.7,2-3.2,3.3-4.4c1.4-1.2,2.9-2.2,4.5-2.8c1.7-0.7,3.3-1,4.9-1c0.8,0,1.5,0.1,2.2,0.2c0.7,0.1,1.3,0.3,1.9,0.5
			c0.6,0.2,1.1,0.3,1.6,0.5c0.5,0.2,0.9,0.2,1.2,0.2c0.4,0,0.6,0,0.8-0.1c0.2-0.1,0.3-0.3,0.4-0.7h0.6v7.7H118.8z"/>
		<path class="st0" d="M129.3,21v3.2h0.1c0.5-1,1.1-1.8,1.8-2.5c0.8-0.7,1.8-1,3-1c1.1,0,1.9,0.3,2.6,0.8c0.7,0.6,1,1.3,1,2.3
			c0,0.8-0.2,1.3-0.5,1.8c-0.4,0.4-0.9,0.6-1.7,0.6c-0.6,0-1.1-0.1-1.6-0.4c-0.5-0.2-0.7-0.7-0.7-1.3c0-0.1,0-0.2,0-0.4
			c0-0.2,0.1-0.4,0.1-0.6c0-0.2,0.1-0.4,0.1-0.6c0-0.2,0-0.3,0-0.3c0-0.2-0.1-0.4-0.1-0.5c-0.1-0.1-0.1-0.2-0.2-0.3
			c-0.1-0.1-0.3-0.1-0.5-0.1c-0.3,0-0.6,0.1-0.9,0.4c-0.4,0.2-0.7,0.6-1.1,1c-0.3,0.5-0.6,1-0.8,1.6c-0.2,0.6-0.4,1.4-0.4,2.2v9.6h3
			v0.5h-10v-0.5h2.4V21.6h-2.4V21H129.3z"/>
		<path class="st0" d="M143,29.4c0,0.9,0,1.8,0.1,2.7c0.1,0.9,0.3,1.7,0.6,2.5c0.3,0.7,0.8,1.3,1.4,1.8c0.6,0.5,1.5,0.7,2.6,0.7
			c1,0,1.8-0.2,2.5-0.6c0.7-0.4,1.3-0.8,1.7-1.3c0.4-0.5,0.8-1,1-1.4c0.2-0.5,0.3-0.8,0.4-1.1l0.5,0.2c-0.1,0.5-0.3,1-0.6,1.5
			c-0.3,0.5-0.7,1-1.2,1.5c-0.5,0.5-1.2,0.9-2,1.2c-0.8,0.3-1.7,0.5-2.8,0.5c-1.3,0-2.5-0.2-3.6-0.6c-1.1-0.4-2.1-1-2.9-1.7
			c-0.8-0.7-1.5-1.6-2-2.7c-0.5-1.1-0.7-2.3-0.7-3.6c0-1.1,0.2-2.1,0.7-3.2c0.5-1,1.1-1.9,1.9-2.7c0.8-0.8,1.7-1.4,2.8-1.9
			c1.1-0.5,2.2-0.7,3.4-0.7c0.9,0,1.8,0.1,2.6,0.4c0.9,0.3,1.7,0.7,2.4,1.3c0.7,0.6,1.3,1.3,1.7,2.2c0.5,0.9,0.7,2,0.7,3.3H143V29.4
			z M149,24.7c0-0.3,0-0.6,0-1c0-0.4-0.1-0.8-0.3-1.2c-0.2-0.4-0.4-0.7-0.7-1c-0.3-0.3-0.8-0.4-1.4-0.4c-0.9,0-1.5,0.2-2,0.6
			c-0.5,0.4-0.8,0.9-1,1.5c-0.2,0.6-0.4,1.3-0.4,2c-0.1,0.7-0.1,1.4-0.1,2h6V24.7z"/>
		<path class="st0" d="M156.6,31.7c0.3,0.7,0.6,1.4,0.9,2c0.3,0.7,0.7,1.2,1.1,1.7c0.4,0.5,0.9,0.9,1.5,1.2c0.6,0.3,1.3,0.5,2.2,0.5
			c0.2,0,0.5,0,0.9,0c0.4,0,0.7-0.1,1.1-0.3c0.4-0.2,0.7-0.5,0.9-0.9c0.3-0.4,0.4-0.9,0.4-1.7c0-0.2,0-0.5-0.1-0.7
			c-0.1-0.2-0.2-0.5-0.4-0.7c-0.2-0.3-0.5-0.5-0.9-0.7c-0.4-0.2-0.9-0.5-1.6-0.7l-3-1.1c-0.4-0.1-0.7-0.3-1.1-0.5
			c-0.4-0.2-0.8-0.5-1.1-0.8c-0.3-0.4-0.6-0.8-0.8-1.3c-0.2-0.5-0.3-1.1-0.3-1.7c0-0.7,0.1-1.4,0.5-2.1c0.3-0.7,0.7-1.2,1.3-1.7
			c0.5-0.5,1.2-0.9,2-1.2c0.8-0.3,1.6-0.4,2.5-0.4c0.5,0,0.9,0.1,1.3,0.2c0.4,0.1,0.8,0.2,1.1,0.3c0.3,0.1,0.6,0.2,0.9,0.3
			c0.3,0.1,0.5,0.2,0.6,0.2c0.3,0,0.5,0,0.5-0.2c0.1-0.1,0.1-0.2,0.2-0.3h0.5v4.6h-0.5c-0.3-0.6-0.5-1.2-0.8-1.7
			c-0.3-0.6-0.6-1-0.9-1.4c-0.4-0.4-0.8-0.7-1.3-1c-0.5-0.2-1.2-0.4-2-0.4c-0.8,0-1.6,0.2-2.3,0.7c-0.7,0.4-1,1.1-1,1.9
			c0,0.2,0,0.4,0.1,0.6c0,0.2,0.2,0.5,0.3,0.7c0.2,0.2,0.5,0.5,0.8,0.7c0.4,0.2,0.9,0.5,1.5,0.7l3.2,1.1c1.4,0.5,2.4,1.1,3.1,1.9
			c0.7,0.8,1.1,1.8,1.1,3c0,0.8-0.2,1.6-0.5,2.2c-0.4,0.7-0.8,1.2-1.4,1.7c-0.6,0.5-1.3,0.8-2,1.1c-0.8,0.3-1.6,0.4-2.4,0.4
			c-0.5,0-0.9-0.1-1.5-0.2c-0.5-0.1-1-0.2-1.5-0.4s-0.9-0.3-1.3-0.4c-0.4-0.1-0.7-0.1-0.9-0.1c-0.2,0-0.3,0-0.4,0.1
			c-0.1,0.1-0.2,0.2-0.2,0.4h-0.5v-5.4H156.6z"/>
		<path class="st0" d="M174.4,16.6c0.4,0.1,0.8,0.2,1.1,0.2c0.4,0,0.8-0.1,1.1-0.2c0.4-0.1,0.8-0.2,1.1-0.4V21h4.4v0.5h-4.4v12.6
			c0,0.4,0,0.7,0.1,1.1c0,0.3,0.1,0.6,0.3,0.9c0.1,0.3,0.3,0.5,0.6,0.6c0.3,0.2,0.6,0.2,1,0.2c0.5,0,0.9-0.1,1.2-0.3
			c0.3-0.2,0.6-0.5,0.9-0.8c0.3-0.3,0.5-0.7,0.6-1.1c0.2-0.4,0.3-0.8,0.4-1.2l0.6,0.1c-0.2,0.9-0.4,1.5-0.8,2
			c-0.4,0.5-0.8,0.9-1.2,1.2c-0.5,0.3-1,0.5-1.5,0.5s-1,0.1-1.5,0.1c-1.3,0-2.3-0.2-3-0.5c-0.7-0.3-1.2-0.7-1.6-1.1
			c-0.3-0.5-0.5-0.9-0.6-1.5c-0.1-0.5-0.1-1-0.1-1.5V21.6h-2.5V21h2.5v-4.8C173.6,16.3,174,16.5,174.4,16.6z"/>
	</g>
	<g>
		<path class="st0" d="M23.4,7.1l1.3,2.4c0,0,0.1,0.1,0.1,0.1c1.5,0.7,2.8,1.7,4,2.9c3,3,4.7,7,4.7,11.2c0,0.5,0,0.9-0.1,1.3
			c0,0.4-0.1,0.8-0.1,1.1c0,0.3-0.1,0.6-0.2,0.9c0,0-0.1,0-0.1,0L18,0c0,0-0.1,0-0.1,0l12.5,33.3c0,0,0,0-0.1,0L14.9,6.3
			c0,0,0,0,0,0C6.4,7.6,0,14.9,0,23.7c0,5.8,2.8,10.9,7,14.1c0.5,0.4,1,0.7,1.5,1c2.7,1.6,5.8,2.5,9.1,2.5s6.5-0.9,9.1-2.5h0l0,0
			c0.2-0.1,0.5-0.3,0.7-0.4c0.9-0.6,1.8-1.3,2.6-2.1c0.2-0.2,0.3-0.3,0.5-0.5c0.2-0.2,0.3-0.4,0.5-0.6c0.1-0.1,0.1-0.1,0.2-0.2
			c1.4-1.7,2.5-3.6,3.2-5.7c0.1-0.3,0.2-0.6,0.3-0.9c0.1-0.3,0.2-0.6,0.2-0.9c0.3-1.3,0.4-2.6,0.4-3.9C35.4,16,30.4,9.4,23.4,7.1
			C23.5,7,23.4,7,23.4,7.1z M1.8,23.9c0-4.2,1.6-8.3,4.6-11.3C8.9,10.1,12,8.5,15.5,8c0,0,0,0,0,0L25,33.8c0,0.1-0.1,0.1-0.1,0
			L12.4,12.2c0,0-0.1,0-0.1,0l7.9,22.1c0,0.1-0.1,0.1-0.1,0L10.1,17.3c0,0-0.1,0-0.1,0l6.1,17.5c0,0.1-0.1,0.1-0.1,0L8,21.7
			c0,0-0.1,0-0.1,0l4.5,13.6c0,0-0.1,0.1-0.1,0l-6.1-9.8c0,0-0.1,0-0.1,0l3.1,10.2c0,0-0.1,0.1-0.1,0L4.7,29c0,0-0.1,0-0.1,0
			l1.5,5.4c0,0,0,0.1-0.1,0C3.3,31.6,1.9,27.9,1.8,23.9z"/>
	</g>
</g>
</svg>
