<?xml version="1.0" encoding="utf-8"?>
<!-- Generator: Adobe Illustrator 21.1.0, SVG Export Plug-In . SVG Version: 6.00 Build 0)  -->
<svg version="1.1" id="Layer_1" xmlns="http://www.w3.org/2000/svg" xmlns:xlink="http://www.w3.org/1999/xlink" x="0px" y="0px"
	 viewBox="0 0 224.1 22.9" style="enable-background:new 0 0 224.1 22.9;" xml:space="preserve">
<style type="text/css">
	.st0{fill:#FFFFFF;}
</style>
<g>
	<path class="st0" d="M0.3,18.8l2.1,0.3c0.1,0.6,0.3,1.1,0.7,1.4c0.5,0.4,1.3,0.6,2.2,0.6c1,0,1.8-0.2,2.3-0.6s0.9-1,1.1-1.7
		c0.1-0.4,0.2-1.4,0.2-2.7c-0.9,1.1-2.1,1.7-3.5,1.7c-1.7,0-3.1-0.6-4-1.9c-1-1.3-1.4-2.8-1.4-4.5c0-1.2,0.2-2.3,0.7-3.3
		s1.1-1.8,1.9-2.4s1.8-0.8,2.9-0.8c1.5,0,2.7,0.6,3.7,1.8V5.2h2v10.9c0,2-0.2,3.4-0.6,4.2c-0.4,0.8-1,1.5-1.9,1.9
		c-0.9,0.5-1.9,0.7-3.2,0.7c-1.5,0-2.7-0.3-3.7-1S0.3,20.1,0.3,18.8z M2.1,11.2c0,1.7,0.3,2.9,1,3.6s1.5,1.1,2.5,1.1
		s1.8-0.4,2.5-1.1c0.7-0.8,1-1.9,1-3.6c0-1.5-0.3-2.7-1-3.5S6.6,6.5,5.6,6.5S3.8,6.9,3.2,7.7C2.4,8.5,2.1,9.7,2.1,11.2z"/>
	<path class="st0" d="M14.2,17.7V0.3h2.1v17.4H14.2z"/>
	<path class="st0" d="M18.9,11.4c0-2.3,0.7-4.1,2-5.2c1.1-0.9,2.4-1.4,4-1.4c1.7,0,3.2,0.6,4.3,1.7c1.1,1.1,1.7,2.7,1.7,4.7
		c0,1.6-0.2,2.9-0.7,3.8s-1.2,1.7-2.1,2.2S26.2,18,25,18c-1.8,0-3.2-0.6-4.3-1.7C19.4,15.2,18.9,13.5,18.9,11.4z M21.1,11.4
		c0,1.6,0.4,2.8,1.1,3.6c0.7,0.8,1.6,1.2,2.7,1.2s1.9-0.4,2.7-1.2c0.7-0.8,1.1-2,1.1-3.7c0-1.6-0.4-2.7-1.1-3.6S26,6.5,25,6.5
		c-1.1,0-2,0.4-2.7,1.2C21.4,8.6,21.1,9.8,21.1,11.4z"/>
	<path class="st0" d="M35.2,17.7h-2V0.3h2.1v6.2c0.9-1.1,2.1-1.7,3.5-1.7c0.8,0,1.5,0.2,2.2,0.5s1.3,0.8,1.7,1.3
		c0.4,0.6,0.8,1.3,1.1,2.1c0.3,0.8,0.4,1.7,0.4,2.6c0,2.2-0.5,3.8-1.6,5s-2.4,1.8-3.9,1.8c-1.5,0-2.7-0.6-3.5-1.9
		C35.2,16.2,35.2,17.7,35.2,17.7z M35.2,11.3c0,1.5,0.2,2.6,0.6,3.3c0.7,1.1,1.6,1.7,2.7,1.7c0.9,0,1.7-0.4,2.4-1.2
		c0.7-0.8,1-2,1-3.6c0-1.7-0.3-2.9-1-3.7c-0.7-0.8-1.4-1.2-2.4-1.2c-0.9,0-1.7,0.4-2.4,1.2C35.5,8.6,35.2,9.8,35.2,11.3z"/>
	<path class="st0" d="M55,16.2c-0.8,0.7-1.6,1.2-2.3,1.4C52,17.9,51.2,18,50.3,18c-1.4,0-2.5-0.3-3.2-1S46,15.5,46,14.4
		c0-0.6,0.1-1.2,0.4-1.7c0.3-0.5,0.7-0.9,1.1-1.2c0.5-0.3,1-0.5,1.5-0.7c0.4-0.1,1.1-0.2,1.9-0.3c1.7-0.2,3-0.5,3.8-0.7
		c0-0.3,0-0.5,0-0.6c0-0.9-0.2-1.5-0.6-1.8c-0.5-0.5-1.4-0.7-2.4-0.7s-1.8,0.2-2.2,0.5s-0.8,1-1.1,1.9l-2.1-0.3
		c0.2-0.9,0.5-1.6,0.9-2.2s1.1-1,1.9-1.3C49.9,5,50.9,4.9,52,4.9c1.1,0,2,0.1,2.6,0.4c0.7,0.3,1.2,0.6,1.5,1s0.5,0.9,0.7,1.5
		c0.1,0.4,0.1,1,0.1,2v2.9c0,2,0,3.3,0.1,3.8s0.3,1,0.5,1.5h-2.2C55.2,17.3,55.1,16.8,55,16.2z M54.9,11.4c-0.8,0.3-1.9,0.6-3.5,0.8
		c-0.9,0.1-1.5,0.3-1.9,0.4s-0.6,0.4-0.8,0.7c-0.2,0.3-0.3,0.6-0.3,1c0,0.6,0.2,1,0.6,1.4c0.4,0.4,1.1,0.6,1.9,0.6
		c0.8,0,1.6-0.2,2.2-0.5c0.6-0.4,1.1-0.9,1.4-1.5c0.2-0.5,0.3-1.2,0.3-2.1v-0.8H54.9z"/>
	<path class="st0" d="M60.3,17.7V0.3h2.1v17.4H60.3z"/>
	<path class="st0" d="M78,15.8c-0.5,0.6-1.1,1.1-1.7,1.4c-0.6,0.4-1.3,0.5-1.9,0.5c-0.7,0-1.4-0.2-2.1-0.6c-0.7-0.4-1.2-1-1.6-1.9
		c-0.4-0.9-0.6-1.8-0.6-2.8c0-1.3,0.3-2.5,1-3.8s1.4-2.2,2.4-2.8c1-0.6,1.9-1,2.8-1c0.7,0,1.3,0.2,2,0.5c0.6,0.4,1.2,0.9,1.6,1.6
		l0.4-1.8h2.1l-1.7,8c-0.2,1.1-0.4,1.7-0.4,1.8c0,0.2,0.1,0.4,0.2,0.6s0.4,0.2,0.6,0.2c0.4,0,1-0.2,1.7-0.7c0.9-0.6,1.6-1.5,2.1-2.6
		s0.8-2.2,0.8-3.3c0-1.3-0.3-2.6-1-3.7c-0.7-1.2-1.7-2.1-3-2.8c-1.3-0.7-2.8-1-4.5-1c-1.9,0-3.6,0.4-5.1,1.3S69.4,5,68.5,6.6
		s-1.3,3.4-1.3,5.2c0,1.9,0.4,3.6,1.3,5c0.8,1.4,2.1,2.4,3.7,3.1c1.6,0.7,3.4,1,5.3,1c2.1,0,3.8-0.3,5.2-1s2.5-1.5,3.2-2.5h2.2
		c-0.4,0.8-1.1,1.7-2.1,2.5c-1,0.9-2.2,1.5-3.5,2.1c-1.4,0.5-3,0.8-4.9,0.8c-1.8,0-3.4-0.2-4.9-0.7s-2.8-1.1-3.8-2s-1.8-2-2.4-3.1
		c-0.7-1.5-1-3.1-1-4.9c0-1.9,0.4-3.8,1.2-5.5c1-2.1,2.3-3.8,4.1-4.9S74.7,0,77.3,0c2,0,3.7,0.4,5.3,1.2c1.6,0.8,2.8,2,3.7,3.6
		c0.8,1.4,1.2,2.9,1.2,4.5c0,2.3-0.8,4.3-2.4,6.1c-1.4,1.6-3,2.4-4.7,2.4c-0.5,0-1-0.1-1.3-0.2c-0.3-0.2-0.6-0.4-0.7-0.7
		C78.1,16.6,78,16.3,78,15.8z M72.2,12.6c0,1.1,0.3,1.9,0.8,2.5s1.1,0.9,1.8,0.9c0.4,0,0.9-0.1,1.4-0.4s1-0.7,1.4-1.2s0.8-1.2,1.1-2
		s0.4-1.6,0.4-2.4c0-1.1-0.3-1.9-0.8-2.5s-1.2-0.9-2-0.9c-0.5,0-1,0.1-1.4,0.4S74,7.7,73.6,8.2c-0.4,0.6-0.8,1.3-1,2.1
		C72.3,11.1,72.2,11.9,72.2,12.6z"/>
	<path class="st0" d="M92.8,17.7L89,5.1h2.2l2,7.3l0.7,2.7c0-0.1,0.2-1,0.7-2.6l2-7.4h2.2l1.9,7.3l0.6,2.4l0.7-2.4l2.2-7.3h2.1
		l-4,12.6h-2.2l-2-7.6l-0.5-2.2L95,17.6h-2.2V17.7z"/>
	<path class="st0" d="M116.8,13.6l2.2,0.3c-0.3,1.3-1,2.3-1.9,3S115,18,113.5,18c-1.8,0-3.3-0.6-4.4-1.7c-1.1-1.1-1.6-2.7-1.6-4.8
		c0-2.1,0.5-3.8,1.6-5s2.5-1.8,4.3-1.8c1.7,0,3.1,0.6,4.1,1.7s1.6,2.8,1.6,4.9c0,0.1,0,0.3,0,0.6h-9.4c0.1,1.4,0.5,2.5,1.2,3.2
		s1.6,1.1,2.6,1.1c0.8,0,1.5-0.2,2-0.6S116.4,14.6,116.8,13.6z M109.7,10.2h7.1c-0.1-1.1-0.4-1.9-0.8-2.4c-0.7-0.8-1.6-1.2-2.7-1.2
		c-1,0-1.8,0.3-2.5,1C110.2,8.2,109.8,9.1,109.7,10.2z"/>
	<path class="st0" d="M129.9,13.1l2.1,0.3c-0.2,1.5-0.8,2.6-1.8,3.4c-0.9,0.8-2.1,1.2-3.5,1.2c-1.7,0-3.1-0.6-4.2-1.7
		c-1.1-1.1-1.6-2.8-1.6-4.9c0-1.4,0.2-2.6,0.7-3.6s1.1-1.8,2.1-2.3c0.9-0.5,1.9-0.8,3-0.8c1.4,0,2.5,0.3,3.4,1s1.4,1.7,1.7,3
		L129.7,9c-0.2-0.8-0.5-1.5-1.1-1.9c-0.5-0.4-1.1-0.6-1.8-0.6c-1.1,0-2,0.4-2.6,1.2c-0.7,0.8-1,2-1,3.7s0.3,2.9,1,3.7
		c0.7,0.8,1.5,1.2,2.5,1.2c0.8,0,1.5-0.3,2.1-0.8C129.4,15,129.8,14.2,129.9,13.1z"/>
	<path class="st0" d="M133.8,17.7V5.1h1.9V7c0.5-0.9,0.9-1.5,1.4-1.8c0.4-0.3,0.9-0.4,1.4-0.4c0.7,0,1.5,0.2,2.2,0.7l-0.7,2
		c-0.5-0.3-1-0.5-1.6-0.5c-0.5,0-0.9,0.1-1.3,0.4c-0.4,0.3-0.6,0.7-0.8,1.2c-0.2,0.8-0.4,1.6-0.4,2.5v6.6L133.8,17.7L133.8,17.7z"/>
	<path class="st0" d="M150.6,13.6l2.2,0.3c-0.3,1.3-1,2.3-1.9,3s-2.1,1.1-3.6,1.1c-1.8,0-3.3-0.6-4.4-1.7c-1.1-1.1-1.6-2.7-1.6-4.8
		c0-2.1,0.5-3.8,1.6-5s2.5-1.8,4.3-1.8c1.7,0,3.1,0.6,4.1,1.7s1.6,2.8,1.6,4.9c0,0.1,0,0.3,0,0.6h-9.4c0.1,1.4,0.5,2.5,1.2,3.2
		c0.7,0.7,1.6,1.1,2.6,1.1c0.8,0,1.5-0.2,2-0.6C149.8,15.2,150.3,14.6,150.6,13.6z M143.6,10.2h7.1c-0.1-1.1-0.4-1.9-0.8-2.4
		c-0.7-0.8-1.6-1.2-2.7-1.2c-1,0-1.8,0.3-2.5,1C144,8.2,143.6,9.1,143.6,10.2z"/>
	<path class="st0" d="M154.7,13.9l2.1-0.3c0.1,0.8,0.5,1.5,1,2s1.3,0.7,2.3,0.7s1.7-0.2,2.2-0.6s0.7-0.9,0.7-1.4s-0.2-0.9-0.6-1.1
		c-0.3-0.2-1-0.4-2.2-0.7c-1.6-0.4-2.7-0.7-3.3-1s-1.1-0.7-1.4-1.2S155,9.1,155,8.4c0-0.6,0.1-1.1,0.4-1.6c0.3-0.5,0.6-0.9,1.1-1.2
		c0.3-0.2,0.8-0.5,1.4-0.6c0.6-0.2,1.2-0.3,1.9-0.3c1,0,1.9,0.1,2.6,0.4s1.3,0.7,1.7,1.2s0.6,1.1,0.7,2l-2.1,0.3
		c-0.1-0.7-0.4-1.2-0.8-1.5c-0.5-0.4-1.1-0.5-1.9-0.5c-1,0-1.7,0.2-2.1,0.5s-0.6,0.7-0.6,1.1c0,0.3,0.1,0.5,0.3,0.7
		c0.2,0.2,0.4,0.4,0.8,0.6c0.2,0.1,0.8,0.3,1.9,0.5c1.5,0.4,2.6,0.7,3.2,1c0.6,0.3,1.1,0.6,1.4,1.1c0.3,0.5,0.5,1.1,0.5,1.8
		c0,0.7-0.2,1.4-0.6,2c-0.4,0.6-1,1.1-1.8,1.5c-0.8,0.3-1.7,0.5-2.7,0.5c-1.6,0-2.9-0.3-3.8-1C155.4,16.3,154.9,15.3,154.7,13.9z"/>
	<path class="st0" d="M172.4,15.8l0.3,1.9c-0.6,0.1-1.1,0.2-1.6,0.2c-0.8,0-1.4-0.1-1.8-0.4c-0.4-0.2-0.7-0.6-0.9-1
		c-0.2-0.4-0.3-1.2-0.3-2.5V6.7h-1.6V5h1.6V1.9l2.1-1.3V5h2.2v1.7h-2.2v7.4c0,0.6,0,1,0.1,1.2s0.2,0.3,0.4,0.4s0.4,0.2,0.7,0.2
		C171.7,15.9,172,15.9,172.4,15.8z"/>
	<path class="st0" d="M175.1,17.7v-2.4h2.4v2.4H175.1z"/>
	<path class="st0" d="M189.5,13.1l2.1,0.3c-0.2,1.5-0.8,2.6-1.8,3.4c-0.9,0.8-2.1,1.2-3.5,1.2c-1.7,0-3.1-0.6-4.2-1.7
		s-1.6-2.8-1.6-4.9c0-1.4,0.2-2.6,0.7-3.6s1.1-1.8,2.1-2.3c0.9-0.5,1.9-0.8,3-0.8c1.4,0,2.5,0.3,3.4,1s1.4,1.7,1.7,3L189.3,9
		c-0.2-0.8-0.5-1.5-1.1-1.9c-0.5-0.4-1.1-0.6-1.8-0.6c-1.1,0-2,0.4-2.6,1.2c-0.7,0.8-1,2-1,3.7s0.3,2.9,1,3.7s1.5,1.2,2.5,1.2
		c0.8,0,1.5-0.3,2.1-0.8C189,15,189.3,14.2,189.5,13.1z"/>
	<path class="st0" d="M192.6,11.4c0-2.3,0.7-4.1,2-5.2c1.1-0.9,2.4-1.4,4-1.4c1.7,0,3.2,0.6,4.3,1.7c1.1,1.1,1.7,2.7,1.7,4.7
		c0,1.6-0.2,2.9-0.7,3.8s-1.2,1.7-2.1,2.2s-1.9,0.8-3.1,0.8c-1.8,0-3.2-0.6-4.3-1.7C193.2,15.2,192.6,13.5,192.6,11.4z M194.8,11.4
		c0,1.6,0.4,2.8,1.1,3.6s1.6,1.2,2.7,1.2s1.9-0.4,2.7-1.2c0.7-0.8,1.1-2,1.1-3.7c0-1.6-0.4-2.7-1.1-3.6c-0.7-0.8-1.6-1.2-2.6-1.2
		c-1.1,0-2,0.4-2.7,1.2S194.8,9.8,194.8,11.4z"/>
	<path class="st0" d="M207,17.7V5.1h1.9v1.8c0.4-0.6,0.9-1.1,1.6-1.5s1.4-0.6,2.2-0.6c0.9,0,1.7,0.2,2.3,0.6s1,0.9,1.3,1.6
		c1-1.5,2.3-2.2,3.9-2.2c1.3,0,2.2,0.3,2.9,1c0.7,0.7,1,1.8,1,3.2v8.7H222v-8c0-0.9-0.1-1.5-0.2-1.9s-0.4-0.7-0.8-0.9
		c-0.4-0.2-0.8-0.3-1.3-0.3c-0.9,0-1.6,0.3-2.2,0.9s-0.9,1.5-0.9,2.8v7.3h-2.1V9.4c0-1-0.2-1.7-0.5-2.1c-0.3-0.5-0.9-0.7-1.7-0.7
		c-0.6,0-1.2,0.2-1.7,0.5s-0.9,0.8-1.1,1.4s-0.3,1.5-0.3,2.6v6.6H207z"/>
</g>
</svg>
