<?xml version="1.0" encoding="utf-8"?>
<!-- Generator: Adobe Illustrator 21.1.0, SVG Export Plug-In . SVG Version: 6.00 Build 0)  -->
<svg version="1.1" id="Layer_1" xmlns="http://www.w3.org/2000/svg" xmlns:xlink="http://www.w3.org/1999/xlink" x="0px" y="0px"
	 viewBox="0 0 716 160.9" style="enable-background:new 0 0 716 160.9;" xml:space="preserve">
<style type="text/css">
	.st0{enable-background:new    ;}
	.st1{fill:#FFFFFF;}
</style>
<g>
	<g class="st0">
		<path class="st1" d="M143.4,2v1h-6.6v49.3h6.6v1h-23.7v-1h6.6V3.1h-6.6v-1L143.4,2L143.4,2z"/>
		<path class="st1" d="M172.3,52.3v1h-23.7v-1h6.6V3.1h-6.6v-1h6.6c2.4,0,4.9,0,7.3-0.1s4.9-0.1,7.3-0.1c2.2,0,4.5,0.2,7,0.5
			c2.5,0.4,4.8,1,6.9,2s3.9,2.4,5.3,4.1c1.4,1.8,2.1,4,2.1,6.8c0,1.9-0.5,3.6-1.4,5.3c-0.9,1.7-2.3,3.1-4.2,4.3
			c-1.9,1.2-4.2,2.2-7.1,2.9c-2.8,0.7-6.2,1.1-10,1.1h-3v23.4H172.3z M167.9,27.9c4.1,0,7-0.9,8.9-2.8c1.8-1.8,2.7-5,2.7-9.4
			c0-4.2-0.8-7.4-2.4-9.6s-4.5-3.3-8.6-3.3c-0.5,0-1,0-1.5,0.1c-0.5,0-0.9,0.1-1.3,0.1v24.8L167.9,27.9L167.9,27.9z"/>
		<path class="st1" d="M217.1,52.3L238.6,0h1.9l22.7,52.3h6.2v1h-24.2v-1h6.7L243.5,33h-17.3l-8,19.3h6.4v1H211v-1H217.1z M226.6,32
			h16.6l-8.5-19.7L226.6,32z"/>
		<path class="st1" d="M275.3,52.3V23.4h-4.8v-1h13.4v7.2h0.1c0.2-0.4,0.5-1.1,1-2s1.2-1.8,2.1-2.6c0.9-0.9,2.1-1.6,3.5-2.3
			c1.4-0.6,3.2-1,5.4-1c3.2,0,5.6,0.9,7.4,2.7c1.8,1.8,2.6,4.3,2.6,7.5v20.4h4.8v1h-18.1v-1h4.5V29.5c0-2-0.4-3.5-1.2-4.4
			s-1.9-1.4-3.3-1.4c-1.2,0-2.3,0.3-3.3,0.8c-1.1,0.6-2,1.4-2.8,2.5s-1.4,2.5-1.9,4.1s-0.7,3.6-0.7,5.8v15.4h4.5v1h-18.1v-1H275.3z"
			/>
		<path class="st1" d="M346.5,53.9c-1.3,0.2-2.5,0.3-3.6,0.3c-2.4,0-4.3-0.4-5.4-1.3c-1.2-0.9-1.9-2.1-2.2-3.6h-0.1
			c-0.8,1.9-1.8,3.2-3.2,3.9c-1.3,0.7-3.3,1-5.8,1c-1.2,0-2.3-0.1-3.5-0.4c-1.2-0.2-2.3-0.6-3.3-1.2c-1-0.5-1.8-1.3-2.4-2.2
			c-0.6-0.9-0.9-2.1-0.9-3.4c0-1.4,0.3-2.6,0.8-3.5c0.6-0.9,1.3-1.7,2.2-2.4c0.9-0.6,1.9-1.2,3-1.6c1.1-0.4,2.3-0.8,3.5-1.2
			c2-0.6,3.6-1.1,4.8-1.5s2.2-0.8,2.8-1.3c0.7-0.5,1.1-1,1.4-1.5c0.3-0.6,0.4-1.3,0.4-2.2v-4.4c0-1.3-0.3-2.5-0.9-3.5
			c-0.6-1.1-1.8-1.6-3.5-1.6c-1.1,0-2.1,0.3-2.9,0.8s-1.2,1.4-1.2,2.8c0,0.1,0,0.4,0.1,0.8c0,0.4,0.1,0.8,0.1,1.2
			c0,0.4,0.1,0.8,0.1,1.2c0,0.4,0.1,0.6,0.1,0.8c0,0.7-0.2,1.3-0.5,1.7c-0.3,0.4-0.7,0.7-1.2,0.9c-0.5,0.2-0.9,0.3-1.4,0.3
			s-0.9,0-1.3,0c-0.5,0-1,0-1.5-0.1s-0.9-0.2-1.3-0.5c-0.4-0.3-0.7-0.6-1-1.1s-0.4-1.1-0.4-1.9c0-1.2,0.3-2.4,1-3.3
			c0.7-1,1.6-1.8,2.8-2.4s2.5-1.1,3.9-1.5c1.5-0.3,3-0.5,4.6-0.5c1.8,0,3.5,0.1,5.1,0.4c1.6,0.3,3,0.8,4.2,1.6
			c1.2,0.8,2.1,1.8,2.8,3.1c0.7,1.3,1,3,1,5v17.9c0,0.9,0.1,1.7,0.4,2.4c0.3,0.7,0.9,1,2,1c0.6,0,1.1-0.1,1.5-0.4
			c0.4-0.2,0.8-0.6,1.2-1l0.6,0.6C348.7,53.2,347.7,53.8,346.5,53.9z M334.7,35.4c-0.1,0.3-0.3,0.6-0.5,0.8
			c-0.3,0.3-0.7,0.6-1.4,0.9c-0.9,0.4-1.8,0.9-2.7,1.3c-0.9,0.4-1.7,0.9-2.4,1.5c-0.7,0.6-1.3,1.4-1.8,2.3s-0.7,2.1-0.7,3.5
			c0,0.6,0,1.2,0.1,2c0.1,0.8,0.3,1.5,0.6,2.2c0.3,0.7,0.8,1.3,1.4,1.8c0.6,0.5,1.5,0.8,2.6,0.8c0.6,0,1.2-0.1,1.8-0.4
			s1.1-0.7,1.6-1.3c0.5-0.6,0.9-1.4,1.2-2.4s0.4-2.2,0.4-3.6v-9.5h-0.2V35.4z"/>
		<path class="st1" d="M366.4,1.4v50.9h4.8v1h-18.4v-1h4.8V2.4h-4.8v-1H366.4z"/>
		<path class="st1" d="M403.6,23.4h-6v-1H408v1h-3.3c-2.7,5.8-5,10.9-6.9,15.5s-3.6,8.6-5,12.2s-2.7,6.7-3.7,9.4
			c-1.1,2.7-2.1,5.1-3.1,7.2c-1,2.2-2,3.7-3.2,4.8c-1.2,1-2.8,1.5-4.8,1.5c-2.2,0-3.9-0.5-5.3-1.5c-1.4-1-2.1-2.5-2.1-4.3
			c0-1.4,0.4-2.4,1.3-3c0.9-0.6,2-0.9,3.2-0.9c0.9,0,1.8,0.3,2.6,0.8c0.8,0.5,1.2,1.3,1.2,2.3c0,0.9-0.2,1.6-0.5,2.1
			s-0.5,1.2-0.5,1.9c0,0.5,0.1,0.9,0.4,1.2s0.6,0.4,1,0.4c0.9,0,1.7-0.3,2.4-0.9s1.4-1.4,2-2.3c0.6-0.9,1.1-1.9,1.6-3s0.9-2,1.2-2.9
			l3.1-7.7l-13.4-32.8h-3.8v-1h18.3v1h-5l8.8,20.8L403.6,23.4z"/>
		<path class="st1" d="M417,13.8c0.7,0.2,1.5,0.3,2.2,0.3s1.5-0.1,2.2-0.3c0.7-0.2,1.5-0.4,2.2-0.7v9.3h8.4v1h-8.4v24.1
			c0,0.7,0,1.4,0.1,2s0.3,1.2,0.5,1.7c0.3,0.5,0.6,0.9,1.2,1.2s1.2,0.4,2,0.4c0.9,0,1.7-0.2,2.3-0.6s1.2-0.9,1.7-1.5
			s0.9-1.3,1.2-2.1c0.3-0.8,0.6-1.5,0.8-2.2l1.1,0.2c-0.3,1.6-0.8,2.9-1.5,3.9s-1.5,1.7-2.4,2.3c-0.9,0.5-1.8,0.9-2.8,1
			s-2,0.3-2.9,0.3c-2.5,0-4.4-0.3-5.8-0.9c-1.4-0.6-2.4-1.3-3-2.2s-1-1.8-1.1-2.8s-0.1-1.9-0.1-2.8V23.2h-4.8v-1h4.8v-9.3
			C415.5,13.4,416.3,13.7,417,13.8z"/>
		<path class="st1" d="M450.4,22.4v29.9h4.8v1h-18.4v-1h4.8V23.4h-4.8v-1H450.4z M442.4,3.3c1-1,2.2-1.5,3.6-1.5
			c1.4,0,2.6,0.5,3.6,1.5s1.5,2.2,1.5,3.6s-0.5,2.6-1.5,3.6S447.4,12,446,12c-1.4,0-2.6-0.5-3.6-1.5s-1.5-2.2-1.5-3.6
			S441.4,4.3,442.4,3.3z"/>
		<path class="st1" d="M460.5,32.3c0.8-1.9,1.9-3.7,3.4-5.3c1.5-1.6,3.4-2.9,5.5-4c2.2-1.1,4.7-1.6,7.6-1.6c1.8,0,3.5,0.2,5,0.6
			s2.8,0.9,3.9,1.6c1.1,0.7,1.9,1.5,2.5,2.5s0.9,2.1,0.9,3.3c0,1.6-0.4,2.7-1.2,3.3c-0.8,0.6-2,1-3.5,1c-1.1,0-2.1-0.2-3.1-0.6
			c-0.9-0.4-1.4-1.3-1.4-2.6c0-0.2,0.1-0.5,0.2-1c0.1-0.5,0.2-1,0.4-1.5c0.1-0.5,0.2-1,0.4-1.5c0.1-0.5,0.2-0.8,0.2-1
			c0-1-0.4-1.7-1.3-2.3s-1.9-0.8-3.1-0.8c-1.7,0-3.1,0.4-4.1,1.2c-1,0.8-1.8,1.9-2.3,3.3s-0.9,3-1.1,4.8c-0.2,1.8-0.3,3.7-0.3,5.7
			c0,1.9,0.1,3.7,0.2,5.6c0.1,1.9,0.5,3.6,1.2,5.1s1.5,2.8,2.7,3.7c1.2,1,2.8,1.4,4.9,1.4c2,0,3.6-0.3,5-1c1.3-0.7,2.4-1.5,3.2-2.4
			s1.4-1.9,1.8-2.8c0.4-0.9,0.7-1.6,0.8-2.1l1,0.4c-0.2,0.9-0.6,1.8-1.1,2.8s-1.2,2-2.2,2.9s-2.2,1.6-3.7,2.3
			c-1.5,0.6-3.4,0.9-5.7,0.9c-0.6,0-1.5-0.1-2.6-0.2s-2.4-0.4-3.7-0.8s-2.7-1-4-1.7s-2.6-1.7-3.7-2.9c-1.1-1.2-2-2.7-2.7-4.5
			s-1-3.9-1-6.3C459.4,36,459.8,34.2,460.5,32.3z"/>
		<path class="st1" d="M495.7,42.9c0.6,1.3,1.2,2.6,1.8,3.9c0.6,1.2,1.3,2.4,2.1,3.3c0.8,1,1.8,1.7,3,2.3c1.2,0.6,2.6,0.9,4.2,0.9
			c0.4,0,1,0,1.7-0.1c0.7,0,1.4-0.3,2.1-0.6c0.7-0.4,1.3-0.9,1.8-1.7s0.8-1.8,0.8-3.2c0-0.4-0.1-0.9-0.2-1.3
			c-0.1-0.5-0.4-0.9-0.8-1.4c-0.4-0.5-0.9-0.9-1.7-1.4c-0.7-0.5-1.8-0.9-3.1-1.4l-5.8-2.2c-0.7-0.2-1.4-0.6-2.2-1s-1.5-0.9-2.1-1.6
			s-1.2-1.5-1.6-2.4c-0.4-0.9-0.6-2.1-0.6-3.3c0-1.4,0.3-2.7,0.9-4s1.4-2.3,2.4-3.3c1-0.9,2.3-1.7,3.7-2.2c1.5-0.6,3.1-0.8,4.8-0.8
			c0.9,0,1.8,0.1,2.6,0.3c0.8,0.2,1.5,0.4,2.2,0.6c0.6,0.2,1.2,0.4,1.7,0.6s0.9,0.3,1.2,0.3c0.5,0,0.9-0.1,1-0.3
			c0.1-0.2,0.3-0.4,0.4-0.6h1v8.8h-0.9c-0.5-1.2-1-2.3-1.5-3.3s-1.1-2-1.8-2.8s-1.5-1.4-2.6-1.9c-1-0.5-2.3-0.7-3.7-0.7
			c-1.6,0-3,0.4-4.4,1.3c-1.3,0.8-2,2.1-2,3.7c0,0.3,0,0.7,0.1,1.2c0.1,0.4,0.3,0.9,0.6,1.3s0.9,0.9,1.6,1.4
			c0.7,0.5,1.7,0.9,2.9,1.3l6.1,2.1c2.6,0.9,4.6,2.1,5.9,3.6c1.3,1.5,2,3.4,2,5.7c0,1.6-0.3,3-1,4.3s-1.6,2.4-2.7,3.2
			c-1.1,0.9-2.4,1.6-3.9,2.1s-3,0.7-4.6,0.7c-0.9,0-1.8-0.1-2.8-0.3c-1-0.2-2-0.4-2.9-0.7c-0.9-0.3-1.8-0.5-2.6-0.7
			s-1.4-0.3-1.8-0.3c-0.4,0-0.7,0.1-0.8,0.2c-0.2,0.1-0.3,0.4-0.5,0.8h-1V42.9H495.7z"/>
		<path class="st1" d="M584.5,36.5c0.7-2.4,1.1-5.4,1.1-9c0-2-0.2-3.6-0.5-4.9c-0.3-1.2-0.8-2.2-1.4-2.8c-0.6-0.7-1.4-1.1-2.3-1.4
			c-0.9-0.2-2-0.4-3.3-0.4v-1h14.5v1c-1.1,0.2-2,0.4-2.7,0.6s-1.3,0.6-1.8,1.2s-0.8,1.5-1,2.6s-0.4,2.7-0.5,4.8c0,1-0.1,2.1-0.3,3.4
			c-0.1,1.3-0.3,2.7-0.6,4.1s-0.6,2.8-1.1,4.2s-1,2.6-1.8,3.7l3.3,5.8c0.2,0.3,0.5,0.8,1,1.3s1.2,0.8,2,0.8c0.7,0,1.3-0.2,1.7-0.7
			s0.8-1,1-1.7c0.3-0.6,0.4-1.2,0.5-1.8c0.1-0.6,0.1-1,0.1-1.2s0-0.5,0-0.6c0-0.2-0.1-0.4-0.2-0.6h1c0,0.1,0.1,0.3,0.1,0.5
			s0.1,0.4,0.1,0.7c0,0.2,0,0.8-0.1,1.8s-0.4,2-1,3.1s-1.5,2.1-2.8,3s-3.1,1.3-5.4,1.3c-2.1,0-3.7-0.4-4.9-1.3c-1.2-0.8-2.2-1.8-3-3
			c-0.7,0.6-1.4,1.1-2.1,1.6c-0.7,0.5-1.5,0.9-2.4,1.3s-1.9,0.7-3.1,0.9c-1.2,0.2-2.5,0.4-4,0.4c-3.6,0-6.6-0.6-8.9-1.8
			c-2.3-1.2-4-2.6-5.3-4.2c-1.3-1.7-2.1-3.4-2.6-5.1c-0.5-1.8-0.7-3.3-0.7-4.5c0-2.2,0.4-4.2,1.3-5.9c0.9-1.8,2-3.3,3.4-4.8
			c1.4-1.4,2.9-2.7,4.5-3.8c1.6-1.1,3.2-2.2,4.8-3.1c-0.8-2-1.3-3.6-1.7-4.9c-0.4-1.2-0.6-2.5-0.6-3.7c0-1.5,0.3-2.9,0.9-4.3
			c0.6-1.4,1.4-2.6,2.4-3.7s2.2-1.9,3.5-2.6c1.3-0.6,2.6-1,4-1c0.9,0,1.8,0.1,2.6,0.4s1.5,0.7,2.2,1.3c0.6,0.6,1.1,1.3,1.5,2.3
			c0.4,0.9,0.5,2.1,0.5,3.4c0,1.4-0.4,3-1.2,4.6s-2.5,3.3-5.1,5l12.1,23.7C583.1,40.5,583.8,38.9,584.5,36.5z M562.4,23.1
			c-0.3-0.6-0.5-1.1-0.6-1.3c-1,0.8-1.9,1.5-2.6,2.1c-0.7,0.6-1.4,1.3-1.9,2s-0.9,1.5-1.1,2.3c-0.2,0.8-0.4,1.8-0.4,3
			c0,0.9,0.2,2,0.5,3.4s0.8,2.9,1.4,4.5c0.6,1.6,1.3,3.2,2.2,4.8s1.8,3,2.7,4.3c1,1.3,2,2.3,3.2,3.1c1.1,0.8,2.3,1.2,3.4,1.2
			c1.3,0,2.5-0.3,3.5-0.9s2.1-1.4,3.3-2.3c-0.5-0.7-0.9-1.2-1.1-1.7c-0.3-0.5-0.5-0.9-0.8-1.5l-10.8-21
			C563,24.4,562.7,23.7,562.4,23.1z M575.4,6.1c-0.2-0.8-0.5-1.5-0.9-2.1s-0.9-1.1-1.5-1.5s-1.3-0.6-2.2-0.6c-0.1,0-0.5,0-1,0.1
			c-0.5,0-1,0.2-1.6,0.5s-1,0.8-1.5,1.5c-0.4,0.7-0.6,1.7-0.6,2.9c0,0.7,0.1,1.5,0.3,2.3s0.5,1.7,0.9,2.6s0.8,1.8,1.2,2.7
			c0.5,0.9,0.9,1.7,1.3,2.4c0.5-0.3,1.1-0.7,1.7-1.2c0.7-0.5,1.3-1.1,1.9-1.8c0.6-0.7,1.1-1.5,1.5-2.4s0.6-2,0.6-3.2
			C575.7,7.6,575.6,6.8,575.4,6.1z"/>
	</g>
	<g class="st0">
		<path class="st1" d="M18.4,88.4l12.5,35.9H31l12.7-35.9h18v1h-6.6v49.2h6.6v1H38.1v-1h6.6V89.4h-0.1l-17.7,50.3h-1.2L7.9,89.4H7.8
			v49.2h6.6v1H0v-1h6.6V89.4H0v-1H18.4z"/>
		<path class="st1" d="M97.8,140.3c-1.3,0.2-2.5,0.3-3.6,0.3c-2.4,0-4.3-0.4-5.4-1.3c-1.2-0.9-1.9-2.1-2.2-3.6h-0.1
			c-0.8,1.9-1.8,3.2-3.2,3.9c-1.3,0.7-3.3,1-5.8,1c-1.2,0-2.3-0.1-3.5-0.4c-1.2-0.2-2.3-0.6-3.3-1.2c-1-0.5-1.8-1.3-2.4-2.2
			c-0.6-0.9-0.9-2.1-0.9-3.4c0-1.4,0.3-2.6,0.8-3.5c0.6-0.9,1.3-1.7,2.2-2.4c0.9-0.6,1.9-1.2,3-1.6c1.1-0.4,2.3-0.8,3.5-1.2
			c2-0.6,3.6-1.1,4.8-1.5s2.2-0.8,2.8-1.3c0.7-0.5,1.1-1,1.4-1.5c0.3-0.6,0.4-1.3,0.4-2.2v-4.4c0-1.3-0.3-2.5-0.9-3.5
			c-0.6-1.1-1.8-1.6-3.5-1.6c-1.1,0-2.1,0.3-2.9,0.8c-0.8,0.5-1.2,1.4-1.2,2.8c0,0.1,0,0.4,0.1,0.8c0,0.4,0.1,0.8,0.1,1.2
			s0.1,0.8,0.1,1.2s0.1,0.6,0.1,0.8c0,0.7-0.2,1.3-0.5,1.7s-0.7,0.7-1.2,0.9s-0.9,0.3-1.4,0.3s-0.9,0-1.3,0c-0.5,0-1,0-1.5-0.1
			s-0.9-0.2-1.3-0.5c-0.4-0.3-0.7-0.6-1-1.1s-0.4-1.1-0.4-1.9c0-1.2,0.3-2.4,1-3.3c0.7-1,1.6-1.8,2.8-2.4c1.2-0.6,2.5-1.1,3.9-1.5
			c1.5-0.3,3-0.5,4.6-0.5c1.8,0,3.5,0.1,5.1,0.4c1.6,0.3,3,0.8,4.2,1.6s2.1,1.8,2.8,3.1s1,3,1,5v17.9c0,0.9,0.1,1.7,0.4,2.4
			c0.3,0.7,0.9,1,2,1c0.6,0,1.1-0.1,1.5-0.4c0.4-0.2,0.8-0.6,1.2-1l0.6,0.6C100,139.6,99,140.2,97.8,140.3z M86,121.8
			c-0.1,0.3-0.3,0.6-0.5,0.8c-0.3,0.3-0.7,0.6-1.4,0.9c-0.9,0.4-1.8,0.9-2.7,1.3c-0.9,0.4-1.7,0.9-2.4,1.5s-1.3,1.4-1.8,2.3
			c-0.5,0.9-0.7,2.1-0.7,3.5c0,0.6,0,1.2,0.1,2s0.3,1.5,0.6,2.2s0.8,1.3,1.4,1.8c0.6,0.5,1.5,0.8,2.6,0.8c0.6,0,1.2-0.1,1.8-0.4
			c0.6-0.3,1.1-0.7,1.6-1.3s0.9-1.4,1.2-2.4s0.4-2.2,0.4-3.6v-9.5H86L86,121.8L86,121.8z"/>
		<path class="st1" d="M117.8,108.8v6h0.1c0.9-1.8,2-3.4,3.5-4.7s3.4-2,5.8-2c2,0,3.6,0.5,4.9,1.6c1.2,1.1,1.9,2.6,1.9,4.5
			c0,1.4-0.3,2.6-1,3.4c-0.7,0.8-1.8,1.2-3.3,1.2c-1.1,0-2.1-0.2-3-0.7s-1.4-1.3-1.4-2.6c0-0.1,0-0.4,0.1-0.8c0-0.4,0.1-0.7,0.2-1.2
			c0.1-0.4,0.1-0.8,0.2-1.1c0-0.3,0.1-0.5,0.1-0.6c0-0.4-0.1-0.7-0.2-0.9s-0.3-0.4-0.5-0.6c-0.2-0.2-0.5-0.3-1-0.3s-1.1,0.2-1.8,0.7
			c-0.7,0.5-1.4,1.1-2,2s-1.2,1.9-1.6,3.1c-0.5,1.2-0.7,2.6-0.7,4.1v18.4h5.7v1h-19.2v-1h4.7v-28.9h-4.7v-1h13.2L117.8,108.8
			L117.8,108.8z"/>
		<path class="st1" d="M149.6,87.8v34.3h0.4l13.4-12.3h-5.3v-1h11.3v1h-4.6l-8.1,7.6l16.5,21.2h2.8v1h-19.1v-1h5.2L149.9,123h-0.4
			v15.6h4.5v1h-18v-1h4.8V88.7H136v-1h13.6L149.6,87.8L149.6,87.8z"/>
		<path class="st1" d="M188.4,124.9c0,1.7,0.1,3.5,0.2,5.2c0.1,1.8,0.5,3.3,1.2,4.8c0.6,1.4,1.5,2.6,2.7,3.5s2.9,1.4,5,1.4
			c1.9,0,3.5-0.4,4.9-1.1c1.3-0.7,2.4-1.5,3.2-2.5c0.8-0.9,1.5-1.9,1.9-2.8c0.4-0.9,0.6-1.6,0.7-2l1,0.4c-0.2,0.9-0.6,1.9-1.2,2.9
			s-1.4,2-2.4,2.9s-2.3,1.6-3.7,2.2c-1.5,0.6-3.3,0.9-5.4,0.9c-2.5,0-4.8-0.4-7-1.1c-2.2-0.7-4-1.8-5.7-3.2
			c-1.6-1.4-2.9-3.1-3.8-5.2c-0.9-2-1.4-4.4-1.4-6.9c0-2.1,0.4-4.1,1.3-6c0.9-2,2.1-3.7,3.6-5.2s3.3-2.7,5.3-3.7
			c2-0.9,4.2-1.4,6.6-1.4c1.7,0,3.4,0.3,5,0.8c1.7,0.5,3.2,1.3,4.5,2.4c1.3,1.1,2.4,2.5,3.3,4.3s1.3,3.9,1.3,6.3h-21.2v3.1
			L188.4,124.9L188.4,124.9z M200,115.8c0-0.5,0-1.2-0.1-1.9c0-0.8-0.2-1.5-0.5-2.3s-0.8-1.4-1.4-1.9s-1.5-0.8-2.7-0.8
			c-1.6,0-2.9,0.4-3.8,1.2s-1.5,1.7-2,2.9c-0.4,1.2-0.7,2.4-0.8,3.8c-0.1,1.4-0.2,2.7-0.3,3.9h11.5L200,115.8L200,115.8z"/>
		<path class="st1" d="M221.7,100.2c0.7,0.2,1.5,0.3,2.2,0.3s1.5-0.1,2.2-0.3s1.5-0.4,2.2-0.7v9.3h8.4v1h-8.4v24.1
			c0,0.7,0,1.4,0.1,2s0.3,1.2,0.5,1.7c0.3,0.5,0.6,0.9,1.2,1.2c0.5,0.3,1.2,0.4,2,0.4c0.9,0,1.7-0.2,2.3-0.6s1.2-0.9,1.7-1.5
			s0.9-1.3,1.2-2.1c0.3-0.8,0.6-1.5,0.8-2.2l1.1,0.2c-0.3,1.6-0.8,2.9-1.5,3.9s-1.5,1.7-2.4,2.3c-0.9,0.5-1.8,0.9-2.8,1
			c-1,0.2-2,0.3-2.9,0.3c-2.5,0-4.4-0.3-5.8-0.9c-1.4-0.6-2.4-1.3-3-2.2s-1-1.8-1.1-2.8s-0.1-1.9-0.1-2.8v-22.2h-4.8v-1h4.8v-9.3
			C220.2,99.8,220.9,100.1,221.7,100.2z"/>
		<path class="st1" d="M255,108.8v29.9h4.8v1h-18.4v-1h4.8v-28.9h-4.8v-1H255z M247,89.7c1-1,2.2-1.5,3.6-1.5s2.6,0.5,3.6,1.5
			s1.5,2.2,1.5,3.6c0,1.4-0.5,2.6-1.5,3.6s-2.2,1.5-3.6,1.5s-2.6-0.5-3.6-1.5s-1.5-2.2-1.5-3.6C245.5,91.9,246,90.7,247,89.7z"/>
		<path class="st1" d="M269.3,138.7v-28.9h-4.8v-1h13.4v7.2h0.1c0.2-0.4,0.5-1.1,1-2s1.2-1.8,2.1-2.6c0.9-0.9,2.1-1.6,3.5-2.3
			c1.4-0.7,3.2-1,5.4-1c3.2,0,5.6,0.9,7.4,2.7s2.6,4.3,2.6,7.5v20.3h4.8v1h-18.1v-1h4.5v-22.8c0-2-0.4-3.5-1.2-4.4s-1.9-1.4-3.3-1.4
			c-1.2,0-2.3,0.3-3.3,0.8c-1.1,0.6-2,1.4-2.8,2.5s-1.4,2.5-1.9,4.1s-0.7,3.6-0.7,5.8v15.4h4.5v1h-18.1v-1h4.9V138.7z"/>
		<path class="st1" d="M332.7,135.1c1.7,0.4,3.1,1,4.4,1.8c1.2,0.9,2.3,2,3,3.5c0.8,1.5,1.2,3.3,1.2,5.5c0,1.9-0.4,3.7-1.2,5.5
			c-0.8,1.8-1.9,3.4-3.4,4.8c-1.5,1.4-3.3,2.5-5.4,3.4c-2.1,0.9-4.5,1.3-7.2,1.3c-3,0-5.4-0.3-7.2-1c-1.8-0.7-3.2-1.5-4.1-2.4
			c-1-0.9-1.6-1.9-1.9-2.9s-0.4-1.8-0.4-2.5c0-1.3,0.3-2.4,0.9-3.5c0.6-1,1.3-1.9,2.3-2.6s2-1.4,3.1-1.9c1.1-0.5,2.2-0.9,3.3-1.2
			v-0.1c-1,0-2.1-0.1-3.3-0.4c-1.2-0.2-2.4-0.6-3.4-1.2c-1.1-0.6-1.9-1.4-2.7-2.4c-0.7-1-1.1-2.3-1.1-3.7c0-0.2,0.1-0.7,0.2-1.3
			c0.1-0.6,0.4-1.4,0.8-2.2c0.4-0.8,1.1-1.7,2-2.6c0.9-0.9,2.1-1.8,3.6-2.6c-0.4-0.3-0.9-0.7-1.4-1.2s-1-1-1.5-1.6s-0.8-1.3-1.2-2.1
			c-0.3-0.8-0.5-1.7-0.5-2.8c0-1.5,0.3-2.9,1-4.2s1.6-2.5,2.8-3.5s2.7-1.8,4.4-2.3c1.8-0.6,3.7-0.9,5.9-0.9c2.2,0,4,0.3,5.6,1
			c1.6,0.7,2.9,1.4,4,2.3c1.2-1.1,2.3-1.9,3.2-2.5c1-0.6,2.2-0.8,3.8-0.8c1.4,0,2.4,0.3,3.1,1s1,1.6,1,2.7c0,1-0.3,1.7-0.9,2.3
			c-0.6,0.6-1.3,0.8-2.3,0.8c-0.7,0-1.2-0.1-1.6-0.3c-0.4-0.2-0.7-0.4-0.9-0.7s-0.4-0.6-0.4-0.9c-0.1-0.3-0.1-0.6-0.2-0.8
			c-0.1-0.7-0.2-1.2-0.3-1.5c-0.1-0.3-0.4-0.5-0.9-0.5c-0.3,0-0.6,0.1-1,0.3c-0.4,0.2-1.1,0.7-2,1.3c0.6,0.6,1.2,1.5,1.9,2.5
			s1,2.5,1,4.5c0,1.2-0.2,2.4-0.7,3.6c-0.5,1.2-1.2,2.2-2.2,3.2s-2.4,1.7-4,2.3c-1.6,0.6-3.6,0.9-6,0.9c-1.9,0-3.6-0.2-5.1-0.6
			c-1.5-0.4-2.7-0.8-3.7-1.2c-1.4,0.9-2.2,1.7-2.4,2.3c-0.2,0.6-0.4,1.2-0.4,1.8c0,1.2,0.5,2.1,1.4,2.7c1,0.6,2.3,0.9,3.9,0.9h7.9
			C329.3,134.6,331,134.8,332.7,135.1z M317.3,153.7c0.2,1,0.7,2,1.4,2.8c0.7,0.9,1.6,1.6,2.7,2.2c1.1,0.6,2.6,0.9,4.5,0.9
			c1.4,0,2.7-0.2,4-0.7c1.2-0.5,2.3-1.2,3.3-2c0.9-0.9,1.7-1.9,2.3-3.1c0.6-1.2,0.9-2.5,0.9-4c0-1.4-0.2-2.6-0.7-3.5
			s-1.1-1.6-1.8-2.1s-1.5-0.9-2.4-1.1c-0.9-0.2-1.7-0.3-2.4-0.3h-7.5c-1.4,1.2-2.6,2.3-3.3,3.5c-0.7,1.2-1.2,2.7-1.2,4.6
			C317,151.8,317.1,152.7,317.3,153.7z M327.6,127.4c0.7-0.2,1.2-0.6,1.7-1.3c0.5-0.6,0.9-1.6,1.1-2.8c0.3-1.2,0.4-2.8,0.4-4.8
			c0-1.4,0-2.7-0.1-3.9c-0.1-1.2-0.3-2.2-0.7-3.1c-0.4-0.9-0.9-1.5-1.7-2c-0.7-0.5-1.7-0.7-3-0.7c-1.2,0-2.2,0.3-3,0.8
			s-1.4,1.2-1.8,2c-0.4,0.8-0.7,1.8-0.8,2.8c-0.1,1.1-0.2,2.1-0.2,3.2c0,2.3,0.1,4.1,0.4,5.4c0.3,1.3,0.7,2.4,1.2,3.1
			c0.5,0.7,1.1,1.1,1.8,1.3c0.7,0.2,1.5,0.3,2.3,0.3C326.2,127.7,326.9,127.6,327.6,127.4z"/>
		<path class="st1" d="M371.2,123.7c0.1,0.6,0.3,1.3,0.5,2.3s0.6,1.9,1,3c0.5,1.1,1,2.2,1.7,3.3s1.5,2.2,2.6,3.1
			c1.1,1.1,2.2,1.9,3.2,2.5s2,1,3,1.3c0.9,0.3,1.8,0.4,2.7,0.4c0.8,0,1.6,0,2.3,0c2.5,0,4.6-0.4,6.3-1.2c1.6-0.8,2.9-1.8,3.9-2.9
			c0.9-1.2,1.6-2.4,2-3.6c0.4-1.3,0.6-2.4,0.6-3.3c0-1.8-0.4-3.2-1.3-4.4c-0.8-1.2-2-2.1-3.3-2.9c-1.4-0.8-3-1.4-4.8-1.9
			s-3.6-1.1-5.5-1.6c-1.9-0.6-3.7-1.2-5.5-1.9s-3.4-1.7-4.8-2.9s-2.5-2.6-3.3-4.4c-0.8-1.7-1.3-3.9-1.3-6.5c0-1.9,0.4-3.8,1.3-5.5
			c0.9-1.8,2.1-3.3,3.6-4.7s3.4-2.5,5.5-3.3s4.5-1.3,6.9-1.3c1.6,0,3,0.1,4.2,0.4c1.2,0.3,2.3,0.6,3.2,0.9s1.7,0.6,2.4,0.9
			c0.7,0.3,1.3,0.4,1.9,0.4c0.7,0,1.1-0.1,1.3-0.3s0.4-0.6,0.7-1.2h1.2v13.7h-0.9c-0.6-1.7-1.2-3.3-1.8-5c-0.6-1.6-1.5-3.1-2.5-4.4
			s-2.3-2.4-3.8-3.2s-3.5-1.2-5.8-1.2c-1.9,0-3.6,0.3-5.1,0.8s-2.7,1.2-3.7,2.1c-1,0.9-1.8,1.8-2.3,2.9c-0.5,1.1-0.8,2.1-0.8,3.2
			c0,1.7,0.4,3.1,1.3,4.2c0.9,1.1,2.1,2.1,3.5,2.8c1.4,0.8,3.1,1.5,4.9,2.1c1.8,0.6,3.7,1.2,5.7,1.8c1.9,0.6,3.8,1.3,5.7,2.1
			s3.5,1.7,4.9,2.8s2.6,2.5,3.5,4.2c0.9,1.6,1.3,3.6,1.3,6s-0.5,4.6-1.4,6.7c-1,2.1-2.3,4-4.1,5.5s-3.8,2.8-6.3,3.8
			s-5.1,1.4-8.1,1.4c-1.5,0-3-0.1-4.4-0.4c-1.5-0.3-2.8-0.6-4.1-0.9c-1.3-0.3-2.4-0.6-3.4-0.9c-1-0.3-1.7-0.4-2.2-0.4
			c-0.7,0-1.2,0.1-1.4,0.3c-0.3,0.2-0.6,0.7-0.8,1.3h-1.2v-16L371.2,123.7L371.2,123.7z"/>
		<path class="st1" d="M414.4,109.8v-1h13.4v5.3h0.1c1.5-4.2,4.3-6.3,8.5-6.3c2.8,0,5.2,0.5,7.1,1.6c2,1.1,3.6,2.4,4.9,4.1
			c1.3,1.6,2.2,3.4,2.8,5.3c0.6,1.9,0.9,3.7,0.9,5.4c0,2.2-0.4,4.2-1.2,6.2s-1.8,3.7-3.2,5.2s-3,2.7-4.9,3.6
			c-1.9,0.9-4.1,1.4-6.4,1.4c-2.2,0-4-0.6-5.3-1.8s-2.4-2.6-3-4.3H428v24.3h4.9v1h-18.4v-1h4.8v-49H414.4z M428.2,129.2
			c0.1,1.8,0.5,3.5,1,5c0.6,1.6,1.4,2.9,2.6,3.9c1.1,1,2.7,1.5,4.7,1.5c1.3,0,2.4-0.4,3.2-1.1c0.8-0.7,1.4-1.8,1.8-3.1
			s0.7-3,0.8-4.9s0.2-4,0.2-6.4c0-2.9-0.1-5.3-0.3-7.3s-0.6-3.6-1.1-4.8s-1.2-2.1-2-2.6s-1.8-0.8-3.1-0.8c-1.8,0-3.2,0.5-4.2,1.5
			s-1.8,2.3-2.4,3.8c-0.5,1.5-0.9,3.2-1,5s-0.3,3.5-0.3,5.1C428,125.8,428,127.4,428.2,129.2z"/>
		<path class="st1" d="M467.1,124.9c0,1.7,0.1,3.5,0.2,5.2c0.1,1.8,0.5,3.3,1.2,4.8c0.6,1.4,1.5,2.6,2.7,3.5s2.9,1.4,5,1.4
			c1.9,0,3.5-0.4,4.9-1.1c1.3-0.7,2.4-1.5,3.2-2.5c0.8-0.9,1.5-1.9,1.9-2.8s0.6-1.6,0.7-2l1,0.4c-0.2,0.9-0.6,1.9-1.2,2.9
			c-0.6,1-1.4,2-2.4,2.9s-2.3,1.6-3.7,2.2c-1.5,0.6-3.3,0.9-5.4,0.9c-2.5,0-4.8-0.4-7-1.1c-2.2-0.7-4-1.8-5.7-3.2
			c-1.6-1.4-2.9-3.1-3.8-5.2c-0.9-2-1.4-4.4-1.4-6.9c0-2.1,0.4-4.1,1.3-6c0.9-2,2.1-3.7,3.6-5.2s3.3-2.7,5.3-3.7s4.2-1.4,6.6-1.4
			c1.7,0,3.4,0.3,5,0.8c1.7,0.5,3.2,1.3,4.5,2.4c1.3,1.1,2.4,2.5,3.3,4.3c0.9,1.8,1.3,3.9,1.3,6.3H467v3.1L467.1,124.9L467.1,124.9z
			 M478.7,115.8c0-0.5,0-1.2-0.1-1.9s-0.2-1.5-0.5-2.3s-0.8-1.4-1.4-1.9c-0.6-0.5-1.5-0.8-2.7-0.8c-1.6,0-2.9,0.4-3.8,1.2
			c-0.9,0.8-1.5,1.7-2,2.9s-0.7,2.4-0.8,3.8c-0.1,1.4-0.2,2.7-0.3,3.9h11.5L478.7,115.8L478.7,115.8z"/>
		<path class="st1" d="M494.6,118.7c0.8-1.9,1.9-3.7,3.4-5.3s3.4-2.9,5.5-4c2.2-1.1,4.7-1.6,7.6-1.6c1.8,0,3.5,0.2,5,0.6
			c1.5,0.4,2.8,0.9,3.9,1.6c1.1,0.7,1.9,1.5,2.5,2.5s0.9,2.1,0.9,3.3c0,1.6-0.4,2.7-1.2,3.3s-2,1-3.5,1c-1.1,0-2.1-0.2-3.1-0.6
			c-0.9-0.4-1.4-1.3-1.4-2.6c0-0.2,0.1-0.5,0.2-1c0.1-0.5,0.2-1,0.4-1.5c0.1-0.5,0.2-1,0.4-1.5c0.1-0.5,0.2-0.8,0.2-1
			c0-1-0.4-1.7-1.3-2.3c-0.8-0.6-1.9-0.8-3.1-0.8c-1.7,0-3.1,0.4-4.1,1.2s-1.8,1.9-2.3,3.3c-0.6,1.4-0.9,3-1.1,4.8
			c-0.2,1.8-0.3,3.7-0.3,5.7c0,1.9,0.1,3.7,0.2,5.6c0.1,1.9,0.5,3.6,1.2,5.1c0.6,1.5,1.5,2.8,2.7,3.7c1.2,1,2.8,1.4,4.9,1.4
			c2,0,3.6-0.3,5-1c1.3-0.7,2.4-1.5,3.2-2.4s1.4-1.9,1.8-2.8c0.4-0.9,0.7-1.6,0.8-2.1l1,0.4c-0.2,0.9-0.6,1.8-1.1,2.8
			s-1.2,2-2.2,2.9s-2.2,1.6-3.7,2.3c-1.5,0.6-3.4,0.9-5.7,0.9c-0.6,0-1.5-0.1-2.6-0.2c-1.1-0.1-2.4-0.4-3.7-0.8
			c-1.3-0.4-2.7-1-4-1.7s-2.6-1.7-3.7-2.9s-2-2.7-2.7-4.5s-1-3.9-1-6.3C493.4,122.4,493.8,120.6,494.6,118.7z"/>
		<path class="st1" d="M541.7,108.8v29.9h4.8v1h-18.4v-1h4.8v-28.9h-4.8v-1H541.7z M533.7,89.7c1-1,2.2-1.5,3.6-1.5
			c1.4,0,2.6,0.5,3.6,1.5s1.5,2.2,1.5,3.6c0,1.4-0.5,2.6-1.5,3.6s-2.2,1.5-3.6,1.5c-1.4,0-2.6-0.5-3.6-1.5s-1.5-2.2-1.5-3.6
			C532.2,91.9,532.7,90.7,533.7,89.7z"/>
		<path class="st1" d="M581.8,140.3c-1.3,0.2-2.5,0.3-3.6,0.3c-2.4,0-4.3-0.4-5.4-1.3c-1.2-0.9-1.9-2.1-2.2-3.6h-0.1
			c-0.8,1.9-1.8,3.2-3.2,3.9c-1.3,0.7-3.3,1-5.8,1c-1.2,0-2.3-0.1-3.5-0.4c-1.2-0.2-2.3-0.6-3.3-1.2c-1-0.5-1.8-1.3-2.4-2.2
			c-0.6-0.9-0.9-2.1-0.9-3.4c0-1.4,0.3-2.6,0.8-3.5c0.6-0.9,1.3-1.7,2.2-2.4c0.9-0.6,1.9-1.2,3-1.6c1.1-0.4,2.3-0.8,3.5-1.2
			c2-0.6,3.6-1.1,4.8-1.5s2.2-0.8,2.8-1.3c0.7-0.5,1.1-1,1.4-1.5c0.3-0.6,0.4-1.3,0.4-2.2v-4.4c0-1.3-0.3-2.5-0.9-3.5
			c-0.6-1.1-1.8-1.6-3.5-1.6c-1.1,0-2.1,0.3-2.9,0.8c-0.8,0.5-1.2,1.4-1.2,2.8c0,0.1,0,0.4,0.1,0.8c0,0.4,0.1,0.8,0.1,1.2
			s0.1,0.8,0.1,1.2s0.1,0.6,0.1,0.8c0,0.7-0.2,1.3-0.5,1.7s-0.7,0.7-1.2,0.9s-0.9,0.3-1.4,0.3s-0.9,0-1.3,0c-0.5,0-1,0-1.5-0.1
			s-0.9-0.2-1.3-0.5c-0.4-0.3-0.7-0.6-1-1.1s-0.4-1.1-0.4-1.9c0-1.2,0.3-2.4,1-3.3c0.7-1,1.6-1.8,2.8-2.4c1.2-0.6,2.5-1.1,3.9-1.5
			c1.5-0.3,3-0.5,4.6-0.5c1.8,0,3.5,0.1,5.1,0.4c1.6,0.3,3,0.8,4.2,1.6s2.1,1.8,2.8,3.1s1,3,1,5v17.9c0,0.9,0.1,1.7,0.4,2.4
			c0.3,0.7,0.9,1,2,1c0.6,0,1.1-0.1,1.5-0.4c0.4-0.2,0.8-0.6,1.2-1l0.6,0.6C584,139.6,583.1,140.2,581.8,140.3z M570,121.8
			c-0.1,0.3-0.3,0.6-0.5,0.8c-0.3,0.3-0.7,0.6-1.4,0.9c-0.9,0.4-1.8,0.9-2.7,1.3c-0.9,0.4-1.7,0.9-2.4,1.5s-1.3,1.4-1.8,2.3
			c-0.5,0.9-0.7,2.1-0.7,3.5c0,0.6,0,1.2,0.1,2s0.3,1.5,0.6,2.2s0.8,1.3,1.4,1.8c0.6,0.5,1.5,0.8,2.6,0.8c0.6,0,1.2-0.1,1.8-0.4
			c0.6-0.3,1.1-0.7,1.6-1.3s0.9-1.4,1.2-2.4s0.4-2.2,0.4-3.6v-9.5H570L570,121.8L570,121.8z"/>
		<path class="st1" d="M601.8,87.8v50.9h4.8v1h-18.4v-1h4.8V88.8h-4.8v-1H601.8z"/>
		<path class="st1" d="M624.5,108.8v29.9h4.8v1h-18.4v-1h4.8v-28.9h-4.8v-1H624.5z M616.5,89.7c1-1,2.2-1.5,3.6-1.5
			c1.4,0,2.6,0.5,3.6,1.5s1.5,2.2,1.5,3.6c0,1.4-0.5,2.6-1.5,3.6s-2.2,1.5-3.6,1.5c-1.4,0-2.6-0.5-3.6-1.5s-1.5-2.2-1.5-3.6
			C615,91.9,615.5,90.7,616.5,89.7z"/>
		<path class="st1" d="M635.1,129.3c0.6,1.3,1.2,2.6,1.8,3.9c0.6,1.2,1.3,2.4,2.1,3.3c0.8,1,1.8,1.7,3,2.3s2.6,0.9,4.2,0.9
			c0.4,0,1,0,1.7-0.1c0.7,0,1.4-0.3,2.1-0.6c0.7-0.4,1.3-0.9,1.8-1.7s0.8-1.8,0.8-3.2c0-0.4-0.1-0.9-0.2-1.3
			c-0.1-0.5-0.4-0.9-0.8-1.4c-0.4-0.5-0.9-0.9-1.7-1.4c-0.7-0.5-1.8-0.9-3.1-1.4l-5.8-2.2c-0.7-0.2-1.4-0.6-2.2-1s-1.5-0.9-2.1-1.6
			c-0.6-0.7-1.2-1.5-1.6-2.4c-0.4-0.9-0.6-2.1-0.6-3.3c0-1.4,0.3-2.7,0.9-4s1.4-2.3,2.4-3.3c1-0.9,2.3-1.7,3.7-2.2
			c1.5-0.6,3.1-0.8,4.8-0.8c0.9,0,1.8,0.1,2.6,0.3s1.5,0.4,2.2,0.6c0.6,0.2,1.2,0.4,1.7,0.6c0.5,0.2,0.9,0.3,1.2,0.3
			c0.5,0,0.9-0.1,1-0.3s0.3-0.4,0.4-0.6h1v8.8h-0.9c-0.5-1.2-1-2.3-1.5-3.3c-0.5-1.1-1.1-2-1.8-2.8s-1.5-1.4-2.6-1.9
			c-1-0.5-2.3-0.7-3.7-0.7c-1.6,0-3,0.4-4.4,1.3c-1.3,0.8-2,2.1-2,3.7c0,0.3,0,0.7,0.1,1.2c0.1,0.4,0.3,0.9,0.6,1.3
			c0.3,0.5,0.9,0.9,1.6,1.4c0.7,0.5,1.7,0.9,2.9,1.3l6.1,2.1c2.6,0.9,4.6,2.1,5.9,3.6c1.3,1.5,2,3.4,2,5.7c0,1.6-0.3,3-1,4.3
			s-1.6,2.4-2.7,3.2c-1.1,0.9-2.4,1.6-3.9,2.1s-3,0.7-4.6,0.7c-0.9,0-1.8-0.1-2.8-0.3s-2-0.4-2.9-0.7s-1.8-0.5-2.6-0.7
			s-1.4-0.3-1.8-0.3c-0.4,0-0.7,0.1-0.8,0.2c-0.2,0.1-0.3,0.4-0.5,0.8h-1v-10.4H635.1z"/>
		<path class="st1" d="M671.1,100.2c0.7,0.2,1.5,0.3,2.2,0.3s1.5-0.1,2.2-0.3s1.5-0.4,2.2-0.7v9.3h8.4v1h-8.4v24.1
			c0,0.7,0,1.4,0.1,2s0.3,1.2,0.5,1.7c0.3,0.5,0.6,0.9,1.2,1.2c0.5,0.3,1.2,0.4,2,0.4c0.9,0,1.7-0.2,2.3-0.6
			c0.6-0.4,1.2-0.9,1.7-1.5s0.9-1.3,1.2-2.1s0.6-1.5,0.8-2.2l1.1,0.2c-0.3,1.6-0.8,2.9-1.5,3.9s-1.5,1.7-2.4,2.3
			c-0.9,0.5-1.8,0.9-2.8,1c-1,0.2-2,0.3-2.9,0.3c-2.5,0-4.4-0.3-5.8-0.9c-1.4-0.6-2.4-1.3-3-2.2s-1-1.8-1.1-2.8s-0.1-1.9-0.1-2.8
			v-22.2h-4.8v-1h4.8v-9.3C669.6,99.8,670.3,100.1,671.1,100.2z"/>
		<path class="st1" d="M692.4,129.3c0.6,1.3,1.2,2.6,1.8,3.9c0.6,1.2,1.3,2.4,2.1,3.3c0.8,1,1.8,1.7,3,2.3s2.6,0.9,4.2,0.9
			c0.4,0,1,0,1.7-0.1c0.7,0,1.4-0.3,2.1-0.6c0.7-0.4,1.3-0.9,1.8-1.7s0.8-1.8,0.8-3.2c0-0.4-0.1-0.9-0.2-1.3
			c-0.1-0.5-0.4-0.9-0.8-1.4c-0.4-0.5-0.9-0.9-1.7-1.4c-0.7-0.5-1.8-0.9-3.1-1.4l-5.8-2.2c-0.7-0.2-1.4-0.6-2.2-1s-1.5-0.9-2.1-1.6
			c-0.6-0.7-1.2-1.5-1.6-2.4c-0.4-0.9-0.6-2.1-0.6-3.3c0-1.4,0.3-2.7,0.9-4s1.4-2.3,2.4-3.3c1-0.9,2.3-1.7,3.7-2.2
			c1.5-0.6,3.1-0.8,4.8-0.8c0.9,0,1.8,0.1,2.6,0.3s1.5,0.4,2.2,0.6c0.6,0.2,1.2,0.4,1.7,0.6c0.5,0.2,0.9,0.3,1.2,0.3
			c0.5,0,0.9-0.1,1-0.3s0.3-0.4,0.4-0.6h1v8.8h-0.9c-0.5-1.2-1-2.3-1.5-3.3c-0.5-1.1-1.1-2-1.8-2.8s-1.5-1.4-2.6-1.9
			c-1-0.5-2.3-0.7-3.7-0.7c-1.6,0-3,0.4-4.4,1.3c-1.3,0.8-2,2.1-2,3.7c0,0.3,0,0.7,0.1,1.2c0.1,0.4,0.3,0.9,0.6,1.3
			c0.3,0.5,0.9,0.9,1.6,1.4c0.7,0.5,1.7,0.9,2.9,1.3l6.1,2.1c2.6,0.9,4.6,2.1,5.9,3.6c1.3,1.5,2,3.4,2,5.7c0,1.6-0.3,3-1,4.3
			s-1.6,2.4-2.7,3.2c-1.1,0.9-2.4,1.6-3.9,2.1s-3,0.7-4.6,0.7c-0.9,0-1.8-0.1-2.8-0.3s-2-0.4-2.9-0.7s-1.8-0.5-2.6-0.7
			s-1.4-0.3-1.8-0.3c-0.4,0-0.7,0.1-0.8,0.2c-0.2,0.1-0.3,0.4-0.5,0.8h-1v-10.4H692.4z"/>
	</g>
</g>
</svg>
