<?xml version="1.0" encoding="utf-8"?>
<!-- Generator: Adobe Illustrator 21.0.0, SVG Export Plug-In . SVG Version: 6.00 Build 0)  -->
<svg version="1.1" id="Layer_1" xmlns="http://www.w3.org/2000/svg" xmlns:xlink="http://www.w3.org/1999/xlink" x="0px" y="0px"
	 viewBox="0 0 200 200" style="enable-background:new 0 0 200 200;" xml:space="preserve">
<style type="text/css">
	.st0{fill:#FFFFFF;}
</style>
<g>
	<polygon class="st0" points="143.7,75.5 143.7,58.7 143.7,56.2 141.2,56.2 124.4,56.3 124.5,75.6 	"/>
	<path class="st0" d="M100,120c11,0,20-9,20-20c0-4.4-1.4-8.4-3.8-11.7c-3.6-5-9.6-8.3-16.2-8.3s-12.6,3.3-16.2,8.3
		C81.4,91.6,80,95.6,80,100C80,111,89,120,100,120z"/>
	<path class="st0" d="M100,9C49.7,9,9,49.7,9,100c0,50.3,40.7,91,91,91c50.3,0,91-40.7,91-91C191,49.7,150.3,9,100,9z M156.9,88.3
		v46.6c0,12.1-9.9,22-22,22H65.1c-12.1,0-22-9.9-22-22V88.3V65.1c0-12.1,9.9-22,22-22h69.8c12.1,0,22,9.9,22,22V88.3z"/>
	<path class="st0" d="M131.1,100c0,17.2-14,31.1-31.1,31.1s-31.1-14-31.1-31.1c0-4.1,0.8-8.1,2.3-11.7h-17v46.6
		c0,6,4.9,10.9,10.9,10.9h69.8c6,0,10.9-4.9,10.9-10.9V88.3h-17C130.3,91.9,131.1,95.9,131.1,100z"/>
</g>
</svg>
