<?xml version="1.0" encoding="utf-8"?>
<!-- Generator: Adobe Illustrator 21.1.0, SVG Export Plug-In . SVG Version: 6.00 Build 0)  -->
<svg version="1.1" id="Layer_1" xmlns="http://www.w3.org/2000/svg" xmlns:xlink="http://www.w3.org/1999/xlink" x="0px" y="0px"
	 viewBox="0 0 350.5 160.1" style="enable-background:new 0 0 350.5 160.1;" xml:space="preserve">
<style type="text/css">
	.st0{fill:#FFFFFF;}
</style>
<g>
	<path class="st0" d="M24.4,1.2v1h-6.6v49.2h11.9c1.6,0,3.2-0.3,4.8-0.8c1.6-0.5,3.1-1.4,4.5-2.6s2.7-2.8,3.8-4.8
		c1.1-1.9,2-4.3,2.6-7.1h0.9v16.3H0.7v-1h6.6V2.2H0.7v-1H24.4z"/>
	<path class="st0" d="M61.6,37.6c0,1.7,0.1,3.5,0.2,5.2c0.1,1.8,0.5,3.3,1.2,4.8c0.6,1.4,1.5,2.6,2.7,3.5s2.9,1.4,5,1.4
		c1.9,0,3.5-0.4,4.9-1.1c1.3-0.7,2.4-1.5,3.2-2.5c0.8-0.9,1.5-1.9,1.9-2.8s0.6-1.6,0.7-2l1,0.4c-0.2,0.9-0.6,1.9-1.2,2.9
		s-1.4,2-2.4,2.9s-2.3,1.6-3.7,2.2c-1.5,0.6-3.3,0.9-5.4,0.9c-2.5,0-4.8-0.4-7-1.1s-4-1.8-5.7-3.2c-1.6-1.4-2.9-3.1-3.8-5.2
		c-0.9-2-1.4-4.4-1.4-6.9c0-2.1,0.4-4.1,1.3-6c0.9-2,2.1-3.7,3.6-5.2s3.3-2.7,5.3-3.7c2-0.9,4.2-1.4,6.6-1.4c1.7,0,3.4,0.3,5,0.8
		c1.7,0.5,3.2,1.3,4.5,2.4s2.4,2.5,3.3,4.3s1.3,3.9,1.3,6.3H61.5v3.1H61.6z M73.1,28.5c0-0.5,0-1.2-0.1-1.9c0-0.8-0.2-1.5-0.5-2.3
		s-0.8-1.4-1.4-1.9s-1.5-0.8-2.7-0.8c-1.6,0-2.9,0.4-3.8,1.2c-0.9,0.8-1.5,1.7-2,2.9c-0.4,1.2-0.7,2.4-0.8,3.8
		c-0.1,1.4-0.2,2.7-0.3,3.9H73L73.1,28.5L73.1,28.5z"/>
	<path class="st0" d="M94.8,13c0.7,0.2,1.5,0.3,2.2,0.3s1.5-0.1,2.2-0.3c0.7-0.2,1.5-0.4,2.2-0.7v9.3h8.4v1h-8.4v24.1
		c0,0.7,0,1.4,0.1,2s0.3,1.2,0.5,1.7c0.3,0.5,0.6,0.9,1.2,1.2c0.5,0.3,1.2,0.4,2,0.4c0.9,0,1.7-0.2,2.3-0.6c0.6-0.4,1.2-0.9,1.7-1.5
		s0.9-1.3,1.2-2.1c0.3-0.8,0.6-1.5,0.8-2.2l1.1,0.2c-0.3,1.6-0.8,2.9-1.5,3.9s-1.5,1.7-2.4,2.3c-0.9,0.5-1.8,0.9-2.8,1
		c-1,0.2-2,0.3-2.9,0.3c-2.5,0-4.4-0.3-5.8-0.9s-2.4-1.3-3-2.2c-0.6-0.9-1-1.8-1.1-2.8s-0.1-1.9-0.1-2.8V22.4h-4.8v-1h4.8v-9.3
		C93.4,12.5,94.1,12.8,94.8,13z"/>
	<path class="st0" d="M123,17.1c1.4-1.4,2.1-2.9,2.1-4.6c0-0.8-0.1-1.4-0.4-1.9c-0.2-0.5-0.5-0.8-0.7-1.1c-0.4,0.3-0.9,0.5-1.4,0.6
		s-1.1,0.1-1.6,0.1s-1-0.1-1.6-0.3c-0.6-0.2-1.1-0.5-1.6-0.9s-0.9-0.9-1.2-1.6c-0.3-0.6-0.5-1.4-0.5-2.3s0.2-1.7,0.5-2.3
		c0.3-0.6,0.8-1.2,1.3-1.6s1.1-0.7,1.8-0.9c0.6-0.2,1.3-0.3,1.9-0.3c1.8,0,3.4,0.7,4.7,2.2c1.3,1.5,1.9,3.6,1.9,6.3
		c0,1.9-0.3,3.5-1,5c-0.7,1.4-1.5,2.7-2.6,3.9c-1,1.1-2.1,2.1-3.3,3c-1.2,0.8-2.3,1.6-3.3,2.2l-0.5-0.9
		C119.7,20,121.6,18.5,123,17.1z"/>
	<path class="st0" d="M136.2,42c0.6,1.3,1.2,2.6,1.8,3.9c0.6,1.2,1.3,2.4,2.1,3.3c0.8,1,1.8,1.7,3,2.3c1.2,0.6,2.6,0.9,4.2,0.9
		c0.4,0,1,0,1.7-0.1c0.7,0,1.4-0.3,2.1-0.6c0.7-0.4,1.3-0.9,1.8-1.7c0.5-0.7,0.8-1.8,0.8-3.2c0-0.4-0.1-0.9-0.2-1.3
		c-0.1-0.5-0.4-0.9-0.8-1.4s-0.9-0.9-1.7-1.4c-0.7-0.5-1.8-0.9-3.1-1.4l-5.8-2.2c-0.7-0.2-1.4-0.6-2.2-1c-0.8-0.4-1.5-0.9-2.1-1.6
		s-1.2-1.5-1.6-2.4s-0.6-2.1-0.6-3.3c0-1.4,0.3-2.7,0.9-4c0.6-1.2,1.4-2.3,2.4-3.3c1-0.9,2.3-1.7,3.7-2.2c1.5-0.6,3.1-0.8,4.8-0.8
		c0.9,0,1.8,0.1,2.6,0.3c0.8,0.2,1.5,0.4,2.2,0.6c0.6,0.2,1.2,0.4,1.7,0.6s0.9,0.3,1.2,0.3c0.5,0,0.9-0.1,1-0.3
		c0.1-0.2,0.3-0.4,0.4-0.6h1v8.8h-0.9c-0.5-1.2-1-2.3-1.5-3.3c-0.5-1.1-1.1-2-1.8-2.8c-0.7-0.8-1.5-1.4-2.6-1.9
		c-1-0.5-2.3-0.7-3.7-0.7c-1.6,0-3,0.4-4.4,1.3c-1.3,0.8-2,2.1-2,3.7c0,0.3,0,0.7,0.1,1.2c0.1,0.4,0.3,0.9,0.6,1.3
		c0.3,0.5,0.9,0.9,1.6,1.4s1.7,0.9,2.9,1.3l6.1,2.1c2.6,0.9,4.6,2.1,5.9,3.6s2,3.4,2,5.7c0,1.6-0.3,3-1,4.3s-1.6,2.4-2.7,3.2
		c-1.1,0.9-2.4,1.6-3.9,2.1s-3,0.7-4.6,0.7c-0.9,0-1.8-0.1-2.8-0.3c-1-0.2-2-0.4-2.9-0.7s-1.8-0.5-2.6-0.7c-0.8-0.2-1.4-0.3-1.8-0.3
		s-0.7,0.1-0.8,0.2c-0.2,0.1-0.3,0.4-0.5,0.8h-1V42H136.2z"/>
	<path class="st0" d="M182.4,22.5v-1h18.3v1H196l7.4,18.7l5.7-15.3l-1.4-3.4H204v-1h18v1h-4.8l7.4,18.7l6.9-18.7h-5v-1h9.7v1h-3.5
		l-11.8,31.8h-0.5l-10.7-26.9l-10,26.9h-0.5l-12.5-31.8L182.4,22.5L182.4,22.5z"/>
	<path class="st0" d="M263,21.9c2.1,0.9,4,2.1,5.6,3.6s2.8,3.2,3.7,5.2s1.3,4.1,1.3,6.3c0,2.3-0.4,4.4-1.3,6.4
		c-0.9,2-2.1,3.7-3.7,5.2c-1.6,1.5-3.4,2.7-5.6,3.5c-2.1,0.9-4.5,1.3-6.9,1.3c-2.5,0-4.8-0.4-6.9-1.3c-2.1-0.9-4-2-5.6-3.5
		s-2.8-3.2-3.7-5.2s-1.3-4.1-1.3-6.4c0-2.2,0.4-4.3,1.3-6.3c0.9-2,2.1-3.7,3.7-5.2c1.6-1.5,3.4-2.7,5.6-3.6c2.1-0.9,4.5-1.3,6.9-1.3
		C258.6,20.5,260.9,21,263,21.9z M260.5,51.1c1.1-0.9,1.8-2.1,2.3-3.5s0.8-3.1,0.9-5c0.1-1.9,0.2-3.8,0.2-5.7c0-1.9-0.1-3.8-0.2-5.7
		c-0.1-1.8-0.4-3.5-0.9-4.9s-1.3-2.6-2.3-3.5c-1.1-0.9-2.5-1.3-4.4-1.3s-3.3,0.4-4.4,1.3c-1.1,0.9-1.8,2.1-2.3,3.5s-0.8,3.1-0.9,4.9
		c-0.1,1.8-0.2,3.7-0.2,5.7c0,1.9,0.1,3.8,0.2,5.7c0.1,1.9,0.4,3.5,0.9,5c0.5,1.4,1.3,2.6,2.3,3.5c1.1,0.9,2.5,1.3,4.4,1.3
		S259.4,52,260.5,51.1z"/>
	<path class="st0" d="M292.4,21.5v6h0.1c0.9-1.8,2-3.4,3.5-4.7c1.5-1.3,3.4-2,5.8-2c2,0,3.6,0.5,4.9,1.6c1.2,1.1,1.9,2.6,1.9,4.5
		c0,1.4-0.3,2.6-1,3.4s-1.8,1.2-3.3,1.2c-1.1,0-2.1-0.2-3-0.7s-1.4-1.3-1.4-2.6c0-0.1,0-0.4,0.1-0.8c0-0.4,0.1-0.7,0.2-1.2
		c0.1-0.4,0.1-0.8,0.2-1.1c0-0.3,0.1-0.5,0.1-0.6c0-0.4-0.1-0.7-0.2-0.9c-0.1-0.2-0.3-0.4-0.5-0.6s-0.5-0.3-1-0.3s-1.1,0.2-1.8,0.7
		s-1.4,1.1-2,2s-1.2,1.9-1.6,3.1c-0.5,1.2-0.7,2.6-0.7,4.1V51h5.7v1h-19.2v-1h4.7V22.1h-4.7v-1h13.2V21.5z"/>
	<path class="st0" d="M324.1,0.5v34.3h0.4l13.4-12.3h-5.3v-1h11.3v1h-4.6l-8.1,7.6l16.5,21.2h2.8v1h-19.1v-1h5.2l-12.2-15.6H324
		v15.6h4.5v1h-18v-1h4.8V1.4h-4.8v-1L324.1,0.5L324.1,0.5z"/>
	<path class="st0" d="M6.9,99.4c0.7,0.2,1.5,0.3,2.2,0.3s1.5-0.1,2.2-0.3s1.5-0.4,2.2-0.7v9.3h8.4v1h-8.4v24.1c0,0.7,0,1.4,0.1,2
		s0.3,1.2,0.5,1.7c0.3,0.5,0.6,0.9,1.2,1.2c0.5,0.3,1.2,0.4,2,0.4c0.9,0,1.7-0.2,2.3-0.6c0.6-0.4,1.2-0.9,1.7-1.5s0.9-1.3,1.2-2.1
		c0.3-0.8,0.6-1.5,0.8-2.2l1.1,0.2c-0.3,1.6-0.8,2.9-1.5,3.9s-1.5,1.7-2.4,2.3c-0.9,0.5-1.8,0.9-2.8,1c-1,0.2-2,0.3-2.9,0.3
		c-2.5,0-4.4-0.3-5.8-0.9c-1.4-0.6-2.4-1.3-3-2.2s-1-1.8-1.1-2.8s-0.1-1.9-0.1-2.8v-22.2H0v-1h4.8v-9.3C5.4,98.9,6.1,99.2,6.9,99.4z
		"/>
	<path class="st0" d="M51,108.3c2.1,0.9,4,2.1,5.6,3.6s2.8,3.2,3.7,5.2c0.9,2,1.3,4.1,1.3,6.3c0,2.3-0.4,4.4-1.3,6.4
		s-2.1,3.7-3.7,5.2s-3.4,2.7-5.6,3.5c-2.1,0.9-4.5,1.3-6.9,1.3c-2.5,0-4.8-0.4-6.9-1.3c-2.1-0.9-4-2-5.6-3.5s-2.8-3.2-3.7-5.2
		c-0.9-2-1.3-4.1-1.3-6.4c0-2.2,0.4-4.3,1.3-6.3s2.1-3.7,3.7-5.2s3.4-2.7,5.6-3.6c2.1-0.9,4.5-1.3,6.9-1.3
		C46.5,106.9,48.9,107.4,51,108.3z M48.4,137.5c1.1-0.9,1.8-2.1,2.3-3.5s0.8-3.1,0.9-5s0.2-3.8,0.2-5.7s-0.1-3.8-0.2-5.7
		c-0.1-1.8-0.4-3.5-0.9-4.9s-1.3-2.6-2.3-3.5c-1.1-0.9-2.5-1.3-4.4-1.3s-3.3,0.4-4.4,1.3c-1.1,0.9-1.8,2.1-2.3,3.5s-0.8,3.1-0.9,4.9
		c-0.1,1.8-0.2,3.7-0.2,5.7c0,1.9,0.1,3.8,0.2,5.7s0.4,3.5,0.9,5c0.5,1.4,1.3,2.6,2.3,3.5c1.1,0.9,2.5,1.3,4.4,1.3
		S47.4,138.4,48.4,137.5z"/>
	<path class="st0" d="M89.9,134.3c1.7,0.4,3.1,1,4.4,1.8c1.2,0.9,2.3,2,3,3.5c0.8,1.5,1.2,3.3,1.2,5.5c0,1.9-0.4,3.7-1.2,5.5
		c-0.8,1.8-1.9,3.4-3.4,4.8c-1.5,1.4-3.3,2.5-5.4,3.4s-4.5,1.3-7.2,1.3c-3,0-5.4-0.3-7.2-1c-1.8-0.7-3.2-1.5-4.1-2.4
		c-1-0.9-1.6-1.9-1.9-2.9s-0.4-1.8-0.4-2.5c0-1.3,0.3-2.4,0.9-3.5c0.6-1,1.3-1.9,2.3-2.6c0.9-0.7,2-1.4,3.1-1.9s2.2-0.9,3.3-1.2V142
		c-1,0-2.1-0.1-3.3-0.4c-1.2-0.2-2.4-0.6-3.4-1.2c-1.1-0.6-1.9-1.4-2.7-2.4c-0.7-1-1.1-2.3-1.1-3.7c0-0.2,0.1-0.7,0.2-1.3
		s0.4-1.4,0.8-2.2s1.1-1.7,2-2.6c0.9-0.9,2.1-1.8,3.6-2.6c-0.4-0.3-0.9-0.7-1.4-1.2s-1-1-1.5-1.6s-0.8-1.3-1.2-2.1
		c-0.3-0.8-0.5-1.7-0.5-2.8c0-1.5,0.3-2.9,1-4.2c0.6-1.3,1.6-2.5,2.8-3.5c1.2-1,2.7-1.8,4.4-2.3c1.8-0.6,3.7-0.9,5.9-0.9
		s4,0.3,5.6,1s2.9,1.4,4,2.3c1.2-1.1,2.3-1.9,3.2-2.5c1-0.6,2.2-0.8,3.8-0.8c1.4,0,2.4,0.3,3.1,1s1,1.6,1,2.7c0,1-0.3,1.7-0.9,2.3
		s-1.3,0.8-2.3,0.8c-0.7,0-1.2-0.1-1.6-0.3s-0.7-0.4-0.9-0.7c-0.2-0.3-0.4-0.6-0.4-0.9c-0.1-0.3-0.1-0.6-0.2-0.8
		c-0.1-0.7-0.2-1.2-0.3-1.5c-0.1-0.3-0.4-0.5-0.9-0.5c-0.3,0-0.6,0.1-1,0.3s-1.1,0.7-2,1.3c0.6,0.6,1.2,1.5,1.9,2.5
		c0.7,1,1,2.5,1,4.5c0,1.2-0.2,2.4-0.7,3.6c-0.5,1.2-1.2,2.2-2.2,3.2s-2.4,1.7-4,2.3s-3.6,0.9-6,0.9c-1.9,0-3.6-0.2-5.1-0.6
		c-1.5-0.4-2.7-0.8-3.7-1.2c-1.4,0.9-2.2,1.7-2.4,2.3c-0.2,0.6-0.4,1.2-0.4,1.8c0,1.2,0.5,2.1,1.4,2.7c1,0.6,2.3,0.9,3.9,0.9h7.9
		C86.5,133.7,88.2,133.9,89.9,134.3z M74.5,152.9c0.2,1,0.7,2,1.4,2.8c0.7,0.9,1.6,1.6,2.7,2.2c1.2,0.6,2.6,0.9,4.5,0.9
		c1.4,0,2.7-0.2,4-0.7c1.2-0.5,2.3-1.2,3.3-2s1.7-1.9,2.3-3.1c0.6-1.2,0.9-2.5,0.9-4s-0.2-2.6-0.7-3.5s-1.1-1.6-1.8-2.1
		c-0.7-0.5-1.5-0.9-2.4-1.1c-0.9-0.2-1.7-0.3-2.4-0.3h-7.5c-1.4,1.2-2.6,2.3-3.3,3.5s-1.2,2.7-1.2,4.6
		C74.1,150.9,74.3,151.9,74.5,152.9z M84.8,126.5c0.7-0.2,1.2-0.6,1.7-1.3c0.5-0.6,0.9-1.6,1.1-2.8c0.3-1.2,0.4-2.8,0.4-4.8
		c0-1.4,0-2.7-0.1-3.9s-0.3-2.2-0.7-3.1c-0.4-0.9-0.9-1.5-1.7-2c-0.7-0.5-1.7-0.7-3-0.7c-1.2,0-2.2,0.3-3,0.8s-1.4,1.2-1.8,2
		s-0.7,1.8-0.8,2.8c-0.1,1.1-0.2,2.1-0.2,3.2c0,2.3,0.1,4.1,0.4,5.4c0.3,1.3,0.7,2.4,1.2,3.1c0.5,0.7,1.1,1.1,1.8,1.3
		c0.7,0.2,1.5,0.3,2.3,0.3C83.4,126.8,84.1,126.7,84.8,126.5z"/>
	<path class="st0" d="M115,124c0,1.7,0.1,3.5,0.2,5.2c0.1,1.8,0.5,3.3,1.2,4.8c0.6,1.4,1.5,2.6,2.7,3.5s2.9,1.4,5,1.4
		c1.9,0,3.5-0.4,4.9-1.1c1.3-0.7,2.4-1.5,3.2-2.5c0.8-0.9,1.5-1.9,1.9-2.8c0.4-0.9,0.6-1.6,0.7-2l1,0.4c-0.2,0.9-0.6,1.9-1.2,2.9
		s-1.4,2-2.4,2.9s-2.3,1.6-3.7,2.2c-1.5,0.6-3.3,0.9-5.4,0.9c-2.5,0-4.8-0.4-7-1.1c-2.2-0.7-4-1.8-5.7-3.2c-1.6-1.4-2.9-3.1-3.8-5.2
		c-0.9-2-1.4-4.4-1.4-6.9c0-2.1,0.4-4.1,1.3-6c0.9-2,2.1-3.7,3.6-5.2s3.3-2.7,5.3-3.7c2-0.9,4.2-1.4,6.6-1.4c1.7,0,3.4,0.3,5,0.8
		c1.7,0.5,3.2,1.3,4.5,2.4c1.3,1.1,2.4,2.5,3.3,4.3s1.3,3.9,1.3,6.3h-21.2v3.1H115z M126.5,114.9c0-0.5,0-1.2-0.1-1.9
		c0-0.8-0.2-1.5-0.5-2.3s-0.8-1.4-1.4-1.9s-1.5-0.8-2.7-0.8c-1.6,0-2.9,0.4-3.8,1.2s-1.5,1.7-2,2.9c-0.4,1.2-0.7,2.4-0.8,3.8
		c-0.1,1.4-0.2,2.7-0.3,3.9h11.5L126.5,114.9L126.5,114.9z"/>
	<path class="st0" d="M148.2,99.4c0.7,0.2,1.5,0.3,2.2,0.3s1.5-0.1,2.2-0.3s1.5-0.4,2.2-0.7v9.3h8.4v1h-8.4v24.1c0,0.7,0,1.4,0.1,2
		s0.3,1.2,0.5,1.7c0.3,0.5,0.6,0.9,1.2,1.2c0.5,0.3,1.2,0.4,2,0.4c0.9,0,1.7-0.2,2.3-0.6c0.6-0.4,1.2-0.9,1.7-1.5s0.9-1.3,1.2-2.1
		c0.3-0.8,0.6-1.5,0.8-2.2l1.1,0.2c-0.3,1.6-0.8,2.9-1.5,3.9s-1.5,1.7-2.4,2.3c-0.9,0.5-1.8,0.9-2.8,1c-1,0.2-2,0.3-2.9,0.3
		c-2.5,0-4.4-0.3-5.8-0.9c-1.4-0.6-2.4-1.3-3-2.2s-1-1.8-1.1-2.8s-0.1-1.9-0.1-2.8v-22.2h-4.9v-1h4.8v-9.3
		C146.7,98.9,147.5,99.2,148.2,99.4z"/>
	<path class="st0" d="M172.8,137.8V87.9H168v-1h13.5v27.9h0.1c0.2-0.4,0.5-1.1,1-1.9c0.5-0.8,1.1-1.7,2.1-2.5
		c0.9-0.8,2.1-1.6,3.5-2.2c1.4-0.6,3.2-0.9,5.4-0.9c3.2,0,5.6,0.9,7.4,2.7c1.8,1.8,2.6,4.3,2.6,7.5v20.3h4.8v1h-18.1v-1h4.5V115
		c0-2-0.4-3.5-1.2-4.4s-1.9-1.4-3.3-1.4c-1.2,0-2.3,0.3-3.3,0.8c-1.1,0.6-2,1.4-2.8,2.5s-1.4,2.5-1.9,4.1s-0.7,3.6-0.7,5.8v15.4h4.5
		v1H168v-1L172.8,137.8L172.8,137.8z"/>
	<path class="st0" d="M223,124c0,1.7,0.1,3.5,0.2,5.2c0.1,1.8,0.5,3.3,1.2,4.8c0.6,1.4,1.5,2.6,2.7,3.5s2.9,1.4,5,1.4
		c1.9,0,3.5-0.4,4.9-1.1c1.3-0.7,2.4-1.5,3.2-2.5c0.8-0.9,1.5-1.9,1.9-2.8c0.4-0.9,0.6-1.6,0.7-2l1,0.4c-0.2,0.9-0.6,1.9-1.2,2.9
		c-0.6,1-1.4,2-2.4,2.9s-2.3,1.6-3.7,2.2c-1.5,0.6-3.3,0.9-5.4,0.9c-2.5,0-4.8-0.4-7-1.1c-2.2-0.7-4-1.8-5.7-3.2
		c-1.6-1.4-2.9-3.1-3.8-5.2c-0.9-2-1.4-4.4-1.4-6.9c0-2.1,0.4-4.1,1.3-6c0.9-2,2.1-3.7,3.6-5.2s3.3-2.7,5.3-3.7
		c2-0.9,4.2-1.4,6.6-1.4c1.7,0,3.4,0.3,5,0.8c1.7,0.5,3.2,1.3,4.5,2.4c1.3,1.1,2.4,2.5,3.3,4.3c0.9,1.8,1.3,3.9,1.3,6.3h-21.2v3.1
		H223z M234.5,114.9c0-0.5,0-1.2-0.1-1.9c0-0.8-0.2-1.5-0.5-2.3s-0.8-1.4-1.4-1.9c-0.6-0.5-1.5-0.8-2.7-0.8c-1.6,0-2.9,0.4-3.8,1.2
		c-0.9,0.8-1.5,1.7-2,2.9c-0.4,1.2-0.7,2.4-0.8,3.8c-0.1,1.4-0.2,2.7-0.3,3.9h11.5L234.5,114.9L234.5,114.9z"/>
	<path class="st0" d="M263,107.9v6h0.1c0.9-1.8,2-3.4,3.5-4.7s3.4-2,5.8-2c2,0,3.6,0.5,4.9,1.6c1.2,1.1,1.9,2.6,1.9,4.5
		c0,1.4-0.3,2.6-1,3.4c-0.7,0.8-1.8,1.2-3.3,1.2c-1.1,0-2.1-0.2-3-0.7s-1.4-1.3-1.4-2.6c0-0.1,0-0.4,0.1-0.8c0-0.4,0.1-0.7,0.2-1.2
		c0.1-0.4,0.1-0.8,0.2-1.1c0-0.3,0.1-0.5,0.1-0.6c0-0.4-0.1-0.7-0.2-0.9c-0.1-0.2-0.3-0.4-0.5-0.6c-0.2-0.2-0.5-0.3-1-0.3
		s-1.1,0.2-1.8,0.7s-1.4,1.1-2,2s-1.2,1.9-1.6,3.1c-0.5,1.2-0.7,2.6-0.7,4.1v18.4h5.7v1h-19.2v-1h4.7v-28.9h-4.7v-1H263V107.9z"/>
</g>
</svg>
