<?xml version="1.0" encoding="utf-8"?>
<!-- Generator: Adobe Illustrator 22.1.0, SVG Export Plug-In . SVG Version: 6.00 Build 0)  -->
<svg version="1.1" id="Layer_1" xmlns="http://www.w3.org/2000/svg" xmlns:xlink="http://www.w3.org/1999/xlink" x="0px" y="0px"
	 viewBox="0 0 723.5 74" style="enable-background:new 0 0 723.5 74;" xml:space="preserve">
<style type="text/css">
	.st0{fill:#FFFFFF;}
</style>
<g>
	<path class="st0" d="M25.7,1.4L43,51.2h0.2L60.8,1.4h25v1.4h-9.2v68.4h9.2v1.4H53v-1.4h9.1V2.9h-0.2L37.3,72.7h-1.6L11,2.9h-0.2
		v68.4H20v1.4H0v-1.4h9.2V2.9H0V1.5h25.7V1.4z"/>
	<path class="st0" d="M135.9,73.5c-1.8,0.3-3.4,0.4-4.9,0.4c-3.4,0-5.9-0.6-7.6-1.8c-1.6-1.2-2.6-2.9-3-5h-0.2
		c-1.1,2.7-2.5,4.5-4.4,5.4s-4.6,1.4-8.1,1.4c-1.6,0-3.2-0.2-4.9-0.5s-3.2-0.9-4.6-1.6c-1.4-0.7-2.5-1.8-3.4-3.1s-1.3-2.9-1.3-4.8
		c0-1.9,0.4-3.5,1.1-4.9c0.8-1.3,1.8-2.4,3-3.3c1.2-0.9,2.6-1.6,4.2-2.2c1.6-0.6,3.2-1.1,4.9-1.6c2.7-0.8,5-1.5,6.6-2
		c1.7-0.6,3-1.2,4-1.8c0.9-0.6,1.6-1.3,2-2.1c0.4-0.8,0.5-1.8,0.5-3.1v-6c0-1.8-0.4-3.4-1.3-4.9s-2.5-2.2-4.9-2.2
		c-1.5,0-2.9,0.4-4,1c-1.1,0.7-1.7,2-1.7,3.9c0,0.2,0,0.5,0.1,1s0.1,1.1,0.2,1.7c0.1,0.6,0.1,1.2,0.2,1.7c0.1,0.5,0.1,0.9,0.1,1.1
		c0,1-0.2,1.8-0.7,2.4s-1,1-1.6,1.2c-0.6,0.3-1.3,0.4-2,0.4s-1.3,0.1-1.8,0.1c-0.7,0-1.4-0.1-2.1-0.1c-0.7-0.1-1.3-0.3-1.8-0.7
		c-0.5-0.4-1-0.9-1.4-1.5c-0.4-0.7-0.6-1.6-0.6-2.7c0-1.7,0.5-3.3,1.5-4.6c1-1.4,2.2-2.5,3.9-3.4c1.6-0.9,3.4-1.6,5.4-2.1
		s4.2-0.7,6.4-0.7c2.5,0,4.9,0.2,7.1,0.6s4.2,1.1,5.8,2.2c1.6,1.1,2.9,2.5,3.9,4.4c1,1.8,1.5,4.1,1.5,6.9v24.8
		c0,1.3,0.2,2.4,0.5,3.4c0.4,1,1.3,1.4,2.8,1.4c0.9,0,1.6-0.2,2.1-0.5c0.6-0.3,1.1-0.8,1.6-1.4l0.9,0.9
		C139,72.4,137.6,73.3,135.9,73.5z M119.5,47.9c-0.1,0.4-0.4,0.8-0.8,1.1c-0.4,0.4-1,0.8-1.9,1.2c-1.3,0.6-2.5,1.2-3.8,1.8
		s-2.4,1.3-3.4,2.1c-1,0.9-1.8,1.9-2.4,3.2c-0.6,1.3-1,2.9-1,4.9c0,0.8,0,1.7,0.1,2.8s0.4,2.1,0.8,3.1c0.4,1,1.1,1.9,1.9,2.5
		c0.9,0.7,2.1,1.1,3.6,1.1c0.9,0,1.7-0.2,2.5-0.6c0.8-0.4,1.6-1,2.2-1.9c0.7-0.8,1.2-1.9,1.6-3.3c0.4-1.4,0.6-3,0.6-5L119.5,47.9
		L119.5,47.9z"/>
	<path class="st0" d="M197.3,71.3v1.4h-18.6v-7.4h-0.2c-1.1,2.8-2.5,4.9-4.4,6.4s-4.4,2.2-7.4,2.2c-3.3,0-6.2-0.6-8.9-1.9
		c-2.7-1.3-5-2.9-6.9-5s-3.4-4.5-4.5-7.2s-1.6-5.6-1.6-8.6c0-2.3,0.4-4.8,1.2-7.5c0.8-2.7,2.1-5.1,3.9-7.4s4-4.1,6.8-5.6
		c2.7-1.5,6-2.2,9.9-2.2c3,0,5.4,0.7,7.3,2.1s3.3,3.5,4.3,6.3h0.2v-35h-6.7V0.5h19v70.7h6.6V71.3z M178.2,44.1
		c-0.2-2.5-0.7-4.9-1.4-7c-0.7-2.1-1.8-3.9-3.3-5.3s-3.4-2.1-5.9-2.1c-1.7,0-3.1,0.4-4.2,1.1c-1.2,0.7-2.1,1.9-2.9,3.6
		c-0.7,1.7-1.2,3.9-1.5,6.7c-0.3,2.8-0.5,6.1-0.5,10.1c0,3.3,0.1,6.2,0.2,8.9c0.2,2.6,0.5,4.9,1.1,6.8c0.6,1.9,1.4,3.3,2.5,4.3
		s2.6,1.5,4.5,1.5c2.8,0,5-0.7,6.5-2.1c1.6-1.4,2.8-3.2,3.6-5.4c0.8-2.2,1.3-4.5,1.4-7c0.2-2.5,0.2-4.8,0.2-6.9
		C178.5,49,178.4,46.7,178.2,44.1z"/>
	<path class="st0" d="M223,29.8v8.4h0.2c1.2-2.5,2.8-4.7,4.9-6.5c2-1.8,4.7-2.8,8.1-2.8c2.8,0,5.1,0.8,6.8,2.2
		c1.7,1.5,2.6,3.6,2.6,6.2c0,2-0.5,3.6-1.5,4.7s-2.5,1.7-4.6,1.7c-1.5,0-2.9-0.3-4.2-1c-1.3-0.6-1.9-1.8-1.9-3.5
		c0-0.2,0-0.6,0.1-1.1s0.1-1,0.2-1.6s0.2-1.1,0.2-1.6c0.1-0.5,0.1-0.7,0.1-0.8c-0.1-0.5-0.2-1-0.3-1.2c-0.1-0.3-0.3-0.6-0.6-0.8
		c-0.3-0.2-0.8-0.3-1.4-0.3c-0.7,0-1.5,0.3-2.5,0.9s-1.9,1.6-2.8,2.8c-0.9,1.2-1.6,2.6-2.2,4.4c-0.6,1.7-1,3.6-1,5.8v25.6h7.9v1.4
		h-26.6v-1.4h6.5V31.2h-6.5v-1.4L223,29.8L223,29.8z"/>
	<path class="st0" d="M267.3,29.8v41.5h6.7v1.4h-25.6v-1.4h6.7V31.2h-6.7v-1.4L267.3,29.8L267.3,29.8z M256.2,3.3
		c1.4-1.4,3.1-2.1,5-2.1c1.9,0,3.6,0.7,5,2.1c1.4,1.4,2.1,3.1,2.1,5s-0.7,3.6-2.1,5c-1.4,1.4-3.1,2.1-5,2.1c-1.9,0-3.6-0.7-5-2.1
		c-1.4-1.4-2.1-3.1-2.1-5C254.1,6.3,254.8,4.7,256.2,3.3z"/>
	<path class="st0" d="M332.5,71.3v1.4h-18.6v-7.4h-0.2c-1.1,2.8-2.5,4.9-4.4,6.4c-1.9,1.5-4.4,2.2-7.4,2.2c-3.3,0-6.2-0.6-8.9-1.9
		c-2.7-1.3-5-2.9-6.9-5c-1.9-2.1-3.4-4.5-4.5-7.2c-1.1-2.7-1.6-5.6-1.6-8.6c0-2.3,0.4-4.8,1.2-7.5s2.1-5.1,3.9-7.4s4-4.1,6.8-5.6
		c2.7-1.5,6-2.2,9.9-2.2c3,0,5.4,0.7,7.3,2.1c1.9,1.4,3.3,3.5,4.3,6.3h0.2v-35h-6.8V0.5h19v70.7h6.7V71.3z M313.4,44.1
		c-0.2-2.5-0.7-4.9-1.4-7s-1.8-3.9-3.3-5.3s-3.4-2.1-5.9-2.1c-1.7,0-3.1,0.4-4.2,1.1c-1.2,0.7-2.1,1.9-2.9,3.6
		c-0.7,1.7-1.2,3.9-1.5,6.7c-0.3,2.8-0.5,6.1-0.5,10.1c0,3.3,0.1,6.2,0.2,8.9c0.2,2.6,0.5,4.9,1.1,6.8c0.6,1.9,1.4,3.3,2.5,4.3
		c1.1,1,2.6,1.5,4.5,1.5c2.8,0,5-0.7,6.5-2.1c1.6-1.4,2.8-3.2,3.6-5.4s1.3-4.5,1.4-7c0.2-2.5,0.2-4.8,0.2-6.9
		C313.7,49,313.6,46.7,313.4,44.1z"/>
	<path class="st0" d="M390.4,1.4L423.7,49h0.2V2.9h-9.2V1.5h20v1.4h-9.2v69.8h-2.7l-45-64.1h-0.2v62.7h9.2v1.4h-20v-1.4h9.2V2.9
		h-9.2V1.5h23.6V1.4z"/>
	<path class="st0" d="M474.9,30.2c3,1.2,5.5,2.9,7.8,5c2.2,2.1,3.9,4.5,5.1,7.2c1.2,2.8,1.9,5.7,1.9,8.8s-0.6,6.1-1.9,8.9
		c-1.2,2.8-3,5.2-5.1,7.2c-2.2,2.1-4.8,3.7-7.8,4.9s-6.2,1.8-9.7,1.8s-6.7-0.6-9.6-1.8c-3-1.2-5.5-2.8-7.8-4.9
		c-2.2-2.1-3.9-4.5-5.1-7.2c-1.2-2.8-1.9-5.7-1.9-8.9c0-3.1,0.6-6,1.9-8.8c1.2-2.8,3-5.2,5.1-7.2c2.2-2.1,4.8-3.7,7.8-5
		c3-1.2,6.2-1.8,9.6-1.8C468.8,28.4,472,29,474.9,30.2z M471.4,70.8c1.5-1.2,2.6-2.9,3.2-4.9c0.7-2,1.1-4.3,1.3-6.9
		c0.2-2.6,0.2-5.2,0.2-7.9s-0.1-5.3-0.2-7.9c-0.2-2.6-0.6-4.9-1.3-6.9s-1.8-3.6-3.2-4.8c-1.5-1.2-3.5-1.9-6.1-1.9s-4.6,0.6-6.1,1.9
		c-1.5,1.2-2.6,2.8-3.2,4.8c-0.7,2-1.1,4.3-1.3,6.9s-0.2,5.2-0.2,7.9c0,2.7,0.1,5.3,0.2,7.9c0.2,2.6,0.6,4.9,1.3,6.9
		s1.8,3.6,3.2,4.9c1.5,1.2,3.5,1.9,6.1,1.9C467.9,72.7,469.9,72,471.4,70.8z"/>
	<path class="st0" d="M506.2,17.9c1,0.3,2.1,0.4,3.1,0.4s2-0.1,3-0.4s2-0.6,3-1v12.9H527v1.4h-11.7v33.5c0,1,0.1,1.9,0.2,2.8
		c0.1,0.9,0.4,1.7,0.8,2.4c0.4,0.7,0.9,1.2,1.6,1.6c0.7,0.4,1.6,0.6,2.8,0.6c1.3,0,2.4-0.3,3.2-0.8c0.9-0.5,1.7-1.2,2.4-2.1
		c0.7-0.8,1.2-1.8,1.6-2.8c0.4-1.1,0.8-2.1,1-3.1l1.5,0.3c-0.4,2.3-1.1,4.1-2,5.5c-1,1.4-2.1,2.4-3.3,3.1c-1.2,0.7-2.5,1.2-3.9,1.5
		c-1.4,0.2-2.7,0.3-4,0.3c-3.5,0-6.1-0.4-8.1-1.2c-1.9-0.8-3.3-1.8-4.2-3s-1.4-2.5-1.6-3.9c-0.1-1.4-0.2-2.7-0.2-3.9V31.2h-6.7v-1.4
		h6.7V16.9C504.2,17.3,505.2,17.6,506.2,17.9z"/>
	<path class="st0" d="M552.6,29.8v41.5h6.7v1.4h-25.6v-1.4h6.7V31.2h-6.7v-1.4L552.6,29.8L552.6,29.8z M541.5,3.3
		c1.4-1.4,3.1-2.1,5-2.1s3.6,0.7,5,2.1s2.1,3.1,2.1,5s-0.7,3.6-2.1,5s-3.1,2.1-5,2.1s-3.6-0.7-5-2.1s-2.1-3.1-2.1-5
		C539.4,6.3,540.1,4.7,541.5,3.3z"/>
	<path class="st0" d="M572,29.8c0-2.2,0-4.5,0.1-6.8s0.3-4.6,0.6-6.8c0.4-2.2,1-4.3,1.8-6.2c0.8-2,1.9-3.7,3.4-5.2s3.3-2.7,5.6-3.5
		c2.3-0.9,5.1-1.3,8.4-1.3c1.5,0,3,0.2,4.5,0.5c1.5,0.4,2.8,0.9,4,1.7c1.2,0.8,2.2,1.8,2.9,3s1.1,2.7,1.1,4.4c0,1.5-0.6,2.8-1.7,3.9
		c-1.1,1.1-2.5,1.6-4,1.6c-3.5,0-5.3-1.7-5.3-5.1c0-0.2,0.1-0.5,0.2-1c0.1-0.5,0.2-1,0.3-1.6s0.2-1.1,0.2-1.5c0.1-0.5,0.1-0.8,0.1-1
		c0-1.2-0.4-2.1-1.3-2.6c-0.9-0.6-1.9-0.9-3-0.9c-1.4,0-2.5,0.4-3.3,1c-0.8,0.7-1.4,1.6-1.7,2.9c-0.3,1.2-0.5,2.6-0.6,4.1
		c-0.1,1.6-0.1,3.2-0.1,5v15.5h8.3v1.4h-8.3v40.1h7.7v1.4h-26.5v-1.4h6.6V31.3h-6.6v-1.4h6.6V29.8z"/>
	<path class="st0" d="M619.3,29.8v41.5h6.7v1.4h-25.6v-1.4h6.7V31.2h-6.7v-1.4L619.3,29.8L619.3,29.8z M608.2,3.3
		c1.4-1.4,3.1-2.1,5-2.1s3.6,0.7,5,2.1s2.1,3.1,2.1,5s-0.7,3.6-2.1,5s-3.1,2.1-5,2.1s-3.6-0.7-5-2.1s-2.1-3.1-2.1-5
		C606.1,6.3,606.8,4.7,608.2,3.3z"/>
	<path class="st0" d="M645.3,52c0,2.4,0.1,4.8,0.3,7.2s0.7,4.6,1.6,6.6c0.9,2,2.1,3.6,3.8,4.9c1.7,1.3,4,1.9,7,1.9
		c2.7,0,4.9-0.5,6.8-1.5c1.8-1,3.3-2.1,4.5-3.5c1.2-1.3,2-2.6,2.6-3.8c0.6-1.3,0.9-2.2,1-2.8l1.4,0.5c-0.3,1.3-0.9,2.6-1.7,4.1
		c-0.8,1.4-1.9,2.8-3.3,4c-1.4,1.2-3.1,2.3-5.2,3.1c-2.1,0.8-4.6,1.2-7.5,1.2c-3.5,0-6.7-0.5-9.7-1.5s-5.6-2.5-7.9-4.5
		c-2.2-2-4-4.4-5.2-7.2c-1.3-2.8-1.9-6-1.9-9.6c0-2.9,0.6-5.7,1.8-8.4c1.2-2.7,2.9-5.1,5-7.2s4.6-3.8,7.4-5.1
		c2.8-1.3,5.9-1.9,9.1-1.9c2.3,0,4.7,0.4,7,1.1s4.4,1.9,6.3,3.4c1.9,1.5,3.4,3.5,4.6,5.9c1.2,2.4,1.8,5.4,1.8,8.8h-29.5L645.3,52
		L645.3,52z M661.3,39.4c0-0.7,0-1.6-0.1-2.7s-0.3-2.1-0.7-3.2s-1.1-2-2-2.7s-2.1-1.1-3.8-1.1c-2.3,0-4,0.5-5.2,1.6s-2.1,2.4-2.8,4
		c-0.6,1.6-1,3.4-1.1,5.3c-0.2,1.9-0.3,3.7-0.4,5.5h16L661.3,39.4L661.3,39.4z"/>
	<path class="st0" d="M700.9,29.8v8.4h0.2c1.2-2.5,2.8-4.7,4.9-6.5c2-1.8,4.7-2.8,8.1-2.8c2.8,0,5.1,0.8,6.8,2.2
		c1.7,1.5,2.6,3.6,2.6,6.2c0,2-0.5,3.6-1.5,4.7s-2.5,1.7-4.6,1.7c-1.5,0-2.9-0.3-4.2-1c-1.3-0.6-1.9-1.8-1.9-3.5
		c0-0.2,0-0.6,0.1-1.1s0.1-1,0.2-1.6c0.1-0.6,0.2-1.1,0.2-1.6c0.1-0.5,0.1-0.7,0.1-0.8c-0.1-0.5-0.2-1-0.3-1.2
		c-0.1-0.3-0.3-0.6-0.6-0.8c-0.3-0.2-0.8-0.3-1.4-0.3c-0.7,0-1.5,0.3-2.5,0.9s-1.9,1.6-2.8,2.8c-0.9,1.2-1.6,2.6-2.2,4.4
		c-0.6,1.7-1,3.6-1,5.8v25.6h7.9v1.4h-26.6v-1.4h6.5V31.2h-6.5v-1.4L700.9,29.8L700.9,29.8z"/>
</g>
</svg>
