<?xml version="1.0" encoding="utf-8"?>
<!-- Generator: Adobe Illustrator 21.1.0, SVG Export Plug-In . SVG Version: 6.00 Build 0)  -->
<svg version="1.1" id="Layer_1" xmlns="http://www.w3.org/2000/svg" xmlns:xlink="http://www.w3.org/1999/xlink" x="0px" y="0px"
	 viewBox="0 0 652.5 54.5" style="enable-background:new 0 0 652.5 54.5;" xml:space="preserve">
<style type="text/css">
	.st0{fill:#FFFFFF;}
</style>
<g>
	<path class="st0" d="M22,1.2v1h-5.3l13,37.9h0.1l7.6-21.5L31.8,2.1h-3.9v-1h21.5v1h-6.7l13,38h0.1l13.3-38h-6v-1h13.2v1h-5.8
		L52,54.3h-2.1L38.1,20.4H38L25.9,54.5h-2.1L5.9,2.3H0v-1L22,1.2L22,1.2z"/>
	<path class="st0" d="M87.7,37.7c0,1.7,0.1,3.5,0.2,5.2c0.1,1.8,0.5,3.3,1.2,4.8c0.6,1.4,1.5,2.6,2.7,3.5s2.9,1.4,5,1.4
		c1.9,0,3.5-0.4,4.9-1.1c1.3-0.7,2.4-1.5,3.2-2.5s1.5-1.9,1.9-2.8s0.6-1.6,0.7-2l1,0.4c-0.2,0.9-0.6,1.9-1.2,2.9s-1.4,2-2.4,2.9
		s-2.3,1.6-3.7,2.2c-1.5,0.6-3.3,0.9-5.4,0.9c-2.5,0-4.8-0.4-7-1.1s-4-1.8-5.7-3.2c-1.6-1.4-2.9-3.1-3.8-5.2c-0.9-2-1.4-4.4-1.4-6.9
		c0-2.1,0.4-4.1,1.3-6c0.9-2,2.1-3.7,3.6-5.2c1.5-1.5,3.3-2.7,5.3-3.7c2-0.9,4.2-1.4,6.6-1.4c1.7,0,3.4,0.3,5,0.8
		c1.7,0.5,3.2,1.3,4.5,2.4s2.4,2.5,3.3,4.3s1.3,3.9,1.3,6.3H87.6L87.7,37.7L87.7,37.7z M99.2,28.6c0-0.5,0-1.2-0.1-1.9
		c0-0.8-0.2-1.5-0.5-2.3s-0.8-1.4-1.4-1.9s-1.5-0.8-2.7-0.8c-1.6,0-2.9,0.4-3.8,1.2c-0.9,0.8-1.5,1.7-2,2.9
		c-0.4,1.2-0.7,2.4-0.8,3.8c-0.1,1.4-0.2,2.7-0.3,3.9h11.5L99.2,28.6L99.2,28.6z"/>
	<path class="st0" d="M157.8,15.9c-0.5-1.6-1.2-3.3-1.9-5c-0.7-1.8-1.7-3.4-2.9-4.8c-1.2-1.5-2.6-2.7-4.4-3.6s-3.9-1.4-6.5-1.4
		c-3.5,0-6.3,0.6-8.3,1.9s-3.5,3.1-4.6,5.4s-1.7,5.1-2,8.2c-0.3,3.2-0.4,6.7-0.4,10.5c0,5,0.3,9.1,0.9,12.4s1.5,5.9,2.7,7.8
		s2.8,3.3,4.8,4c1.9,0.8,4.3,1.2,6.9,1.2c2.2,0,4.1-0.4,5.9-1.3s3.3-2,4.6-3.4c1.3-1.4,2.5-3,3.4-4.9c0.9-1.8,1.6-3.7,2-5.7h1.2
		v15.3H158c-0.2-0.6-0.5-1-0.9-1.2c-0.3-0.2-0.8-0.3-1.5-0.3c-0.6,0-1.3,0.1-2.2,0.4c-0.9,0.3-2,0.6-3.1,0.9
		c-1.2,0.3-2.5,0.6-3.9,0.9s-2.9,0.4-4.4,0.4c-3.5,0-6.9-0.7-10.2-2.1c-3.3-1.4-6.1-3.2-8.6-5.6s-4.5-5.2-5.9-8.4
		c-1.5-3.2-2.2-6.7-2.2-10.4c0-4.1,0.8-7.8,2.5-11.1c1.7-3.3,3.8-6.1,6.4-8.5s5.5-4.2,8.7-5.4c3.2-1.3,6.3-1.9,9.4-1.9
		c1.5,0,3,0.1,4.3,0.4s2.5,0.6,3.7,0.9c1.1,0.3,2.1,0.6,3.1,0.9c0.9,0.3,1.7,0.4,2.3,0.4c0.7,0,1.2-0.1,1.5-0.3
		c0.3-0.2,0.6-0.6,0.7-1.3h1.2v14.7H157.8z"/>
	<path class="st0" d="M179.7,21.6v6h0.1c0.9-1.8,2-3.4,3.5-4.7c1.5-1.3,3.4-2,5.8-2c2,0,3.6,0.5,4.9,1.6c1.2,1.1,1.9,2.6,1.9,4.5
		c0,1.4-0.3,2.6-1,3.4s-1.8,1.2-3.3,1.2c-1.1,0-2.1-0.2-3-0.7s-1.4-1.3-1.4-2.6c0-0.1,0-0.4,0.1-0.8c0-0.4,0.1-0.7,0.2-1.2
		c0.1-0.4,0.1-0.8,0.2-1.1c0-0.3,0.1-0.5,0.1-0.6c0-0.4-0.1-0.7-0.2-0.9c-0.1-0.2-0.3-0.4-0.5-0.6s-0.5-0.3-1-0.3s-1.1,0.2-1.8,0.7
		c-0.7,0.5-1.4,1.1-2,2s-1.2,1.9-1.6,3.1c-0.5,1.2-0.7,2.6-0.7,4.1v18.8h5.7v1h-19.2v-1h4.7V22.6h-4.7v-1H179.7z"/>
	<path class="st0" d="M207.6,37.7c0,1.7,0.1,3.5,0.2,5.2c0.1,1.8,0.5,3.3,1.2,4.8c0.6,1.4,1.5,2.6,2.7,3.5s2.9,1.4,5,1.4
		c1.9,0,3.5-0.4,4.9-1.1c1.3-0.7,2.4-1.5,3.2-2.5c0.8-0.9,1.5-1.9,1.9-2.8s0.6-1.6,0.7-2l1,0.4c-0.2,0.9-0.6,1.9-1.2,2.9
		s-1.4,2-2.4,2.9s-2.3,1.6-3.7,2.2c-1.5,0.6-3.3,0.9-5.4,0.9c-2.5,0-4.8-0.4-7-1.1s-4-1.8-5.7-3.2c-1.6-1.4-2.9-3.1-3.8-5.2
		c-0.9-2-1.4-4.4-1.4-6.9c0-2.1,0.4-4.1,1.3-6c0.9-2,2.1-3.7,3.6-5.2s3.3-2.7,5.3-3.7s4.2-1.4,6.6-1.4c1.7,0,3.4,0.3,5,0.8
		c1.7,0.5,3.2,1.3,4.5,2.4s2.4,2.5,3.3,4.3s1.3,3.9,1.3,6.3h-21.2v3.1H207.6z M219.2,28.6c0-0.5,0-1.2-0.1-1.9
		c0-0.8-0.2-1.5-0.5-2.3s-0.8-1.4-1.4-1.9s-1.5-0.8-2.7-0.8c-1.6,0-2.9,0.4-3.8,1.2c-0.9,0.8-1.5,1.7-2,2.9
		c-0.4,1.2-0.7,2.4-0.8,3.8c-0.1,1.4-0.2,2.7-0.3,3.9h11.5L219.2,28.6L219.2,28.6z"/>
	<path class="st0" d="M235.6,42.1c0.6,1.3,1.2,2.6,1.8,3.9c0.6,1.2,1.3,2.4,2.1,3.3c0.8,1,1.8,1.7,3,2.3c1.2,0.6,2.6,0.9,4.2,0.9
		c0.4,0,1,0,1.7-0.1c0.7,0,1.4-0.3,2.1-0.6c0.7-0.4,1.3-0.9,1.8-1.7c0.5-0.7,0.8-1.8,0.8-3.2c0-0.4-0.1-0.9-0.2-1.3
		c-0.1-0.5-0.4-0.9-0.8-1.4s-0.9-0.9-1.7-1.4c-0.7-0.5-1.8-0.9-3.1-1.4l-5.8-2.2c-0.7-0.2-1.4-0.6-2.2-1c-0.8-0.4-1.5-0.9-2.1-1.6
		s-1.2-1.5-1.6-2.4s-0.6-2.1-0.6-3.3c0-1.4,0.3-2.7,0.9-4c0.6-1.2,1.4-2.3,2.4-3.3s2.3-1.7,3.7-2.2c1.5-0.6,3.1-0.8,4.8-0.8
		c0.9,0,1.8,0.1,2.6,0.3c0.8,0.2,1.5,0.4,2.2,0.6c0.6,0.2,1.2,0.4,1.7,0.6s0.9,0.3,1.2,0.3c0.5,0,0.9-0.1,1-0.3
		c0.1-0.2,0.3-0.4,0.4-0.6h1v8.8H256c-0.5-1.2-1-2.3-1.5-3.3c-0.5-1.1-1.1-2-1.8-2.8c-0.7-0.8-1.5-1.4-2.6-1.9
		c-1-0.5-2.3-0.7-3.7-0.7c-1.6,0-3,0.4-4.4,1.3c-1.3,0.8-2,2.1-2,3.7c0,0.3,0,0.7,0.1,1.2c0.1,0.4,0.3,0.9,0.6,1.3
		c0.3,0.5,0.9,0.9,1.6,1.4s1.7,0.9,2.9,1.3l6.1,2.1c2.6,0.9,4.6,2.1,5.9,3.6s2,3.4,2,5.7c0,1.6-0.3,3-1,4.3s-1.6,2.4-2.7,3.2
		c-1.1,0.9-2.4,1.6-3.9,2.1s-3,0.7-4.6,0.7c-0.9,0-1.8-0.1-2.8-0.3c-1-0.2-2-0.4-2.9-0.7c-0.9-0.3-1.8-0.5-2.6-0.7
		c-0.8-0.2-1.4-0.3-1.8-0.3s-0.7,0.1-0.8,0.2c-0.2,0.1-0.3,0.4-0.5,0.8h-1V42.1H235.6z"/>
	<path class="st0" d="M271.5,13c0.7,0.2,1.5,0.3,2.2,0.3s1.5-0.1,2.2-0.3c0.7-0.2,1.5-0.4,2.2-0.7v9.3h8.4v1h-8.4v24.1
		c0,0.7,0,1.4,0.1,2s0.3,1.2,0.5,1.7c0.3,0.5,0.6,0.9,1.2,1.2c0.5,0.3,1.2,0.4,2,0.4c0.9,0,1.7-0.2,2.3-0.6c0.6-0.4,1.2-0.9,1.7-1.5
		s0.9-1.3,1.2-2.1c0.3-0.8,0.6-1.5,0.8-2.2l1.1,0.2c-0.3,1.6-0.8,2.9-1.5,3.9s-1.5,1.7-2.4,2.3c-0.9,0.5-1.8,0.9-2.8,1
		c-1,0.2-2,0.3-2.9,0.3c-2.5,0-4.4-0.3-5.8-0.9s-2.4-1.3-3-2.2c-0.6-0.9-1-1.8-1.1-2.8s-0.1-1.9-0.1-2.8V22.4h-4.8v-1h4.8v-9.3
		C270.1,12.6,270.8,12.9,271.5,13z"/>
	<path class="st0" d="M351.1,35.7c0.7-2.4,1.1-5.4,1.1-9c0-2-0.2-3.6-0.5-4.9c-0.3-1.2-0.8-2.2-1.4-2.8c-0.6-0.7-1.4-1.1-2.3-1.4
		c-0.9-0.2-2-0.4-3.3-0.4v-1h14.5v1c-1.1,0.2-2,0.4-2.7,0.6s-1.3,0.6-1.8,1.2s-0.8,1.5-1,2.6s-0.4,2.7-0.5,4.8c0,1-0.1,2.1-0.3,3.4
		c-0.1,1.3-0.3,2.7-0.6,4.1s-0.6,2.8-1.1,4.2c-0.5,1.4-1,2.6-1.8,3.7l3.3,5.8c0.2,0.3,0.5,0.8,1,1.3s1.2,0.8,2,0.8
		c0.7,0,1.3-0.2,1.7-0.7s0.8-1,1-1.7c0.3-0.6,0.4-1.2,0.5-1.8c0.1-0.6,0.1-1,0.1-1.2s0-0.5,0-0.6c0-0.2-0.1-0.4-0.2-0.6h1
		c0,0.1,0.1,0.3,0.1,0.5s0.1,0.4,0.1,0.7c0,0.2,0,0.8-0.1,1.8s-0.4,2-1,3.1s-1.5,2.1-2.8,3s-3.1,1.3-5.4,1.3c-2.1,0-3.7-0.4-4.9-1.3
		s-2.2-1.8-3-3c-0.7,0.6-1.4,1.1-2.1,1.6c-0.7,0.5-1.5,0.9-2.4,1.3s-1.9,0.7-3.1,0.9c-1.2,0.2-2.5,0.4-4,0.4c-3.6,0-6.6-0.6-8.9-1.8
		c-2.3-1.2-4-2.6-5.3-4.2c-1.3-1.7-2.1-3.4-2.6-5.1c-0.5-1.8-0.7-3.3-0.7-4.5c0-2.2,0.4-4.2,1.3-5.9c0.9-1.8,2-3.3,3.4-4.8
		c1.4-1.4,2.9-2.7,4.5-3.8c1.6-1.1,3.2-2.2,4.8-3.1c-0.8-2-1.3-3.6-1.7-4.9c-0.4-1.2-0.6-2.5-0.6-3.7c0-1.5,0.3-2.9,0.9-4.3
		s1.4-2.6,2.4-3.7s2.2-1.9,3.5-2.6s2.6-1,4-1c0.9,0,1.8,0.1,2.6,0.4c0.8,0.3,1.5,0.7,2.2,1.3c0.6,0.6,1.1,1.3,1.5,2.3
		c0.4,0.9,0.5,2.1,0.5,3.4c0,1.4-0.4,3-1.2,4.6s-2.5,3.3-5.1,5l12.1,23.7C349.7,39.7,350.3,38.1,351.1,35.7z M329,22.3
		c-0.3-0.6-0.5-1.1-0.6-1.3c-1,0.8-1.9,1.5-2.6,2.1s-1.4,1.3-1.9,2s-0.9,1.5-1.1,2.3s-0.4,1.8-0.4,3c0,0.9,0.2,2,0.5,3.4
		s0.8,2.9,1.4,4.5s1.3,3.2,2.2,4.8c0.8,1.6,1.8,3,2.7,4.3c1,1.3,2,2.3,3.2,3.1c1.1,0.8,2.3,1.2,3.4,1.2c1.3,0,2.5-0.3,3.5-0.9
		s2.1-1.4,3.3-2.3c-0.5-0.7-0.9-1.2-1.1-1.7c-0.3-0.5-0.5-0.9-0.8-1.5l-10.8-21C329.6,23.6,329.3,22.9,329,22.3z M341.9,5.3
		c-0.2-0.8-0.5-1.5-0.9-2.1s-0.9-1.1-1.5-1.5s-1.3-0.6-2.2-0.6c-0.1,0-0.5,0-1,0.1c-0.5,0-1,0.2-1.6,0.5s-1,0.8-1.5,1.5
		c-0.4,0.7-0.6,1.7-0.6,2.9c0,0.7,0.1,1.5,0.3,2.3c0.2,0.8,0.5,1.7,0.9,2.6s0.8,1.8,1.2,2.7c0.5,0.9,0.9,1.7,1.3,2.4
		c0.5-0.3,1.1-0.7,1.7-1.2c0.7-0.5,1.3-1.1,1.9-1.8c0.6-0.7,1.1-1.5,1.5-2.4s0.6-2,0.6-3.2C342.2,6.8,342.1,6,341.9,5.3z"/>
	<path class="st0" d="M412.6,1.2v1H406v49.3h6.6v1h-23.7v-1h6.6V2.3h-6.6v-1L412.6,1.2L412.6,1.2z"/>
	<path class="st0" d="M441.5,51.5v1h-23.7v-1h6.6V2.3h-6.6v-1h6.6c2.4,0,4.9,0,7.3-0.1c2.4-0.1,4.9-0.1,7.3-0.1c2.2,0,4.5,0.2,7,0.5
		c2.5,0.4,4.8,1,6.9,2c2.1,1,3.9,2.4,5.3,4.1c1.4,1.8,2.1,4,2.1,6.8c0,1.9-0.5,3.6-1.4,5.3c-0.9,1.7-2.3,3.1-4.2,4.3
		c-1.9,1.2-4.2,2.2-7.1,2.9c-2.8,0.7-6.2,1.1-10,1.1h-3v23.4H441.5z M437.1,27.1c4.1,0,7-0.9,8.9-2.8c1.8-1.8,2.7-5,2.7-9.4
		c0-4.2-0.8-7.4-2.4-9.6c-1.6-2.2-4.5-3.3-8.6-3.3c-0.5,0-1,0-1.5,0.1c-0.5,0-0.9,0.1-1.3,0.1V27L437.1,27.1L437.1,27.1z"/>
	<path class="st0" d="M501.5,1.2l24,34.3h0.1V2.2H519v-1h14.4v1h-6.6v50.3h-1.9L492.5,6.3h-0.1v45.2h6.6v1h-14.4v-1h6.6V2.3h-6.6v-1
		L501.5,1.2L501.5,1.2z"/>
	<path class="st0" d="M547.6,37.7c0,1.7,0.1,3.5,0.2,5.2c0.1,1.8,0.5,3.3,1.2,4.8c0.6,1.4,1.5,2.6,2.7,3.5c1.2,0.9,2.9,1.4,5,1.4
		c1.9,0,3.5-0.4,4.9-1.1c1.3-0.7,2.4-1.5,3.2-2.5c0.8-1,1.5-1.9,1.9-2.8s0.6-1.6,0.7-2l1,0.4c-0.2,0.9-0.6,1.9-1.2,2.9
		c-0.6,1-1.4,2-2.4,2.9s-2.3,1.6-3.7,2.2c-1.5,0.6-3.3,0.9-5.4,0.9c-2.5,0-4.8-0.4-7-1.1c-2.2-0.7-4-1.8-5.7-3.2
		c-1.6-1.4-2.9-3.1-3.8-5.2c-0.9-2-1.4-4.4-1.4-6.9c0-2.1,0.4-4.1,1.3-6c0.9-2,2.1-3.7,3.6-5.2s3.3-2.7,5.3-3.7
		c2-0.9,4.2-1.4,6.6-1.4c1.7,0,3.4,0.3,5,0.8c1.7,0.5,3.2,1.3,4.5,2.4c1.3,1.1,2.4,2.5,3.3,4.3c0.9,1.8,1.3,3.9,1.3,6.3h-21.2v3.1
		H547.6z M559.1,28.6c0-0.5,0-1.2-0.1-1.9c0-0.8-0.2-1.5-0.5-2.3c-0.3-0.8-0.8-1.4-1.4-1.9c-0.6-0.5-1.5-0.8-2.7-0.8
		c-1.6,0-2.9,0.4-3.8,1.2c-0.9,0.8-1.5,1.7-2,2.9c-0.4,1.2-0.7,2.4-0.8,3.8s-0.2,2.7-0.3,3.9h11.6V28.6z"/>
	<path class="st0" d="M571,22.6v-1h18.3v1h-4.7l7.4,18.7l5.7-15.3l-1.4-3.4h-3.7v-1h18v1h-4.8l7.4,18.7l6.9-18.7h-5v-1h9.7v1h-3.5
		l-11.8,31.8H609l-10.7-26.9l-10,26.9h-0.5l-12.5-31.8H571z"/>
	<path class="st0" d="M628.9,42.1c0.6,1.3,1.2,2.6,1.8,3.9c0.6,1.2,1.3,2.4,2.1,3.3c0.8,1,1.8,1.7,3,2.3c1.2,0.6,2.6,0.9,4.2,0.9
		c0.4,0,1,0,1.7-0.1c0.7,0,1.4-0.3,2.1-0.6c0.7-0.4,1.3-0.9,1.8-1.7c0.5-0.7,0.8-1.8,0.8-3.2c0-0.4-0.1-0.9-0.2-1.3
		c-0.1-0.5-0.4-0.9-0.8-1.4s-0.9-0.9-1.7-1.4c-0.7-0.5-1.8-0.9-3.1-1.4l-5.8-2.2c-0.7-0.2-1.4-0.6-2.2-1c-0.8-0.4-1.5-0.9-2.1-1.6
		s-1.2-1.5-1.6-2.4c-0.4-0.9-0.6-2.1-0.6-3.3c0-1.4,0.3-2.7,0.9-4c0.6-1.2,1.4-2.3,2.4-3.3c1-0.9,2.3-1.7,3.7-2.2
		c1.5-0.6,3.1-0.8,4.8-0.8c0.9,0,1.8,0.1,2.6,0.3c0.8,0.2,1.5,0.4,2.2,0.6c0.6,0.2,1.2,0.4,1.7,0.6s0.9,0.3,1.2,0.3
		c0.5,0,0.9-0.1,1-0.3c0.1-0.2,0.3-0.4,0.4-0.6h1v8.8h-0.9c-0.5-1.2-1-2.3-1.5-3.3c-0.5-1.1-1.1-2-1.8-2.8c-0.7-0.8-1.5-1.4-2.6-1.9
		c-1-0.5-2.3-0.7-3.7-0.7c-1.6,0-3,0.4-4.4,1.3c-1.3,0.8-2,2.1-2,3.7c0,0.3,0,0.7,0.1,1.2c0.1,0.4,0.3,0.9,0.6,1.3
		c0.3,0.5,0.9,0.9,1.6,1.4c0.7,0.5,1.7,0.9,2.9,1.3l6.1,2.1c2.6,0.9,4.6,2.1,5.9,3.6s2,3.4,2,5.7c0,1.6-0.3,3-1,4.3
		c-0.7,1.3-1.6,2.4-2.7,3.2c-1.1,0.9-2.4,1.6-3.9,2.1s-3,0.7-4.6,0.7c-0.9,0-1.8-0.1-2.8-0.3c-1-0.2-2-0.4-2.9-0.7
		c-0.9-0.3-1.8-0.5-2.6-0.7c-0.8-0.2-1.4-0.3-1.8-0.3c-0.4,0-0.7,0.1-0.8,0.2c-0.2,0.1-0.3,0.4-0.5,0.8h-1V42.1H628.9z"/>
</g>
</svg>
