<?xml version="1.0" encoding="utf-8"?>
<!-- Generator: Adobe Illustrator 21.1.0, SVG Export Plug-In . SVG Version: 6.00 Build 0)  -->
<svg version="1.1" id="Layer_1" xmlns="http://www.w3.org/2000/svg" xmlns:xlink="http://www.w3.org/1999/xlink" x="0px" y="0px"
	 viewBox="0 0 409.6 139.7" style="enable-background:new 0 0 409.6 139.7;" xml:space="preserve">
<style type="text/css">
	.st0{fill:#FFFFFF;}
</style>
<g>
	<path class="st0" d="M2.8,15.8c1.7-3.3,3.8-6.1,6.4-8.5s5.5-4.2,8.7-5.4C21.1,0.6,24.3,0,27.3,0c3.3,0,6.6,0.6,9.8,1.9
		c3.2,1.2,6.1,3,8.6,5.3s4.6,5.1,6.1,8.4c1.6,3.3,2.3,7,2.3,11.1c0,3.6-0.7,7-2.2,10.3c-1.5,3.2-3.4,6.1-5.9,8.5s-5.3,4.4-8.6,5.8
		c-3.2,1.4-6.7,2.1-10.3,2.1c-3.6,0-7-0.7-10.2-2.1c-3.3-1.4-6.1-3.2-8.6-5.6s-4.5-5.2-5.9-8.4c-1.5-3.2-2.2-6.7-2.2-10.4
		C0.3,22.8,1.2,19.1,2.8,15.8z M12.9,39.3c0.6,3.3,1.5,5.9,2.7,7.8s2.8,3.3,4.8,4.1c1.9,0.8,4.3,1.2,6.9,1.2c3.6,0,6.3-0.7,8.4-2
		c2-1.3,3.5-3.1,4.5-5.5c1-2.3,1.6-5.1,1.9-8.3c0.3-3.2,0.4-6.7,0.4-10.4c0-3.4-0.1-6.6-0.3-9.6c-0.2-3-0.8-5.7-1.8-8.1
		c-1-2.3-2.5-4.2-4.6-5.5c-2-1.4-4.9-2.1-8.5-2.1c-3.4,0-6,0.6-8.1,1.9c-2,1.3-3.6,3.1-4.6,5.4c-1.1,2.3-1.8,5-2.1,8.2
		C12.2,19.6,12,23,12,26.8C12.1,31.8,12.3,36,12.9,39.3z"/>
	<path class="st0" d="M59.5,22.5v-1h13.4v5.3H73c1.5-4.2,4.3-6.3,8.5-6.3c2.8,0,5.2,0.5,7.1,1.6c2,1.1,3.6,2.4,4.9,4.1
		c1.3,1.6,2.2,3.4,2.8,5.3c0.6,1.9,0.9,3.7,0.9,5.4c0,2.2-0.4,4.2-1.2,6.2c-0.8,2-1.8,3.7-3.2,5.2c-1.4,1.5-3,2.7-4.9,3.6
		s-4.1,1.4-6.4,1.4c-2.2,0-4-0.6-5.3-1.8c-1.3-1.2-2.4-2.6-3-4.3h-0.1v24.3H78v1H59.6v-1h4.8v-49L59.5,22.5L59.5,22.5z M73.2,41.9
		c0.1,1.8,0.5,3.5,1,5c0.6,1.6,1.4,2.9,2.6,3.9c1.1,1,2.7,1.5,4.7,1.5c1.3,0,2.4-0.4,3.2-1.1c0.8-0.7,1.4-1.8,1.8-3.1
		c0.4-1.3,0.7-3,0.8-4.9c0.1-1.9,0.2-4,0.2-6.4c0-2.9-0.1-5.3-0.3-7.3c-0.2-2-0.6-3.6-1.1-4.8c-0.5-1.2-1.2-2.1-2-2.6
		s-1.8-0.8-3.1-0.8c-1.8,0-3.2,0.5-4.2,1.5c-1.1,1-1.8,2.3-2.4,3.8c-0.5,1.5-0.9,3.2-1,5c-0.2,1.8-0.3,3.5-0.3,5.1
		C73,38.4,73.1,40.1,73.2,41.9z"/>
	<path class="st0" d="M112.2,37.5c0,1.7,0.1,3.5,0.2,5.2c0.1,1.8,0.5,3.3,1.2,4.8c0.6,1.4,1.5,2.6,2.7,3.5s2.9,1.4,5,1.4
		c1.9,0,3.5-0.4,4.9-1.1c1.3-0.7,2.4-1.5,3.2-2.5c0.8-0.9,1.5-1.9,1.9-2.8s0.6-1.6,0.7-2l1,0.4c-0.2,0.9-0.6,1.9-1.2,2.9
		s-1.4,2-2.4,2.9s-2.3,1.6-3.7,2.2c-1.5,0.6-3.3,0.9-5.4,0.9c-2.5,0-4.8-0.4-7-1.1s-4-1.8-5.7-3.2c-1.6-1.4-2.9-3.1-3.8-5.2
		c-0.9-2-1.4-4.4-1.4-6.9c0-2.1,0.4-4.1,1.3-6c0.9-2,2.1-3.7,3.6-5.2s3.3-2.7,5.3-3.7c2-0.9,4.2-1.4,6.6-1.4c1.7,0,3.4,0.3,5,0.8
		c1.7,0.5,3.2,1.3,4.5,2.4s2.4,2.5,3.3,4.3s1.3,3.9,1.3,6.3h-21.2v3.1H112.2z M123.7,28.4c0-0.5,0-1.2-0.1-1.9
		c0-0.8-0.2-1.5-0.5-2.3s-0.8-1.4-1.4-1.9s-1.5-0.8-2.7-0.8c-1.6,0-2.9,0.4-3.8,1.2c-0.9,0.8-1.5,1.7-2,2.9
		c-0.4,1.2-0.7,2.4-0.8,3.8c-0.1,1.4-0.2,2.7-0.3,3.9h11.5L123.7,28.4L123.7,28.4z"/>
	<path class="st0" d="M143.7,51.3V22.4h-4.8v-1h13.4v7.2h0.1c0.2-0.4,0.5-1.1,1-2s1.2-1.8,2.1-2.6c0.9-0.9,2.1-1.6,3.5-2.3
		s3.2-1,5.4-1c3.2,0,5.6,0.9,7.4,2.7c1.8,1.8,2.6,4.3,2.6,7.5v20.3h4.8v1h-18.1v-1h4.5V28.4c0-2-0.4-3.5-1.2-4.4
		c-0.8-0.9-1.9-1.4-3.3-1.4c-1.2,0-2.3,0.3-3.3,0.8c-1.1,0.6-2,1.4-2.8,2.5s-1.4,2.5-1.9,4.1s-0.7,3.6-0.7,5.8v15.4h4.5v1h-18.1v-1
		L143.7,51.3L143.7,51.3z"/>
	<path class="st0" d="M234.9,53c-1.3,0.2-2.5,0.3-3.6,0.3c-2.4,0-4.3-0.4-5.4-1.3c-1.2-0.9-1.9-2.1-2.2-3.6h-0.1
		c-0.8,1.9-1.8,3.2-3.2,3.9c-1.3,0.7-3.3,1-5.8,1c-1.2,0-2.3-0.1-3.5-0.4c-1.2-0.2-2.3-0.6-3.3-1.2c-1-0.5-1.8-1.3-2.4-2.2
		c-0.6-0.9-0.9-2.1-0.9-3.4c0-1.4,0.3-2.6,0.8-3.5c0.6-0.9,1.3-1.7,2.2-2.4c0.9-0.6,1.9-1.2,3-1.6s2.3-0.8,3.5-1.2
		c2-0.6,3.6-1.1,4.8-1.5s2.2-0.8,2.8-1.3c0.7-0.5,1.1-1,1.4-1.5c0.3-0.6,0.4-1.3,0.4-2.2v-4.4c0-1.3-0.3-2.5-0.9-3.5
		c-0.6-1.1-1.8-1.6-3.5-1.6c-1.1,0-2.1,0.3-2.9,0.8c-0.8,0.5-1.2,1.4-1.2,2.8c0,0.1,0,0.4,0.1,0.8c0,0.4,0.1,0.8,0.1,1.2
		c0,0.4,0.1,0.8,0.1,1.2c0,0.4,0.1,0.6,0.1,0.8c0,0.7-0.2,1.3-0.5,1.7c-0.3,0.4-0.7,0.7-1.2,0.9c-0.5,0.2-0.9,0.3-1.4,0.3
		s-0.9,0-1.3,0c-0.5,0-1,0-1.5-0.1s-0.9-0.2-1.3-0.5s-0.7-0.6-1-1.1s-0.4-1.1-0.4-1.9c0-1.2,0.3-2.4,1-3.3c0.7-1,1.6-1.8,2.8-2.4
		c1.2-0.6,2.5-1.1,3.9-1.5c1.5-0.3,3-0.5,4.6-0.5c1.8,0,3.5,0.1,5.1,0.4s3,0.8,4.2,1.6c1.2,0.8,2.1,1.8,2.8,3.1c0.7,1.3,1,3,1,5
		v17.9c0,0.9,0.1,1.7,0.4,2.4c0.3,0.7,0.9,1,2,1c0.6,0,1.1-0.1,1.5-0.4c0.4-0.2,0.8-0.6,1.2-1l0.6,0.6
		C237.2,52.2,236.2,52.8,234.9,53z M223.2,34.5c-0.1,0.3-0.3,0.6-0.5,0.8c-0.3,0.3-0.7,0.6-1.4,0.9c-0.9,0.4-1.8,0.9-2.7,1.3
		s-1.7,0.9-2.4,1.5c-0.7,0.6-1.3,1.4-1.8,2.3s-0.7,2.1-0.7,3.5c0,0.6,0,1.2,0.1,2s0.3,1.5,0.6,2.2c0.3,0.7,0.8,1.3,1.4,1.8
		s1.5,0.8,2.6,0.8c0.6,0,1.2-0.1,1.8-0.4s1.1-0.7,1.6-1.3c0.5-0.6,0.9-1.4,1.2-2.4s0.4-2.2,0.4-3.6v-9.5h-0.2V34.5z"/>
	<path class="st0" d="M4.8,107.9c0-1.6,0-3.2,0.1-4.9c0-1.7,0.2-3.3,0.5-4.9c0.3-1.6,0.7-3.1,1.3-4.5c0.6-1.4,1.4-2.7,2.4-3.7
		c1.1-1.1,2.4-1.9,4-2.6c1.6-0.6,3.6-0.9,6-0.9c1.1,0,2.2,0.1,3.2,0.4c1.1,0.3,2,0.7,2.9,1.2c0.9,0.6,1.6,1.3,2.1,2.2s0.8,2,0.8,3.2
		c0,1.1-0.4,2-1.2,2.8c-0.8,0.8-1.8,1.2-2.9,1.2c-2.5,0-3.8-1.2-3.8-3.7c0-0.1,0-0.4,0.1-0.8c0.1-0.4,0.1-0.7,0.2-1.2
		c0.1-0.4,0.1-0.8,0.2-1.1c0-0.3,0.1-0.6,0.1-0.7c0-0.9-0.3-1.5-0.9-1.9s-1.3-0.6-2.2-0.6c-1,0-1.8,0.3-2.4,0.8s-1,1.2-1.2,2.1
		c-0.2,0.9-0.4,1.9-0.4,3s-0.1,2.3-0.1,3.6v11.2h6v1h-6V138h5.5v1H0v-1h4.8v-28.9H0v-1h4.8V107.9z"/>
	<path class="st0" d="M38.9,107.9v6H39c0.9-1.8,2-3.4,3.5-4.7s3.4-2,5.8-2c2,0,3.6,0.5,4.9,1.6c1.2,1.1,1.9,2.6,1.9,4.5
		c0,1.4-0.3,2.6-1,3.4c-0.7,0.8-1.8,1.2-3.3,1.2c-1.1,0-2.1-0.2-3-0.7s-1.4-1.3-1.4-2.6c0-0.1,0-0.4,0.1-0.8c0-0.4,0.1-0.7,0.2-1.2
		c0.1-0.4,0.1-0.8,0.2-1.1c0-0.3,0.1-0.5,0.1-0.6c0-0.4-0.1-0.7-0.2-0.9s-0.3-0.4-0.5-0.6c-0.2-0.2-0.5-0.3-1-0.3s-1.1,0.2-1.8,0.7
		c-0.7,0.5-1.4,1.1-2,2s-1.2,1.9-1.6,3.1c-0.5,1.2-0.7,2.6-0.7,4.1v18.4h5.7v1H25.7v-1h4.7v-28.9h-4.7v-1h13.2V107.9z"/>
	<path class="st0" d="M66.8,123.9c0,1.7,0.1,3.5,0.2,5.2c0.1,1.8,0.5,3.3,1.2,4.8c0.6,1.4,1.5,2.6,2.7,3.5s2.9,1.4,5,1.4
		c1.9,0,3.5-0.4,4.9-1.1c1.3-0.7,2.4-1.5,3.2-2.5c0.8-0.9,1.5-1.9,1.9-2.8c0.4-0.9,0.6-1.6,0.7-2l1,0.4c-0.2,0.9-0.6,1.9-1.2,2.9
		s-1.4,2-2.4,2.9s-2.3,1.6-3.7,2.2c-1.5,0.6-3.3,0.9-5.4,0.9c-2.5,0-4.8-0.4-7-1.1c-2.2-0.7-4-1.8-5.7-3.2c-1.6-1.4-2.9-3.1-3.8-5.2
		c-0.9-2-1.4-4.4-1.4-6.9c0-2.1,0.4-4.1,1.3-6c0.9-2,2.1-3.7,3.6-5.2s3.3-2.7,5.3-3.7c2-0.9,4.2-1.4,6.6-1.4c1.7,0,3.4,0.3,5,0.8
		c1.7,0.5,3.2,1.3,4.5,2.4c1.3,1.1,2.4,2.5,3.3,4.3s1.3,3.9,1.3,6.3H66.8V123.9z M78.4,114.8c0-0.5,0-1.2-0.1-1.9
		c0-0.8-0.2-1.5-0.5-2.3s-0.8-1.4-1.4-1.9s-1.5-0.8-2.7-0.8c-1.6,0-2.9,0.4-3.8,1.2s-1.5,1.7-2,2.9c-0.4,1.2-0.7,2.4-0.8,3.8
		c-0.1,1.4-0.2,2.7-0.3,3.9h11.5L78.4,114.8L78.4,114.8z"/>
	<path class="st0" d="M102.8,123.9c0,1.7,0.1,3.5,0.2,5.2c0.1,1.8,0.5,3.3,1.2,4.8c0.6,1.4,1.5,2.6,2.7,3.5s2.9,1.4,5,1.4
		c1.9,0,3.5-0.4,4.9-1.1c1.3-0.7,2.4-1.5,3.2-2.5c0.8-0.9,1.5-1.9,1.9-2.8c0.4-0.9,0.6-1.6,0.7-2l1,0.4c-0.2,0.9-0.6,1.9-1.2,2.9
		s-1.4,2-2.4,2.9s-2.3,1.6-3.7,2.2c-1.5,0.6-3.3,0.9-5.4,0.9c-2.5,0-4.8-0.4-7-1.1c-2.2-0.7-4-1.8-5.7-3.2c-1.6-1.4-2.9-3.1-3.8-5.2
		c-0.9-2-1.4-4.4-1.4-6.9c0-2.1,0.4-4.1,1.3-6c0.9-2,2.1-3.7,3.6-5.2s3.3-2.7,5.3-3.7c2-0.9,4.2-1.4,6.6-1.4c1.7,0,3.4,0.3,5,0.8
		c1.7,0.5,3.2,1.3,4.5,2.4c1.3,1.1,2.4,2.5,3.3,4.3s1.3,3.9,1.3,6.3h-21.1V123.9z M114.4,114.8c0-0.5,0-1.2-0.1-1.9
		c0-0.8-0.2-1.5-0.5-2.3s-0.8-1.4-1.4-1.9s-1.5-0.8-2.7-0.8c-1.6,0-2.9,0.4-3.8,1.2s-1.5,1.7-2,2.9c-0.4,1.2-0.7,2.4-0.8,3.8
		c-0.1,1.4-0.2,2.7-0.3,3.9h11.5L114.4,114.8L114.4,114.8z"/>
	<path class="st0" d="M180.2,139.4c-1.3,0.2-2.5,0.3-3.6,0.3c-2.4,0-4.3-0.4-5.4-1.3c-1.2-0.9-1.9-2.1-2.2-3.6h-0.1
		c-0.8,1.9-1.8,3.2-3.2,3.9c-1.3,0.7-3.3,1-5.8,1c-1.2,0-2.3-0.1-3.5-0.4c-1.2-0.2-2.3-0.6-3.3-1.2c-1-0.5-1.8-1.3-2.4-2.2
		s-0.9-2.1-0.9-3.4c0-1.4,0.3-2.6,0.8-3.5c0.6-0.9,1.3-1.7,2.2-2.4c0.9-0.6,1.9-1.2,3-1.6c1.1-0.4,2.3-0.8,3.5-1.2
		c2-0.6,3.6-1.1,4.8-1.5c1.2-0.4,2.2-0.8,2.8-1.3c0.7-0.5,1.1-1,1.4-1.5c0.3-0.6,0.4-1.3,0.4-2.2v-4.4c0-1.3-0.3-2.5-0.9-3.5
		c-0.6-1.1-1.8-1.6-3.5-1.6c-1.1,0-2.1,0.3-2.9,0.8s-1.2,1.4-1.2,2.8c0,0.1,0,0.4,0.1,0.8c0,0.4,0.1,0.8,0.1,1.2s0.1,0.8,0.1,1.2
		s0.1,0.6,0.1,0.8c0,0.7-0.2,1.3-0.5,1.7s-0.7,0.7-1.2,0.9s-0.9,0.3-1.4,0.3s-0.9,0-1.3,0c-0.5,0-1,0-1.5-0.1s-0.9-0.2-1.3-0.5
		s-0.7-0.6-1-1.1s-0.4-1.1-0.4-1.9c0-1.2,0.3-2.4,1-3.3c0.7-1,1.6-1.8,2.8-2.4c1.2-0.6,2.5-1.1,3.9-1.5c1.5-0.3,3-0.5,4.6-0.5
		c1.8,0,3.5,0.1,5.1,0.4c1.6,0.3,3,0.8,4.2,1.6s2.1,1.8,2.8,3.1c0.7,1.3,1,3,1,5V135c0,0.9,0.1,1.7,0.4,2.4s0.9,1,2,1
		c0.6,0,1.1-0.1,1.5-0.4c0.4-0.2,0.8-0.6,1.2-1l0.6,0.6C182.5,138.6,181.5,139.2,180.2,139.4z M168.4,120.9
		c-0.1,0.3-0.3,0.6-0.5,0.8c-0.3,0.3-0.7,0.6-1.4,0.9c-0.9,0.4-1.8,0.9-2.7,1.3c-0.9,0.4-1.7,0.9-2.4,1.5c-0.7,0.6-1.3,1.4-1.8,2.3
		c-0.5,0.9-0.7,2.1-0.7,3.5c0,0.6,0,1.2,0.1,2s0.3,1.5,0.6,2.2c0.3,0.7,0.8,1.3,1.4,1.8s1.5,0.8,2.6,0.8c0.6,0,1.2-0.1,1.8-0.4
		c0.6-0.3,1.1-0.7,1.6-1.3s0.9-1.4,1.2-2.4c0.3-1,0.4-2.2,0.4-3.6v-9.5h-0.2V120.9z"/>
	<path class="st0" d="M187.7,117.7c0.8-1.9,1.9-3.7,3.4-5.3s3.4-2.9,5.5-4c2.2-1.1,4.7-1.6,7.6-1.6c1.8,0,3.5,0.2,5,0.6
		c1.5,0.4,2.8,0.9,3.9,1.6c1.1,0.7,1.9,1.5,2.5,2.5s0.9,2.1,0.9,3.3c0,1.6-0.4,2.7-1.2,3.3c-0.8,0.6-2,1-3.5,1
		c-1.1,0-2.1-0.2-3.1-0.6c-0.9-0.4-1.4-1.3-1.4-2.6c0-0.2,0.1-0.5,0.2-1s0.2-1,0.4-1.5c0.1-0.5,0.2-1,0.4-1.5c0.1-0.5,0.2-0.8,0.2-1
		c0-1-0.4-1.7-1.3-2.3c-0.8-0.6-1.9-0.8-3.1-0.8c-1.7,0-3.1,0.4-4.1,1.2s-1.8,1.9-2.3,3.3c-0.6,1.4-0.9,3-1.1,4.8s-0.3,3.7-0.3,5.7
		c0,1.9,0.1,3.7,0.2,5.6s0.5,3.6,1.2,5.1c0.6,1.5,1.5,2.8,2.7,3.7c1.2,1,2.8,1.4,4.9,1.4c2,0,3.6-0.3,5-1c1.3-0.7,2.4-1.5,3.2-2.4
		c0.8-0.9,1.4-1.9,1.8-2.8c0.4-0.9,0.7-1.6,0.8-2.1l1,0.4c-0.2,0.9-0.6,1.8-1.1,2.8s-1.2,2-2.2,2.9s-2.2,1.6-3.7,2.3
		c-1.5,0.6-3.4,0.9-5.7,0.9c-0.6,0-1.5-0.1-2.6-0.2c-1.1-0.1-2.4-0.4-3.7-0.8c-1.3-0.4-2.7-1-4-1.7s-2.6-1.7-3.7-2.9s-2-2.7-2.7-4.5
		s-1-3.9-1-6.3C186.5,121.5,186.9,119.6,187.7,117.7z"/>
	<path class="st0" d="M222.3,117.7c0.8-1.9,1.9-3.7,3.4-5.3s3.4-2.9,5.5-4c2.2-1.1,4.7-1.6,7.6-1.6c1.8,0,3.5,0.2,5,0.6
		c1.5,0.4,2.8,0.9,3.9,1.6c1.1,0.7,1.9,1.5,2.5,2.5s0.9,2.1,0.9,3.3c0,1.6-0.4,2.7-1.2,3.3s-2,1-3.5,1c-1.1,0-2.1-0.2-3.1-0.6
		c-0.9-0.4-1.4-1.3-1.4-2.6c0-0.2,0.1-0.5,0.2-1c0.1-0.5,0.2-1,0.4-1.5c0.1-0.5,0.2-1,0.4-1.5c0.1-0.5,0.2-0.8,0.2-1
		c0-1-0.4-1.7-1.3-2.3c-0.8-0.6-1.9-0.8-3.1-0.8c-1.7,0-3.1,0.4-4.1,1.2s-1.8,1.9-2.3,3.3c-0.6,1.4-0.9,3-1.1,4.8
		c-0.2,1.8-0.3,3.7-0.3,5.7c0,1.9,0.1,3.7,0.2,5.6s0.5,3.6,1.2,5.1c0.6,1.5,1.5,2.8,2.7,3.7c1.2,1,2.8,1.4,4.9,1.4c2,0,3.6-0.3,5-1
		c1.3-0.7,2.4-1.5,3.2-2.4s1.4-1.9,1.8-2.8c0.4-0.9,0.7-1.6,0.8-2.1l1,0.4c-0.2,0.9-0.6,1.8-1.1,2.8s-1.2,2-2.2,2.9
		s-2.2,1.6-3.7,2.3c-1.5,0.6-3.4,0.9-5.7,0.9c-0.6,0-1.5-0.1-2.6-0.2c-1.1-0.1-2.4-0.4-3.7-0.8c-1.3-0.4-2.7-1-4-1.7
		s-2.6-1.7-3.7-2.9c-1.1-1.2-2-2.7-2.7-4.5s-1-3.9-1-6.3C221.1,121.5,221.5,119.6,222.3,117.7z"/>
	<path class="st0" d="M280.2,108.2c2.1,0.9,4,2.1,5.6,3.6s2.8,3.2,3.7,5.2s1.3,4.1,1.3,6.3c0,2.3-0.4,4.4-1.3,6.4
		c-0.9,2-2.1,3.7-3.7,5.2c-1.6,1.5-3.4,2.7-5.6,3.5c-2.1,0.9-4.5,1.3-6.9,1.3c-2.5,0-4.8-0.4-6.9-1.3c-2.1-0.9-4-2-5.6-3.5
		s-2.8-3.2-3.7-5.2s-1.3-4.1-1.3-6.4c0-2.2,0.4-4.3,1.3-6.3c0.9-2,2.1-3.7,3.7-5.2c1.6-1.5,3.4-2.7,5.6-3.6c2.1-0.9,4.5-1.3,6.9-1.3
		C275.8,106.8,278.1,107.3,280.2,108.2z M277.7,137.4c1.1-0.9,1.8-2.1,2.3-3.5s0.8-3.1,0.9-5c0.1-1.9,0.2-3.8,0.2-5.7
		s-0.1-3.8-0.2-5.7c-0.1-1.8-0.4-3.5-0.9-4.9s-1.3-2.6-2.3-3.5c-1.1-0.9-2.5-1.3-4.4-1.3s-3.3,0.4-4.4,1.3c-1.1,0.9-1.8,2.1-2.3,3.5
		s-0.8,3.1-0.9,4.9c-0.1,1.8-0.2,3.7-0.2,5.7c0,1.9,0.1,3.8,0.2,5.7c0.1,1.9,0.4,3.5,0.9,5c0.5,1.4,1.3,2.6,2.3,3.5
		c1.1,0.9,2.5,1.3,4.4,1.3S276.6,138.3,277.7,137.4z"/>
	<path class="st0" d="M308.8,107.9v22.8c0,1.8,0.4,3.4,1.1,4.6c0.7,1.3,2,1.9,3.8,1.9c1.1,0,2.1-0.3,3-0.8s1.7-1.2,2.3-2.1
		c0.6-0.9,1.2-1.9,1.5-3.1c0.4-1.2,0.5-2.4,0.5-3.7v-18.6h-4.8v-1h13.5v29.9h4.8v1h-13.4V133H321c-0.4,1.1-1,2-1.7,2.8
		c-0.8,0.8-1.6,1.5-2.6,2c-1,0.6-2,1-3.1,1.2c-1.1,0.3-2.2,0.4-3.2,0.4c-3.4,0-5.9-0.7-7.7-2.2s-2.7-3.9-2.7-7.5v-20.8h-4.8v-1
		L308.8,107.9L308.8,107.9z"/>
	<path class="st0" d="M345.1,137.7v-28.9h-4.8v-1h13.4v7.2h0.1c0.2-0.4,0.5-1.1,1-2s1.2-1.8,2.1-2.6c0.9-0.9,2.1-1.6,3.5-2.3
		s3.2-1,5.4-1c3.2,0,5.6,0.9,7.4,2.7c1.8,1.8,2.6,4.3,2.6,7.5v20.3h4.8v1h-18.1v-1h4.5v-22.8c0-2-0.4-3.5-1.2-4.4s-1.9-1.4-3.3-1.4
		c-1.2,0-2.3,0.3-3.3,0.8c-1.1,0.6-2,1.4-2.8,2.5s-1.4,2.5-1.9,4.1s-0.7,3.6-0.7,5.8v15.4h4.5v1h-18.1v-1h4.9V137.7z"/>
	<path class="st0" d="M392.1,99.3c0.7,0.2,1.5,0.3,2.2,0.3s1.5-0.1,2.2-0.3s1.5-0.4,2.2-0.7v9.3h8.4v1h-8.4V133c0,0.7,0,1.4,0.1,2
		s0.3,1.2,0.5,1.7c0.3,0.5,0.6,0.9,1.2,1.2c0.5,0.3,1.2,0.4,2,0.4c0.9,0,1.7-0.2,2.3-0.6c0.6-0.4,1.2-0.9,1.7-1.5s0.9-1.3,1.2-2.1
		s0.6-1.5,0.8-2.2l1.1,0.2c-0.3,1.6-0.8,2.9-1.5,3.9s-1.5,1.7-2.4,2.3c-0.9,0.5-1.8,0.9-2.8,1c-1,0.2-2,0.3-2.9,0.3
		c-2.5,0-4.4-0.3-5.8-0.9c-1.4-0.6-2.4-1.3-3-2.2s-1-1.8-1.1-2.8s-0.1-1.9-0.1-2.8v-22.2h-4.8v-1h4.8v-9.3
		C390.6,98.9,391.4,99.1,392.1,99.3z"/>
</g>
</svg>
