<?xml version="1.0" encoding="utf-8"?>
<!-- Generator: Adobe Illustrator 21.1.0, SVG Export Plug-In . SVG Version: 6.00 Build 0)  -->
<svg version="1.1" id="Layer_1" xmlns="http://www.w3.org/2000/svg" xmlns:xlink="http://www.w3.org/1999/xlink" x="0px" y="0px"
	 viewBox="0 0 568.8 194.1" style="enable-background:new 0 0 568.8 194.1;" xml:space="preserve">
<style type="text/css">
	.st0{fill:#FFFFFF;}
</style>
<g>
	<path class="st0" d="M122.3,21.9c2.3-4.6,5.2-8.5,8.9-11.8c3.6-3.3,7.6-5.8,12.1-7.5c4.5-1.8,8.8-2.6,13.1-2.6
		c4.6,0,9.1,0.9,13.6,2.6s8.5,4.2,12,7.4c3.5,3.2,6.3,7.1,8.5,11.6c2.2,4.6,3.2,9.7,3.2,15.4c0,5-1,9.8-3.1,14.2
		c-2,4.5-4.8,8.5-8.2,11.9c-3.4,3.4-7.4,6.1-11.9,8.1s-9.2,2.9-14.2,2.9c-4.9,0-9.7-0.9-14.2-2.9c-4.5-1.9-8.5-4.5-12-7.8
		c-3.4-3.3-6.2-7.2-8.2-11.6c-2.1-4.5-3.1-9.3-3.1-14.5C118.9,31.6,120,26.5,122.3,21.9z M136.4,54.5c0.8,4.6,2,8.2,3.8,10.9
		c1.7,2.7,3.9,4.6,6.6,5.6c2.7,1.1,5.9,1.6,9.7,1.6c4.9,0,8.8-0.9,11.6-2.8c2.8-1.8,4.9-4.4,6.3-7.6s2.3-7.1,2.6-11.5
		c0.4-4.4,0.5-9.2,0.5-14.4c0-4.7-0.1-9.1-0.4-13.4c-0.3-4.2-1.1-8-2.6-11.2c-1.4-3.2-3.5-5.8-6.3-7.7c-2.8-1.9-6.8-2.9-11.8-2.9
		c-4.7,0-8.4,0.9-11.2,2.6c-2.8,1.8-4.9,4.2-6.4,7.5c-1.5,3.2-2.4,7-2.9,11.4s-0.7,9.2-0.7,14.5C135.2,44.2,135.6,50,136.4,54.5z"/>
	<path class="st0" d="M201.1,31.2v-1.4h18.6v7.4h0.2c2.1-5.9,6-8.8,11.8-8.8c3.9,0,7.2,0.8,9.9,2.2c2.7,1.5,5,3.4,6.8,5.6
		c1.8,2.3,3.1,4.7,3.9,7.4c0.8,2.7,1.2,5.2,1.2,7.5c0,3-0.5,5.9-1.6,8.6s-2.5,5.1-4.4,7.2s-4.2,3.8-6.9,5c-2.7,1.3-5.6,1.9-8.9,1.9
		c-3.1,0-5.5-0.8-7.4-2.5s-3.3-3.7-4.2-6h-0.2v33.9h6.8v1.4h-25.6v-1.4h6.6v-68H201.1z M220.1,58.1c0.2,2.5,0.6,4.8,1.5,7
		c0.8,2.2,2,4,3.5,5.4c1.6,1.4,3.8,2.1,6.6,2.1c1.9,0,3.3-0.5,4.4-1.5s1.9-2.4,2.5-4.3s0.9-4.1,1.1-6.8c0.2-2.6,0.2-5.6,0.2-8.9
		c0-4-0.1-7.4-0.5-10.1c-0.3-2.8-0.8-5-1.5-6.7s-1.7-2.9-2.8-3.6c-1.1-0.7-2.6-1.1-4.3-1.1c-2.5,0-4.4,0.7-5.9,2.1s-2.6,3.2-3.3,5.3
		c-0.7,2.1-1.2,4.5-1.5,7c-0.2,2.5-0.4,4.9-0.4,7.1C219.9,53.4,219.9,55.6,220.1,58.1z"/>
	<path class="st0" d="M274.2,52.1c0,2.4,0.1,4.8,0.3,7.2c0.2,2.4,0.7,4.6,1.6,6.6c0.9,2,2.1,3.6,3.8,4.9c1.7,1.3,4,1.9,7,1.9
		c2.7,0,4.9-0.5,6.8-1.5c1.8-1,3.3-2.1,4.5-3.5c1.2-1.3,2-2.6,2.6-3.8c0.6-1.3,0.9-2.2,1-2.8l1.4,0.5c-0.3,1.3-0.9,2.6-1.7,4.1
		c-0.8,1.4-1.9,2.8-3.3,4c-1.4,1.2-3.1,2.3-5.2,3.1c-2.1,0.8-4.6,1.2-7.5,1.2c-3.5,0-6.7-0.5-9.7-1.5s-5.6-2.5-7.9-4.5
		c-2.2-2-4-4.4-5.2-7.2c-1.3-2.8-1.9-6-1.9-9.6c0-2.9,0.6-5.7,1.8-8.4c1.2-2.7,2.9-5.1,5-7.2c2.1-2.1,4.6-3.8,7.4-5.1
		c2.8-1.3,5.9-1.9,9.1-1.9c2.3,0,4.7,0.4,7,1.1s4.4,1.9,6.3,3.4s3.4,3.5,4.6,5.9c1.2,2.4,1.8,5.4,1.8,8.8h-29.5L274.2,52.1
		L274.2,52.1z M290.2,39.5c0-0.7,0-1.6-0.1-2.7c-0.1-1.1-0.3-2.1-0.7-3.2c-0.4-1.1-1-2-2-2.7c-0.9-0.7-2.1-1.1-3.8-1.1
		c-2.3,0-4,0.5-5.2,1.6s-2.1,2.4-2.8,4c-0.6,1.6-1,3.4-1.1,5.3c-0.2,1.9-0.3,3.7-0.4,5.5h16v-6.7H290.2z"/>
	<path class="st0" d="M318,71.3V31.2h-6.6v-1.4H330v10h0.2c0.3-0.6,0.7-1.5,1.4-2.8c0.7-1.2,1.6-2.5,2.9-3.6
		c1.3-1.2,2.9-2.2,4.9-3.2c2-0.9,4.5-1.3,7.5-1.3c4.4,0,7.8,1.3,10.2,3.8s3.7,6,3.7,10.4v28.2h6.7v1.4h-25.1v-1.4h6.2V39.7
		c0-2.8-0.6-4.9-1.7-6.1c-1.1-1.3-2.7-2-4.6-2c-1.6,0-3.1,0.4-4.6,1.1c-1.5,0.8-2.8,1.9-3.8,3.5c-1.1,1.5-2,3.4-2.7,5.7
		c-0.7,2.3-1,4.9-1,8v21.4h6.3v1.4h-25.1v-1.4H318z"/>
	<path class="st0" d="M444.7,73.6c-1.8,0.3-3.4,0.4-5,0.4c-3.4,0-5.9-0.6-7.5-1.8c-1.6-1.2-2.7-2.9-3-5H429
		c-1.1,2.7-2.5,4.5-4.4,5.4S420,74,416.5,74c-1.6,0-3.2-0.2-4.9-0.5s-3.2-0.9-4.6-1.6c-1.4-0.7-2.5-1.8-3.4-3.1
		c-0.9-1.3-1.3-2.9-1.3-4.8s0.4-3.5,1.2-4.9c0.8-1.3,1.8-2.4,3-3.3s2.6-1.6,4.2-2.2c1.6-0.6,3.2-1.1,4.9-1.6c2.7-0.8,5-1.5,6.6-2
		c1.7-0.6,3-1.2,4-1.8c0.9-0.6,1.6-1.3,2-2.1c0.4-0.8,0.5-1.8,0.5-3.1v-6.1c0-1.8-0.4-3.4-1.3-4.9c-0.9-1.5-2.5-2.2-4.9-2.2
		c-1.5,0-2.9,0.4-4,1c-1.1,0.7-1.7,2-1.7,3.9c0,0.2,0,0.5,0.1,1s0.1,1.1,0.2,1.7c0.1,0.6,0.1,1.2,0.2,1.7c0.1,0.5,0.1,0.9,0.1,1.1
		c0,1-0.2,1.8-0.7,2.4s-1,1-1.6,1.2c-0.6,0.3-1.3,0.4-2,0.4s-1.3,0.1-1.8,0.1c-0.7,0-1.4-0.1-2.1-0.1c-0.7-0.1-1.3-0.3-1.8-0.7
		c-0.5-0.4-1-0.9-1.3-1.5c-0.4-0.7-0.6-1.6-0.6-2.7c0-1.7,0.5-3.3,1.5-4.6c1-1.4,2.2-2.5,3.9-3.4c1.6-0.9,3.4-1.6,5.4-2.1
		s4.2-0.7,6.4-0.7c2.5,0,4.9,0.2,7.1,0.6c2.2,0.4,4.2,1.1,5.8,2.2s2.9,2.5,3.9,4.4c1,1.8,1.5,4.1,1.5,6.9v24.8
		c0,1.3,0.2,2.4,0.5,3.4c0.4,1,1.3,1.4,2.8,1.4c0.9,0,1.6-0.2,2.2-0.5c0.6-0.3,1.1-0.8,1.6-1.4l0.9,0.9
		C447.8,72.5,446.5,73.3,444.7,73.6z M428.3,47.9c-0.1,0.4-0.4,0.8-0.8,1.1c-0.4,0.4-1,0.8-1.9,1.2c-1.3,0.6-2.5,1.2-3.8,1.8
		c-1.3,0.6-2.4,1.3-3.4,2.1c-1,0.9-1.8,1.9-2.5,3.2c-0.6,1.3-1,2.9-1,4.9c0,0.8,0,1.7,0.2,2.8c0.1,1.1,0.4,2.1,0.8,3.1
		c0.4,1,1.1,1.9,2,2.5c0.9,0.7,2.1,1.1,3.6,1.1c0.9,0,1.7-0.2,2.5-0.6s1.6-1,2.2-1.9c0.7-0.8,1.2-1.9,1.6-3.3c0.4-1.4,0.6-3,0.6-5
		V47.7h-0.1V47.9z"/>
	<path class="st0" d="M6.6,149.8c0-2.2,0-4.5,0.1-6.8s0.3-4.6,0.6-6.8c0.4-2.2,1-4.3,1.8-6.2c0.8-2,1.9-3.7,3.4-5.2s3.3-2.7,5.6-3.5
		c2.3-0.9,5.1-1.3,8.4-1.3c1.5,0,3,0.2,4.5,0.5c1.5,0.4,2.8,0.9,4,1.7s2.2,1.8,2.9,3s1.1,2.7,1.1,4.5c0,1.5-0.6,2.8-1.7,3.9
		c-1.1,1.1-2.5,1.6-4,1.6c-3.5,0-5.3-1.7-5.3-5.1c0-0.2,0.1-0.5,0.2-1c0.1-0.5,0.2-1,0.3-1.6s0.2-1.1,0.2-1.5c0.1-0.5,0.1-0.8,0.1-1
		c0-1.2-0.4-2.1-1.3-2.7c-0.9-0.6-1.9-0.8-3-0.8c-1.4,0-2.5,0.3-3.3,1s-1.4,1.6-1.7,2.8s-0.5,2.6-0.6,4.2c-0.1,1.6-0.1,3.2-0.1,4.9
		v15.5h8.3v1.4h-8.3v40.1h7.7v1.4H0v-1.4h6.6v-40.2H0v-1.4H6.6z"/>
	<path class="st0" d="M54,149.8v8.4h0.2c1.2-2.5,2.8-4.7,4.9-6.5c2-1.8,4.7-2.8,8.1-2.8c2.8,0,5.1,0.8,6.8,2.2
		c1.7,1.5,2.6,3.6,2.6,6.2c0,2-0.5,3.6-1.5,4.7c-1,1.1-2.5,1.7-4.6,1.7c-1.5,0-2.9-0.3-4.2-0.9c-1.3-0.6-1.9-1.8-1.9-3.6
		c0-0.2,0-0.5,0.1-1s0.1-1,0.2-1.6s0.2-1.1,0.2-1.5c0.1-0.5,0.1-0.7,0.1-0.8c-0.1-0.5-0.2-0.9-0.3-1.2c-0.1-0.3-0.3-0.6-0.6-0.8
		c-0.3-0.2-0.8-0.3-1.4-0.3c-0.7,0-1.5,0.3-2.5,1c-1,0.6-1.9,1.5-2.8,2.8c-0.9,1.2-1.6,2.6-2.2,4.3s-1,3.6-1,5.8v25.6h7.9v1.4H35.5
		v-1.4H42v-40.3h-6.5v-1.4H54z"/>
	<path class="st0" d="M92.8,172.1c0,2.4,0.1,4.8,0.3,7.2c0.2,2.4,0.7,4.6,1.6,6.6s2.1,3.6,3.8,4.8c1.7,1.3,4,1.9,7,1.9
		c2.7,0,4.9-0.5,6.8-1.5c1.8-1,3.3-2.2,4.5-3.5s2-2.6,2.6-3.8c0.6-1.3,0.9-2.2,1-2.8l1.4,0.5c-0.3,1.3-0.9,2.6-1.7,4
		c-0.8,1.4-1.9,2.8-3.3,4s-3.1,2.3-5.2,3.1s-4.6,1.2-7.5,1.2c-3.5,0-6.7-0.5-9.7-1.5s-5.6-2.5-7.9-4.5c-2.2-2-4-4.4-5.2-7.2
		c-1.3-2.8-1.9-6-1.9-9.6c0-2.9,0.6-5.7,1.8-8.4c1.2-2.7,2.9-5.2,5-7.2s4.6-3.8,7.4-5.1s5.9-2,9.1-2c2.3,0,4.7,0.4,7,1.1
		c2.3,0.7,4.4,1.9,6.3,3.4s3.4,3.5,4.6,6c1.2,2.4,1.8,5.3,1.8,8.8H92.9L92.8,172.1L92.8,172.1z M108.8,159.5c0-0.7,0-1.6-0.1-2.7
		c-0.1-1.1-0.3-2.1-0.7-3.2c-0.4-1.1-1.1-2-2-2.7s-2.1-1.1-3.8-1.1c-2.3,0-4,0.5-5.2,1.6s-2.1,2.4-2.8,4c-0.6,1.6-1,3.4-1.1,5.3
		c-0.2,1.9-0.3,3.7-0.4,5.5h16v-6.7H108.8z"/>
	<path class="st0" d="M142.8,172.1c0,2.4,0.1,4.8,0.3,7.2c0.2,2.4,0.7,4.6,1.6,6.6s2.1,3.6,3.8,4.8c1.7,1.3,4,1.9,7,1.9
		c2.7,0,4.9-0.5,6.8-1.5c1.8-1,3.3-2.2,4.5-3.5s2-2.6,2.6-3.8c0.6-1.3,0.9-2.2,1-2.8l1.4,0.5c-0.3,1.3-0.9,2.6-1.7,4
		c-0.8,1.4-1.9,2.8-3.3,4s-3.1,2.3-5.2,3.1s-4.6,1.2-7.5,1.2c-3.5,0-6.7-0.5-9.7-1.5s-5.6-2.5-7.9-4.5c-2.2-2-4-4.4-5.2-7.2
		c-1.3-2.8-1.9-6-1.9-9.6c0-2.9,0.6-5.7,1.8-8.4c1.2-2.7,2.9-5.2,5-7.2s4.6-3.8,7.4-5.1s5.9-2,9.1-2c2.3,0,4.7,0.4,7,1.1
		c2.3,0.7,4.4,1.9,6.3,3.4s3.4,3.5,4.6,6c1.2,2.4,1.8,5.3,1.8,8.8h-29.5L142.8,172.1L142.8,172.1z M158.8,159.5c0-0.7,0-1.6-0.1-2.7
		c-0.1-1.1-0.3-2.1-0.7-3.2c-0.4-1.1-1.1-2-2-2.7s-2.1-1.1-3.8-1.1c-2.3,0-4,0.5-5.2,1.6s-2.1,2.4-2.8,4c-0.6,1.6-1,3.4-1.1,5.3
		c-0.2,1.9-0.3,3.7-0.4,5.5h16v-6.7H158.8z"/>
	<path class="st0" d="M250.3,193.6c-1.8,0.3-3.4,0.4-4.9,0.4c-3.4,0-5.9-0.6-7.6-1.8c-1.6-1.2-2.6-2.9-3-5h-0.2
		c-1.1,2.7-2.5,4.5-4.4,5.4s-4.6,1.4-8.1,1.4c-1.6,0-3.2-0.2-4.9-0.5c-1.7-0.3-3.2-0.9-4.6-1.6c-1.4-0.7-2.5-1.8-3.4-3
		c-0.9-1.3-1.3-2.9-1.3-4.8c0-1.9,0.4-3.6,1.1-4.9c0.8-1.3,1.8-2.4,3-3.3c1.2-0.9,2.6-1.6,4.2-2.2c1.6-0.6,3.2-1.1,4.9-1.6
		c2.7-0.8,5-1.5,6.6-2.1c1.7-0.6,3-1.2,4-1.8c0.9-0.6,1.6-1.3,2-2.1s0.5-1.8,0.5-3.1v-6.1c0-1.8-0.4-3.4-1.3-4.9s-2.5-2.2-4.9-2.2
		c-1.5,0-2.9,0.4-4,1.1c-1.1,0.7-1.7,2-1.7,3.8c0,0.2,0,0.5,0.1,1s0.1,1,0.2,1.7c0.1,0.6,0.1,1.2,0.2,1.7s0.1,0.9,0.1,1.1
		c0,1-0.2,1.8-0.7,2.3c-0.5,0.6-1,1-1.6,1.2c-0.6,0.3-1.3,0.4-2,0.5c-0.7,0-1.3,0-1.8,0c-0.7,0-1.4,0-2.1-0.1s-1.3-0.3-1.8-0.7
		s-1-0.9-1.4-1.5c-0.4-0.7-0.6-1.6-0.6-2.7c0-1.7,0.5-3.3,1.5-4.7s2.2-2.5,3.9-3.4c1.6-0.9,3.4-1.6,5.4-2c2-0.5,4.2-0.7,6.4-0.7
		c2.5,0,4.9,0.2,7.1,0.6c2.2,0.4,4.2,1.1,5.8,2.2c1.6,1.1,2.9,2.5,3.9,4.3s1.5,4.2,1.5,7v24.8c0,1.3,0.2,2.4,0.5,3.4
		c0.4,1,1.3,1.5,2.8,1.5c0.9,0,1.6-0.2,2.1-0.5c0.6-0.3,1.1-0.8,1.6-1.4l0.9,0.9C253.4,192.5,252,193.3,250.3,193.6z M233.9,167.9
		c-0.1,0.4-0.4,0.8-0.8,1.1c-0.4,0.4-1,0.8-1.9,1.2c-1.3,0.6-2.5,1.2-3.8,1.8s-2.4,1.3-3.4,2.2s-1.8,1.9-2.4,3.2s-1,2.9-1,4.9
		c0,0.8,0,1.7,0.1,2.8s0.4,2.1,0.8,3.1s1.1,1.8,1.9,2.5c0.9,0.7,2.1,1,3.6,1c0.9,0,1.7-0.2,2.5-0.6c0.8-0.4,1.6-1,2.2-1.8
		c0.7-0.8,1.2-1.9,1.6-3.3c0.4-1.4,0.6-3,0.6-4.9L233.9,167.9L233.9,167.9z"/>
	<path class="st0" d="M260.6,163.5c1.1-2.7,2.6-5.1,4.8-7.3c2.1-2.2,4.7-4.1,7.7-5.5c3-1.5,6.6-2.2,10.5-2.2c2.5,0,4.8,0.3,6.9,0.8
		c2.1,0.5,3.8,1.3,5.3,2.2c1.5,1,2.7,2.1,3.5,3.5c0.8,1.4,1.2,2.9,1.2,4.5c0,2.2-0.6,3.8-1.7,4.7c-1.1,0.9-2.7,1.3-4.8,1.3
		c-1.5,0-3-0.3-4.2-0.8c-1.3-0.6-2-1.8-2-3.5c0-0.3,0.1-0.7,0.2-1.4c0.2-0.7,0.3-1.4,0.5-2.1c0.2-0.7,0.3-1.4,0.5-2.1
		c0.2-0.7,0.2-1.1,0.2-1.4c0-1.3-0.6-2.4-1.8-3.2c-1.2-0.8-2.6-1.2-4.3-1.2c-2.4,0-4.3,0.6-5.7,1.7c-1.4,1.1-2.5,2.7-3.2,4.5
		c-0.8,1.9-1.3,4.1-1.5,6.6s-0.4,5.1-0.4,8c0,2.6,0.1,5.2,0.3,7.8c0.2,2.6,0.7,5,1.6,7.1c0.9,2.1,2.1,3.9,3.8,5.2s3.9,2,6.8,2
		c2.7,0,5-0.5,6.9-1.5c1.9-1,3.4-2.1,4.5-3.4c1.1-1.3,2-2.6,2.6-3.9c0.6-1.3,0.9-2.2,1-2.8l1.4,0.5c-0.3,1.2-0.8,2.5-1.5,3.9
		s-1.7,2.8-3,4s-3,2.3-5.2,3.2c-2.1,0.9-4.8,1.3-7.9,1.3c-0.9,0-2.1-0.1-3.7-0.2c-1.6-0.2-3.3-0.5-5.1-1.1s-3.7-1.4-5.6-2.4
		c-1.9-1-3.6-2.3-5.1-4c-1.6-1.7-2.8-3.8-3.8-6.2c-1-2.5-1.5-5.4-1.5-8.8C259,168.7,259.5,166.2,260.6,163.5z"/>
	<path class="st0" d="M308.7,163.5c1.1-2.7,2.7-5.1,4.8-7.3s4.7-4.1,7.7-5.5c3-1.5,6.5-2.2,10.5-2.2c2.5,0,4.8,0.3,6.9,0.8
		c2.1,0.5,3.8,1.3,5.3,2.2c1.5,1,2.7,2.1,3.5,3.5s1.2,2.9,1.2,4.5c0,2.2-0.6,3.8-1.7,4.7c-1.1,0.9-2.7,1.3-4.8,1.3
		c-1.5,0-3-0.3-4.2-0.8c-1.3-0.6-2-1.8-2-3.5c0-0.3,0.1-0.7,0.2-1.4c0.2-0.7,0.3-1.4,0.5-2.1c0.2-0.7,0.3-1.4,0.5-2.1
		c0.2-0.7,0.2-1.1,0.2-1.4c0-1.3-0.6-2.4-1.8-3.2s-2.6-1.2-4.3-1.2c-2.4,0-4.3,0.6-5.7,1.7c-1.4,1.1-2.5,2.7-3.2,4.5
		c-0.8,1.9-1.3,4.1-1.5,6.6s-0.3,5.1-0.3,8c0,2.6,0.1,5.2,0.3,7.8s0.7,5,1.6,7.1c0.9,2.1,2.1,3.9,3.8,5.2s3.9,2,6.8,2
		c2.7,0,5-0.5,6.9-1.5s3.4-2.1,4.5-3.4c1.1-1.3,2-2.6,2.6-3.9c0.6-1.3,0.9-2.2,1-2.8l1.4,0.5c-0.3,1.2-0.8,2.5-1.5,3.9s-1.7,2.8-3,4
		s-3,2.3-5.2,3.2c-2.1,0.9-4.8,1.3-7.9,1.3c-0.9,0-2.1-0.1-3.7-0.2c-1.6-0.2-3.3-0.5-5.1-1.1s-3.7-1.4-5.6-2.4c-1.9-1-3.6-2.3-5.1-4
		c-1.6-1.7-2.8-3.8-3.8-6.2c-1-2.5-1.5-5.4-1.5-8.8C307.1,168.7,307.6,166.2,308.7,163.5z"/>
	<path class="st0" d="M389.1,150.2c3,1.2,5.5,2.9,7.8,5c2.2,2.1,3.9,4.5,5.1,7.2c1.2,2.8,1.9,5.7,1.9,8.8s-0.6,6.1-1.9,8.8
		c-1.2,2.8-3,5.2-5.1,7.2c-2.2,2.1-4.8,3.7-7.8,4.9s-6.2,1.8-9.7,1.8s-6.7-0.6-9.7-1.8s-5.5-2.8-7.8-4.9c-2.2-2.1-3.9-4.5-5.1-7.2
		c-1.2-2.8-1.9-5.7-1.9-8.8s0.6-6,1.9-8.8c1.2-2.8,3-5.2,5.1-7.2c2.2-2.1,4.8-3.7,7.8-5c3-1.2,6.2-1.8,9.7-1.8
		C383,148.4,386.2,149,389.1,150.2z M385.6,190.8c1.5-1.2,2.6-2.9,3.2-4.9c0.7-2,1.1-4.3,1.3-6.9c0.2-2.6,0.2-5.2,0.2-7.9
		s-0.1-5.3-0.2-7.8c-0.2-2.6-0.6-4.9-1.3-6.9s-1.8-3.6-3.2-4.8c-1.5-1.2-3.5-1.9-6.1-1.9s-4.6,0.6-6.1,1.9c-1.5,1.2-2.6,2.8-3.2,4.8
		c-0.7,2-1.1,4.3-1.3,6.9c-0.2,2.6-0.2,5.2-0.2,7.8c0,2.7,0.1,5.3,0.2,7.9c0.2,2.6,0.6,4.9,1.3,6.9s1.8,3.6,3.2,4.9
		c1.5,1.2,3.5,1.8,6.1,1.8S384.1,192.1,385.6,190.8z"/>
	<path class="st0" d="M428.9,149.8v31.7c0,2.5,0.5,4.7,1.5,6.5s2.8,2.7,5.3,2.7c1.5,0,2.9-0.4,4.2-1.1c1.3-0.7,2.3-1.7,3.2-3
		c0.9-1.2,1.6-2.7,2.1-4.3c0.5-1.7,0.8-3.4,0.8-5.2v-25.9h-6.6v-1.4h18.8v41.5h6.6v1.4h-18.6v-8.1H446c-0.5,1.5-1.3,2.8-2.4,3.8
		s-2.3,2-3.6,2.8c-1.4,0.8-2.8,1.3-4.4,1.7c-1.5,0.4-3,0.5-4.5,0.5c-4.7,0-8.2-1-10.7-3s-3.7-5.5-3.7-10.3v-28.9H410v-1.4H428.9z"/>
	<path class="st0" d="M479.2,191.3v-40.1h-6.6v-1.4h18.6v10h0.2c0.3-0.6,0.7-1.5,1.4-2.8c0.7-1.2,1.6-2.4,2.9-3.6
		c1.3-1.2,2.9-2.2,4.9-3.2c2-0.9,4.5-1.3,7.5-1.3c4.4,0,7.8,1.3,10.2,3.8s3.6,6,3.6,10.4v28.2h6.7v1.4h-25.1v-1.4h6.2v-31.6
		c0-2.8-0.6-4.8-1.7-6.2c-1.1-1.3-2.7-1.9-4.6-1.9c-1.6,0-3.1,0.4-4.6,1.1c-1.5,0.8-2.8,1.9-3.9,3.5c-1.1,1.5-2,3.4-2.6,5.7
		c-0.7,2.3-1,4.9-1,8v21.4h6.3v1.4h-25.1v-1.4L479.2,191.3L479.2,191.3z"/>
	<path class="st0" d="M544.5,137.9c1,0.3,2.1,0.4,3.1,0.4s2-0.1,3-0.4c1-0.3,2-0.6,3-1v12.9h11.8v1.4h-11.7v33.5
		c0,1,0.1,1.9,0.2,2.8c0.1,0.9,0.4,1.7,0.8,2.4c0.4,0.7,0.9,1.2,1.6,1.6c0.7,0.4,1.6,0.6,2.8,0.6c1.3,0,2.4-0.3,3.2-0.8
		c0.9-0.5,1.7-1.2,2.4-2s1.2-1.8,1.6-2.8c0.4-1.1,0.8-2.1,1-3.1l1.5,0.3c-0.4,2.3-1.1,4.1-2,5.4c-1,1.4-2.1,2.4-3.3,3.2
		c-1.2,0.7-2.5,1.2-4,1.5c-1.4,0.2-2.7,0.3-4,0.3c-3.5,0-6.1-0.4-8-1.2s-3.3-1.8-4.2-3s-1.4-2.5-1.5-3.9s-0.2-2.7-0.2-3.9v-30.9
		h-6.7v-1.4h6.7v-12.9C542.5,137.3,543.5,137.6,544.5,137.9z"/>
</g>
</svg>
