<?xml version="1.0" encoding="utf-8"?>
<!-- Generator: Adobe Illustrator 21.1.0, SVG Export Plug-In . SVG Version: 6.00 Build 0)  -->
<svg version="1.1" id="Layer_1" xmlns="http://www.w3.org/2000/svg" xmlns:xlink="http://www.w3.org/1999/xlink" x="0px" y="0px"
	 viewBox="0 0 450.7 54.1" style="enable-background:new 0 0 450.7 54.1;" xml:space="preserve">
<style type="text/css">
	.st0{enable-background:new    ;}
	.st1{fill:#FFFFFF;}
</style>
<g class="st0">
	<path class="st1" d="M25.5,42.1c-0.2,1.8-0.7,3.5-1.6,5.1c-0.9,1.7-2.3,3.1-4.3,4.3c-1.9,1.2-4.7,1.8-8.2,1.8
		c-1.2,0-2.5-0.1-3.9-0.3c-1.3-0.2-2.6-0.6-3.7-1.2s-2-1.4-2.7-2.4S0,47.1,0,45.6c0-0.2,0-0.6,0.1-1.2c0-0.6,0.3-1.1,0.6-1.7
		s0.9-1.1,1.7-1.5c0.8-0.5,1.9-0.7,3.3-0.7c0.4,0,0.8,0,1.3,0.1s1,0.2,1.4,0.5c0.5,0.2,0.8,0.6,1.2,1c0.3,0.5,0.5,1.1,0.5,1.8
		c0,0.3,0,0.8-0.1,1.3s-0.2,1.1-0.4,1.7c-0.1,0.6-0.3,1.1-0.4,1.6s-0.1,0.8-0.1,1c0,0.7,0.1,1.3,0.4,1.7c0.3,0.4,0.6,0.7,0.9,0.8
		c0.3,0.2,0.7,0.3,1,0.3c0.4,0,0.6,0,0.8,0c0.8,0,1.4-0.2,1.8-0.5s0.7-0.7,0.9-1.2c0.2-0.5,0.3-1,0.3-1.5c0-0.6,0-1,0-1.5V2H8.6V1
		h23.8v1h-6.6v35.6C25.8,38.8,25.7,40.3,25.5,42.1z"/>
	<path class="st1" d="M61.4,21.7c2.1,0.9,4,2.1,5.6,3.6s2.8,3.2,3.7,5.2c0.9,2,1.3,4.1,1.3,6.3c0,2.3-0.4,4.4-1.3,6.4
		s-2.1,3.7-3.7,5.2s-3.4,2.7-5.6,3.5c-2.1,0.9-4.5,1.3-6.9,1.3c-2.5,0-4.8-0.4-6.9-1.3s-4-2-5.6-3.5s-2.8-3.2-3.7-5.2
		c-0.9-2-1.3-4.1-1.3-6.4c0-2.2,0.4-4.3,1.3-6.3s2.1-3.7,3.7-5.2s3.4-2.7,5.6-3.6c2.1-0.9,4.5-1.3,6.9-1.3S59.2,20.8,61.4,21.7z
		 M58.8,51c1.1-0.9,1.8-2.1,2.3-3.5s0.8-3.1,0.9-5s0.2-3.8,0.2-5.7c0-1.9-0.1-3.8-0.2-5.7c-0.1-1.8-0.4-3.5-0.9-4.9
		s-1.3-2.6-2.3-3.5c-1.1-0.9-2.5-1.3-4.4-1.3s-3.3,0.4-4.4,1.3s-1.8,2.1-2.3,3.5s-0.8,3.1-0.9,4.9s-0.2,3.7-0.2,5.7
		c0,1.9,0.1,3.8,0.2,5.7c0.1,1.9,0.4,3.5,0.9,5c0.5,1.4,1.3,2.6,2.3,3.5c1.1,0.9,2.5,1.3,4.4,1.3S57.7,51.9,58.8,51z"/>
	<path class="st1" d="M90.6,21.4v29.9h4.8v1H77v-1h4.8V22.4H77v-1H90.6z M82.6,2.3c1-1,2.2-1.5,3.6-1.5s2.6,0.5,3.6,1.5
		s1.5,2.2,1.5,3.6s-0.5,2.6-1.5,3.6S87.6,11,86.2,11s-2.6-0.5-3.6-1.5s-1.5-2.2-1.5-3.6S81.6,3.3,82.6,2.3z"/>
	<path class="st1" d="M104.9,51.3V22.4h-4.8v-1h13.4v7.2h0.1c0.2-0.4,0.5-1.1,1-2s1.2-1.8,2.1-2.6c0.9-0.9,2.1-1.6,3.5-2.3
		c1.4-0.6,3.2-1,5.4-1c3.2,0,5.6,0.9,7.4,2.7c1.8,1.8,2.6,4.3,2.6,7.5v20.4h4.8v1h-18v-1h4.5V28.5c0-2-0.4-3.5-1.2-4.4
		c-0.8-0.9-1.9-1.4-3.3-1.4c-1.2,0-2.3,0.3-3.3,0.8c-1.1,0.6-2,1.4-2.8,2.5s-1.4,2.5-1.9,4.1s-0.7,3.6-0.7,5.8v15.4h4.5v1h-18.1v-1
		H104.9z"/>
	<path class="st1" d="M183.7,1v1h-5.3l13,37.9h0.1l7.6-21.5l-5.6-16.5h-3.9v-1h21.5v1h-6.7l13,38h0.1l13.3-38h-6.2v-1h13.2v1H232
		l-18.5,52.2h-2.1L199.6,20h-0.1l-12.1,34.1h-2L167.5,1.9h-5.9v-1h22.1V1z"/>
	<path class="st1" d="M249.4,37.5c0,1.7,0.1,3.5,0.2,5.2c0.1,1.8,0.5,3.3,1.2,4.8c0.6,1.4,1.5,2.6,2.7,3.5s2.9,1.4,5,1.4
		c1.9,0,3.5-0.4,4.9-1.1c1.3-0.7,2.4-1.5,3.2-2.5c0.8-0.9,1.5-1.9,1.9-2.8s0.6-1.6,0.7-2l1,0.4c-0.2,0.9-0.6,1.9-1.2,2.9
		c-0.6,1-1.4,2-2.4,2.9s-2.3,1.6-3.7,2.2c-1.5,0.6-3.3,0.9-5.4,0.9c-2.5,0-4.8-0.4-7-1.1s-4-1.8-5.7-3.2c-1.6-1.4-2.9-3.1-3.8-5.2
		c-0.9-2-1.4-4.4-1.4-6.9c0-2.1,0.4-4.1,1.3-6c0.9-2,2.1-3.7,3.6-5.2s3.3-2.7,5.3-3.7c2-0.9,4.2-1.4,6.6-1.4c1.7,0,3.4,0.3,5,0.8
		c1.7,0.5,3.2,1.3,4.5,2.4s2.4,2.5,3.3,4.3c0.9,1.8,1.3,3.9,1.3,6.3h-21.1V37.5z M260.9,28.4c0-0.5,0-1.2-0.1-1.9s-0.2-1.5-0.5-2.3
		s-0.8-1.4-1.4-1.9c-0.6-0.5-1.5-0.8-2.7-0.8c-1.6,0-2.9,0.4-3.8,1.2c-0.9,0.8-1.5,1.7-2,2.9c-0.4,1.2-0.7,2.4-0.8,3.8
		s-0.2,2.7-0.3,3.9h11.5L260.9,28.4L260.9,28.4z"/>
	<path class="st1" d="M319.5,15.7c-0.5-1.6-1.2-3.3-1.9-5c-0.7-1.8-1.7-3.4-2.9-4.8c-1.2-1.5-2.6-2.7-4.4-3.6
		c-1.8-0.9-3.9-1.4-6.5-1.4c-3.5,0-6.3,0.6-8.3,1.9s-3.5,3.1-4.6,5.4c-1,2.3-1.7,5.1-2,8.2c-0.3,3.2-0.4,6.7-0.4,10.5
		c0,5,0.3,9.1,0.9,12.4c0.6,3.3,1.5,5.9,2.7,7.8s2.8,3.3,4.8,4c1.9,0.8,4.3,1.2,6.9,1.2c2.2,0,4.1-0.4,5.9-1.3
		c1.8-0.9,3.3-2,4.6-3.4s2.5-3,3.4-4.9c0.9-1.8,1.6-3.7,2-5.7h1.2v15.3h-1.2c-0.2-0.6-0.5-1-0.9-1.2c-0.3-0.2-0.8-0.3-1.5-0.3
		c-0.6,0-1.3,0.1-2.2,0.4s-2,0.6-3.1,0.9c-1.2,0.3-2.5,0.6-3.9,0.9s-2.9,0.4-4.4,0.4c-3.5,0-6.9-0.7-10.2-2.1s-6.1-3.2-8.6-5.6
		s-4.5-5.2-5.9-8.4c-1.5-3.2-2.2-6.7-2.2-10.4c0-4.1,0.8-7.8,2.5-11.1c1.7-3.3,3.8-6.1,6.4-8.5c2.6-2.4,5.5-4.2,8.7-5.4
		c3.2-1.3,6.3-1.9,9.4-1.9c1.5,0,3,0.1,4.3,0.4s2.5,0.6,3.7,0.9c1.1,0.3,2.1,0.6,3.1,0.9c0.9,0.3,1.7,0.4,2.3,0.4
		c0.7,0,1.2-0.1,1.5-0.3c0.3-0.2,0.6-0.6,0.7-1.3h1.2v14.7H319.5z"/>
	<path class="st1" d="M341.4,21.4v6h0.1c0.9-1.8,2-3.4,3.5-4.7c1.5-1.3,3.4-2,5.8-2c2,0,3.6,0.5,4.9,1.6c1.2,1.1,1.9,2.6,1.9,4.5
		c0,1.4-0.3,2.6-1,3.4s-1.8,1.2-3.3,1.2c-1.1,0-2.1-0.2-3-0.7s-1.4-1.3-1.4-2.6c0-0.1,0-0.4,0.1-0.8c0-0.4,0.1-0.7,0.2-1.2
		c0.1-0.4,0.1-0.8,0.2-1.1c0-0.3,0.1-0.5,0.1-0.6c0-0.4-0.1-0.7-0.2-0.9c-0.1-0.2-0.3-0.4-0.5-0.6s-0.5-0.3-1-0.3s-1.1,0.2-1.8,0.7
		s-1.4,1.1-2,2s-1.2,1.9-1.6,3.1c-0.5,1.2-0.7,2.6-0.7,4.1v18.8h5.7v1h-19.2v-1h4.7V22.4h-4.7v-1H341.4z"/>
	<path class="st1" d="M369.3,37.5c0,1.7,0.1,3.5,0.2,5.2c0.1,1.8,0.5,3.3,1.2,4.8c0.6,1.4,1.5,2.6,2.7,3.5s2.9,1.4,5,1.4
		c1.9,0,3.5-0.4,4.9-1.1c1.3-0.7,2.4-1.5,3.2-2.5c0.8-0.9,1.5-1.9,1.9-2.8s0.6-1.6,0.7-2l1,0.4c-0.2,0.9-0.6,1.9-1.2,2.9
		c-0.6,1-1.4,2-2.4,2.9s-2.3,1.6-3.7,2.2c-1.5,0.6-3.3,0.9-5.4,0.9c-2.5,0-4.8-0.4-7-1.1s-4-1.8-5.7-3.2c-1.6-1.4-2.9-3.1-3.8-5.2
		c-0.9-2-1.4-4.4-1.4-6.9c0-2.1,0.4-4.1,1.3-6c0.9-2,2.1-3.7,3.6-5.2s3.3-2.7,5.3-3.7c2-0.9,4.2-1.4,6.6-1.4c1.7,0,3.4,0.3,5,0.8
		c1.7,0.5,3.2,1.3,4.5,2.4s2.4,2.5,3.3,4.3c0.9,1.8,1.3,3.9,1.3,6.3h-21.2v3.1H369.3z M380.9,28.4c0-0.5,0-1.2-0.1-1.9
		c0-0.8-0.2-1.5-0.5-2.3s-0.8-1.4-1.4-1.9s-1.5-0.8-2.7-0.8c-1.6,0-2.9,0.4-3.8,1.2c-0.9,0.8-1.5,1.7-2,2.9
		c-0.4,1.2-0.7,2.4-0.8,3.8s-0.2,2.7-0.3,3.9h11.5L380.9,28.4L380.9,28.4z"/>
	<path class="st1" d="M397.3,41.9c0.6,1.3,1.2,2.6,1.8,3.9c0.6,1.2,1.3,2.4,2.1,3.3c0.8,1,1.8,1.7,3,2.3c1.2,0.6,2.6,0.9,4.2,0.9
		c0.4,0,1,0,1.7-0.1c0.7,0,1.4-0.3,2.1-0.6c0.7-0.4,1.3-0.9,1.8-1.7s0.8-1.8,0.8-3.2c0-0.4-0.1-0.9-0.2-1.3
		c-0.1-0.5-0.4-0.9-0.8-1.4c-0.4-0.5-0.9-0.9-1.7-1.4s-1.8-0.9-3.1-1.4l-5.8-2.2c-0.7-0.2-1.4-0.6-2.2-1s-1.5-0.9-2.1-1.6
		s-1.2-1.5-1.6-2.4c-0.4-0.9-0.6-2.1-0.6-3.3c0-1.4,0.3-2.7,0.9-4c0.6-1.2,1.4-2.3,2.4-3.3c1-0.9,2.3-1.7,3.7-2.2
		c1.5-0.6,3.1-0.8,4.8-0.8c0.9,0,1.8,0.1,2.6,0.3c0.8,0.2,1.5,0.4,2.2,0.6c0.6,0.2,1.2,0.4,1.7,0.6s0.9,0.3,1.2,0.3
		c0.5,0,0.9-0.1,1-0.3c0.1-0.2,0.3-0.4,0.4-0.6h1v8.8h-0.9c-0.5-1.2-1-2.3-1.5-3.3s-1.1-2-1.8-2.8s-1.5-1.4-2.6-1.9
		c-1-0.5-2.3-0.7-3.7-0.7c-1.6,0-3,0.4-4.4,1.3c-1.3,0.8-2,2.1-2,3.7c0,0.3,0,0.7,0.1,1.2c0.1,0.4,0.3,0.9,0.6,1.3
		c0.3,0.5,0.9,0.9,1.6,1.4c0.7,0.5,1.7,0.9,2.9,1.3l6.1,2.1c2.6,0.9,4.6,2.1,5.9,3.6c1.3,1.5,2,3.4,2,5.7c0,1.6-0.3,3-1,4.3
		s-1.6,2.4-2.7,3.2c-1.1,0.9-2.4,1.6-3.9,2.1s-3,0.7-4.6,0.7c-0.9,0-1.8-0.1-2.8-0.3c-1-0.2-2-0.4-2.9-0.7c-0.9-0.3-1.8-0.5-2.6-0.7
		s-1.4-0.3-1.8-0.3c-0.4,0-0.7,0.1-0.8,0.2c-0.2,0.1-0.3,0.4-0.5,0.8h-1V41.9H397.3z"/>
	<path class="st1" d="M433.2,12.8c0.7,0.2,1.5,0.3,2.2,0.3s1.5-0.1,2.2-0.3c0.7-0.2,1.5-0.4,2.2-0.7v9.3h8.4v1h-8.4v24.1
		c0,0.7,0,1.4,0.1,2s0.3,1.2,0.5,1.7c0.3,0.5,0.6,0.9,1.2,1.2s1.2,0.4,2,0.4c0.9,0,1.7-0.2,2.3-0.6s1.2-0.9,1.7-1.5s0.9-1.3,1.2-2.1
		c0.3-0.8,0.6-1.5,0.8-2.2l1.1,0.2c-0.3,1.6-0.8,2.9-1.5,3.9s-1.5,1.7-2.4,2.3c-0.9,0.5-1.8,0.9-2.8,1s-2,0.3-2.9,0.3
		c-2.5,0-4.4-0.3-5.8-0.9c-1.4-0.6-2.4-1.3-3-2.2s-1-1.8-1.1-2.8s-0.1-1.9-0.1-2.8V22.2h-4.8v-1h4.8v-9.3
		C431.8,12.4,432.5,12.7,433.2,12.8z"/>
</g>
</svg>
