<?xml version="1.0" encoding="utf-8"?>
<!-- Generator: Adobe Illustrator 21.1.0, SVG Export Plug-In . SVG Version: 6.00 Build 0)  -->
<svg version="1.1" id="Layer_1" xmlns="http://www.w3.org/2000/svg" xmlns:xlink="http://www.w3.org/1999/xlink" x="0px" y="0px"
	 viewBox="0 0 766.6 123" style="enable-background:new 0 0 766.6 123;" xml:space="preserve">
<style type="text/css">
	.st0{fill:#FFFFFF;}
</style>
<g>
	<path class="st0" d="M10.8,0.5V1H8.2l6.5,19h0.1l3.8-10.7l-2.8-8.2h-1.9V0.6h10.7v0.5h-3.3l6.5,19h0.1l6.7-19h-3.1V0.6h6.6v0.5
		h-2.9l-9.3,26.1h-1l-5.9-17h-0.1l-6,17h-1L3,1.1H0V0.6L10.8,0.5L10.8,0.5z"/>
	<path class="st0" d="M43.7,18.7c0,0.9,0,1.7,0.1,2.6s0.3,1.7,0.6,2.4c0.3,0.7,0.8,1.3,1.4,1.7c0.6,0.5,1.4,0.7,2.5,0.7
		c1,0,1.8-0.2,2.4-0.5c0.7-0.4,1.2-0.8,1.6-1.2c0.4-0.5,0.7-0.9,0.9-1.4s0.3-0.8,0.3-1l0.5,0.2c-0.1,0.5-0.3,0.9-0.6,1.5
		c-0.3,0.5-0.7,1-1.2,1.4s-1.1,0.8-1.9,1.1c-0.7,0.3-1.6,0.4-2.7,0.4c-1.2,0-2.4-0.2-3.5-0.6s-2-0.9-2.8-1.6s-1.4-1.6-1.9-2.6
		s-0.7-2.2-0.7-3.5c0-1,0.2-2,0.6-3c0.4-1,1-1.9,1.8-2.6c0.8-0.8,1.6-1.4,2.7-1.8c1-0.5,2.1-0.7,3.3-0.7c0.8,0,1.7,0.1,2.5,0.4
		s1.6,0.7,2.3,1.2c0.7,0.6,1.2,1.3,1.7,2.1c0.4,0.9,0.6,1.9,0.6,3.1H43.6L43.7,18.7L43.7,18.7z M49.4,14.1c0-0.3,0-0.6,0-1
		s-0.1-0.8-0.3-1.2c-0.1-0.4-0.4-0.7-0.7-1s-0.8-0.4-1.4-0.4c-0.8,0-1.4,0.2-1.9,0.6c-0.4,0.4-0.8,0.9-1,1.5s-0.4,1.2-0.4,1.9
		c-0.1,0.7-0.1,1.3-0.1,2h5.8L49.4,14.1L49.4,14.1z"/>
	<path class="st0" d="M69.3,25.6V0.7h-2.4V0.2h6.8v14h0.1c0.1-0.2,0.3-0.5,0.5-1c0.2-0.4,0.6-0.8,1-1.3c0.5-0.4,1-0.8,1.7-1.1
		c0.7-0.3,1.6-0.5,2.7-0.5c1.6,0,2.8,0.5,3.7,1.4s1.3,2.2,1.3,3.7v10.2h2.4v0.5h-9v-0.5h2.2V14.2c0-1-0.2-1.7-0.6-2.2
		c-0.4-0.5-1-0.7-1.7-0.7c-0.6,0-1.1,0.1-1.7,0.4s-1,0.7-1.4,1.2c-0.4,0.6-0.7,1.2-1,2.1c-0.2,0.8-0.4,1.8-0.4,2.9v7.7h2.3v0.5h-9
		v-0.5L69.3,25.6L69.3,25.6z"/>
	<path class="st0" d="M94.4,18.7c0,0.9,0,1.7,0.1,2.6s0.3,1.7,0.6,2.4c0.3,0.7,0.8,1.3,1.4,1.7c0.6,0.5,1.4,0.7,2.5,0.7
		c1,0,1.8-0.2,2.4-0.5c0.7-0.4,1.2-0.8,1.6-1.2c0.4-0.5,0.7-0.9,0.9-1.4s0.3-0.8,0.3-1l0.5,0.2c-0.1,0.5-0.3,0.9-0.6,1.5
		c-0.3,0.5-0.7,1-1.2,1.4s-1.1,0.8-1.9,1.1c-0.7,0.3-1.6,0.4-2.7,0.4c-1.2,0-2.4-0.2-3.5-0.6s-2-0.9-2.8-1.6s-1.4-1.6-1.9-2.6
		s-0.7-2.2-0.7-3.5c0-1,0.2-2,0.6-3c0.4-1,1-1.9,1.8-2.6c0.8-0.8,1.6-1.4,2.7-1.8c1-0.5,2.1-0.7,3.3-0.7c0.8,0,1.7,0.1,2.5,0.4
		s1.6,0.7,2.3,1.2c0.7,0.6,1.2,1.3,1.7,2.1c0.4,0.9,0.6,1.9,0.6,3.1H94.3L94.4,18.7L94.4,18.7z M100.1,14.1c0-0.3,0-0.6,0-1
		s-0.1-0.8-0.3-1.2c-0.1-0.4-0.4-0.7-0.7-1s-0.8-0.4-1.4-0.4c-0.8,0-1.4,0.2-1.9,0.6c-0.4,0.4-0.8,0.9-1,1.5s-0.4,1.2-0.4,1.9
		c-0.1,0.7-0.1,1.3-0.1,2h5.8L100.1,14.1L100.1,14.1z"/>
	<path class="st0" d="M114.3,0.1v25.5h2.4v0.5h-9.2v-0.5h2.4V0.7h-2.4V0.2h6.8V0.1z"/>
	<path class="st0" d="M118.7,11.2v-0.5h6.7v2.7h0.1c0.7-2.1,2.2-3.2,4.2-3.2c1.4,0,2.6,0.3,3.6,0.8s1.8,1.2,2.4,2s1.1,1.7,1.4,2.7
		s0.5,1.9,0.5,2.7c0,1.1-0.2,2.1-0.6,3.1s-0.9,1.9-1.6,2.6c-0.7,0.8-1.5,1.4-2.5,1.8c-1,0.5-2,0.7-3.2,0.7c-1.1,0-2-0.3-2.7-0.9
		s-1.2-1.3-1.5-2.2h-0.1v12.1h2.4v0.5h-9.2v-0.5h2.4V11.1L118.7,11.2L118.7,11.2z M125.5,20.9c0.1,0.9,0.2,1.7,0.5,2.5
		s0.7,1.4,1.3,1.9s1.4,0.8,2.4,0.8c0.7,0,1.2-0.2,1.6-0.5c0.4-0.3,0.7-0.9,0.9-1.5c0.2-0.7,0.3-1.5,0.4-2.4c0.1-0.9,0.1-2,0.1-3.2
		c0-1.4-0.1-2.7-0.2-3.7c-0.1-1-0.3-1.8-0.6-2.4c-0.3-0.6-0.6-1-1-1.3s-0.9-0.4-1.5-0.4c-0.9,0-1.6,0.3-2.1,0.8s-0.9,1.1-1.2,1.9
		s-0.4,1.6-0.5,2.5s-0.1,1.8-0.1,2.6C125.5,19.1,125.5,20,125.5,20.9z"/>
	<path class="st0" d="M164.3,11.2h-3v-0.5h5.2v0.5h-1.7c-1.3,2.9-2.5,5.5-3.5,7.7c-1,2.3-1.8,4.3-2.5,6.1c-0.7,1.8-1.3,3.3-1.9,4.7
		c-0.5,1.4-1.1,2.5-1.5,3.6c-0.5,1.1-1,1.9-1.6,2.4s-1.4,0.8-2.4,0.8c-1.1,0-2-0.3-2.6-0.8s-1-1.2-1-2.1c0-0.7,0.2-1.2,0.7-1.5
		c0.4-0.3,1-0.5,1.6-0.5c0.5,0,0.9,0.1,1.3,0.4s0.6,0.6,0.6,1.1c0,0.4-0.1,0.8-0.2,1c-0.2,0.3-0.2,0.6-0.2,0.9s0.1,0.5,0.2,0.6
		s0.3,0.2,0.5,0.2c0.4,0,0.8-0.2,1.2-0.5c0.4-0.3,0.7-0.7,1-1.2s0.6-1,0.8-1.5c0.2-0.5,0.4-1,0.6-1.4l1.5-3.9l-6.8-16.2h-1.9v-0.4
		h9.1v0.5h-2.5l4.4,10.4L164.3,11.2z"/>
	<path class="st0" d="M179.7,10.8c1.1,0.4,2,1,2.8,1.8c0.8,0.7,1.4,1.6,1.9,2.6c0.4,1,0.7,2,0.7,3.1s-0.2,2.2-0.7,3.2
		c-0.4,1-1.1,1.9-1.9,2.6s-1.7,1.3-2.8,1.8c-1.1,0.4-2.2,0.6-3.5,0.6s-2.4-0.2-3.5-0.6s-2-1-2.8-1.8c-0.8-0.7-1.4-1.6-1.9-2.6
		c-0.4-1-0.7-2.1-0.7-3.2s0.2-2.2,0.7-3.1c0.4-1,1.1-1.9,1.9-2.6s1.7-1.3,2.8-1.8c1.1-0.4,2.2-0.7,3.5-0.7S178.7,10.4,179.7,10.8z
		 M178.4,25.4c0.5-0.4,0.9-1,1.2-1.7c0.3-0.7,0.4-1.5,0.5-2.5s0.1-1.9,0.1-2.8c0-1,0-1.9-0.1-2.8s-0.2-1.7-0.5-2.5
		c-0.3-0.7-0.6-1.3-1.2-1.7c-0.5-0.4-1.3-0.7-2.2-0.7s-1.7,0.2-2.2,0.7c-0.5,0.4-0.9,1-1.2,1.7c-0.3,0.7-0.4,1.5-0.5,2.5
		c-0.1,0.9-0.1,1.9-0.1,2.8c0,1,0,1.9,0.1,2.8s0.2,1.8,0.5,2.5s0.6,1.3,1.2,1.7c0.5,0.4,1.3,0.7,2.2,0.7S177.9,25.9,178.4,25.4z"/>
	<path class="st0" d="M194,10.7v11.4c0,0.9,0.2,1.7,0.5,2.3c0.4,0.6,1,1,1.9,1c0.6,0,1.1-0.1,1.5-0.4c0.5-0.3,0.8-0.6,1.2-1.1
		c0.3-0.4,0.6-1,0.8-1.6c0.2-0.6,0.3-1.2,0.3-1.9v-9.3h-2.4v-0.4h6.8v14.9h2.4v0.5h-6.7v-2.9h-0.1c-0.2,0.5-0.5,1-0.9,1.4
		s-0.8,0.7-1.3,1s-1,0.5-1.6,0.6s-1.1,0.2-1.6,0.2c-1.7,0-3-0.4-3.9-1.1s-1.3-2-1.3-3.7V11.2h-2.4v-0.5H194z"/>
	<path class="st0" d="M220.4,20.9c0.3,0.7,0.6,1.3,0.9,1.9s0.7,1.2,1.1,1.7s0.9,0.9,1.5,1.2c0.6,0.3,1.3,0.5,2.1,0.5
		c0.2,0,0.5,0,0.9,0s0.7-0.1,1.1-0.3c0.3-0.2,0.6-0.5,0.9-0.8s0.4-0.9,0.4-1.6c0-0.2,0-0.4-0.1-0.7c-0.1-0.2-0.2-0.5-0.4-0.7
		c-0.2-0.2-0.5-0.5-0.8-0.7c-0.4-0.2-0.9-0.5-1.5-0.7l-2.9-1.1c-0.3-0.1-0.7-0.3-1.1-0.5s-0.7-0.5-1.1-0.8c-0.3-0.3-0.6-0.7-0.8-1.2
		c-0.2-0.5-0.3-1-0.3-1.7s0.1-1.4,0.4-2s0.7-1.2,1.2-1.6c0.5-0.5,1.1-0.8,1.9-1.1c0.7-0.3,1.5-0.4,2.4-0.4c0.5,0,0.9,0,1.3,0.1
		s0.8,0.2,1.1,0.3s0.6,0.2,0.9,0.3c0.3,0.1,0.5,0.1,0.6,0.1c0.3,0,0.4,0,0.5-0.1s0.1-0.2,0.2-0.3h0.5v4.4h-0.5
		c-0.2-0.6-0.5-1.1-0.7-1.7s-0.6-1-0.9-1.4s-0.8-0.7-1.3-0.9c-0.5-0.2-1.1-0.3-1.9-0.3s-1.5,0.2-2.2,0.6s-1,1-1,1.9
		c0,0.2,0,0.4,0.1,0.6c0,0.2,0.2,0.4,0.3,0.7c0.2,0.2,0.4,0.5,0.8,0.7s0.8,0.5,1.4,0.7l3.1,1c1.3,0.5,2.3,1.1,3,1.8
		c0.7,0.7,1,1.7,1,2.8c0,0.8-0.2,1.5-0.5,2.1s-0.8,1.2-1.4,1.6s-1.2,0.8-2,1c-0.7,0.2-1.5,0.4-2.3,0.4c-0.4,0-0.9,0-1.4-0.1
		s-1-0.2-1.5-0.3c-0.5-0.1-0.9-0.2-1.3-0.3c-0.4-0.1-0.7-0.1-0.9-0.1c-0.2,0-0.3,0-0.4,0.1s-0.2,0.2-0.2,0.4h-0.5v-5.2h0.3V20.9z"/>
	<path class="st0" d="M238.3,6.4c0.4,0.1,0.7,0.1,1.1,0.1s0.7,0,1.1-0.1s0.7-0.2,1.1-0.4v4.6h4.2v0.5h-4.2v12.1c0,0.4,0,0.7,0.1,1
		c0,0.3,0.1,0.6,0.3,0.8c0.1,0.3,0.3,0.4,0.6,0.6c0.3,0.1,0.6,0.2,1,0.2c0.5,0,0.8-0.1,1.2-0.3c0.3-0.2,0.6-0.4,0.8-0.7
		c0.2-0.3,0.4-0.6,0.6-1s0.3-0.8,0.4-1.1l0.5,0.1c-0.1,0.8-0.4,1.5-0.7,2c-0.3,0.5-0.7,0.9-1.2,1.1c-0.4,0.3-0.9,0.4-1.4,0.5
		s-1,0.1-1.4,0.1c-1.2,0-2.2-0.1-2.9-0.4c-0.7-0.3-1.2-0.6-1.5-1.1c-0.3-0.4-0.5-0.9-0.6-1.4c0-0.5-0.1-1-0.1-1.4V11.1h-2.4v-0.4
		h2.4V6.1C237.6,6.2,238,6.3,238.3,6.4z"/>
	<path class="st0" d="M263.7,26.4c-0.6,0.1-1.2,0.1-1.8,0.1c-1.2,0-2.1-0.2-2.7-0.6s-1-1-1.1-1.8H258c-0.4,1-0.9,1.6-1.6,1.9
		s-1.6,0.5-2.9,0.5c-0.6,0-1.2-0.1-1.8-0.2c-0.6-0.1-1.2-0.3-1.7-0.6c-0.5-0.3-0.9-0.6-1.2-1.1c-0.3-0.5-0.5-1-0.5-1.7
		s0.1-1.3,0.4-1.7c0.3-0.5,0.6-0.9,1.1-1.2c0.4-0.3,0.9-0.6,1.5-0.8c0.6-0.2,1.1-0.4,1.7-0.6c1-0.3,1.8-0.5,2.4-0.7s1.1-0.4,1.4-0.6
		s0.6-0.5,0.7-0.8s0.2-0.7,0.2-1.1v-2.2c0-0.6-0.2-1.2-0.5-1.8c-0.3-0.5-0.9-0.8-1.8-0.8c-0.6,0-1,0.1-1.4,0.4s-0.6,0.7-0.6,1.4
		c0,0.1,0,0.2,0,0.4c0,0.2,0,0.4,0.1,0.6c0,0.2,0,0.4,0.1,0.6c0,0.2,0,0.3,0,0.4c0,0.4-0.1,0.6-0.3,0.8c-0.2,0.2-0.4,0.4-0.6,0.5
		s-0.5,0.1-0.7,0.2c-0.3,0-0.5,0-0.6,0c-0.2,0-0.5,0-0.7-0.1c-0.3,0-0.5-0.1-0.7-0.3c-0.2-0.1-0.4-0.3-0.5-0.6
		c-0.1-0.2-0.2-0.6-0.2-1c0-0.6,0.2-1.2,0.5-1.7s0.8-0.9,1.4-1.2c0.6-0.3,1.2-0.6,2-0.7c0.7-0.2,1.5-0.3,2.3-0.3
		c0.9,0,1.8,0.1,2.6,0.2c0.8,0.1,1.5,0.4,2.1,0.8s1.1,0.9,1.4,1.6s0.5,1.5,0.5,2.5V24c0,0.5,0.1,0.9,0.2,1.2c0.1,0.3,0.5,0.5,1,0.5
		c0.3,0,0.6-0.1,0.8-0.2c0.2-0.1,0.4-0.3,0.6-0.5l0.3,0.3C264.8,26,264.3,26.3,263.7,26.4z M257.8,17.2c0,0.1-0.1,0.3-0.3,0.4
		c-0.1,0.1-0.4,0.3-0.7,0.5c-0.5,0.2-0.9,0.4-1.4,0.6s-0.9,0.5-1.2,0.8c-0.4,0.3-0.7,0.7-0.9,1.2c-0.2,0.5-0.3,1-0.3,1.8
		c0,0.3,0,0.6,0.1,1c0,0.4,0.1,0.8,0.3,1.1c0.2,0.4,0.4,0.7,0.7,0.9c0.3,0.3,0.7,0.4,1.3,0.4c0.3,0,0.6-0.1,0.9-0.2s0.6-0.4,0.8-0.7
		c0.2-0.3,0.4-0.7,0.6-1.2c0.1-0.5,0.2-1.1,0.2-1.8L257.8,17.2L257.8,17.2z"/>
	<path class="st0" d="M269.5,25.6V11.2h-2.4v-0.5h6.7v3.6h0.1c0.1-0.2,0.3-0.5,0.5-1c0.2-0.4,0.6-0.9,1-1.3c0.5-0.4,1-0.8,1.8-1.1
		c0.7-0.3,1.6-0.5,2.7-0.5c1.6,0,2.8,0.5,3.7,1.4c0.9,0.9,1.3,2.2,1.3,3.7v10.2h2.4v0.5h-9v-0.5h2.2V14.3c0-1-0.2-1.7-0.6-2.2
		s-1-0.7-1.7-0.7c-0.6,0-1.1,0.1-1.7,0.4c-0.5,0.3-1,0.7-1.4,1.2c-0.4,0.6-0.7,1.2-1,2.1c-0.2,0.8-0.4,1.8-0.4,2.9v7.7h2.3v0.5h-9
		v-0.5h2.5V25.6z"/>
	<path class="st0" d="M308.5,25.6v0.5h-6.7v-2.7h-0.1c-0.4,1-0.9,1.8-1.6,2.3s-1.6,0.8-2.6,0.8c-1.2,0-2.2-0.2-3.2-0.7
		s-1.8-1.1-2.5-1.8c-0.7-0.8-1.2-1.6-1.6-2.6s-0.6-2-0.6-3.1c0-0.8,0.1-1.7,0.4-2.7s0.8-1.8,1.4-2.7c0.6-0.8,1.4-1.5,2.4-2
		s2.2-0.8,3.6-0.8c1.1,0,2,0.3,2.6,0.8c0.7,0.5,1.2,1.3,1.5,2.3h0.1V0.7h-2.4V0.2h6.8v25.5L308.5,25.6L308.5,25.6z M301.6,15.8
		c-0.1-0.9-0.3-1.8-0.5-2.5c-0.3-0.8-0.7-1.4-1.2-1.9s-1.2-0.8-2.1-0.8c-0.6,0-1.1,0.1-1.5,0.4s-0.8,0.7-1,1.3
		c-0.3,0.6-0.5,1.4-0.6,2.4s-0.2,2.2-0.2,3.7c0,1.2,0,2.2,0.1,3.2c0.1,0.9,0.2,1.8,0.4,2.4c0.2,0.7,0.5,1.2,0.9,1.5s0.9,0.5,1.6,0.5
		c1,0,1.8-0.3,2.4-0.8s1-1.2,1.3-1.9s0.5-1.6,0.5-2.5c0.1-0.9,0.1-1.7,0.1-2.5C301.7,17.6,301.7,16.8,301.6,15.8z"/>
	<path class="st0" d="M333.1,10.8c1.1,0.4,2,1,2.8,1.8c0.8,0.7,1.4,1.6,1.9,2.6c0.4,1,0.7,2,0.7,3.1s-0.2,2.2-0.7,3.2
		c-0.4,1-1.1,1.9-1.9,2.6s-1.7,1.3-2.8,1.8c-1.1,0.4-2.2,0.6-3.5,0.6s-2.4-0.2-3.5-0.6s-2-1-2.8-1.8c-0.8-0.7-1.4-1.6-1.9-2.6
		c-0.4-1-0.7-2.1-0.7-3.2s0.2-2.2,0.7-3.1c0.4-1,1.1-1.9,1.9-2.6s1.7-1.3,2.8-1.8c1.1-0.4,2.2-0.7,3.5-0.7S332.1,10.4,333.1,10.8z
		 M331.8,25.4c0.5-0.4,0.9-1,1.2-1.7c0.3-0.7,0.4-1.5,0.5-2.5s0.1-1.9,0.1-2.8c0-1,0-1.9-0.1-2.8s-0.2-1.7-0.5-2.5
		c-0.3-0.7-0.6-1.3-1.2-1.7c-0.5-0.4-1.3-0.7-2.2-0.7s-1.7,0.2-2.2,0.7c-0.5,0.4-0.9,1-1.2,1.7c-0.3,0.7-0.4,1.5-0.5,2.5
		c-0.1,0.9-0.1,1.9-0.1,2.8c0,1,0,1.9,0.1,2.8s0.2,1.8,0.5,2.5s0.6,1.3,1.2,1.7c0.5,0.4,1.3,0.7,2.2,0.7S331.3,25.9,331.8,25.4z"/>
	<path class="st0" d="M347.4,10.7v11.4c0,0.9,0.2,1.7,0.5,2.3c0.4,0.6,1,1,1.9,1c0.6,0,1.1-0.1,1.5-0.4c0.5-0.3,0.8-0.6,1.2-1.1
		c0.3-0.4,0.6-1,0.8-1.6c0.2-0.6,0.3-1.2,0.3-1.9v-9.3h-2.4v-0.4h6.8v14.9h2.4v0.5h-6.7v-2.9h-0.1c-0.2,0.5-0.5,1-0.9,1.4
		s-0.8,0.7-1.3,1s-1,0.5-1.6,0.6s-1.1,0.2-1.6,0.2c-1.7,0-3-0.4-3.9-1.1s-1.3-2-1.3-3.7V11.2h-2.4v-0.5H347.4z"/>
	<path class="st0" d="M366.4,6.4c0.4,0.1,0.7,0.1,1.1,0.1s0.7,0,1.1-0.1s0.7-0.2,1.1-0.4v4.6h4.2v0.5h-4.2v12.1c0,0.4,0,0.7,0.1,1
		c0,0.3,0.1,0.6,0.3,0.8c0.1,0.3,0.3,0.4,0.6,0.6c0.3,0.1,0.6,0.2,1,0.2c0.5,0,0.8-0.1,1.2-0.3c0.3-0.2,0.6-0.4,0.8-0.7
		c0.2-0.3,0.4-0.6,0.6-1s0.3-0.8,0.4-1.1l0.5,0.1c-0.1,0.8-0.4,1.5-0.7,2c-0.3,0.5-0.7,0.9-1.2,1.1c-0.4,0.3-0.9,0.4-1.4,0.5
		s-1,0.1-1.4,0.1c-1.2,0-2.2-0.1-2.9-0.4c-0.7-0.3-1.2-0.6-1.5-1.1c-0.3-0.4-0.5-0.9-0.6-1.4c0-0.5-0.1-1-0.1-1.4V11.1H363v-0.4h2.4
		V6.1C365.6,6.2,366,6.3,366.4,6.4z"/>
	<path class="st0" d="M388.7,10.7c0-0.8,0-1.6,0-2.4s0.1-1.7,0.2-2.4c0.1-0.8,0.3-1.5,0.6-2.2s0.7-1.3,1.2-1.9c0.5-0.5,1.2-1,2-1.3
		s1.8-0.5,3-0.5c0.6,0,1.1,0.1,1.6,0.2s1,0.3,1.4,0.6c0.4,0.3,0.8,0.6,1,1.1c0.3,0.4,0.4,1,0.4,1.6s-0.2,1-0.6,1.4
		c-0.4,0.4-0.9,0.6-1.4,0.6c-1.3,0-1.9-0.6-1.9-1.8c0-0.1,0-0.2,0.1-0.4c0-0.2,0.1-0.4,0.1-0.6s0.1-0.4,0.1-0.6s0-0.3,0-0.4
		c0-0.4-0.2-0.8-0.5-1s-0.7-0.3-1.1-0.3c-0.5,0-0.9,0.1-1.2,0.4s-0.5,0.6-0.6,1s-0.2,0.9-0.2,1.5s0,1.2,0,1.8v5.6h3v0.5h-3v14.4h2.8
		v0.5h-9.5v-0.5h2.4V11.2h-2.4v-0.5H388.7z"/>
	<path class="st0" d="M405.8,10.7v3h0.1c0.4-0.9,1-1.7,1.7-2.4s1.7-1,2.9-1c1,0,1.8,0.3,2.4,0.8s0.9,1.3,0.9,2.2
		c0,0.7-0.2,1.3-0.5,1.7c-0.3,0.4-0.9,0.6-1.7,0.6c-0.6,0-1.1-0.1-1.5-0.3c-0.5-0.2-0.7-0.7-0.7-1.3c0-0.1,0-0.2,0-0.4
		c0-0.2,0.1-0.4,0.1-0.6s0.1-0.4,0.1-0.6s0-0.3,0-0.3c0-0.2-0.1-0.3-0.1-0.4s-0.1-0.2-0.2-0.3c-0.1-0.1-0.3-0.1-0.5-0.1
		s-0.5,0.1-0.9,0.3c-0.4,0.2-0.7,0.6-1,1s-0.6,1-0.8,1.6s-0.3,1.3-0.3,2.1v9.2h2.8V26H399v-0.5h2.3V11.1H399v-0.4H405.8z"/>
	<path class="st0" d="M427.1,10.8c1.1,0.4,2,1,2.8,1.8c0.8,0.7,1.4,1.6,1.9,2.6c0.4,1,0.7,2,0.7,3.1s-0.2,2.2-0.7,3.2
		c-0.4,1-1.1,1.9-1.9,2.6c-0.8,0.7-1.7,1.3-2.8,1.8c-1.1,0.4-2.2,0.6-3.5,0.6s-2.4-0.2-3.5-0.6s-2-1-2.8-1.8
		c-0.8-0.7-1.4-1.6-1.9-2.6c-0.4-1-0.7-2.1-0.7-3.2s0.2-2.2,0.7-3.1c0.4-1,1.1-1.9,1.9-2.6c0.8-0.7,1.7-1.3,2.8-1.8
		c1.1-0.4,2.2-0.7,3.5-0.7S426,10.4,427.1,10.8z M425.8,25.4c0.5-0.4,0.9-1,1.2-1.7s0.4-1.5,0.5-2.5c0.1-0.9,0.1-1.9,0.1-2.8
		c0-1,0-1.9-0.1-2.8s-0.2-1.7-0.5-2.5c-0.3-0.7-0.6-1.3-1.2-1.7c-0.5-0.4-1.3-0.7-2.2-0.7s-1.7,0.2-2.2,0.7c-0.5,0.4-0.9,1-1.2,1.7
		s-0.4,1.5-0.5,2.5c-0.1,0.9-0.1,1.9-0.1,2.8c0,1,0,1.9,0.1,2.8s0.2,1.8,0.5,2.5s0.6,1.3,1.2,1.7c0.5,0.4,1.3,0.7,2.2,0.7
		C424.6,26.1,425.3,25.9,425.8,25.4z"/>
	<path class="st0" d="M441.9,10.7v2.6h0.1c0.1-0.2,0.3-0.5,0.6-0.8c0.2-0.3,0.6-0.6,1-0.9s0.9-0.6,1.4-0.8c0.6-0.2,1.2-0.3,2-0.3
		s1.5,0.1,2.1,0.3c0.6,0.2,1,0.4,1.4,0.7c0.4,0.3,0.7,0.6,0.9,0.9s0.4,0.7,0.6,1c0.4-0.6,0.8-1.2,1.2-1.5c0.4-0.4,0.9-0.7,1.3-0.9
		c0.5-0.2,0.9-0.3,1.3-0.4c0.4-0.1,0.7-0.1,1-0.1c1.4,0,2.4,0.2,3.2,0.6c0.7,0.4,1.3,0.9,1.6,1.5s0.5,1.2,0.6,1.8
		c0.1,0.6,0.1,1.2,0.1,1.6v9.8h2.4v0.5h-8.9v-0.5h2.1V14.6c0-1-0.2-1.8-0.6-2.3s-1-0.8-1.9-0.8c-0.3,0-0.6,0.1-1,0.2
		s-0.8,0.4-1.1,0.6c-0.4,0.3-0.7,0.7-0.9,1.1c-0.3,0.5-0.4,1-0.4,1.7v10.6h2.1v0.5h-8.5v-0.5h2.2V14.3c0-1.1-0.2-1.8-0.7-2.2
		c-0.5-0.4-1-0.6-1.5-0.6c-1,0-1.8,0.4-2.5,1.3c-0.2,0.2-0.4,0.5-0.5,0.7c-0.1,0.3-0.3,0.5-0.3,0.9c-0.1,0.3-0.1,0.7-0.2,1.1
		S442,16.4,442,17v8.8h2.1v0.5h-8.9v-0.5h2.4V11.4h-2.4v-0.7H441.9z"/>
	<path class="st0" d="M491,11.2h-3v-0.5h5.2v0.5h-1.6c-1.3,2.9-2.5,5.5-3.5,7.7c-1,2.3-1.8,4.3-2.5,6.1c-0.7,1.8-1.3,3.3-1.9,4.7
		c-0.5,1.4-1,2.5-1.5,3.6s-1,1.9-1.6,2.4s-1.4,0.8-2.4,0.8c-1.1,0-2-0.3-2.6-0.8c-0.7-0.5-1-1.2-1-2.1c0-0.7,0.2-1.2,0.7-1.5
		c0.4-0.3,1-0.5,1.6-0.5c0.5,0,0.9,0.1,1.3,0.4s0.6,0.6,0.6,1.1c0,0.4-0.1,0.8-0.2,1c-0.2,0.3-0.2,0.6-0.2,0.9s0.1,0.5,0.2,0.6
		c0.1,0.1,0.3,0.2,0.5,0.2c0.4,0,0.8-0.2,1.2-0.5s0.7-0.7,1-1.2s0.6-1,0.8-1.5s0.4-1,0.6-1.4l1.5-3.9l-6.8-16.2h-1.9v-0.4h9.1v0.5
		h-2.5l4.4,10.4L491,11.2z"/>
	<path class="st0" d="M506.5,10.8c1.1,0.4,2,1,2.8,1.8c0.8,0.7,1.4,1.6,1.9,2.6c0.4,1,0.7,2,0.7,3.1s-0.2,2.2-0.7,3.2
		c-0.4,1-1.1,1.9-1.9,2.6c-0.8,0.7-1.7,1.3-2.8,1.8c-1.1,0.4-2.2,0.6-3.5,0.6s-2.4-0.2-3.5-0.6s-2-1-2.8-1.8
		c-0.8-0.7-1.4-1.6-1.9-2.6c-0.4-1-0.7-2.1-0.7-3.2s0.2-2.2,0.7-3.1c0.4-1,1.1-1.9,1.9-2.6c0.8-0.7,1.7-1.3,2.8-1.8
		c1.1-0.4,2.2-0.7,3.5-0.7S505.4,10.4,506.5,10.8z M505.2,25.4c0.5-0.4,0.9-1,1.2-1.7s0.4-1.5,0.5-2.5c0.1-0.9,0.1-1.9,0.1-2.8
		c0-1,0-1.9-0.1-2.8s-0.2-1.7-0.5-2.5c-0.3-0.7-0.6-1.3-1.2-1.7c-0.5-0.4-1.3-0.7-2.2-0.7s-1.7,0.2-2.2,0.7c-0.5,0.4-0.9,1-1.2,1.7
		s-0.4,1.5-0.5,2.5c-0.1,0.9-0.1,1.9-0.1,2.8c0,1,0,1.9,0.1,2.8s0.2,1.8,0.5,2.5s0.6,1.3,1.2,1.7c0.5,0.4,1.3,0.7,2.2,0.7
		C503.9,26.1,504.7,25.9,505.2,25.4z"/>
	<path class="st0" d="M520.8,10.7v11.4c0,0.9,0.2,1.7,0.5,2.3c0.4,0.6,1,1,1.9,1c0.6,0,1.1-0.1,1.5-0.4c0.5-0.3,0.8-0.6,1.2-1.1
		c0.3-0.4,0.6-1,0.8-1.6s0.3-1.2,0.3-1.9v-9.3h-2.4v-0.4h6.8v14.9h2.4v0.5h-6.7v-2.9H527c-0.2,0.5-0.5,1-0.9,1.4s-0.8,0.7-1.3,1
		s-1,0.5-1.6,0.6s-1.1,0.2-1.6,0.2c-1.7,0-3-0.4-3.9-1.1s-1.3-2-1.3-3.7V11.2H514v-0.5H520.8z"/>
	<path class="st0" d="M543.1,10.7v3h0.1c0.4-0.9,1-1.7,1.7-2.4c0.7-0.7,1.7-1,2.9-1c1,0,1.8,0.3,2.4,0.8s0.9,1.3,0.9,2.2
		c0,0.7-0.2,1.3-0.5,1.7c-0.3,0.4-0.9,0.6-1.7,0.6c-0.6,0-1.1-0.1-1.5-0.3c-0.5-0.2-0.7-0.7-0.7-1.3c0-0.1,0-0.2,0-0.4
		c0-0.2,0.1-0.4,0.1-0.6s0.1-0.4,0.1-0.6s0-0.3,0-0.3c0-0.2-0.1-0.3-0.1-0.4s-0.1-0.2-0.2-0.3c-0.1-0.1-0.3-0.1-0.5-0.1
		s-0.5,0.1-0.9,0.3c-0.4,0.2-0.7,0.6-1,1s-0.6,1-0.8,1.6s-0.3,1.3-0.3,2.1v9.2h2.8V26h-9.6v-0.5h2.3V11.1h-2.3v-0.4H543.1z"/>
	<path class="st0" d="M562.8,15.6c0.4-1,1-1.8,1.7-2.6c0.8-0.8,1.7-1.5,2.8-2s2.4-0.8,3.8-0.8c0.9,0,1.7,0.1,2.5,0.3
		c0.7,0.2,1.4,0.5,1.9,0.8s1,0.8,1.3,1.3s0.4,1,0.4,1.6c0,0.8-0.2,1.4-0.6,1.7c-0.4,0.3-1,0.5-1.7,0.5c-0.6,0-1.1-0.1-1.5-0.3
		c-0.5-0.2-0.7-0.6-0.7-1.3c0-0.1,0-0.3,0.1-0.5s0.1-0.5,0.2-0.8c0.1-0.3,0.1-0.5,0.2-0.8c0.1-0.2,0.1-0.4,0.1-0.5
		c0-0.5-0.2-0.9-0.6-1.1c-0.4-0.3-0.9-0.4-1.6-0.4c-0.9,0-1.5,0.2-2.1,0.6c-0.5,0.4-0.9,1-1.2,1.6c-0.3,0.7-0.5,1.5-0.5,2.4
		c-0.1,0.9-0.1,1.9-0.1,2.9c0,0.9,0,1.9,0.1,2.8s0.3,1.8,0.6,2.6c0.3,0.8,0.8,1.4,1.4,1.9c0.6,0.5,1.4,0.7,2.4,0.7s1.8-0.2,2.5-0.5
		s1.2-0.8,1.6-1.2c0.4-0.5,0.7-0.9,0.9-1.4s0.3-0.8,0.4-1l0.5,0.2c-0.1,0.4-0.3,0.9-0.6,1.4s-0.6,1-1.1,1.4s-1.1,0.8-1.9,1.1
		s-1.7,0.5-2.9,0.5c-0.3,0-0.8,0-1.3-0.1c-0.6-0.1-1.2-0.2-1.8-0.4c-0.7-0.2-1.3-0.5-2-0.8c-0.7-0.4-1.3-0.8-1.9-1.5
		c-0.6-0.6-1-1.4-1.4-2.2c-0.3-0.9-0.5-1.9-0.5-3.2C562.2,17.5,562.4,16.5,562.8,15.6z"/>
	<path class="st0" d="M591.8,10.8c1.1,0.4,2,1,2.8,1.8c0.8,0.7,1.4,1.6,1.9,2.6c0.4,1,0.7,2,0.7,3.1s-0.2,2.2-0.7,3.2
		c-0.4,1-1.1,1.9-1.9,2.6c-0.8,0.7-1.7,1.3-2.8,1.8c-1.1,0.4-2.2,0.6-3.5,0.6s-2.4-0.2-3.5-0.6s-2-1-2.8-1.8
		c-0.8-0.7-1.4-1.6-1.9-2.6c-0.4-1-0.7-2.1-0.7-3.2s0.2-2.2,0.7-3.1c0.4-1,1.1-1.9,1.9-2.6c0.8-0.7,1.7-1.3,2.8-1.8
		c1.1-0.4,2.2-0.7,3.5-0.7S590.7,10.4,591.8,10.8z M590.5,25.4c0.5-0.4,0.9-1,1.2-1.7s0.4-1.5,0.5-2.5c0.1-0.9,0.1-1.9,0.1-2.8
		c0-1,0-1.9-0.1-2.8s-0.2-1.7-0.5-2.5c-0.3-0.7-0.6-1.3-1.2-1.7c-0.5-0.4-1.3-0.7-2.2-0.7s-1.7,0.2-2.2,0.7c-0.5,0.4-0.9,1-1.2,1.7
		s-0.4,1.5-0.5,2.5c-0.1,0.9-0.1,1.9-0.1,2.8c0,1,0,1.9,0.1,2.8s0.2,1.8,0.5,2.5s0.6,1.3,1.2,1.7c0.5,0.4,1.3,0.7,2.2,0.7
		C589.2,26.1,590,25.9,590.5,25.4z"/>
	<path class="st0" d="M606.5,10.7v2.6h0.1c0.1-0.2,0.3-0.5,0.6-0.8c0.2-0.3,0.6-0.6,1-0.9s0.9-0.6,1.4-0.8c0.6-0.2,1.2-0.3,2-0.3
		s1.5,0.1,2.1,0.3c0.6,0.2,1,0.4,1.4,0.7c0.4,0.3,0.7,0.6,0.9,0.9s0.4,0.7,0.6,1c0.4-0.6,0.8-1.2,1.2-1.5c0.4-0.4,0.9-0.7,1.3-0.9
		c0.5-0.2,0.9-0.3,1.3-0.4c0.4-0.1,0.7-0.1,1-0.1c1.4,0,2.4,0.2,3.2,0.6c0.7,0.4,1.3,0.9,1.6,1.5s0.5,1.2,0.6,1.8
		c0.1,0.6,0.1,1.2,0.1,1.6v9.8h2.4v0.5h-8.9v-0.5h2.1V14.6c0-1-0.2-1.8-0.6-2.3s-1-0.8-1.9-0.8c-0.3,0-0.6,0.1-1,0.2
		s-0.8,0.4-1.1,0.6c-0.4,0.3-0.7,0.7-0.9,1.1c-0.3,0.5-0.4,1-0.4,1.7v10.6h2.1v0.5H610v-0.5h2.2V14.3c0-1.1-0.2-1.8-0.7-2.2
		c-0.5-0.4-1-0.6-1.5-0.6c-1,0-1.8,0.4-2.5,1.3c-0.2,0.2-0.4,0.5-0.5,0.7c-0.1,0.3-0.3,0.5-0.3,0.9c-0.1,0.3-0.1,0.7-0.2,1.1
		s-0.1,0.9-0.1,1.5v8.8h2.1v0.5h-8.9v-0.5h2.4V11.4h-2.4v-0.7H606.5z"/>
	<path class="st0" d="M631.4,11.2v-0.5h6.7v2.7h0.1c0.7-2.1,2.2-3.2,4.2-3.2c1.4,0,2.6,0.3,3.6,0.8s1.8,1.2,2.4,2
		c0.6,0.8,1.1,1.7,1.4,2.7c0.3,1,0.5,1.9,0.5,2.7c0,1.1-0.2,2.1-0.6,3.1c-0.4,1-0.9,1.9-1.6,2.6c-0.7,0.8-1.5,1.4-2.5,1.8
		s-2,0.7-3.2,0.7c-1.1,0-2-0.3-2.7-0.9s-1.2-1.3-1.5-2.2h-0.1v12.1h2.4v0.5h-9.2v-0.5h2.4V11.1L631.4,11.2L631.4,11.2z M638.3,20.9
		c0.1,0.9,0.2,1.7,0.5,2.5s0.7,1.4,1.3,1.9s1.3,0.8,2.4,0.8c0.7,0,1.2-0.2,1.6-0.5c0.4-0.4,0.7-0.9,0.9-1.5s0.3-1.5,0.4-2.4
		c0.1-0.9,0.1-2,0.1-3.2c0-1.4-0.1-2.7-0.2-3.7c-0.1-1-0.3-1.8-0.6-2.4s-0.6-1-1-1.3s-0.9-0.4-1.5-0.4c-0.9,0-1.6,0.3-2.1,0.8
		s-0.9,1.1-1.2,1.9s-0.4,1.6-0.5,2.5s-0.1,1.8-0.1,2.6C638.2,19.1,638.2,20,638.3,20.9z"/>
	<path class="st0" d="M657.8,18.7c0,0.9,0,1.7,0.1,2.6s0.3,1.7,0.6,2.4c0.3,0.7,0.8,1.3,1.4,1.7c0.6,0.5,1.4,0.7,2.5,0.7
		c1,0,1.8-0.2,2.4-0.5s1.2-0.8,1.6-1.2c0.4-0.5,0.7-0.9,0.9-1.4s0.3-0.8,0.3-1l0.5,0.2c-0.1,0.5-0.3,0.9-0.6,1.5
		c-0.3,0.5-0.7,1-1.2,1.4s-1.1,0.8-1.9,1.1c-0.7,0.3-1.6,0.4-2.7,0.4c-1.2,0-2.4-0.2-3.5-0.6s-2-0.9-2.8-1.6s-1.4-1.6-1.9-2.6
		s-0.7-2.2-0.7-3.5c0-1,0.2-2,0.6-3c0.4-1,1-1.9,1.8-2.6c0.8-0.8,1.6-1.4,2.7-1.8c1-0.5,2.1-0.7,3.3-0.7c0.8,0,1.7,0.1,2.5,0.4
		s1.6,0.7,2.3,1.2c0.7,0.6,1.2,1.3,1.7,2.1c0.4,0.9,0.6,1.9,0.6,3.1h-10.6v1.7H657.8z M663.5,14.1c0-0.3,0-0.6,0-1s-0.1-0.8-0.3-1.2
		c-0.1-0.4-0.4-0.7-0.7-1s-0.8-0.4-1.4-0.4c-0.8,0-1.4,0.2-1.9,0.6c-0.4,0.4-0.8,0.9-1,1.5s-0.4,1.2-0.4,1.9s-0.1,1.3-0.1,2h5.8
		L663.5,14.1L663.5,14.1z"/>
	<path class="st0" d="M674.4,6.4c0.4,0.1,0.7,0.1,1.1,0.1c0.4,0,0.7,0,1.1-0.1c0.4-0.1,0.7-0.2,1.1-0.4v4.6h4.2v0.5h-4.2v12.1
		c0,0.4,0,0.7,0.1,1c0,0.3,0.1,0.6,0.3,0.8s0.3,0.4,0.6,0.6s0.6,0.2,1,0.2c0.5,0,0.8-0.1,1.2-0.3c0.3-0.2,0.6-0.4,0.8-0.7
		c0.2-0.3,0.4-0.6,0.6-1c0.2-0.4,0.3-0.8,0.4-1.1l0.5,0.1c-0.1,0.8-0.4,1.5-0.7,2s-0.7,0.9-1.2,1.1c-0.4,0.3-0.9,0.4-1.4,0.5
		s-1,0.1-1.4,0.1c-1.2,0-2.2-0.1-2.9-0.4s-1.2-0.6-1.5-1.1c-0.3-0.4-0.5-0.9-0.6-1.4c0-0.5-0.1-1-0.1-1.4V11.1H671v-0.4h2.4V6.1
		C673.7,6.2,674,6.3,674.4,6.4z"/>
	<path class="st0" d="M691.1,10.7v14.9h2.4v0.5h-9.2v-0.5h2.4V11.2h-2.4v-0.5H691.1z M687.1,1.1c0.5-0.5,1.1-0.8,1.8-0.8
		s1.3,0.3,1.8,0.8s0.8,1.1,0.8,1.8c0,0.7-0.3,1.3-0.8,1.8s-1.1,0.8-1.8,0.8s-1.3-0.3-1.8-0.8s-0.8-1.1-0.8-1.8S686.6,1.6,687.1,1.1z
		"/>
	<path class="st0" d="M699.1,6.4c0.4,0.1,0.7,0.1,1.1,0.1c0.4,0,0.7,0,1.1-0.1c0.4-0.1,0.7-0.2,1.1-0.4v4.6h4.2v0.5h-4.2v12.1
		c0,0.4,0,0.7,0.1,1c0,0.3,0.1,0.6,0.3,0.8s0.3,0.4,0.6,0.6s0.6,0.2,1,0.2c0.5,0,0.8-0.1,1.2-0.3c0.3-0.2,0.6-0.4,0.8-0.7
		c0.2-0.3,0.4-0.6,0.6-1c0.2-0.4,0.3-0.8,0.4-1.1l0.5,0.1c-0.1,0.8-0.4,1.5-0.7,2s-0.7,0.9-1.2,1.1c-0.4,0.3-0.9,0.4-1.4,0.5
		s-1,0.1-1.4,0.1c-1.2,0-2.2-0.1-2.9-0.4s-1.2-0.6-1.5-1.1c-0.3-0.4-0.5-0.9-0.6-1.4c0-0.5-0.1-1-0.1-1.4V11.1h-2.4v-0.4h2.4V6.1
		C698.3,6.2,698.7,6.3,699.1,6.4z"/>
	<path class="st0" d="M721.1,10.8c1.1,0.4,2,1,2.8,1.8c0.8,0.7,1.4,1.6,1.9,2.6c0.4,1,0.7,2,0.7,3.1s-0.2,2.2-0.7,3.2
		c-0.4,1-1.1,1.9-1.9,2.6c-0.8,0.7-1.7,1.3-2.8,1.8c-1.1,0.4-2.2,0.6-3.5,0.6s-2.4-0.2-3.5-0.6s-2-1-2.8-1.8
		c-0.8-0.7-1.4-1.6-1.9-2.6c-0.4-1-0.7-2.1-0.7-3.2s0.2-2.2,0.7-3.1c0.4-1,1.1-1.9,1.9-2.6c0.8-0.7,1.7-1.3,2.8-1.8
		c1.1-0.4,2.2-0.7,3.5-0.7S720.1,10.4,721.1,10.8z M719.8,25.4c0.5-0.4,0.9-1,1.2-1.7s0.4-1.5,0.5-2.5c0.1-0.9,0.1-1.9,0.1-2.8
		c0-1,0-1.9-0.1-2.8s-0.2-1.7-0.5-2.5c-0.3-0.7-0.6-1.3-1.2-1.7c-0.5-0.4-1.3-0.7-2.2-0.7s-1.7,0.2-2.2,0.7c-0.5,0.4-0.9,1-1.2,1.7
		s-0.4,1.5-0.5,2.5c-0.1,0.9-0.1,1.9-0.1,2.8c0,1,0,1.9,0.1,2.8s0.2,1.8,0.5,2.5s0.6,1.3,1.2,1.7c0.5,0.4,1.3,0.7,2.2,0.7
		C718.6,26.1,719.3,25.9,719.8,25.4z"/>
	<path class="st0" d="M735.8,10.7v3h0.1c0.4-0.9,1-1.7,1.7-2.4s1.7-1,2.9-1c1,0,1.8,0.3,2.4,0.8s0.9,1.3,0.9,2.2
		c0,0.7-0.2,1.3-0.5,1.7c-0.3,0.4-0.9,0.6-1.7,0.6c-0.6,0-1.1-0.1-1.5-0.3c-0.5-0.2-0.7-0.7-0.7-1.3c0-0.1,0-0.2,0-0.4
		c0-0.2,0.1-0.4,0.1-0.6s0.1-0.4,0.1-0.6s0-0.3,0-0.3c0-0.2-0.1-0.3-0.1-0.4s-0.1-0.2-0.2-0.3c-0.1-0.1-0.3-0.1-0.5-0.1
		s-0.5,0.1-0.9,0.3c-0.4,0.2-0.7,0.6-1,1s-0.6,1-0.8,1.6s-0.3,1.3-0.3,2.1v9.2h2.8V26H729v-0.5h2.3V11.1H729v-0.4H735.8z"/>
	<path class="st0" d="M745.7,20.9c0.3,0.7,0.6,1.3,0.9,1.9c0.3,0.6,0.7,1.2,1.1,1.7c0.4,0.5,0.9,0.9,1.5,1.2
		c0.6,0.3,1.3,0.5,2.1,0.5c0.2,0,0.5,0,0.9,0s0.7-0.1,1.1-0.3c0.3-0.2,0.6-0.5,0.9-0.8s0.4-0.9,0.4-1.6c0-0.2,0-0.4-0.1-0.7
		c-0.1-0.2-0.2-0.5-0.4-0.7s-0.5-0.5-0.8-0.7c-0.4-0.2-0.9-0.5-1.5-0.7l-2.9-1.1c-0.3-0.1-0.7-0.3-1.1-0.5c-0.4-0.2-0.7-0.5-1.1-0.8
		c-0.3-0.3-0.6-0.7-0.8-1.2s-0.3-1-0.3-1.7s0.1-1.4,0.4-2s0.7-1.2,1.2-1.6c0.5-0.5,1.1-0.8,1.9-1.1c0.7-0.3,1.5-0.4,2.4-0.4
		c0.5,0,0.9,0,1.3,0.1c0.4,0.1,0.8,0.2,1.1,0.3s0.6,0.2,0.9,0.3c0.3,0.1,0.5,0.1,0.6,0.1c0.3,0,0.4,0,0.5-0.1s0.1-0.2,0.2-0.3h0.5
		v4.4h-0.5c-0.2-0.6-0.5-1.1-0.7-1.7s-0.6-1-0.9-1.4c-0.3-0.4-0.8-0.7-1.3-0.9c-0.5-0.2-1.1-0.3-1.9-0.3c-0.8,0-1.5,0.2-2.2,0.6
		s-1,1-1,1.9c0,0.2,0,0.4,0.1,0.6c0,0.2,0.2,0.4,0.3,0.7c0.2,0.2,0.4,0.5,0.8,0.7c0.4,0.2,0.8,0.5,1.4,0.7l3.1,1
		c1.3,0.5,2.3,1.1,3,1.8c0.7,0.7,1,1.7,1,2.8c0,0.8-0.2,1.5-0.5,2.1s-0.8,1.2-1.4,1.6c-0.6,0.4-1.2,0.8-2,1s-1.5,0.4-2.3,0.4
		c-0.4,0-0.9,0-1.4-0.1s-1-0.2-1.5-0.3c-0.5-0.1-0.9-0.2-1.3-0.3c-0.4-0.1-0.7-0.1-0.9-0.1s-0.3,0-0.4,0.1s-0.2,0.2-0.2,0.4h-0.5
		v-5.2h0.3V20.9z"/>
	<path class="st0" d="M762.2,22.1c0.5-0.5,1.1-0.8,1.8-0.8s1.3,0.3,1.8,0.8s0.8,1.1,0.8,1.8c0,0.7-0.3,1.3-0.8,1.8s-1.1,0.7-1.8,0.7
		s-1.3-0.2-1.8-0.7s-0.8-1.1-0.8-1.8S761.7,22.6,762.2,22.1z"/>
	<path class="st0" d="M18.5,43.7v0.5h-2.6l6.5,19h0.1l3.8-10.7l-2.8-8.2h-1.9v-0.6h10.8v0.5h-3.3l6.5,19h0.1l6.7-19h-3.1v-0.5h6.6
		v0.5H43l-9.3,26.1h-1l-5.9-17h-0.1l-6,17h-1l-8.9-26.1h-3v-0.5H18.5z"/>
	<path class="st0" d="M51.3,61.9c0,0.9,0,1.7,0.1,2.6s0.3,1.7,0.6,2.4c0.3,0.7,0.8,1.3,1.4,1.7c0.6,0.5,1.4,0.7,2.5,0.7
		c1,0,1.8-0.2,2.4-0.5c0.7-0.4,1.2-0.8,1.6-1.2c0.4-0.5,0.7-0.9,0.9-1.4s0.3-0.8,0.3-1l0.5,0.2c-0.1,0.5-0.3,0.9-0.6,1.5
		c-0.3,0.5-0.7,1-1.2,1.4s-1.1,0.8-1.9,1.1c-0.7,0.3-1.6,0.5-2.7,0.5c-1.2,0-2.4-0.2-3.5-0.6s-2-0.9-2.8-1.6s-1.4-1.6-1.9-2.6
		s-0.7-2.2-0.7-3.5c0-1,0.2-2,0.6-3c0.4-1,1-1.9,1.8-2.6s1.6-1.4,2.7-1.8c1-0.5,2.1-0.7,3.3-0.7c0.8,0,1.7,0.1,2.5,0.4
		s1.6,0.7,2.3,1.2c0.7,0.6,1.2,1.3,1.7,2.1c0.4,0.9,0.6,1.9,0.6,3.2H51.2L51.3,61.9L51.3,61.9z M57.1,57.3c0-0.3,0-0.6,0-1
		s-0.1-0.8-0.3-1.2c-0.1-0.4-0.4-0.7-0.7-1s-0.8-0.4-1.4-0.4c-0.8,0-1.4,0.2-1.9,0.6c-0.4,0.4-0.8,0.9-1,1.5s-0.4,1.2-0.4,1.9
		c-0.1,0.7-0.1,1.3-0.1,2h5.8L57.1,57.3L57.1,57.3z"/>
	<path class="st0" d="M75,58.8c0.4-1,1-1.8,1.7-2.6c0.8-0.8,1.7-1.5,2.8-2s2.4-0.8,3.8-0.8c0.9,0,1.7,0.1,2.5,0.3
		c0.7,0.2,1.4,0.5,1.9,0.8s1,0.8,1.3,1.3s0.4,1,0.4,1.6c0,0.8-0.2,1.3-0.6,1.7c-0.4,0.3-1,0.5-1.7,0.5c-0.6,0-1.1-0.1-1.5-0.3
		c-0.5-0.2-0.7-0.6-0.7-1.3c0-0.1,0-0.3,0.1-0.5s0.1-0.5,0.2-0.8c0.1-0.3,0.1-0.5,0.2-0.8c0.1-0.2,0.1-0.4,0.1-0.5
		c0-0.5-0.2-0.9-0.6-1.1c-0.4-0.3-0.9-0.4-1.6-0.4c-0.9,0-1.5,0.2-2.1,0.6s-0.9,1-1.2,1.6c-0.3,0.7-0.5,1.5-0.5,2.4
		c-0.1,0.9-0.1,1.9-0.1,2.9c0,0.9,0,1.9,0.1,2.8s0.3,1.8,0.6,2.6c0.3,0.8,0.8,1.4,1.4,1.9c0.6,0.5,1.4,0.7,2.4,0.7s1.8-0.2,2.5-0.5
		s1.2-0.8,1.6-1.2c0.4-0.5,0.7-0.9,0.9-1.4s0.3-0.8,0.4-1l0.5,0.2c-0.1,0.4-0.3,0.9-0.6,1.4s-0.6,1-1.1,1.4s-1.1,0.8-1.9,1.1
		c-0.8,0.3-1.7,0.5-2.9,0.5c-0.3,0-0.8,0-1.3-0.1c-0.6-0.1-1.2-0.2-1.8-0.4c-0.7-0.2-1.3-0.5-2-0.8c-0.7-0.4-1.3-0.8-1.9-1.5
		c-0.6-0.6-1-1.4-1.4-2.2c-0.3-0.9-0.5-1.9-0.5-3.2C74.4,60.7,74.6,59.7,75,58.8z"/>
	<path class="st0" d="M98.6,53.9v3h0.1c0.4-0.9,1-1.7,1.7-2.4c0.7-0.7,1.7-1,2.9-1c1,0,1.8,0.3,2.4,0.8s0.9,1.3,0.9,2.2
		c0,0.7-0.2,1.3-0.5,1.7c-0.3,0.4-0.9,0.6-1.7,0.6c-0.6,0-1.1-0.1-1.5-0.3c-0.5-0.2-0.7-0.7-0.7-1.3c0-0.1,0-0.2,0-0.4
		s0.1-0.4,0.1-0.6s0.1-0.4,0.1-0.6s0-0.3,0-0.3c0-0.2-0.1-0.3-0.1-0.5c0-0.1-0.1-0.2-0.2-0.3c-0.1-0.1-0.3-0.1-0.5-0.1
		s-0.5,0.1-0.9,0.3c-0.4,0.2-0.7,0.6-1,1s-0.6,1-0.8,1.6s-0.3,1.3-0.3,2.1v9.2h2.8v0.5h-9.6v-0.5h2.3V54.2h-2.3v-0.5h6.8V53.9z"/>
	<path class="st0" d="M112.6,61.9c0,0.9,0,1.7,0.1,2.6s0.3,1.7,0.6,2.4c0.3,0.7,0.8,1.3,1.4,1.7c0.6,0.5,1.4,0.7,2.5,0.7
		c1,0,1.8-0.2,2.4-0.5c0.7-0.4,1.2-0.8,1.6-1.2c0.4-0.5,0.7-0.9,0.9-1.4s0.3-0.8,0.3-1l0.5,0.2c-0.1,0.5-0.3,0.9-0.6,1.5
		c-0.3,0.5-0.7,1-1.2,1.4s-1.1,0.8-1.9,1.1c-0.7,0.3-1.6,0.5-2.7,0.5c-1.2,0-2.4-0.2-3.5-0.6s-2-0.9-2.8-1.6s-1.4-1.6-1.9-2.6
		s-0.7-2.2-0.7-3.5c0-1,0.2-2,0.6-3c0.4-1,1-1.9,1.8-2.6s1.6-1.4,2.7-1.8c1-0.5,2.1-0.7,3.3-0.7c0.8,0,1.7,0.1,2.5,0.4
		s1.6,0.7,2.3,1.2c0.7,0.6,1.2,1.3,1.7,2.1c0.4,0.9,0.6,1.9,0.6,3.2h-10.5V61.9z M118.4,57.3c0-0.3,0-0.6,0-1s-0.1-0.8-0.3-1.2
		c-0.1-0.4-0.4-0.7-0.7-1s-0.8-0.4-1.4-0.4c-0.8,0-1.4,0.2-1.9,0.6c-0.4,0.4-0.8,0.9-1,1.5s-0.4,1.2-0.4,1.9c-0.1,0.7-0.1,1.3-0.1,2
		h5.8L118.4,57.3L118.4,57.3z"/>
	<path class="st0" d="M141.3,69.6c-0.6,0.1-1.2,0.1-1.8,0.1c-1.2,0-2.1-0.2-2.7-0.6c-0.6-0.4-1-1-1.1-1.8h-0.1
		c-0.4,1-0.9,1.6-1.6,1.9s-1.6,0.5-2.9,0.5c-0.6,0-1.2-0.1-1.8-0.2s-1.2-0.3-1.7-0.6c-0.5-0.3-0.9-0.6-1.2-1.1s-0.5-1-0.5-1.7
		s0.1-1.3,0.4-1.7s0.6-0.9,1.1-1.2c0.4-0.3,0.9-0.6,1.5-0.8c0.6-0.2,1.1-0.4,1.7-0.6c1-0.3,1.8-0.5,2.4-0.7s1.1-0.4,1.4-0.6
		s0.6-0.5,0.7-0.8c0.1-0.3,0.2-0.7,0.2-1.1v-2.2c0-0.6-0.2-1.2-0.5-1.8c-0.3-0.5-0.9-0.8-1.8-0.8c-0.6,0-1,0.1-1.4,0.4
		s-0.6,0.7-0.6,1.4c0,0.1,0,0.2,0,0.4c0,0.2,0,0.4,0.1,0.6c0,0.2,0,0.4,0.1,0.6c0,0.2,0,0.3,0,0.4c0,0.4-0.1,0.6-0.3,0.8
		c-0.2,0.2-0.4,0.4-0.6,0.5s-0.5,0.2-0.7,0.2c-0.3,0-0.5,0-0.6,0c-0.2,0-0.5,0-0.7-0.1c-0.2-0.1-0.5-0.1-0.7-0.3
		c-0.2-0.1-0.4-0.3-0.5-0.6c-0.1-0.2-0.2-0.6-0.2-1c0-0.6,0.2-1.2,0.5-1.7s0.8-0.9,1.4-1.2c0.6-0.3,1.2-0.6,2-0.7
		c0.7-0.2,1.5-0.3,2.3-0.3c0.9,0,1.8,0.1,2.6,0.2c0.8,0.1,1.5,0.4,2.1,0.8s1.1,0.9,1.4,1.6c0.3,0.7,0.5,1.5,0.5,2.5v8.9
		c0,0.5,0.1,0.9,0.2,1.2c0.1,0.3,0.5,0.5,1,0.5c0.3,0,0.6-0.1,0.8-0.2c0.2-0.1,0.4-0.3,0.6-0.5l0.3,0.3
		C142.4,69.2,141.9,69.5,141.3,69.6z M135.4,60.4c0,0.1-0.1,0.3-0.3,0.4c-0.1,0.1-0.4,0.3-0.7,0.4c-0.5,0.2-0.9,0.4-1.4,0.6
		s-0.9,0.5-1.2,0.8c-0.4,0.3-0.7,0.7-0.9,1.2c-0.2,0.5-0.3,1-0.3,1.8c0,0.3,0,0.6,0.1,1c0,0.4,0.1,0.8,0.3,1.1
		c0.2,0.4,0.4,0.7,0.7,0.9c0.3,0.3,0.7,0.4,1.3,0.4c0.3,0,0.6-0.1,0.9-0.2s0.6-0.4,0.8-0.7c0.2-0.3,0.4-0.7,0.6-1.2s0.2-1.1,0.2-1.8
		L135.4,60.4L135.4,60.4z"/>
	<path class="st0" d="M147.9,49.6c0.4,0.1,0.7,0.1,1.1,0.1s0.7,0,1.1-0.1s0.7-0.2,1.1-0.4v4.6h4.2v0.5h-4.2v12.1c0,0.4,0,0.7,0.1,1
		c0,0.3,0.1,0.6,0.3,0.8c0.1,0.3,0.3,0.5,0.6,0.6c0.3,0.1,0.6,0.2,1,0.2c0.5,0,0.8-0.1,1.2-0.3c0.3-0.2,0.6-0.4,0.8-0.7
		c0.2-0.3,0.4-0.6,0.6-1s0.3-0.8,0.4-1.1l0.5,0.1c-0.1,0.8-0.4,1.5-0.7,2c-0.3,0.5-0.7,0.9-1.2,1.1c-0.4,0.3-0.9,0.4-1.4,0.5
		s-1,0.1-1.4,0.1c-1.2,0-2.2-0.1-2.9-0.4c-0.7-0.3-1.2-0.6-1.5-1.1c-0.3-0.4-0.5-0.9-0.6-1.4c0-0.5-0.1-1-0.1-1.4V54.3h-2.4v-0.5
		h2.4v-4.6C147.2,49.4,147.5,49.5,147.9,49.6z"/>
	<path class="st0" d="M162.6,61.9c0,0.9,0,1.7,0.1,2.6s0.3,1.7,0.6,2.4c0.3,0.7,0.8,1.3,1.4,1.7c0.6,0.5,1.4,0.7,2.5,0.7
		c1,0,1.8-0.2,2.4-0.5c0.7-0.4,1.2-0.8,1.6-1.2c0.4-0.5,0.7-0.9,0.9-1.4c0.2-0.5,0.3-0.8,0.3-1l0.5,0.2c-0.1,0.5-0.3,0.9-0.6,1.5
		c-0.3,0.5-0.7,1-1.2,1.4s-1.1,0.8-1.9,1.1c-0.7,0.3-1.6,0.5-2.7,0.5c-1.2,0-2.4-0.2-3.5-0.6s-2-0.9-2.8-1.6s-1.4-1.6-1.9-2.6
		s-0.7-2.2-0.7-3.5c0-1,0.2-2,0.6-3s1-1.9,1.8-2.6s1.6-1.4,2.7-1.8c1-0.5,2.1-0.7,3.3-0.7c0.8,0,1.7,0.1,2.5,0.4s1.6,0.7,2.3,1.2
		c0.7,0.6,1.2,1.3,1.7,2.1c0.4,0.9,0.6,1.9,0.6,3.2h-10.5V61.9z M168.4,57.3c0-0.3,0-0.6,0-1s-0.1-0.8-0.3-1.2
		c-0.1-0.4-0.4-0.7-0.7-1c-0.3-0.3-0.8-0.4-1.4-0.4c-0.8,0-1.4,0.2-1.9,0.6c-0.4,0.4-0.8,0.9-1,1.5s-0.4,1.2-0.4,1.9
		c-0.1,0.7-0.1,1.3-0.1,2h5.8V57.3z"/>
	<path class="st0" d="M184.3,54.4v-0.5h9.1v0.5h-2.3l3.7,9.4l2.8-7.7l-0.7-1.7h-1.8v-0.5h9v0.5h-2.4l3.7,9.4l3.5-9.4h-2.5v-0.5h4.9
		v0.5h-1.8l-5.9,15.9h-0.3L198,56.8l-5,13.5h-0.3l-6.3-15.9L184.3,54.4L184.3,54.4z"/>
	<path class="st0" d="M219.3,53.9v14.9h2.4v0.5h-9.2v-0.5h2.4V54.4h-2.4v-0.5H219.3z M215.3,44.3c0.5-0.5,1.1-0.8,1.8-0.8
		c0.7,0,1.3,0.3,1.8,0.8s0.8,1.1,0.8,1.8c0,0.7-0.3,1.3-0.8,1.8s-1.1,0.8-1.8,0.8c-0.7,0-1.3-0.3-1.8-0.8s-0.8-1.1-0.8-1.8
		C214.5,45.4,214.8,44.8,215.3,44.3z"/>
	<path class="st0" d="M226.4,68.8V54.4H224v-0.5h6.7v3.6h0.1c0.1-0.2,0.3-0.5,0.5-1c0.2-0.4,0.6-0.9,1-1.3c0.5-0.4,1-0.8,1.8-1.1
		c0.7-0.3,1.6-0.5,2.7-0.5c1.6,0,2.8,0.5,3.7,1.4c0.9,0.9,1.3,2.2,1.3,3.7v10.2h2.4v0.5h-9v-0.5h2.2V57.5c0-1-0.2-1.7-0.6-2.2
		s-1-0.7-1.7-0.7c-0.6,0-1.1,0.1-1.7,0.4c-0.5,0.3-1,0.7-1.4,1.2c-0.4,0.6-0.7,1.2-1,2.1c-0.2,0.8-0.4,1.8-0.4,2.9v7.7h2.3v0.5h-9
		v-0.5h2.5V68.8z"/>
	<path class="st0" d="M255.2,59.8v3.5h-6.8v-3.5H255.2z"/>
	<path class="st0" d="M258.3,54.4v-0.5h9.1v0.5h-2.3l3.7,9.4l2.8-7.7l-0.7-1.7h-1.8v-0.5h9v0.5h-2.4l3.7,9.4l3.5-9.4h-2.5v-0.5h4.9
		v0.5h-1.8l-5.9,15.9h-0.3L272,56.8l-5,13.5h-0.3l-6.3-15.9L258.3,54.4L258.3,54.4z"/>
	<path class="st0" d="M293.3,53.9v14.9h2.4v0.5h-9.2v-0.5h2.4V54.4h-2.4v-0.5H293.3z M289.3,44.3c0.5-0.5,1.1-0.8,1.8-0.8
		c0.7,0,1.3,0.3,1.8,0.8s0.8,1.1,0.8,1.8c0,0.7-0.3,1.3-0.8,1.8s-1.1,0.8-1.8,0.8c-0.7,0-1.3-0.3-1.8-0.8s-0.8-1.1-0.8-1.8
		C288.5,45.4,288.8,44.8,289.3,44.3z"/>
	<path class="st0" d="M300.4,68.8V54.4H298v-0.5h6.7v3.6h0.1c0.1-0.2,0.3-0.5,0.5-1c0.2-0.4,0.6-0.9,1-1.3c0.5-0.4,1-0.8,1.8-1.1
		c0.7-0.3,1.6-0.5,2.7-0.5c1.6,0,2.8,0.5,3.7,1.4c0.9,0.9,1.3,2.2,1.3,3.7v10.2h2.4v0.5h-9v-0.5h2.2V57.5c0-1-0.2-1.7-0.6-2.2
		s-1-0.7-1.7-0.7c-0.6,0-1.1,0.1-1.7,0.4c-0.5,0.3-1,0.7-1.4,1.2c-0.4,0.6-0.7,1.2-1,2.1c-0.2,0.8-0.4,1.8-0.4,2.9v7.7h2.3v0.5h-9
		v-0.5h2.5V68.8z"/>
	<path class="st0" d="M342.7,54c1.1,0.4,2,1,2.8,1.8s1.4,1.6,1.9,2.6c0.4,1,0.7,2,0.7,3.2c0,1.1-0.2,2.2-0.7,3.2
		c-0.4,1-1.1,1.9-1.9,2.6s-1.7,1.3-2.8,1.8c-1.1,0.4-2.2,0.6-3.5,0.6s-2.4-0.2-3.5-0.6s-2-1-2.8-1.8c-0.8-0.7-1.4-1.6-1.9-2.6
		c-0.4-1-0.7-2.1-0.7-3.2s0.2-2.2,0.7-3.2c0.4-1,1.1-1.9,1.9-2.6s1.7-1.3,2.8-1.8c1.1-0.4,2.2-0.7,3.5-0.7S341.6,53.6,342.7,54z
		 M341.4,68.6c0.5-0.4,0.9-1,1.2-1.7s0.4-1.5,0.5-2.5c0.1-0.9,0.1-1.9,0.1-2.8c0-1,0-1.9-0.1-2.8s-0.2-1.7-0.5-2.5s-0.6-1.3-1.2-1.7
		c-0.5-0.4-1.3-0.7-2.2-0.7s-1.7,0.2-2.2,0.7c-0.5,0.4-0.9,1-1.2,1.7s-0.4,1.5-0.5,2.5c-0.1,0.9-0.1,1.9-0.1,2.8c0,1,0,1.9,0.1,2.8
		s0.2,1.8,0.5,2.5s0.6,1.3,1.2,1.7c0.5,0.4,1.3,0.7,2.2,0.7S340.9,69.1,341.4,68.6z"/>
	<path class="st0" d="M350.3,54.4v-0.5h6.7v2.7h0.1c0.7-2.1,2.2-3.2,4.2-3.2c1.4,0,2.6,0.3,3.6,0.8s1.8,1.2,2.4,2s1.1,1.7,1.4,2.7
		s0.5,1.9,0.5,2.7c0,1.1-0.2,2.1-0.6,3.1s-0.9,1.9-1.6,2.6c-0.7,0.8-1.5,1.4-2.5,1.8c-1,0.5-2,0.7-3.2,0.7c-1.1,0-2-0.3-2.7-0.9
		s-1.2-1.3-1.5-2.2H357v12.1h2.4v0.5h-9.2v-0.5h2.4V54.3L350.3,54.4L350.3,54.4z M357.2,64.1c0.1,0.9,0.2,1.7,0.5,2.5
		s0.7,1.4,1.3,1.9c0.6,0.5,1.4,0.8,2.4,0.8c0.7,0,1.2-0.2,1.6-0.5s0.7-0.9,0.9-1.5c0.2-0.7,0.3-1.5,0.4-2.4s0.1-2,0.1-3.2
		c0-1.4-0.1-2.7-0.2-3.7s-0.3-1.8-0.6-2.4c-0.3-0.6-0.6-1-1-1.3s-0.9-0.4-1.5-0.4c-0.9,0-1.6,0.3-2.1,0.8s-0.9,1.1-1.2,1.9
		c-0.3,0.8-0.4,1.6-0.5,2.5s-0.1,1.8-0.1,2.6C357.1,62.3,357.1,63.2,357.2,64.1z"/>
	<path class="st0" d="M371.7,54.4v-0.5h6.7v2.7h0.1c0.7-2.1,2.2-3.2,4.2-3.2c1.4,0,2.6,0.3,3.6,0.8s1.8,1.2,2.4,2s1.1,1.7,1.4,2.7
		s0.5,1.9,0.5,2.7c0,1.1-0.2,2.1-0.6,3.1s-0.9,1.9-1.6,2.6s-1.5,1.4-2.5,1.8c-1,0.5-2,0.7-3.2,0.7c-1.1,0-2-0.3-2.7-0.9
		s-1.2-1.3-1.5-2.2h-0.1v12.1h2.4v0.5h-9.2v-0.5h2.4V54.3L371.7,54.4L371.7,54.4z M378.6,64.1c0.1,0.9,0.2,1.7,0.5,2.5
		s0.7,1.4,1.3,1.9c0.6,0.5,1.4,0.8,2.4,0.8c0.7,0,1.2-0.2,1.6-0.5s0.7-0.9,0.9-1.5c0.2-0.7,0.3-1.5,0.4-2.4s0.1-2,0.1-3.2
		c0-1.4-0.1-2.7-0.2-3.7s-0.3-1.8-0.6-2.4c-0.3-0.6-0.6-1-1-1.3s-0.9-0.4-1.5-0.4c-0.9,0-1.6,0.3-2.1,0.8s-0.9,1.1-1.2,1.9
		c-0.3,0.8-0.4,1.6-0.5,2.5s-0.1,1.8-0.1,2.6C378.5,62.3,378.5,63.2,378.6,64.1z"/>
	<path class="st0" d="M405.4,54c1.1,0.4,2,1,2.8,1.8s1.4,1.6,1.9,2.6c0.4,1,0.7,2,0.7,3.2c0,1.1-0.2,2.2-0.7,3.2s-1.1,1.9-1.9,2.6
		c-0.8,0.7-1.7,1.3-2.8,1.8c-1.1,0.4-2.2,0.6-3.5,0.6s-2.4-0.2-3.5-0.6s-2-1-2.8-1.8c-0.8-0.7-1.4-1.6-1.9-2.6
		c-0.4-1-0.7-2.1-0.7-3.2s0.2-2.2,0.7-3.2c0.4-1,1.1-1.9,1.9-2.6s1.7-1.3,2.8-1.8c1.1-0.4,2.2-0.7,3.5-0.7S404.3,53.6,405.4,54z
		 M404.1,68.6c0.5-0.4,0.9-1,1.2-1.7s0.4-1.5,0.5-2.5c0.1-0.9,0.1-1.9,0.1-2.8c0-1,0-1.9-0.1-2.8s-0.2-1.7-0.5-2.5s-0.6-1.3-1.2-1.7
		c-0.5-0.4-1.3-0.7-2.2-0.7s-1.7,0.2-2.2,0.7c-0.5,0.4-0.9,1-1.2,1.7s-0.4,1.5-0.5,2.5c-0.1,0.9-0.1,1.9-0.1,2.8c0,1,0,1.9,0.1,2.8
		s0.2,1.8,0.5,2.5s0.6,1.3,1.2,1.7c0.5,0.4,1.3,0.7,2.2,0.7C402.9,69.3,403.6,69.1,404.1,68.6z"/>
	<path class="st0" d="M420.1,53.9v3h0.1c0.4-0.9,1-1.7,1.7-2.4c0.7-0.7,1.7-1,2.9-1c1,0,1.8,0.3,2.4,0.8s0.9,1.3,0.9,2.2
		c0,0.7-0.2,1.3-0.5,1.7c-0.3,0.4-0.9,0.6-1.7,0.6c-0.6,0-1.1-0.1-1.5-0.3c-0.5-0.2-0.7-0.7-0.7-1.3c0-0.1,0-0.2,0-0.4
		c0-0.2,0.1-0.4,0.1-0.6s0.1-0.4,0.1-0.6s0-0.3,0-0.3c0-0.2-0.1-0.3-0.1-0.5c0-0.1-0.1-0.2-0.2-0.3c-0.1-0.1-0.3-0.1-0.5-0.1
		s-0.5,0.1-0.9,0.3c-0.4,0.2-0.7,0.6-1,1s-0.6,1-0.8,1.6s-0.3,1.3-0.3,2.1v9.2h2.8v0.5h-9.6v-0.5h2.3V54.2h-2.3v-0.5h6.8V53.9z"/>
	<path class="st0" d="M432.7,49.6c0.4,0.1,0.7,0.1,1.1,0.1c0.4,0,0.7,0,1.1-0.1c0.4-0.1,0.7-0.2,1.1-0.4v4.6h4.2v0.5H436v12.1
		c0,0.4,0,0.7,0.1,1c0,0.3,0.1,0.6,0.3,0.8c0.1,0.3,0.3,0.5,0.6,0.6s0.6,0.2,1,0.2c0.5,0,0.8-0.1,1.2-0.3c0.3-0.2,0.6-0.4,0.8-0.7
		c0.2-0.3,0.4-0.6,0.6-1c0.2-0.4,0.3-0.8,0.4-1.1l0.5,0.1c-0.1,0.8-0.4,1.5-0.7,2s-0.7,0.9-1.2,1.1c-0.4,0.3-0.9,0.4-1.4,0.5
		s-1,0.1-1.4,0.1c-1.2,0-2.2-0.1-2.9-0.4s-1.2-0.6-1.5-1.1s-0.5-0.9-0.6-1.4c0-0.5-0.1-1-0.1-1.4V54.3h-2.4v-0.5h2.4v-4.6
		C431.9,49.4,432.3,49.5,432.7,49.6z"/>
	<path class="st0" d="M449,53.9v11.4c0,0.9,0.2,1.7,0.5,2.3c0.4,0.6,1,1,1.9,1c0.6,0,1.1-0.1,1.5-0.4c0.5-0.3,0.8-0.6,1.2-1.1
		s0.6-1,0.8-1.6s0.3-1.2,0.3-1.9v-9.3h-2.4v-0.5h6.8v14.9h2.4v0.5h-6.7v-2.9h-0.1c-0.2,0.5-0.5,1-0.9,1.4s-0.8,0.7-1.3,1
		s-1,0.5-1.6,0.6s-1.1,0.2-1.6,0.2c-1.7,0-3-0.4-3.9-1.1s-1.3-2-1.3-3.7V54.3h-2.4v-0.5h6.8V53.9z"/>
	<path class="st0" d="M467.1,68.8V54.4h-2.4v-0.5h6.7v3.6h0.1c0.1-0.2,0.3-0.5,0.5-1c0.2-0.4,0.6-0.9,1-1.3c0.5-0.4,1-0.8,1.8-1.1
		c0.7-0.3,1.6-0.5,2.7-0.5c1.6,0,2.8,0.5,3.7,1.4s1.3,2.2,1.3,3.7v10.2h2.4v0.5h-9v-0.5h2.2V57.5c0-1-0.2-1.7-0.6-2.2
		c-0.4-0.5-1-0.7-1.7-0.7c-0.6,0-1.1,0.1-1.7,0.4c-0.5,0.3-1,0.7-1.4,1.2c-0.4,0.6-0.7,1.2-1,2.1c-0.2,0.8-0.4,1.8-0.4,2.9v7.7h2.3
		v0.5h-9v-0.5h2.5V68.8z"/>
	<path class="st0" d="M494,53.9v14.9h2.4v0.5h-9.2v-0.5h2.4V54.4h-2.4v-0.5H494z M490,44.3c0.5-0.5,1.1-0.8,1.8-0.8s1.3,0.3,1.8,0.8
		s0.8,1.1,0.8,1.8c0,0.7-0.3,1.3-0.8,1.8s-1.1,0.8-1.8,0.8s-1.3-0.3-1.8-0.8s-0.8-1.1-0.8-1.8C489.3,45.4,489.5,44.8,490,44.3z"/>
	<path class="st0" d="M502,49.6c0.4,0.1,0.7,0.1,1.1,0.1c0.4,0,0.7,0,1.1-0.1c0.4-0.1,0.7-0.2,1.1-0.4v4.6h4.2v0.5h-4.2v12.1
		c0,0.4,0,0.7,0.1,1c0,0.3,0.1,0.6,0.3,0.8c0.1,0.3,0.3,0.5,0.6,0.6s0.6,0.2,1,0.2c0.5,0,0.8-0.1,1.2-0.3c0.3-0.2,0.6-0.4,0.8-0.7
		c0.2-0.3,0.4-0.6,0.6-1c0.2-0.4,0.3-0.8,0.4-1.1l0.5,0.1c-0.1,0.8-0.4,1.5-0.7,2s-0.7,0.9-1.2,1.1c-0.4,0.3-0.9,0.4-1.4,0.5
		s-1,0.1-1.4,0.1c-1.2,0-2.2-0.1-2.9-0.4s-1.2-0.6-1.5-1.1s-0.5-0.9-0.6-1.4c0-0.5-0.1-1-0.1-1.4V54.3h-2.4v-0.5h2.4v-4.6
		C501.3,49.4,501.6,49.5,502,49.6z"/>
	<path class="st0" d="M518.7,53.9v14.9h2.4v0.5h-9.2v-0.5h2.4V54.4h-2.4v-0.5H518.7z M514.7,44.3c0.5-0.5,1.1-0.8,1.8-0.8
		s1.3,0.3,1.8,0.8s0.8,1.1,0.8,1.8c0,0.7-0.3,1.3-0.8,1.8s-1.1,0.8-1.8,0.8s-1.3-0.3-1.8-0.8s-0.8-1.1-0.8-1.8
		S514.2,44.8,514.7,44.3z"/>
	<path class="st0" d="M528,61.9c0,0.9,0,1.7,0.1,2.6s0.3,1.7,0.6,2.4c0.3,0.7,0.8,1.3,1.4,1.7c0.6,0.5,1.4,0.7,2.5,0.7
		c1,0,1.8-0.2,2.4-0.5c0.7-0.4,1.2-0.8,1.6-1.2c0.4-0.5,0.7-0.9,0.9-1.4s0.3-0.8,0.3-1l0.5,0.2c-0.1,0.5-0.3,0.9-0.6,1.5
		c-0.3,0.5-0.7,1-1.2,1.4s-1.1,0.8-1.9,1.1s-1.6,0.5-2.7,0.5c-1.2,0-2.4-0.2-3.5-0.6s-2-0.9-2.8-1.6s-1.4-1.6-1.9-2.6
		s-0.7-2.2-0.7-3.5c0-1,0.2-2,0.6-3c0.4-1,1-1.9,1.8-2.6s1.6-1.4,2.7-1.8s2.1-0.7,3.3-0.7c0.8,0,1.7,0.1,2.5,0.4s1.6,0.7,2.3,1.2
		c0.7,0.6,1.2,1.3,1.7,2.1c0.4,0.9,0.6,1.9,0.6,3.2h-10.6v1.5H528z M533.8,57.3c0-0.3,0-0.6,0-1s-0.1-0.8-0.3-1.2s-0.4-0.7-0.7-1
		s-0.8-0.4-1.3-0.4c-0.8,0-1.4,0.2-1.9,0.6s-0.8,0.9-1,1.5s-0.4,1.2-0.4,1.9c-0.1,0.7-0.1,1.3-0.1,2h5.8L533.8,57.3L533.8,57.3z"/>
	<path class="st0" d="M542,64.1c0.3,0.7,0.6,1.3,0.9,1.9c0.3,0.6,0.7,1.2,1.1,1.7c0.4,0.5,0.9,0.9,1.5,1.2c0.6,0.3,1.3,0.5,2.1,0.5
		c0.2,0,0.5,0,0.9,0s0.7-0.1,1.1-0.3c0.3-0.2,0.6-0.5,0.9-0.8s0.4-0.9,0.4-1.6c0-0.2,0-0.4-0.1-0.7c-0.1-0.2-0.2-0.5-0.4-0.7
		s-0.5-0.5-0.8-0.7c-0.4-0.2-0.9-0.5-1.5-0.7l-2.9-1.1c-0.3-0.1-0.7-0.3-1.1-0.5c-0.4-0.2-0.7-0.5-1.1-0.8s-0.6-0.7-0.8-1.2
		s-0.3-1-0.3-1.7s0.1-1.4,0.4-2s0.7-1.2,1.2-1.6c0.5-0.5,1.1-0.8,1.9-1.1c0.7-0.3,1.5-0.4,2.4-0.4c0.5,0,0.9,0,1.3,0.1
		c0.4,0.1,0.8,0.2,1.1,0.3c0.3,0.1,0.6,0.2,0.9,0.3c0.3,0.1,0.5,0.1,0.6,0.1c0.3,0,0.4,0,0.5-0.1s0.1-0.2,0.2-0.3h0.5v4.4h-0.5
		c-0.2-0.6-0.5-1.1-0.7-1.7c-0.3-0.5-0.6-1-0.9-1.4c-0.3-0.4-0.8-0.7-1.3-0.9c-0.5-0.2-1.1-0.3-1.9-0.3c-0.8,0-1.5,0.2-2.2,0.6
		s-1,1-1,1.9c0,0.2,0,0.4,0.1,0.6c0,0.2,0.2,0.4,0.3,0.7c0.2,0.2,0.4,0.5,0.8,0.7c0.4,0.2,0.8,0.5,1.4,0.7l3.1,1
		c1.3,0.5,2.3,1.1,3,1.8c0.7,0.7,1,1.7,1,2.8c0,0.8-0.2,1.5-0.5,2.1s-0.8,1.2-1.4,1.6c-0.6,0.4-1.2,0.8-2,1
		c-0.7,0.2-1.5,0.4-2.3,0.4c-0.4,0-0.9,0-1.4-0.1s-1-0.2-1.5-0.3c-0.5-0.1-0.9-0.2-1.3-0.3c-0.4-0.1-0.7-0.1-0.9-0.1s-0.3,0-0.4,0.1
		c-0.1,0.1-0.2,0.2-0.2,0.4h-0.5v-5.2h0.3V64.1z"/>
	<path class="st0" d="M573.4,53.9v14.9h2.4v0.5h-9.2v-0.5h2.4V54.4h-2.4v-0.5H573.4z M569.4,44.3c0.5-0.5,1.1-0.8,1.8-0.8
		s1.3,0.3,1.8,0.8s0.8,1.1,0.8,1.8c0,0.7-0.3,1.3-0.8,1.8s-1.1,0.8-1.8,0.8s-1.3-0.3-1.8-0.8s-0.8-1.1-0.8-1.8
		S568.9,44.8,569.4,44.3z"/>
	<path class="st0" d="M580.5,68.8V54.4h-2.4v-0.5h6.7v3.6h0.1c0.1-0.2,0.3-0.5,0.5-1c0.2-0.4,0.6-0.9,1-1.3c0.5-0.4,1-0.8,1.8-1.1
		s1.6-0.5,2.7-0.5c1.6,0,2.8,0.5,3.7,1.4s1.3,2.2,1.3,3.7v10.2h2.4v0.5h-9v-0.5h2.2V57.5c0-1-0.2-1.7-0.6-2.2
		c-0.4-0.5-1-0.7-1.7-0.7c-0.6,0-1.1,0.1-1.7,0.4c-0.5,0.3-1,0.7-1.4,1.2c-0.4,0.6-0.7,1.2-1,2.1c-0.2,0.8-0.4,1.8-0.4,2.9v7.7h2.3
		v0.5h-9v-0.5h2.5V68.8z"/>
	<path class="st0" d="M609.1,54.4v-0.5h9.1v0.5h-2.3l3.7,9.4l2.8-7.7l-0.7-1.7h-1.8v-0.5h9v0.5h-2.4l3.7,9.4l3.5-9.4h-2.5v-0.5h4.9
		v0.5h-1.8l-5.9,15.9h-0.3l-5.3-13.5l-5,13.5h-0.3l-6.3-15.9L609.1,54.4L609.1,54.4z"/>
	<path class="st0" d="M639.7,68.8V43.9h-2.4v-0.5h6.8v14h0.1c0.1-0.2,0.3-0.5,0.5-1c0.2-0.4,0.6-0.8,1-1.3s1-0.8,1.7-1.1
		c0.7-0.3,1.6-0.5,2.7-0.5c1.6,0,2.8,0.5,3.7,1.4s1.3,2.2,1.3,3.7v10.2h2.4v0.5h-9v-0.5h2.2V57.4c0-1-0.2-1.7-0.6-2.2
		c-0.4-0.5-1-0.7-1.7-0.7c-0.6,0-1.1,0.1-1.7,0.4c-0.5,0.3-1,0.7-1.4,1.2c-0.4,0.6-0.7,1.2-1,2.1c-0.2,0.8-0.4,1.8-0.4,2.9v7.7h2.3
		v0.5h-9v-0.5L639.7,68.8L639.7,68.8z"/>
	<path class="st0" d="M666.7,53.9v14.9h2.4v0.5h-9.2v-0.5h2.4V54.4h-2.4v-0.5H666.7z M662.8,44.3c0.5-0.5,1.1-0.8,1.8-0.8
		s1.3,0.3,1.8,0.8s0.8,1.1,0.8,1.8c0,0.7-0.3,1.3-0.8,1.8s-1.1,0.8-1.8,0.8s-1.3-0.3-1.8-0.8s-0.8-1.1-0.8-1.8
		S662.2,44.8,662.8,44.3z"/>
	<path class="st0" d="M671.8,58.8c0.4-1,1-1.8,1.7-2.6c0.8-0.8,1.7-1.5,2.8-2s2.4-0.8,3.8-0.8c0.9,0,1.7,0.1,2.5,0.3
		c0.7,0.2,1.4,0.5,1.9,0.8s1,0.8,1.3,1.3s0.5,1,0.5,1.6c0,0.8-0.2,1.3-0.6,1.7s-1,0.5-1.7,0.5c-0.6,0-1.1-0.1-1.5-0.3
		c-0.5-0.2-0.7-0.6-0.7-1.3c0-0.1,0-0.3,0.1-0.5s0.1-0.5,0.2-0.8c0.1-0.3,0.1-0.5,0.2-0.8c0.1-0.2,0.1-0.4,0.1-0.5
		c0-0.5-0.2-0.9-0.6-1.1c-0.4-0.3-0.9-0.4-1.6-0.4c-0.9,0-1.5,0.2-2.1,0.6s-0.9,1-1.2,1.6c-0.3,0.7-0.5,1.5-0.5,2.4
		c-0.1,0.9-0.1,1.9-0.1,2.9c0,0.9,0,1.9,0.1,2.8s0.3,1.8,0.6,2.6c0.3,0.8,0.8,1.4,1.4,1.9s1.4,0.7,2.4,0.7s1.8-0.2,2.5-0.5
		s1.2-0.8,1.6-1.2c0.4-0.5,0.7-0.9,0.9-1.4s0.3-0.8,0.4-1l0.5,0.2c-0.1,0.4-0.3,0.9-0.6,1.4s-0.6,1-1.1,1.4s-1.1,0.8-1.9,1.1
		c-0.8,0.3-1.7,0.5-2.9,0.5c-0.3,0-0.8,0-1.3-0.1c-0.6-0.1-1.2-0.2-1.8-0.4c-0.7-0.2-1.3-0.5-2-0.8c-0.7-0.4-1.3-0.8-1.9-1.5
		c-0.6-0.6-1-1.4-1.4-2.2c-0.3-0.9-0.5-1.9-0.5-3.2C671.2,60.7,671.4,59.7,671.8,58.8z"/>
	<path class="st0" d="M691,68.8V43.9h-2.4v-0.5h6.8v14h0.1c0.1-0.2,0.3-0.5,0.5-1c0.2-0.4,0.6-0.8,1-1.3s1-0.8,1.7-1.1
		c0.7-0.3,1.6-0.5,2.7-0.5c1.6,0,2.8,0.5,3.7,1.4s1.3,2.2,1.3,3.7v10.2h2.4v0.5h-9v-0.5h2.2V57.4c0-1-0.2-1.7-0.6-2.2
		c-0.4-0.5-1-0.7-1.7-0.7c-0.6,0-1.1,0.1-1.7,0.4c-0.5,0.3-1,0.7-1.4,1.2c-0.4,0.6-0.7,1.2-1,2.1c-0.2,0.8-0.4,1.8-0.4,2.9v7.7h2.3
		v0.5h-9v-0.5L691,68.8L691,68.8z"/>
	<path class="st0" d="M736.8,69.6c-0.6,0.1-1.2,0.1-1.8,0.1c-1.2,0-2.1-0.2-2.7-0.6c-0.6-0.4-1-1-1.1-1.8h-0.1
		c-0.4,1-0.9,1.6-1.6,1.9c-0.7,0.3-1.6,0.5-2.9,0.5c-0.6,0-1.2-0.1-1.8-0.2s-1.2-0.3-1.7-0.6c-0.5-0.3-0.9-0.6-1.2-1.1
		s-0.5-1-0.5-1.7s0.1-1.3,0.4-1.7c0.3-0.5,0.6-0.9,1.1-1.2c0.4-0.3,0.9-0.6,1.5-0.8c0.6-0.2,1.1-0.4,1.7-0.6c1-0.3,1.8-0.5,2.4-0.7
		c0.6-0.2,1.1-0.4,1.4-0.6c0.3-0.2,0.6-0.5,0.7-0.8c0.1-0.3,0.2-0.7,0.2-1.1v-2.2c0-0.6-0.2-1.2-0.5-1.8c-0.3-0.5-0.9-0.8-1.8-0.8
		c-0.6,0-1,0.1-1.4,0.4s-0.6,0.7-0.6,1.4c0,0.1,0,0.2,0,0.4c0,0.2,0,0.4,0.1,0.6c0,0.2,0,0.4,0.1,0.6c0,0.2,0,0.3,0,0.4
		c0,0.4-0.1,0.6-0.3,0.8c-0.2,0.2-0.4,0.4-0.6,0.5c-0.2,0.1-0.5,0.2-0.7,0.2c-0.3,0-0.5,0-0.6,0c-0.2,0-0.5,0-0.7-0.1
		s-0.5-0.1-0.7-0.3s-0.4-0.3-0.5-0.6c-0.1-0.2-0.2-0.6-0.2-1c0-0.6,0.2-1.2,0.5-1.7s0.8-0.9,1.4-1.2c0.6-0.3,1.2-0.6,2-0.7
		c0.7-0.2,1.5-0.3,2.3-0.3c0.9,0,1.8,0.1,2.6,0.2s1.5,0.4,2.1,0.8s1.1,0.9,1.4,1.6s0.5,1.5,0.5,2.5v8.9c0,0.5,0.1,0.9,0.2,1.2
		c0.1,0.3,0.5,0.5,1,0.5c0.3,0,0.6-0.1,0.8-0.2s0.4-0.3,0.6-0.5l0.3,0.3C737.9,69.2,737.4,69.5,736.8,69.6z M730.9,60.4
		c0,0.1-0.1,0.3-0.3,0.4s-0.4,0.3-0.7,0.4c-0.5,0.2-0.9,0.4-1.4,0.6s-0.9,0.5-1.2,0.8c-0.4,0.3-0.7,0.7-0.9,1.2s-0.3,1-0.3,1.8
		c0,0.3,0,0.6,0.1,1c0,0.4,0.1,0.8,0.3,1.1c0.2,0.4,0.4,0.7,0.7,0.9c0.3,0.3,0.7,0.4,1.3,0.4c0.3,0,0.6-0.1,0.9-0.2
		c0.3-0.1,0.6-0.4,0.8-0.7c0.2-0.3,0.4-0.7,0.6-1.2c0.1-0.5,0.2-1.1,0.2-1.8L730.9,60.4L730.9,60.4z"/>
	<path class="st0" d="M746.8,43.3v25.5h2.4v0.5H740v-0.5h2.4V43.9H740v-0.5h6.8V43.3z"/>
	<path class="st0" d="M758.1,43.3v25.5h2.4v0.5h-9.2v-0.5h2.4V43.9h-2.4v-0.5h6.8V43.3z"/>
	<path class="st0" d="M51.3,97.1V112h2.4v0.5h-9.2V112h2.4V97.6h-2.4v-0.5H51.3z M47.3,87.5c0.5-0.5,1.1-0.8,1.8-0.8
		s1.3,0.3,1.8,0.8s0.8,1.1,0.8,1.8s-0.3,1.3-0.8,1.8s-1.1,0.8-1.8,0.8s-1.3-0.3-1.8-0.8s-0.8-1.1-0.8-1.8S46.8,88,47.3,87.5z"/>
	<path class="st0" d="M58.4,112V97.6H56v-0.5h6.7v3.6h0.1c0.1-0.2,0.3-0.5,0.5-1c0.2-0.4,0.6-0.9,1-1.3c0.5-0.4,1-0.8,1.8-1.1
		c0.7-0.3,1.6-0.5,2.7-0.5c1.6,0,2.8,0.5,3.7,1.4s1.3,2.2,1.3,3.7v10.2h2.4v0.5h-9v-0.5h2.2v-11.4c0-1-0.2-1.7-0.6-2.2
		c-0.4-0.5-1-0.7-1.7-0.7c-0.6,0-1.1,0.1-1.7,0.4c-0.5,0.3-1,0.7-1.4,1.2s-0.7,1.2-1,2.1c-0.2,0.8-0.4,1.8-0.4,2.9v7.7h2.3v0.5h-9
		v-0.5h2.5V112z"/>
	<path class="st0" d="M86.1,97.1v0.5h-2.6l4.4,10l3.9-10H89v-0.5h5v0.5h-1.7l-6.4,15.9h-0.3l-7.2-15.9h-1.9v-0.5H86.1z"/>
	<path class="st0" d="M107.4,97.2c1.1,0.4,2,1,2.8,1.8c0.8,0.7,1.4,1.6,1.9,2.6c0.4,1,0.7,2,0.7,3.1s-0.2,2.2-0.7,3.2
		c-0.4,1-1.1,1.9-1.9,2.6c-0.8,0.7-1.7,1.3-2.8,1.8c-1.1,0.4-2.2,0.6-3.5,0.6s-2.4-0.2-3.5-0.6c-1.1-0.4-2-1-2.8-1.8
		c-0.8-0.7-1.4-1.6-1.9-2.6c-0.4-1-0.7-2.1-0.7-3.2c0-1.1,0.2-2.2,0.7-3.1c0.4-1,1.1-1.9,1.9-2.6c0.8-0.7,1.7-1.3,2.8-1.8
		c1.1-0.4,2.2-0.7,3.5-0.7S106.3,96.8,107.4,97.2z M106.1,111.8c0.5-0.4,0.9-1,1.2-1.7s0.4-1.5,0.5-2.5c0.1-0.9,0.1-1.9,0.1-2.8
		c0-1,0-1.9-0.1-2.8c-0.1-0.9-0.2-1.7-0.5-2.5c-0.3-0.7-0.6-1.3-1.2-1.7c-0.5-0.4-1.3-0.7-2.2-0.7s-1.7,0.2-2.2,0.7
		c-0.5,0.4-0.9,1-1.2,1.7s-0.4,1.5-0.5,2.5c-0.1,0.9-0.1,1.9-0.1,2.8c0,1,0,1.9,0.1,2.8c0.1,0.9,0.2,1.8,0.5,2.5s0.6,1.3,1.2,1.7
		c0.5,0.4,1.3,0.7,2.2,0.7S105.5,112.3,106.1,111.8z"/>
	<path class="st0" d="M122,86.5V112h2.4v0.5h-9.2V112h2.4V87.1h-2.4v-0.5L122,86.5L122,86.5z"/>
	<path class="st0" d="M134.2,97.1v0.5h-2.6l4.4,10l3.9-10h-2.8v-0.5h5v0.5h-1.7l-6.4,15.9h-0.3l-7.2-15.9h-1.9v-0.5H134.2z"/>
	<path class="st0" d="M148,105.1c0,0.9,0,1.7,0.1,2.6c0.1,0.9,0.3,1.7,0.6,2.4c0.3,0.7,0.8,1.3,1.4,1.7c0.6,0.5,1.4,0.7,2.5,0.7
		c1,0,1.8-0.2,2.4-0.5c0.7-0.4,1.2-0.8,1.6-1.2c0.4-0.5,0.7-0.9,0.9-1.4c0.2-0.5,0.3-0.8,0.3-1l0.5,0.2c-0.1,0.5-0.3,0.9-0.6,1.5
		c-0.3,0.5-0.7,1-1.2,1.4s-1.1,0.8-1.9,1.1c-0.7,0.3-1.6,0.5-2.7,0.5c-1.2,0-2.4-0.2-3.5-0.6s-2-0.9-2.8-1.6
		c-0.8-0.7-1.4-1.6-1.9-2.6s-0.7-2.2-0.7-3.5c0-1,0.2-2,0.6-3s1-1.9,1.8-2.6s1.6-1.4,2.7-1.8c1-0.5,2.1-0.7,3.3-0.7
		c0.8,0,1.7,0.1,2.5,0.4c0.8,0.3,1.6,0.7,2.3,1.2c0.7,0.6,1.2,1.3,1.7,2.1c0.4,0.9,0.6,1.9,0.6,3.1h-10.6v1.6H148z M153.8,100.5
		c0-0.3,0-0.6,0-1s-0.1-0.8-0.3-1.2c-0.1-0.4-0.4-0.7-0.7-1c-0.3-0.3-0.8-0.4-1.4-0.4c-0.8,0-1.4,0.2-1.9,0.6
		c-0.4,0.4-0.8,0.9-1,1.5s-0.4,1.2-0.4,1.9c-0.1,0.7-0.1,1.3-0.1,2h5.8V100.5z"/>
	<path class="st0" d="M180.1,112v0.5h-6.7v-2.7h-0.1c-0.4,1-0.9,1.8-1.6,2.3s-1.6,0.8-2.6,0.8c-1.2,0-2.2-0.2-3.2-0.7
		s-1.8-1.1-2.5-1.8s-1.2-1.6-1.6-2.6s-0.6-2-0.6-3.1c0-0.8,0.1-1.7,0.4-2.7s0.8-1.8,1.4-2.7c0.6-0.8,1.4-1.5,2.4-2s2.2-0.8,3.6-0.8
		c1.1,0,2,0.3,2.6,0.8c0.7,0.5,1.2,1.3,1.5,2.3h0.1V87.1h-2.4v-0.5h6.8v25.5L180.1,112L180.1,112z M173.2,102.2
		c-0.1-0.9-0.3-1.8-0.5-2.5c-0.3-0.8-0.7-1.4-1.2-1.9s-1.2-0.8-2.1-0.8c-0.6,0-1.1,0.1-1.5,0.4c-0.4,0.3-0.8,0.7-1,1.3
		c-0.3,0.6-0.5,1.4-0.6,2.4s-0.2,2.2-0.2,3.7c0,1.2,0,2.2,0.1,3.2c0.1,0.9,0.2,1.8,0.4,2.4c0.2,0.7,0.5,1.2,0.9,1.5s0.9,0.5,1.6,0.5
		c1,0,1.8-0.3,2.4-0.8s1-1.2,1.3-1.9s0.5-1.6,0.5-2.5c0.1-0.9,0.1-1.7,0.1-2.5C173.4,104,173.3,103.2,173.2,102.2z"/>
	<path class="st0" d="M192.4,97.6v-0.5h6.7v2.7h0.1c0.7-2.1,2.2-3.2,4.2-3.2c1.4,0,2.6,0.3,3.6,0.8s1.8,1.2,2.4,2s1.1,1.7,1.4,2.7
		s0.5,1.9,0.5,2.7c0,1.1-0.2,2.1-0.6,3.1s-0.9,1.9-1.6,2.6c-0.7,0.8-1.5,1.4-2.5,1.8c-1,0.5-2,0.7-3.2,0.7c-1.1,0-2-0.3-2.7-0.9
		s-1.2-1.3-1.5-2.2h-0.1V122h2.4v0.5h-9.2V122h2.4V97.5h-2.3V97.6z M199.2,107.3c0.1,0.9,0.2,1.7,0.5,2.5s0.7,1.4,1.3,1.9
		c0.6,0.5,1.4,0.8,2.4,0.8c0.7,0,1.2-0.2,1.6-0.5s0.7-0.9,0.9-1.5c0.2-0.7,0.3-1.5,0.4-2.4s0.1-2,0.1-3.2c0-1.4-0.1-2.7-0.2-3.7
		s-0.3-1.8-0.6-2.4c-0.3-0.6-0.6-1-1-1.3s-0.9-0.4-1.5-0.4c-0.9,0-1.6,0.3-2.1,0.8s-0.9,1.1-1.2,1.9c-0.3,0.8-0.4,1.6-0.5,2.5
		s-0.1,1.8-0.1,2.6C199.1,105.5,199.2,106.4,199.2,107.3z"/>
	<path class="st0" d="M229.4,112.8c-0.6,0.1-1.2,0.1-1.8,0.1c-1.2,0-2.1-0.2-2.7-0.6c-0.6-0.4-1-1-1.1-1.8h-0.1
		c-0.4,1-0.9,1.6-1.6,1.9c-0.7,0.3-1.6,0.5-2.9,0.5c-0.6,0-1.2-0.1-1.8-0.2c-0.6-0.1-1.2-0.3-1.7-0.6s-0.9-0.6-1.2-1.1
		c-0.3-0.5-0.5-1-0.5-1.7s0.1-1.3,0.4-1.7s0.6-0.9,1.1-1.2c0.4-0.3,0.9-0.6,1.5-0.8s1.1-0.4,1.7-0.6c1-0.3,1.8-0.5,2.4-0.7
		s1.1-0.4,1.4-0.6c0.3-0.2,0.6-0.5,0.7-0.8s0.2-0.7,0.2-1.1v-2.2c0-0.6-0.2-1.2-0.5-1.8c-0.3-0.5-0.9-0.8-1.8-0.8
		c-0.6,0-1,0.1-1.4,0.4c-0.4,0.3-0.6,0.7-0.6,1.4c0,0.1,0,0.2,0,0.4s0,0.4,0.1,0.6c0,0.2,0,0.4,0.1,0.6c0,0.2,0,0.3,0,0.4
		c0,0.4-0.1,0.6-0.3,0.8c-0.2,0.2-0.4,0.4-0.6,0.4c-0.2,0.1-0.5,0.2-0.7,0.2c-0.3,0-0.5,0-0.6,0c-0.2,0-0.5,0-0.7-0.1
		s-0.5-0.1-0.7-0.3c-0.2-0.1-0.4-0.3-0.5-0.6c-0.1-0.2-0.2-0.6-0.2-1c0-0.6,0.2-1.2,0.5-1.7s0.8-0.9,1.4-1.2s1.2-0.6,2-0.7
		c0.7-0.2,1.5-0.3,2.3-0.3c0.9,0,1.8,0.1,2.6,0.2c0.8,0.1,1.5,0.4,2.1,0.8c0.6,0.4,1.1,0.9,1.4,1.6c0.3,0.7,0.5,1.5,0.5,2.5v8.9
		c0,0.5,0.1,0.9,0.2,1.2s0.5,0.5,1,0.5c0.3,0,0.6-0.1,0.8-0.2c0.2-0.1,0.4-0.3,0.6-0.5l0.3,0.3C230.5,112.4,230,112.7,229.4,112.8z
		 M223.5,103.6c0,0.1-0.1,0.3-0.3,0.4c-0.1,0.1-0.4,0.3-0.7,0.4c-0.5,0.2-0.9,0.4-1.4,0.6c-0.5,0.2-0.9,0.5-1.2,0.8
		c-0.4,0.3-0.7,0.7-0.9,1.2c-0.2,0.5-0.3,1-0.3,1.8c0,0.3,0,0.6,0.1,1c0,0.4,0.1,0.8,0.3,1.1c0.2,0.4,0.4,0.7,0.7,0.9
		c0.3,0.3,0.7,0.4,1.3,0.4c0.3,0,0.6-0.1,0.9-0.2c0.3-0.1,0.6-0.4,0.8-0.7c0.2-0.3,0.4-0.7,0.6-1.2s0.2-1.1,0.2-1.8L223.5,103.6
		L223.5,103.6z"/>
	<path class="st0" d="M239.4,97.1v3h0.1c0.4-0.9,1-1.7,1.7-2.4s1.7-1,2.9-1c1,0,1.8,0.3,2.4,0.8s0.9,1.3,0.9,2.2
		c0,0.7-0.2,1.3-0.5,1.7s-0.9,0.6-1.7,0.6c-0.6,0-1.1-0.1-1.5-0.3c-0.5-0.2-0.7-0.7-0.7-1.3c0-0.1,0-0.2,0-0.4s0.1-0.4,0.1-0.6
		c0-0.2,0.1-0.4,0.1-0.6c0-0.2,0-0.3,0-0.3c0-0.2-0.1-0.3-0.1-0.5c0-0.1-0.1-0.2-0.2-0.3s-0.3-0.1-0.5-0.1s-0.5,0.1-0.9,0.3
		s-0.7,0.6-1,1s-0.6,1-0.8,1.6s-0.3,1.3-0.3,2.1v9.2h2.8v0.5h-9.6v-0.5h2.3V97.4h-2.3v-0.5h6.8V97.1z"/>
	<path class="st0" d="M252,92.8c0.4,0.1,0.7,0.1,1.1,0.1s0.7,0,1.1-0.1s0.7-0.2,1.1-0.4V97h4.2v0.5h-4.2v12.1c0,0.4,0,0.7,0.1,1
		c0,0.3,0.1,0.6,0.3,0.8c0.1,0.3,0.3,0.5,0.6,0.6c0.3,0.1,0.6,0.2,1,0.2c0.5,0,0.8-0.1,1.2-0.3c0.3-0.2,0.6-0.4,0.8-0.7
		c0.2-0.3,0.4-0.6,0.6-1s0.3-0.8,0.4-1.1l0.5,0.1c-0.1,0.8-0.4,1.5-0.7,2c-0.3,0.5-0.7,0.9-1.2,1.1c-0.4,0.3-0.9,0.4-1.4,0.5
		s-1,0.1-1.4,0.1c-1.2,0-2.2-0.1-2.9-0.4c-0.7-0.3-1.2-0.6-1.5-1.1c-0.3-0.4-0.5-0.9-0.6-1.4c0-0.5-0.1-1-0.1-1.4V97.5h-2.4V97h2.4
		v-4.6C251.3,92.6,251.6,92.7,252,92.8z"/>
	<path class="st0" d="M268.7,97.1V112h2.4v0.5h-9.2V112h2.4V97.6h-2.4v-0.5H268.7z M264.7,87.5c0.5-0.5,1.1-0.8,1.8-0.8
		c0.7,0,1.3,0.3,1.8,0.8s0.8,1.1,0.8,1.8s-0.3,1.3-0.8,1.8s-1.1,0.8-1.8,0.8c-0.7,0-1.3-0.3-1.8-0.8s-0.8-1.1-0.8-1.8
		S264.2,88,264.7,87.5z"/>
	<path class="st0" d="M278,105.1c0,0.9,0,1.7,0.1,2.6c0.1,0.9,0.3,1.7,0.6,2.4c0.3,0.7,0.8,1.3,1.4,1.7c0.6,0.5,1.4,0.7,2.5,0.7
		c1,0,1.8-0.2,2.4-0.5c0.7-0.4,1.2-0.8,1.6-1.2c0.4-0.5,0.7-0.9,0.9-1.4c0.2-0.5,0.3-0.8,0.3-1l0.5,0.2c-0.1,0.5-0.3,0.9-0.6,1.5
		c-0.3,0.5-0.7,1-1.2,1.4s-1.1,0.8-1.9,1.1c-0.7,0.3-1.6,0.5-2.7,0.5c-1.2,0-2.4-0.2-3.5-0.6s-2-0.9-2.8-1.6
		c-0.8-0.7-1.4-1.6-1.9-2.6s-0.7-2.2-0.7-3.5c0-1,0.2-2,0.6-3s1-1.9,1.8-2.6s1.6-1.4,2.7-1.8c1-0.5,2.1-0.7,3.3-0.7
		c0.8,0,1.7,0.1,2.5,0.4c0.8,0.3,1.6,0.7,2.3,1.2c0.7,0.6,1.2,1.3,1.7,2.1c0.4,0.9,0.6,1.9,0.6,3.1h-10.6v1.6H278z M283.8,100.5
		c0-0.3,0-0.6,0-1s-0.1-0.8-0.3-1.2c-0.1-0.4-0.4-0.7-0.7-1c-0.3-0.3-0.8-0.4-1.4-0.4c-0.8,0-1.4,0.2-1.9,0.6
		c-0.4,0.4-0.8,0.9-1,1.5s-0.4,1.2-0.4,1.9c-0.1,0.7-0.1,1.3-0.1,2h5.8V100.5z"/>
	<path class="st0" d="M292,107.3c0.3,0.7,0.6,1.3,0.9,1.9c0.3,0.6,0.7,1.2,1.1,1.7s0.9,0.9,1.5,1.2s1.3,0.5,2.1,0.5
		c0.2,0,0.5,0,0.9,0s0.7-0.1,1.1-0.3c0.3-0.2,0.6-0.5,0.9-0.8s0.4-0.9,0.4-1.6c0-0.2,0-0.4-0.1-0.7c-0.1-0.2-0.2-0.5-0.4-0.7
		c-0.2-0.2-0.5-0.5-0.8-0.7c-0.4-0.2-0.9-0.5-1.5-0.7l-2.9-1.1c-0.3-0.1-0.7-0.3-1.1-0.5s-0.7-0.5-1.1-0.8c-0.3-0.3-0.6-0.7-0.8-1.2
		s-0.3-1-0.3-1.7s0.1-1.4,0.4-2s0.7-1.2,1.2-1.6c0.5-0.5,1.1-0.8,1.9-1.1c0.7-0.3,1.5-0.4,2.4-0.4c0.5,0,0.9,0,1.3,0.1
		s0.8,0.2,1.1,0.3s0.6,0.2,0.9,0.3s0.5,0.1,0.6,0.1c0.3,0,0.4,0,0.5-0.1s0.1-0.2,0.2-0.3h0.5v4.4h-0.5c-0.2-0.6-0.5-1.1-0.7-1.7
		c-0.3-0.5-0.6-1-0.9-1.4s-0.8-0.7-1.3-0.9s-1.1-0.3-1.9-0.3s-1.5,0.2-2.2,0.6c-0.7,0.4-1,1-1,1.9c0,0.2,0,0.4,0.1,0.6
		c0,0.2,0.2,0.4,0.3,0.7c0.2,0.2,0.4,0.5,0.8,0.7s0.8,0.5,1.4,0.7l3.1,1c1.3,0.5,2.3,1.1,3,1.8s1,1.7,1,2.8c0,0.8-0.2,1.5-0.5,2.1
		s-0.8,1.2-1.4,1.6c-0.6,0.4-1.2,0.8-2,1c-0.7,0.2-1.5,0.4-2.3,0.4c-0.4,0-0.9,0-1.4-0.1s-1-0.2-1.5-0.3s-0.9-0.2-1.3-0.3
		s-0.7-0.1-0.9-0.1c-0.2,0-0.3,0-0.4,0.1s-0.2,0.2-0.2,0.4h-0.5v-5.2h0.3V107.3z"/>
	<path class="st0" d="M317.1,102c0.4-1,1-1.8,1.7-2.6c0.8-0.8,1.7-1.5,2.8-2c1.1-0.5,2.4-0.8,3.8-0.8c0.9,0,1.7,0.1,2.5,0.3
		c0.7,0.2,1.4,0.5,1.9,0.8s1,0.8,1.3,1.3s0.4,1,0.4,1.6c0,0.8-0.2,1.4-0.6,1.7s-1,0.5-1.7,0.5c-0.6,0-1.1-0.1-1.5-0.3
		c-0.5-0.2-0.7-0.6-0.7-1.3c0-0.1,0-0.3,0.1-0.5s0.1-0.5,0.2-0.8s0.1-0.5,0.2-0.8s0.1-0.4,0.1-0.5c0-0.5-0.2-0.9-0.6-1.1
		c-0.4-0.3-0.9-0.4-1.6-0.4c-0.9,0-1.5,0.2-2.1,0.6s-0.9,1-1.2,1.6c-0.3,0.7-0.5,1.5-0.5,2.4c-0.1,0.9-0.1,1.9-0.1,2.9
		c0,0.9,0,1.9,0.1,2.8c0.1,0.9,0.3,1.8,0.6,2.6c0.3,0.8,0.8,1.4,1.4,1.9s1.4,0.7,2.4,0.7s1.8-0.2,2.5-0.5s1.2-0.8,1.6-1.2
		c0.4-0.5,0.7-0.9,0.9-1.4c0.2-0.5,0.3-0.8,0.4-1l0.5,0.2c-0.1,0.4-0.3,0.9-0.6,1.4c-0.3,0.5-0.6,1-1.1,1.4s-1.1,0.8-1.9,1.1
		s-1.7,0.5-2.9,0.5c-0.3,0-0.8,0-1.3-0.1c-0.6-0.1-1.2-0.2-1.8-0.4c-0.7-0.2-1.3-0.5-2-0.8c-0.7-0.4-1.3-0.8-1.9-1.5
		c-0.6-0.6-1-1.4-1.4-2.2c-0.3-0.9-0.5-1.9-0.5-3.2C316.5,103.9,316.7,102.9,317.1,102z"/>
	<path class="st0" d="M349.4,112.8c-0.6,0.1-1.2,0.1-1.8,0.1c-1.2,0-2.1-0.2-2.7-0.6c-0.6-0.4-1-1-1.1-1.8h-0.1
		c-0.4,1-0.9,1.6-1.6,1.9c-0.7,0.3-1.6,0.5-2.9,0.5c-0.6,0-1.2-0.1-1.8-0.2c-0.6-0.1-1.2-0.3-1.7-0.6s-0.9-0.6-1.2-1.1
		c-0.3-0.5-0.5-1-0.5-1.7s0.1-1.3,0.4-1.7s0.6-0.9,1.1-1.2c0.4-0.3,0.9-0.6,1.5-0.8s1.1-0.4,1.7-0.6c1-0.3,1.8-0.5,2.4-0.7
		s1.1-0.4,1.4-0.6c0.3-0.2,0.6-0.5,0.7-0.8s0.2-0.7,0.2-1.1v-2.2c0-0.6-0.2-1.2-0.5-1.8c-0.3-0.5-0.9-0.8-1.8-0.8
		c-0.6,0-1,0.1-1.4,0.4c-0.4,0.3-0.6,0.7-0.6,1.4c0,0.1,0,0.2,0,0.4s0,0.4,0.1,0.6c0,0.2,0,0.4,0.1,0.6c0,0.2,0,0.3,0,0.4
		c0,0.4-0.1,0.6-0.3,0.8c-0.2,0.2-0.4,0.4-0.6,0.4c-0.2,0.1-0.5,0.2-0.7,0.2c-0.3,0-0.5,0-0.6,0c-0.2,0-0.5,0-0.7-0.1
		s-0.5-0.1-0.7-0.3c-0.2-0.1-0.4-0.3-0.5-0.6c-0.1-0.2-0.2-0.6-0.2-1c0-0.6,0.2-1.2,0.5-1.7s0.8-0.9,1.4-1.2s1.2-0.6,2-0.7
		c0.7-0.2,1.5-0.3,2.3-0.3c0.9,0,1.8,0.1,2.6,0.2c0.8,0.1,1.5,0.4,2.1,0.8c0.6,0.4,1.1,0.9,1.4,1.6c0.3,0.7,0.5,1.5,0.5,2.5v8.9
		c0,0.5,0.1,0.9,0.2,1.2s0.5,0.5,1,0.5c0.3,0,0.6-0.1,0.8-0.2c0.2-0.1,0.4-0.3,0.6-0.5l0.3,0.3C350.5,112.4,350,112.7,349.4,112.8z
		 M343.5,103.6c0,0.1-0.1,0.3-0.3,0.4c-0.1,0.1-0.4,0.3-0.7,0.4c-0.5,0.2-0.9,0.4-1.4,0.6c-0.5,0.2-0.9,0.5-1.2,0.8
		c-0.4,0.3-0.7,0.7-0.9,1.2c-0.2,0.5-0.3,1-0.3,1.8c0,0.3,0,0.6,0.1,1c0,0.4,0.1,0.8,0.3,1.1c0.2,0.4,0.4,0.7,0.7,0.9
		c0.3,0.3,0.7,0.4,1.3,0.4c0.3,0,0.6-0.1,0.9-0.2c0.3-0.1,0.6-0.4,0.8-0.7c0.2-0.3,0.4-0.7,0.6-1.2s0.2-1.1,0.2-1.8L343.5,103.6
		L343.5,103.6z"/>
	<path class="st0" d="M355.2,112V97.6h-2.4v-0.5h6.7v3.6h0.1c0.1-0.2,0.3-0.5,0.5-1c0.2-0.4,0.6-0.9,1-1.3c0.5-0.4,1-0.8,1.8-1.1
		c0.7-0.3,1.6-0.5,2.7-0.5c1.6,0,2.8,0.5,3.7,1.4c0.9,0.9,1.3,2.2,1.3,3.7v10.2h2.4v0.5h-9v-0.5h2.2v-11.4c0-1-0.2-1.7-0.6-2.2
		s-1-0.7-1.7-0.7c-0.6,0-1.1,0.1-1.7,0.4c-0.5,0.3-1,0.7-1.4,1.2s-0.7,1.2-1,2.1c-0.2,0.8-0.4,1.8-0.4,2.9v7.7h2.3v0.5h-9v-0.5h2.5
		V112z"/>
	<path class="st0" d="M386,107.3c0.3,0.7,0.6,1.3,0.9,1.9c0.3,0.6,0.7,1.2,1.1,1.7s0.9,0.9,1.5,1.2s1.3,0.5,2.1,0.5
		c0.2,0,0.5,0,0.9,0s0.7-0.1,1.1-0.3c0.3-0.2,0.6-0.5,0.9-0.8s0.4-0.9,0.4-1.6c0-0.2,0-0.4-0.1-0.7c-0.1-0.2-0.2-0.5-0.4-0.7
		c-0.2-0.2-0.5-0.5-0.8-0.7c-0.4-0.2-0.9-0.5-1.5-0.7l-2.9-1.1c-0.3-0.1-0.7-0.3-1.1-0.5s-0.7-0.5-1.1-0.8c-0.3-0.3-0.6-0.7-0.8-1.2
		s-0.3-1-0.3-1.7s0.1-1.4,0.4-2s0.7-1.2,1.2-1.6c0.5-0.5,1.1-0.8,1.9-1.1c0.7-0.3,1.5-0.4,2.4-0.4c0.5,0,0.9,0,1.3,0.1
		s0.8,0.2,1.1,0.3s0.6,0.2,0.9,0.3s0.5,0.1,0.6,0.1c0.3,0,0.4,0,0.5-0.1s0.1-0.2,0.2-0.3h0.5v4.4h-0.5c-0.2-0.6-0.5-1.1-0.7-1.7
		c-0.3-0.5-0.6-1-0.9-1.4s-0.8-0.7-1.3-0.9s-1.1-0.3-1.9-0.3s-1.5,0.2-2.2,0.6c-0.7,0.4-1,1-1,1.9c0,0.2,0,0.4,0.1,0.6
		c0,0.2,0.2,0.4,0.3,0.7c0.2,0.2,0.4,0.5,0.8,0.7s0.8,0.5,1.4,0.7l3.1,1c1.3,0.5,2.3,1.1,3,1.8c0.7,0.7,1,1.7,1,2.8
		c0,0.8-0.2,1.5-0.5,2.1s-0.8,1.2-1.4,1.6c-0.6,0.4-1.2,0.8-2,1c-0.7,0.2-1.5,0.4-2.3,0.4c-0.4,0-0.9,0-1.4-0.1s-1-0.2-1.5-0.3
		s-0.9-0.2-1.3-0.3s-0.7-0.1-0.9-0.1c-0.2,0-0.3,0-0.4,0.1s-0.2,0.2-0.2,0.4h-0.5v-5.2h0.3V107.3z"/>
	<path class="st0" d="M414.6,97.6h-3v-0.5h5.2v0.5h-1.7c-1.3,2.9-2.5,5.5-3.5,7.7c-1,2.3-1.8,4.3-2.5,6.1s-1.3,3.3-1.9,4.7
		c-0.5,1.4-1,2.5-1.5,3.6s-1,1.9-1.6,2.4s-1.4,0.8-2.4,0.8c-1.1,0-2-0.3-2.6-0.8c-0.7-0.5-1-1.2-1-2.1c0-0.7,0.2-1.2,0.7-1.5
		c0.4-0.3,1-0.5,1.6-0.5c0.5,0,0.9,0.1,1.3,0.4s0.6,0.6,0.6,1.1c0,0.4-0.1,0.8-0.2,1c-0.2,0.3-0.2,0.6-0.2,0.9
		c0,0.3,0.1,0.5,0.2,0.6c0.1,0.1,0.3,0.2,0.5,0.2c0.4,0,0.8-0.2,1.2-0.5s0.7-0.7,1-1.2s0.6-1,0.8-1.5s0.4-1,0.6-1.4l1.5-3.9
		l-6.8-16.2H399V97h9.1v0.5h-2.5l4.4,10.4L414.6,97.6z"/>
	<path class="st0" d="M420.5,112V97.6h-2.4v-0.5h6.7v3.6h0.1c0.1-0.2,0.3-0.5,0.5-1c0.2-0.4,0.6-0.9,1-1.3c0.5-0.4,1-0.8,1.8-1.1
		c0.7-0.3,1.6-0.5,2.7-0.5c1.6,0,2.8,0.5,3.7,1.4s1.3,2.2,1.3,3.7v10.2h2.4v0.5h-9v-0.5h2.2v-11.4c0-1-0.2-1.7-0.6-2.2
		s-1-0.7-1.7-0.7c-0.6,0-1.1,0.1-1.7,0.4c-0.5,0.3-1,0.7-1.4,1.2c-0.4,0.6-0.7,1.2-1,2.1c-0.2,0.8-0.4,1.8-0.4,2.9v7.7h2.3v0.5h-9
		v-0.5h2.5V112z"/>
	<path class="st0" d="M445.4,105.1c0,0.9,0,1.7,0.1,2.6c0.1,0.9,0.3,1.7,0.6,2.4s0.8,1.3,1.4,1.7s1.4,0.7,2.5,0.7
		c1,0,1.8-0.2,2.4-0.5s1.2-0.8,1.6-1.2s0.7-0.9,0.9-1.4s0.3-0.8,0.3-1l0.5,0.2c-0.1,0.5-0.3,0.9-0.6,1.5c-0.3,0.5-0.7,1-1.2,1.4
		s-1.1,0.8-1.9,1.1c-0.7,0.3-1.6,0.5-2.7,0.5c-1.2,0-2.4-0.2-3.5-0.6s-2-0.9-2.8-1.6s-1.4-1.6-1.9-2.6s-0.7-2.2-0.7-3.5
		c0-1,0.2-2,0.6-3s1-1.9,1.8-2.6s1.6-1.4,2.7-1.8c1-0.5,2.1-0.7,3.3-0.7c0.8,0,1.7,0.1,2.5,0.4s1.6,0.7,2.3,1.2
		c0.7,0.6,1.2,1.3,1.7,2.1c0.4,0.9,0.6,1.9,0.6,3.1h-10.6v1.6H445.4z M451.2,100.5c0-0.3,0-0.6,0-1s-0.1-0.8-0.3-1.2
		c-0.1-0.4-0.4-0.7-0.7-1s-0.8-0.4-1.4-0.4c-0.8,0-1.4,0.2-1.9,0.6c-0.4,0.4-0.8,0.9-1,1.5s-0.4,1.2-0.4,1.9s-0.1,1.3-0.1,2h5.8
		L451.2,100.5L451.2,100.5z"/>
	<path class="st0" d="M465.4,97.1v3h0.1c0.4-0.9,1-1.7,1.7-2.4s1.7-1,2.9-1c1,0,1.8,0.3,2.4,0.8s0.9,1.3,0.9,2.2
		c0,0.7-0.2,1.3-0.5,1.7s-0.9,0.6-1.7,0.6c-0.6,0-1.1-0.1-1.5-0.3c-0.5-0.2-0.7-0.7-0.7-1.3c0-0.1,0-0.2,0-0.4s0.1-0.4,0.1-0.6
		c0-0.2,0.1-0.4,0.1-0.6c0-0.2,0-0.3,0-0.3c0-0.2-0.1-0.3-0.1-0.5c0-0.1-0.1-0.2-0.2-0.3c-0.1-0.1-0.3-0.1-0.5-0.1s-0.5,0.1-0.9,0.3
		s-0.7,0.6-1,1s-0.6,1-0.8,1.6s-0.3,1.3-0.3,2.1v9.2h2.8v0.5h-9.6v-0.5h2.3V97.4h-2.3v-0.5h6.8V97.1z"/>
	<path class="st0" d="M486.2,110.2c0.8,0.2,1.6,0.5,2.2,0.9c0.6,0.4,1.1,1,1.5,1.7s0.6,1.6,0.6,2.8c0,0.9-0.2,1.8-0.6,2.7
		c-0.4,0.9-0.9,1.7-1.7,2.4c-0.7,0.7-1.6,1.3-2.7,1.7c-1,0.4-2.2,0.6-3.6,0.6c-1.5,0-2.7-0.2-3.6-0.5c-0.9-0.3-1.6-0.7-2.1-1.2
		s-0.8-0.9-0.9-1.4c-0.1-0.5-0.2-0.9-0.2-1.2c0-0.6,0.1-1.2,0.4-1.7s0.7-0.9,1.1-1.3c0.5-0.4,1-0.7,1.5-1c0.6-0.3,1.1-0.5,1.7-0.6
		V114c-0.5,0-1-0.1-1.6-0.2s-1.2-0.3-1.7-0.6s-1-0.7-1.3-1.2s-0.5-1.1-0.5-1.9c0-0.1,0-0.3,0.1-0.6s0.2-0.7,0.4-1.1s0.5-0.9,1-1.3
		c0.4-0.5,1-0.9,1.8-1.3c-0.2-0.2-0.5-0.4-0.7-0.6c-0.3-0.2-0.5-0.5-0.7-0.8s-0.4-0.6-0.6-1c-0.2-0.4-0.2-0.9-0.2-1.4
		c0-0.7,0.2-1.4,0.5-2.1c0.3-0.7,0.8-1.2,1.4-1.7s1.3-0.9,2.2-1.2s1.9-0.4,2.9-0.4s2,0.2,2.8,0.5s1.4,0.7,2,1.2
		c0.6-0.6,1.1-1,1.6-1.2c0.5-0.3,1.1-0.4,1.9-0.4c0.7,0,1.2,0.2,1.6,0.5c0.3,0.3,0.5,0.8,0.5,1.3s-0.1,0.9-0.4,1.1
		c-0.3,0.3-0.7,0.4-1.2,0.4c-0.3,0-0.6,0-0.8-0.1s-0.4-0.2-0.5-0.3s-0.2-0.3-0.2-0.4c0-0.2-0.1-0.3-0.1-0.4c0-0.3-0.1-0.6-0.1-0.8
		s-0.2-0.3-0.5-0.3c-0.1,0-0.3,0.1-0.5,0.2c-0.2,0.1-0.5,0.3-1,0.7c0.3,0.3,0.6,0.7,0.9,1.2c0.3,0.5,0.5,1.3,0.5,2.2
		c0,0.6-0.1,1.2-0.3,1.8s-0.6,1.1-1.1,1.6s-1.2,0.9-2,1.2s-1.8,0.5-3,0.5c-1,0-1.8-0.1-2.6-0.3s-1.4-0.4-1.8-0.6
		c-0.7,0.5-1.1,0.8-1.2,1.2c-0.1,0.3-0.2,0.6-0.2,0.9c0,0.6,0.2,1,0.7,1.3s1.1,0.4,1.9,0.4h4C484.5,109.9,485.3,110,486.2,110.2z
		 M478.5,119.5c0.1,0.5,0.3,1,0.7,1.4c0.3,0.4,0.8,0.8,1.4,1.1s1.3,0.4,2.2,0.4c0.7,0,1.4-0.1,2-0.4c0.6-0.2,1.2-0.6,1.6-1
		c0.5-0.4,0.8-0.9,1.1-1.5s0.4-1.3,0.4-2s-0.1-1.3-0.4-1.7c-0.2-0.4-0.5-0.8-0.9-1.1s-0.8-0.4-1.2-0.5s-0.8-0.1-1.2-0.1h-3.6
		c-0.7,0.6-1.3,1.2-1.7,1.7c-0.4,0.6-0.6,1.3-0.6,2.3C478.3,118.5,478.4,119,478.5,119.5z M483.6,106.3c0.3-0.1,0.6-0.3,0.9-0.6
		c0.2-0.3,0.4-0.8,0.6-1.4c0.1-0.6,0.2-1.4,0.2-2.4c0-0.7,0-1.3-0.1-1.9s-0.2-1.1-0.4-1.5s-0.5-0.8-0.8-1c-0.4-0.2-0.9-0.4-1.5-0.4
		s-1.1,0.1-1.5,0.4s-0.7,0.6-0.9,1s-0.3,0.9-0.4,1.4c-0.1,0.5-0.1,1.1-0.1,1.6c0,1.1,0.1,2,0.2,2.7c0.1,0.7,0.3,1.2,0.6,1.5
		s0.6,0.6,0.9,0.7c0.4,0.1,0.7,0.1,1.2,0.1C482.9,106.5,483.3,106.4,483.6,106.3z"/>
	<path class="st0" d="M500.7,97.1V112h2.4v0.5h-9.2V112h2.4V97.6h-2.4v-0.5H500.7z M496.7,87.5c0.5-0.5,1.1-0.8,1.8-0.8
		s1.3,0.3,1.8,0.8s0.8,1.1,0.8,1.8s-0.3,1.3-0.8,1.8s-1.1,0.8-1.8,0.8s-1.3-0.3-1.8-0.8s-0.8-1.1-0.8-1.8S496.2,88,496.7,87.5z"/>
	<path class="st0" d="M510.7,97.6c-0.6,0-1.2,0.1-1.7,0.2c-0.5,0.2-0.9,0.4-1.2,0.7s-0.7,0.7-0.9,1.2c-0.3,0.5-0.5,1-0.8,1.7h-0.4
		l0.5-4.3h12.9l-8.7,14.9h4.4c0.7,0,1.4-0.1,1.9-0.4c0.5-0.3,0.9-0.6,1.2-1s0.6-0.9,0.8-1.4s0.4-1.1,0.6-1.6h0.4l-0.4,5h-14.1
		l8.7-14.9h-3.2V97.6z"/>
	<path class="st0" d="M526.7,105.1c0,0.9,0,1.7,0.1,2.6s0.3,1.7,0.6,2.4s0.8,1.3,1.4,1.7c0.6,0.5,1.4,0.7,2.5,0.7
		c1,0,1.8-0.2,2.4-0.5c0.7-0.4,1.2-0.8,1.6-1.2c0.4-0.5,0.7-0.9,0.9-1.4s0.3-0.8,0.3-1l0.5,0.2c-0.1,0.5-0.3,0.9-0.6,1.5
		c-0.3,0.5-0.7,1-1.2,1.4s-1.1,0.8-1.9,1.1s-1.6,0.5-2.7,0.5c-1.2,0-2.4-0.2-3.5-0.6s-2-0.9-2.8-1.6c-0.8-0.7-1.4-1.6-1.9-2.6
		s-0.7-2.2-0.7-3.5c0-1,0.2-2,0.6-3c0.4-1,1-1.9,1.8-2.6s1.6-1.4,2.7-1.8s2.1-0.7,3.3-0.7c0.8,0,1.7,0.1,2.5,0.4
		c0.8,0.3,1.6,0.7,2.3,1.2c0.7,0.6,1.2,1.3,1.7,2.1s0.6,1.9,0.6,3.1h-10.6v1.6H526.7z M532.5,100.5c0-0.3,0-0.6,0-1
		s-0.1-0.8-0.3-1.2c-0.1-0.4-0.4-0.7-0.7-1s-0.8-0.4-1.3-0.4c-0.8,0-1.4,0.2-1.9,0.6c-0.4,0.4-0.8,0.9-1,1.5s-0.4,1.2-0.4,1.9
		c-0.1,0.7-0.1,1.3-0.1,2h5.8L532.5,100.5L532.5,100.5z"/>
	<path class="st0" d="M565.4,112.8c-0.6,0.1-1.2,0.1-1.8,0.1c-1.2,0-2.1-0.2-2.7-0.6c-0.6-0.4-1-1-1.1-1.8h-0.1
		c-0.4,1-0.9,1.6-1.6,1.9c-0.7,0.3-1.6,0.5-2.9,0.5c-0.6,0-1.2-0.1-1.8-0.2s-1.2-0.3-1.7-0.6s-0.9-0.6-1.2-1.1s-0.5-1-0.5-1.7
		s0.1-1.3,0.4-1.7c0.3-0.5,0.6-0.9,1.1-1.2c0.4-0.3,0.9-0.6,1.5-0.8s1.1-0.4,1.7-0.6c1-0.3,1.8-0.5,2.4-0.7c0.6-0.2,1.1-0.4,1.4-0.6
		c0.3-0.2,0.6-0.5,0.7-0.8c0.1-0.3,0.2-0.7,0.2-1.1v-2.2c0-0.6-0.2-1.2-0.5-1.8c-0.3-0.5-0.9-0.8-1.8-0.8c-0.6,0-1,0.1-1.4,0.4
		s-0.6,0.7-0.6,1.4c0,0.1,0,0.2,0,0.4s0,0.4,0.1,0.6c0,0.2,0,0.4,0.1,0.6c0,0.2,0,0.3,0,0.4c0,0.4-0.1,0.6-0.3,0.8s-0.4,0.4-0.6,0.4
		c-0.2,0.1-0.5,0.2-0.7,0.2c-0.3,0-0.5,0-0.6,0c-0.2,0-0.5,0-0.7-0.1s-0.5-0.1-0.7-0.3c-0.2-0.1-0.4-0.3-0.5-0.6
		c-0.1-0.2-0.2-0.6-0.2-1c0-0.6,0.2-1.2,0.5-1.7s0.8-0.9,1.4-1.2c0.6-0.3,1.2-0.6,2-0.7c0.7-0.2,1.5-0.3,2.3-0.3
		c0.9,0,1.8,0.1,2.6,0.2c0.8,0.1,1.5,0.4,2.1,0.8c0.6,0.4,1.1,0.9,1.4,1.6s0.5,1.5,0.5,2.5v8.9c0,0.5,0.1,0.9,0.2,1.2
		c0.1,0.3,0.5,0.5,1,0.5c0.3,0,0.6-0.1,0.8-0.2c0.2-0.1,0.4-0.3,0.6-0.5l0.3,0.3C566.5,112.4,566,112.7,565.4,112.8z M559.5,103.6
		c0,0.1-0.1,0.3-0.3,0.4s-0.4,0.3-0.7,0.4c-0.5,0.2-0.9,0.4-1.4,0.6s-0.9,0.5-1.2,0.8c-0.4,0.3-0.7,0.7-0.9,1.2s-0.3,1-0.3,1.8
		c0,0.3,0,0.6,0.1,1c0,0.4,0.1,0.8,0.3,1.1c0.2,0.4,0.4,0.7,0.7,0.9c0.3,0.3,0.7,0.4,1.3,0.4c0.3,0,0.6-0.1,0.9-0.2
		c0.3-0.1,0.6-0.4,0.8-0.7s0.4-0.7,0.6-1.2c0.1-0.5,0.2-1.1,0.2-1.8L559.5,103.6L559.5,103.6z"/>
	<path class="st0" d="M571.2,112V97.6h-2.4v-0.5h6.7v3.6h0.1c0.1-0.2,0.3-0.5,0.5-1c0.2-0.4,0.6-0.9,1-1.3c0.5-0.4,1-0.8,1.8-1.1
		c0.7-0.3,1.6-0.5,2.7-0.5c1.6,0,2.8,0.5,3.7,1.4s1.3,2.2,1.3,3.7v10.2h2.4v0.5h-9v-0.5h2.2v-11.4c0-1-0.2-1.7-0.6-2.2
		s-1-0.7-1.7-0.7c-0.6,0-1.1,0.1-1.7,0.4c-0.5,0.3-1,0.7-1.4,1.2c-0.4,0.6-0.7,1.2-1,2.1c-0.2,0.8-0.4,1.8-0.4,2.9v7.7h2.3v0.5h-9
		v-0.5h2.5V112z"/>
	<path class="st0" d="M610.2,112v0.5h-6.7v-2.7h-0.1c-0.4,1-0.9,1.8-1.6,2.3s-1.6,0.8-2.6,0.8c-1.2,0-2.2-0.2-3.2-0.7
		s-1.8-1.1-2.5-1.8c-0.7-0.8-1.2-1.6-1.6-2.6c-0.4-1-0.6-2-0.6-3.1c0-0.8,0.1-1.7,0.5-2.7c0.3-1,0.8-1.8,1.4-2.7
		c0.6-0.8,1.4-1.5,2.4-2s2.2-0.8,3.6-0.8c1.1,0,2,0.3,2.6,0.8c0.7,0.5,1.2,1.3,1.5,2.3h0.1V87.1H601v-0.5h6.8v25.5L610.2,112
		L610.2,112z M603.3,102.2c-0.1-0.9-0.3-1.8-0.5-2.5c-0.3-0.8-0.7-1.4-1.2-1.9s-1.2-0.8-2.1-0.8c-0.6,0-1.1,0.1-1.5,0.4
		c-0.4,0.3-0.8,0.7-1,1.3c-0.3,0.6-0.5,1.4-0.6,2.4s-0.2,2.2-0.2,3.7c0,1.2,0,2.2,0.1,3.2c0.1,0.9,0.2,1.8,0.4,2.4s0.5,1.2,0.9,1.5
		c0.4,0.4,0.9,0.5,1.6,0.5c1,0,1.8-0.3,2.4-0.8c0.6-0.5,1-1.2,1.3-1.9s0.5-1.6,0.5-2.5c0.1-0.9,0.1-1.7,0.1-2.5
		C603.4,104,603.4,103.2,603.3,102.2z"/>
	<path class="st0" d="M622.4,97.6v-0.5h6.7v2.7h0.1c0.7-2.1,2.2-3.2,4.2-3.2c1.4,0,2.6,0.3,3.6,0.8s1.8,1.2,2.4,2
		c0.6,0.8,1.1,1.7,1.4,2.7c0.3,1,0.5,1.9,0.5,2.7c0,1.1-0.2,2.1-0.6,3.1s-0.9,1.9-1.6,2.6c-0.7,0.8-1.5,1.4-2.5,1.8
		c-1,0.5-2,0.7-3.2,0.7c-1.1,0-2-0.3-2.7-0.9s-1.2-1.3-1.5-2.2h-0.1V122h2.4v0.5h-9.2V122h2.4V97.5h-2.3V97.6z M629.3,107.3
		c0.1,0.9,0.2,1.7,0.5,2.5s0.7,1.4,1.3,1.9s1.3,0.8,2.4,0.8c0.7,0,1.2-0.2,1.6-0.5c0.4-0.4,0.7-0.9,0.9-1.5s0.3-1.5,0.4-2.4
		c0.1-0.9,0.1-2,0.1-3.2c0-1.4-0.1-2.7-0.2-3.7c-0.1-1-0.3-1.8-0.6-2.4c-0.3-0.6-0.6-1-1-1.3s-0.9-0.4-1.5-0.4
		c-0.9,0-1.6,0.3-2.1,0.8s-0.9,1.1-1.2,1.9c-0.3,0.8-0.4,1.6-0.5,2.5s-0.1,1.8-0.1,2.6C629.2,105.5,629.2,106.4,629.3,107.3z"/>
	<path class="st0" d="M650.8,97.1v3h0.1c0.4-0.9,1-1.7,1.7-2.4s1.7-1,2.9-1c1,0,1.8,0.3,2.4,0.8s0.9,1.3,0.9,2.2
		c0,0.7-0.2,1.3-0.5,1.7s-0.9,0.6-1.7,0.6c-0.6,0-1.1-0.1-1.5-0.3c-0.5-0.2-0.7-0.7-0.7-1.3c0-0.1,0-0.2,0-0.4s0.1-0.4,0.1-0.6
		s0.1-0.4,0.1-0.6c0-0.2,0-0.3,0-0.3c0-0.2-0.1-0.3-0.1-0.5c0-0.1-0.1-0.2-0.2-0.3c-0.1-0.1-0.3-0.1-0.5-0.1s-0.5,0.1-0.9,0.3
		s-0.7,0.6-1,1s-0.6,1-0.8,1.6s-0.3,1.3-0.3,2.1v9.2h2.8v0.5H644v-0.5h2.3V97.4H644v-0.5h6.8V97.1z"/>
	<path class="st0" d="M672.1,97.2c1.1,0.4,2,1,2.8,1.8c0.8,0.7,1.4,1.6,1.9,2.6s0.7,2,0.7,3.1s-0.2,2.2-0.7,3.2s-1.1,1.9-1.9,2.6
		c-0.8,0.7-1.7,1.3-2.8,1.8c-1.1,0.4-2.2,0.6-3.5,0.6s-2.4-0.2-3.5-0.6c-1.1-0.4-2-1-2.8-1.8c-0.8-0.7-1.4-1.6-1.9-2.6
		c-0.4-1-0.7-2.1-0.7-3.2c0-1.1,0.2-2.2,0.7-3.1c0.4-1,1.1-1.9,1.9-2.6c0.8-0.7,1.7-1.3,2.8-1.8c1.1-0.4,2.2-0.7,3.5-0.7
		S671.1,96.8,672.1,97.2z M670.9,111.8c0.5-0.4,0.9-1,1.2-1.7s0.4-1.5,0.5-2.5c0.1-0.9,0.1-1.9,0.1-2.8c0-1,0-1.9-0.1-2.8
		c-0.1-0.9-0.2-1.7-0.5-2.5c-0.3-0.7-0.6-1.3-1.2-1.7c-0.5-0.4-1.3-0.7-2.2-0.7s-1.7,0.2-2.2,0.7c-0.5,0.4-0.9,1-1.2,1.7
		s-0.4,1.5-0.5,2.5c-0.1,0.9-0.1,1.9-0.1,2.8c0,1,0,1.9,0.1,2.8c0.1,0.9,0.2,1.8,0.5,2.5s0.6,1.3,1.2,1.7c0.5,0.4,1.3,0.7,2.2,0.7
		S670.3,112.3,670.9,111.8z"/>
	<path class="st0" d="M682.4,97.1c0-0.8,0-1.6,0-2.4c0-0.8,0.1-1.7,0.2-2.4c0.1-0.8,0.3-1.5,0.6-2.2s0.7-1.3,1.2-1.9
		c0.5-0.5,1.2-1,2-1.3s1.8-0.5,3-0.5c0.6,0,1.1,0.1,1.6,0.2c0.5,0.1,1,0.3,1.4,0.6s0.8,0.6,1,1.1c0.3,0.4,0.4,1,0.4,1.6
		s-0.2,1-0.6,1.4s-0.9,0.6-1.4,0.6c-1.3,0-1.9-0.6-1.9-1.8c0-0.1,0-0.2,0.1-0.4c0-0.2,0.1-0.4,0.1-0.6c0-0.2,0.1-0.4,0.1-0.6
		c0-0.2,0-0.3,0-0.4c0-0.4-0.2-0.7-0.5-1c-0.3-0.2-0.7-0.3-1.1-0.3c-0.5,0-0.9,0.1-1.2,0.4s-0.5,0.6-0.6,1s-0.2,0.9-0.2,1.5
		s0,1.2,0,1.8v5.6h3v0.5h-3V112h2.8v0.5h-9.5V112h2.4V97.6h-2.4v-0.5L682.4,97.1L682.4,97.1z"/>
	<path class="st0" d="M699.5,97.1V112h2.4v0.5h-9.3V112h2.4V97.6h-2.4v-0.5H699.5z M695.5,87.5c0.5-0.5,1.1-0.8,1.8-0.8
		s1.3,0.3,1.8,0.8s0.8,1.1,0.8,1.8s-0.3,1.3-0.8,1.8s-1.1,0.8-1.8,0.8s-1.3-0.3-1.8-0.8s-0.8-1.1-0.8-1.8S695,88,695.5,87.5z"/>
	<path class="st0" d="M707.4,92.8c0.4,0.1,0.7,0.1,1.1,0.1c0.4,0,0.7,0,1.1-0.1s0.7-0.2,1.1-0.4V97h4.2v0.5h-4.2v12.1
		c0,0.4,0,0.7,0.1,1c0,0.3,0.1,0.6,0.3,0.8c0.1,0.3,0.3,0.5,0.6,0.6s0.6,0.2,1,0.2c0.5,0,0.8-0.1,1.2-0.3c0.3-0.2,0.6-0.4,0.8-0.7
		s0.4-0.6,0.6-1c0.2-0.4,0.3-0.8,0.4-1.1l0.5,0.1c-0.1,0.8-0.4,1.5-0.7,2s-0.7,0.9-1.2,1.1c-0.4,0.3-0.9,0.4-1.4,0.5s-1,0.1-1.4,0.1
		c-1.2,0-2.2-0.1-2.9-0.4c-0.7-0.3-1.2-0.6-1.5-1.1s-0.5-0.9-0.6-1.4c0-0.5-0.1-1-0.1-1.4V97.5H704V97h2.4v-4.6
		C706.7,92.6,707.1,92.7,707.4,92.8z"/>
	<path class="st0" d="M719.2,108.5c0.5-0.5,1.1-0.8,1.8-0.8s1.3,0.3,1.8,0.8s0.8,1.1,0.8,1.8s-0.3,1.3-0.8,1.8s-1.1,0.7-1.8,0.7
		s-1.3-0.2-1.8-0.7s-0.8-1.1-0.8-1.8C718.5,109.6,718.7,109,719.2,108.5z"/>
</g>
</svg>
