<?xml version="1.0" encoding="utf-8"?>
<!-- Generator: Adobe Illustrator 21.0.0, SVG Export Plug-In . SVG Version: 6.00 Build 0)  -->
<svg version="1.1" id="Layer_1" xmlns="http://www.w3.org/2000/svg" xmlns:xlink="http://www.w3.org/1999/xlink" x="0px" y="0px"
	 viewBox="0 0 200 200" style="enable-background:new 0 0 200 200;" xml:space="preserve">
<style type="text/css">
	.st0{fill:#FFFFFF;}
</style>
<g>
	<path class="st0" d="M100,9C49.7,9,9,49.7,9,100c0,50.3,40.7,91,91,91c50.3,0,91-40.7,91-91C191,49.7,150.3,9,100,9z M125.8,156.9
		c-4,0-26.1-0.5-31.7-0.5c-5.6,0-35.1-9.2-35.1-41.6c0-5.8,0-11.6,0-17.3c0-5.4-0.1-10.8-0.2-16.1c0-1.6,0-3.1,0-4.7
		c0-8.2-0.7-17.3,1.9-25.2c2-6,6.7-8.4,12.6-8.4c14.1,0,15.1,14.4,15.1,28.9h40.9c6.5,0,11.3,6.6,11.3,16.6c0,10-10.5,12.3-16,12.3
		H88c-0.2,6.1-0.4,11.2-0.4,14.2c0,6.4,2.5,13.3,18.1,13.3h22c5.5,0,13.6,4.2,13.6,15.8C141.3,155.8,129.8,156.9,125.8,156.9z"/>
</g>
</svg>
