<?xml version="1.0" encoding="utf-8"?>
<!-- Generator: Adobe Illustrator 21.0.0, SVG Export Plug-In . SVG Version: 6.00 Build 0)  -->
<svg version="1.1" id="Layer_1" xmlns="http://www.w3.org/2000/svg" xmlns:xlink="http://www.w3.org/1999/xlink" x="0px" y="0px"
	 viewBox="0 0 200 200" style="enable-background:new 0 0 200 200;" xml:space="preserve">
<style type="text/css">
	.st0{fill:#FFFFFF;}
</style>
<g>
	<path class="st0" d="M100,9C49.7,9,9,49.7,9,100c0,50.3,40.7,91,91,91c50.3,0,91-40.7,91-91C191,49.7,150.3,9,100,9z M68.6,153H45
		V77.1h23.6V153z M56.8,66.8c-7.6,0-13.7-6.1-13.7-13.7c0-7.5,6.1-13.7,13.7-13.7c7.5,0,13.7,6.1,13.7,13.7
		C70.5,60.6,64.3,66.8,56.8,66.8z M156.9,153h-23.5v-36.9c0-8.8-0.2-20.1-12.3-20.1c-12.3,0-14.1,9.6-14.1,19.5V153H83.4V77.1H106
		v10.4h0.3c3.1-6,10.8-12.2,22.3-12.2c23.9,0,28.3,15.7,28.3,36.1V153z"/>
</g>
</svg>
