<?xml version="1.0" encoding="utf-8"?>
<!-- Generator: Adobe Illustrator 21.0.0, SVG Export Plug-In . SVG Version: 6.00 Build 0)  -->
<svg version="1.1" id="Layer_1" xmlns="http://www.w3.org/2000/svg" xmlns:xlink="http://www.w3.org/1999/xlink" x="0px" y="0px"
	 viewBox="0 0 200 200" style="enable-background:new 0 0 200 200;" xml:space="preserve">
<style type="text/css">
	.st0{fill:#FFFFFF;}
</style>
<g>
	<path class="st0" d="M100,9C49.7,9,9,49.7,9,100c0,50.3,40.7,91,91,91c50.2,0,91-40.7,91-91C191,49.7,150.3,9,100,9z M124.4,100
		h-15.9c0,25.5,0,56.8,0,56.8H84.8c0,0,0-31.1,0-56.8H73.6V80h11.2V67c0-9.3,4.4-23.8,23.8-23.8l17.5,0.1v19.5c0,0-10.6,0-12.7,0
		c-2.1,0-5,1-5,5.5V80h18L124.4,100z"/>
</g>
</svg>
