<?xml version="1.0" encoding="utf-8"?>
<!-- Generator: Adobe Illustrator 21.1.0, SVG Export Plug-In . SVG Version: 6.00 Build 0)  -->
<svg version="1.1" id="Layer_1" xmlns="http://www.w3.org/2000/svg" xmlns:xlink="http://www.w3.org/1999/xlink" x="0px" y="0px"
	 viewBox="0 0 410.8 73.1" style="enable-background:new 0 0 410.8 73.1;" xml:space="preserve">
<style type="text/css">
	.st0{fill:#FFFFFF;}
</style>
<g>
	<path class="st0" d="M2.6,15.8C4.3,12.5,6.4,9.7,9,7.3s5.5-4.2,8.7-5.4C20.9,0.6,24.1,0,27.1,0c3.3,0,6.6,0.6,9.8,1.9
		c3.2,1.2,6.1,3,8.6,5.3s4.6,5.1,6.1,8.4c1.6,3.3,2.3,7,2.3,11.1c0,3.6-0.7,7-2.2,10.3c-1.5,3.2-3.4,6.1-5.9,8.5s-5.3,4.4-8.6,5.8
		c-3.2,1.4-6.7,2.1-10.3,2.1c-3.6,0-7-0.7-10.2-2.1c-3.3-1.4-6.1-3.2-8.6-5.6s-4.5-5.2-5.9-8.4C0.7,34.1,0,30.6,0,26.9
		C0.1,22.8,1,19.1,2.6,15.8z M12.7,39.3c0.6,3.3,1.5,5.9,2.7,7.8c1.2,1.9,2.8,3.3,4.8,4.1c1.9,0.8,4.3,1.2,6.9,1.2
		c3.6,0,6.3-0.7,8.4-2c2-1.3,3.5-3.1,4.5-5.5c1-2.3,1.6-5.1,1.9-8.3c0.3-3.2,0.4-6.7,0.4-10.4c0-3.4-0.1-6.6-0.3-9.6
		c-0.2-3-0.8-5.7-1.8-8.1c-1-2.3-2.5-4.2-4.6-5.5c-2-1.4-4.9-2.1-8.5-2.1c-3.4,0-6,0.6-8.1,1.9c-2,1.3-3.6,3.1-4.6,5.4
		c-1.1,2.3-1.8,5-2.1,8.2c-0.3,3.2-0.5,6.6-0.5,10.4C11.9,31.9,12.1,36.1,12.7,39.3z"/>
	<path class="st0" d="M72.6,21.5v22.8c0,1.8,0.4,3.4,1.1,4.6c0.7,1.3,2,1.9,3.8,1.9c1.1,0,2.1-0.3,3-0.8s1.7-1.2,2.3-2.1
		c0.6-0.9,1.2-1.9,1.5-3.1c0.4-1.2,0.5-2.4,0.5-3.7V22.5H80v-1h13.5v29.9h4.8v1H84.9v-5.8h-0.1c-0.4,1.1-1,2-1.7,2.8
		c-0.8,0.8-1.6,1.5-2.6,2c-1,0.6-2,1-3.1,1.2c-1.1,0.3-2.2,0.4-3.2,0.4c-3.4,0-5.9-0.7-7.7-2.2c-1.8-1.5-2.7-3.9-2.7-7.5V22.5H59v-1
		H72.6z"/>
	<path class="st0" d="M117.3,21.5v6h0.1c0.9-1.8,2-3.4,3.5-4.7c1.5-1.3,3.4-2,5.8-2c2,0,3.6,0.5,4.9,1.6c1.2,1.1,1.9,2.6,1.9,4.5
		c0,1.4-0.3,2.6-1,3.4s-1.8,1.2-3.3,1.2c-1.1,0-2.1-0.2-3-0.7s-1.4-1.3-1.4-2.6c0-0.1,0-0.4,0.1-0.8c0-0.4,0.1-0.7,0.2-1.2
		c0.1-0.4,0.1-0.8,0.2-1.1c0-0.3,0.1-0.5,0.1-0.6c0-0.4-0.1-0.7-0.2-0.9c-0.1-0.2-0.3-0.4-0.5-0.6s-0.5-0.3-1-0.3s-1.1,0.2-1.8,0.7
		c-0.7,0.5-1.4,1.1-2,2s-1.2,1.9-1.6,3.1c-0.5,1.2-0.7,2.6-0.7,4.1V51h5.7v1h-19.2v-1h4.7V22.5h-4.7v-1H117.3z"/>
	<path class="st0" d="M169.2,21.5v29.9h4.8v1h-18.4v-1h4.8V22.5h-4.8v-1H169.2z M161.3,2.4c1-1,2.2-1.5,3.6-1.5s2.6,0.5,3.6,1.5
		S170,4.6,170,6s-0.5,2.6-1.5,3.6s-2.2,1.5-3.6,1.5s-2.6-0.5-3.6-1.5s-1.5-2.2-1.5-3.6C159.7,4.7,160.2,3.5,161.3,2.4z"/>
	<path class="st0" d="M216.2,51.4v1h-13.4v-5.3h-0.1c-0.8,2-1.8,3.6-3.2,4.6c-1.4,1.1-3.1,1.6-5.3,1.6c-2.4,0-4.5-0.5-6.4-1.4
		s-3.6-2.1-4.9-3.6c-1.4-1.5-2.4-3.3-3.2-5.2c-0.8-2-1.2-4-1.2-6.2c0-1.7,0.3-3.5,0.9-5.4s1.5-3.7,2.8-5.3c1.3-1.6,2.9-3,4.9-4.1
		s4.3-1.6,7.1-1.6c2.2,0,3.9,0.5,5.3,1.5c1.3,1,2.4,2.5,3.1,4.5h0.1v-25h-4.9v-1h13.7v50.9H216.2z M202.4,31.9c-0.2-1.8-0.5-3.5-1-5
		s-1.3-2.8-2.4-3.8s-2.5-1.5-4.2-1.5c-1.2,0-2.2,0.3-3.1,0.8c-0.8,0.5-1.5,1.4-2.1,2.6c-0.5,1.2-0.9,2.8-1.1,4.8s-0.3,4.4-0.3,7.3
		c0,2.4,0.1,4.5,0.2,6.4s0.4,3.5,0.8,4.9c0.4,1.3,1,2.4,1.8,3.1c0.8,0.7,1.9,1.1,3.2,1.1c2,0,3.6-0.5,4.7-1.5s2-2.3,2.6-3.9
		s0.9-3.2,1-5s0.2-3.4,0.2-4.9C202.7,35.4,202.6,33.7,202.4,31.9z"/>
	<path class="st0" d="M230.7,37.6c0,1.7,0.1,3.5,0.2,5.2c0.1,1.8,0.5,3.3,1.2,4.8c0.6,1.4,1.5,2.6,2.7,3.5c1.2,0.9,2.9,1.4,5,1.4
		c1.9,0,3.5-0.4,4.9-1.1c1.3-0.7,2.4-1.5,3.2-2.5c0.8-0.9,1.5-1.9,1.9-2.8s0.6-1.6,0.7-2l1,0.4c-0.2,0.9-0.6,1.9-1.2,2.9
		c-0.6,1-1.4,2-2.4,2.9s-2.3,1.6-3.7,2.2c-1.5,0.6-3.3,0.9-5.4,0.9c-2.5,0-4.8-0.4-7-1.1c-2.2-0.7-4-1.8-5.7-3.2
		c-1.6-1.4-2.9-3.1-3.8-5.2c-0.9-2-1.4-4.4-1.4-6.9c0-2.1,0.4-4.1,1.3-6c0.9-2,2.1-3.7,3.6-5.2s3.3-2.7,5.3-3.7
		c2-0.9,4.2-1.4,6.6-1.4c1.7,0,3.4,0.3,5,0.8c1.7,0.5,3.2,1.3,4.5,2.4s2.4,2.5,3.3,4.3c0.9,1.8,1.3,3.9,1.3,6.3h-21.2v3.1H230.7z
		 M242.2,28.5c0-0.5,0-1.2-0.1-1.9c0-0.8-0.2-1.5-0.5-2.3s-0.8-1.4-1.4-1.9c-0.6-0.5-1.5-0.8-2.7-0.8c-1.6,0-2.9,0.4-3.8,1.2
		c-0.9,0.8-1.5,1.7-2,2.9c-0.4,1.2-0.7,2.4-0.8,3.8s-0.2,2.7-0.3,3.9h11.5L242.2,28.5L242.2,28.5z"/>
	<path class="st0" d="M262.2,51.4V22.5h-4.8v-1h13.4v7.2h0.1c0.2-0.4,0.5-1.1,1-2s1.2-1.8,2.1-2.6c0.9-0.9,2.1-1.6,3.5-2.3
		s3.2-1,5.4-1c3.2,0,5.6,0.9,7.4,2.7c1.8,1.8,2.6,4.3,2.6,7.5v20.3h4.8v1h-18.1v-1h4.5V28.5c0-2-0.4-3.5-1.2-4.4s-1.9-1.4-3.3-1.4
		c-1.2,0-2.3,0.3-3.3,0.8c-1.1,0.6-2,1.4-2.8,2.5s-1.4,2.5-1.9,4.1s-0.7,3.6-0.7,5.8v15.4h4.5v1h-18.1v-1L262.2,51.4L262.2,51.4z"/>
	<path class="st0" d="M309.3,13c0.7,0.2,1.5,0.3,2.2,0.3s1.5-0.1,2.2-0.3c0.7-0.2,1.5-0.4,2.2-0.7v9.3h8.4v1h-8.4v24.1
		c0,0.7,0,1.4,0.1,2s0.3,1.2,0.5,1.7c0.3,0.5,0.6,0.9,1.2,1.2c0.5,0.3,1.2,0.4,2,0.4c0.9,0,1.7-0.2,2.3-0.6c0.6-0.4,1.2-0.9,1.7-1.5
		s0.9-1.3,1.2-2.1c0.3-0.8,0.6-1.5,0.8-2.2l1.1,0.2c-0.3,1.6-0.8,2.9-1.5,3.9s-1.5,1.7-2.4,2.3c-0.9,0.5-1.8,0.9-2.8,1
		c-1,0.2-2,0.3-2.9,0.3c-2.5,0-4.4-0.3-5.8-0.9c-1.4-0.6-2.4-1.3-3-2.2s-1-1.8-1.1-2.8s-0.1-1.9-0.1-2.8V22.5h-4.8v-1h4.8v-9.3
		C307.8,12.5,308.5,12.8,309.3,13z"/>
	<path class="st0" d="M342.6,21.5v29.9h4.8v1H329v-1h4.8V22.5H329v-1H342.6z M334.6,2.4c1-1,2.2-1.5,3.6-1.5c1.4,0,2.6,0.5,3.6,1.5
		s1.5,2.2,1.5,3.6s-0.5,2.6-1.5,3.6s-2.2,1.5-3.6,1.5c-1.4,0-2.6-0.5-3.6-1.5s-1.5-2.2-1.5-3.6C333.1,4.7,333.6,3.5,334.6,2.4z"/>
	<path class="st0" d="M358.6,13c0.7,0.2,1.5,0.3,2.2,0.3s1.5-0.1,2.2-0.3c0.7-0.2,1.5-0.4,2.2-0.7v9.3h8.4v1h-8.4v24.1
		c0,0.7,0,1.4,0.1,2s0.3,1.2,0.5,1.7c0.3,0.5,0.6,0.9,1.2,1.2c0.5,0.3,1.2,0.4,2,0.4c0.9,0,1.7-0.2,2.3-0.6c0.6-0.4,1.2-0.9,1.7-1.5
		s0.9-1.3,1.2-2.1c0.3-0.8,0.6-1.5,0.8-2.2l1.1,0.2c-0.3,1.6-0.8,2.9-1.5,3.9s-1.5,1.7-2.4,2.3c-0.9,0.5-1.8,0.9-2.8,1
		c-1,0.2-2,0.3-2.9,0.3c-2.5,0-4.4-0.3-5.8-0.9c-1.4-0.6-2.4-1.3-3-2.2s-1-1.8-1.1-2.8s-0.1-1.9-0.1-2.8V22.5h-5v-1h4.8v-9.3
		C357.1,12.5,357.8,12.8,358.6,13z"/>
	<path class="st0" d="M406.4,22.5h-6v-1h10.4v1h-3.3c-2.7,5.8-5,10.9-6.9,15.5s-3.6,8.6-5,12.2c-1.4,3.6-2.7,6.7-3.7,9.4
		c-1.1,2.7-2.1,5.1-3.1,7.2c-1,2.2-2,3.7-3.2,4.8c-1.2,1-2.8,1.5-4.8,1.5c-2.2,0-3.9-0.5-5.3-1.5c-1.4-1-2.1-2.5-2.1-4.3
		c0-1.4,0.4-2.4,1.3-3c0.9-0.6,2-0.9,3.2-0.9c0.9,0,1.8,0.3,2.6,0.8s1.2,1.3,1.2,2.3c0,0.9-0.2,1.6-0.5,2.1s-0.5,1.2-0.5,1.9
		c0,0.5,0.1,0.9,0.4,1.2c0.3,0.3,0.6,0.4,1,0.4c0.9,0,1.7-0.3,2.4-0.9c0.7-0.6,1.4-1.4,2-2.3c0.6-0.9,1.1-1.9,1.6-3s0.9-2,1.2-2.9
		l3.1-7.7l-13.3-32.8h-3.8v-1h18.2v1h-5l8.8,20.8L406.4,22.5z"/>
</g>
</svg>
