<?xml version="1.0" encoding="utf-8"?>
<!-- Generator: Adobe Illustrator 21.0.0, SVG Export Plug-In . SVG Version: 6.00 Build 0)  -->
<svg version="1.1" id="Layer_1" xmlns="http://www.w3.org/2000/svg" xmlns:xlink="http://www.w3.org/1999/xlink" x="0px" y="0px"
	 viewBox="0 0 200 200" style="enable-background:new 0 0 200 200;" xml:space="preserve">
<style type="text/css">
	.st0{fill:#FFFFFF;}
</style>
<g>
	<path class="st0" d="M79.5,89.9C79.6,89.9,79.6,89.9,79.5,89.9c2.5,0,4.5-1,6.1-2.8c2.5-2.9,3.6-7.6,3-12.6
		c-1.2-8.9-7.6-16.4-14.2-16.6l-0.3,0c-2.4,0-4.5,1-6.1,2.8c-2.5,2.8-3.5,7.3-2.9,12.3c1.2,8.9,7.7,16.6,14.2,16.8H79.5z"/>
	<path class="st0" d="M86.8,116.8c-0.7-0.4-1.3-0.9-2-1.4c-2.1-0.6-4.2-1-6.5-1H78c-10.3,0-19.3,6.2-19.3,13.3
		c0,7.7,7.7,13.8,17.6,13.8c13,0,19.6-4.5,19.6-13.3c0-0.8-0.1-1.7-0.3-2.6C94.7,122.2,91.6,120.1,86.8,116.8z"/>
	<path class="st0" d="M100,9C49.7,9,9,49.7,9,100c0,50.3,40.7,91,91,91c50.3,0,91-40.7,91-91C191,49.7,150.3,9,100,9z M88.7,149.4
		c-3.8,1.1-8,1.7-12.3,1.7c-4.8,0-9.5-0.6-13.8-1.7c-8.4-2.1-14.6-6.1-17.5-11.3c-1.2-2.2-1.9-4.6-1.9-7.1c0-2.5,0.6-5.1,1.8-7.7
		c4.6-9.8,16.8-16.4,30.2-16.4c0.1,0,0.3,0,0.4,0c-1.1-1.9-1.6-3.9-1.6-6c0-1,0.1-2.1,0.4-3.2C60.2,97.4,49.6,87,49.6,73.4
		c0-9.6,7.7-19,18.7-22.8c3.3-1.1,6.6-1.7,9.9-1.7h30.2c1,0,1.9,0.7,2.3,1.6c0.3,1,0,2.1-0.9,2.7l-6.7,4.9c-0.4,0.3-0.9,0.5-1.4,0.5
		h-2.4c3.1,3.7,5,9.1,5,15.1c0,6.6-3.4,12.9-9.4,17.6c-4.7,3.7-4.9,4.7-4.9,6.8c0.1,1.1,3.3,4.9,6.9,7.4c8.4,6,11.5,11.8,11.5,21.5
		C108.4,137.1,100.7,145.9,88.7,149.4z M156.9,97.7c0,1.3-1.1,2.4-2.4,2.4h-17.2v17.2c0,1.3-1.1,2.4-2.4,2.4h-4.9
		c-1.3,0-2.4-1.1-2.4-2.4V100h-17.2c-1.3,0-2.4-1.1-2.4-2.4v-4.9c0-1.3,1.1-2.4,2.4-2.4h17.2V73.3c0-1.3,1.1-2.4,2.4-2.4h4.9
		c1.3,0,2.4,1.1,2.4,2.4v17.2h17.2c1.3,0,2.4,1.1,2.4,2.4V97.7z"/>
</g>
</svg>
