<?xml version="1.0" encoding="utf-8"?>
<!-- Generator: Adobe Illustrator 21.1.0, SVG Export Plug-In . SVG Version: 6.00 Build 0)  -->
<svg version="1.1" id="Layer_1" xmlns="http://www.w3.org/2000/svg" xmlns:xlink="http://www.w3.org/1999/xlink" x="0px" y="0px"
	 viewBox="0 0 394.5 54" style="enable-background:new 0 0 394.5 54;" xml:space="preserve">
<style type="text/css">
	.st0{fill:#FFFFFF;}
</style>
<g>
	<path class="st0" d="M22.1,0.8v1h-5.3l13,37.9h0.1l7.6-21.5L31.9,1.7H28v-1h21.5v1h-6.7l13,38h0.1l13.3-38H63v-1h13.2v1h-5.8L52,54
		h-2.1L38.1,19.9H38L25.9,54h-2.1L5.9,1.8H0v-1H22.1z"/>
	<path class="st0" d="M82.9,51V1.1h-4.8v-1h13.5V28h0.1c0.2-0.4,0.5-1.1,1-1.9s1.1-1.7,2.1-2.5c0.9-0.8,2.1-1.6,3.5-2.2
		s3.2-0.9,5.4-0.9c3.2,0,5.6,0.9,7.4,2.7c1.8,1.8,2.6,4.3,2.6,7.5V51h4.8v1h-18.1v-1h4.5V28.2c0-2-0.4-3.5-1.2-4.4
		c-0.8-0.9-1.9-1.4-3.3-1.4c-1.2,0-2.3,0.3-3.3,0.8c-1.1,0.6-2,1.4-2.8,2.5s-1.4,2.5-1.9,4.1s-0.7,3.6-0.7,5.8V51h4.5v1H78.1v-1
		H82.9z"/>
	<path class="st0" d="M154.5,52.7c-1.3,0.2-2.5,0.3-3.6,0.3c-2.4,0-4.3-0.4-5.4-1.3c-1.2-0.9-1.9-2.1-2.2-3.6h-0.1
		c-0.8,1.9-1.8,3.2-3.2,3.9c-1.3,0.7-3.3,1-5.8,1c-1.2,0-2.3-0.1-3.5-0.4c-1.2-0.2-2.3-0.6-3.3-1.2c-1-0.5-1.8-1.3-2.4-2.2
		c-0.6-0.9-0.9-2.1-0.9-3.4c0-1.4,0.3-2.6,0.8-3.5c0.6-0.9,1.3-1.7,2.2-2.4c0.9-0.6,1.9-1.2,3-1.6s2.3-0.8,3.5-1.2
		c2-0.6,3.6-1.1,4.8-1.5c1.2-0.4,2.2-0.8,2.8-1.3c0.7-0.5,1.1-1,1.4-1.5c0.3-0.6,0.4-1.3,0.4-2.2v-4.4c0-1.3-0.3-2.5-0.9-3.5
		c-0.6-1.1-1.8-1.6-3.5-1.6c-1.1,0-2.1,0.3-2.9,0.8s-1.2,1.4-1.2,2.8c0,0.1,0,0.4,0.1,0.8c0,0.4,0.1,0.8,0.1,1.2
		c0,0.4,0.1,0.8,0.1,1.2c0,0.4,0.1,0.6,0.1,0.8c0,0.7-0.2,1.3-0.5,1.7c-0.3,0.4-0.7,0.7-1.2,0.9c-0.5,0.2-0.9,0.3-1.4,0.3
		s-0.9,0-1.3,0c-0.5,0-1,0-1.5-0.1s-0.9-0.2-1.3-0.5s-0.7-0.6-1-1.1s-0.4-1.1-0.4-1.9c0-1.2,0.3-2.4,1-3.3c0.7-1,1.6-1.8,2.8-2.4
		c1.2-0.6,2.5-1.1,3.9-1.5c1.5-0.3,3-0.5,4.6-0.5c1.8,0,3.5,0.1,5.1,0.4s3,0.8,4.2,1.6c1.2,0.8,2.1,1.8,2.8,3.1c0.7,1.3,1,3,1,5
		v17.9c0,0.9,0.1,1.7,0.4,2.4c0.3,0.7,0.9,1,2,1c0.6,0,1.1-0.1,1.5-0.4c0.4-0.2,0.8-0.6,1.2-1l0.6,0.6
		C156.7,51.9,155.7,52.5,154.5,52.7z M142.7,34.2c-0.1,0.3-0.3,0.6-0.5,0.8c-0.3,0.3-0.7,0.6-1.4,0.9c-0.9,0.4-1.8,0.9-2.7,1.3
		c-0.9,0.4-1.7,0.9-2.4,1.5c-0.7,0.6-1.3,1.4-1.8,2.3s-0.7,2.1-0.7,3.5c0,0.6,0,1.2,0.1,2s0.3,1.5,0.6,2.2c0.3,0.7,0.8,1.3,1.4,1.8
		s1.5,0.8,2.6,0.8c0.6,0,1.2-0.1,1.8-0.4c0.6-0.3,1.1-0.7,1.6-1.3c0.5-0.6,0.9-1.4,1.2-2.4c0.3-1,0.4-2.2,0.4-3.6v-9.5h-0.2V34.2z"
		/>
	<path class="st0" d="M167.7,12.6c0.7,0.2,1.5,0.3,2.2,0.3s1.5-0.1,2.2-0.3c0.7-0.2,1.5-0.4,2.2-0.7v9.3h8.4v1h-8.4v24.1
		c0,0.7,0,1.4,0.1,2s0.3,1.2,0.5,1.7c0.3,0.5,0.6,0.9,1.2,1.2c0.5,0.3,1.2,0.4,2,0.4c0.9,0,1.7-0.2,2.3-0.6c0.6-0.4,1.2-0.9,1.7-1.5
		s0.9-1.3,1.2-2.1c0.3-0.8,0.6-1.5,0.8-2.2l1.1,0.2c-0.3,1.6-0.8,2.9-1.5,3.9s-1.5,1.7-2.4,2.3c-0.9,0.5-1.8,0.9-2.8,1
		c-1,0.2-2,0.3-2.9,0.3c-2.5,0-4.4-0.3-5.8-0.9s-2.4-1.3-3-2.2c-0.6-0.9-1-1.8-1.1-2.8s-0.1-1.9-0.1-2.8V22h-4.8v-1h4.8v-9.3
		C166.2,12.2,167,12.4,167.7,12.6z"/>
	<path class="st0" d="M204.5,22.2v-1h18.3v1h-4.7l7.4,18.7l5.7-15.3l-1.4-3.4h-3.7v-1h18v1h-4.8l7.4,18.7l6.9-18.7h-5v-1h9.7v1h-3.5
		L243,54h-0.5l-10.7-26.9l-10,26.9h-0.5l-12.5-31.8H204.5z"/>
	<path class="st0" d="M270.5,37.2c0,1.7,0.1,3.5,0.2,5.2c0.1,1.8,0.5,3.3,1.2,4.8c0.6,1.4,1.5,2.6,2.7,3.5s2.9,1.4,5,1.4
		c1.9,0,3.5-0.4,4.9-1.1c1.3-0.7,2.4-1.5,3.2-2.5c0.8-0.9,1.5-1.9,1.9-2.8s0.6-1.6,0.7-2l1,0.4c-0.2,0.9-0.6,1.9-1.2,2.9
		c-0.6,1-1.4,2-2.4,2.9s-2.3,1.6-3.7,2.2c-1.5,0.6-3.3,0.9-5.4,0.9c-2.5,0-4.8-0.4-7-1.1s-4-1.8-5.7-3.2c-1.6-1.4-2.9-3.1-3.8-5.2
		c-0.9-2-1.4-4.4-1.4-6.9c0-2.1,0.4-4.1,1.3-6c0.9-2,2.1-3.7,3.6-5.2s3.3-2.7,5.3-3.7c2-0.9,4.2-1.4,6.6-1.4c1.7,0,3.4,0.3,5,0.8
		c1.7,0.5,3.2,1.3,4.5,2.4s2.4,2.5,3.3,4.3c0.9,1.8,1.3,3.9,1.3,6.3h-21.2v3.1H270.5z M282,28.2c0-0.5,0-1.2-0.1-1.9
		c0-0.8-0.2-1.5-0.5-2.3s-0.8-1.4-1.4-1.9c-0.6-0.5-1.5-0.8-2.7-0.8c-1.6,0-2.9,0.4-3.8,1.2c-0.9,0.8-1.5,1.7-2,2.9
		c-0.4,1.2-0.7,2.4-0.8,3.8s-0.2,2.7-0.3,3.9h11.5L282,28.2L282,28.2z"/>
	<path class="st0" d="M354.7,51v1h-13.4v-5.3h-0.1c-0.8,2-1.8,3.6-3.2,4.6c-1.4,1.1-3.1,1.6-5.3,1.6c-2.4,0-4.5-0.5-6.4-1.4
		s-3.6-2.1-4.9-3.6c-1.4-1.5-2.4-3.3-3.2-5.2c-0.8-2-1.2-4-1.2-6.2c0-1.7,0.3-3.5,0.9-5.4c0.6-1.9,1.5-3.7,2.8-5.3
		c1.3-1.6,2.9-3,4.9-4.1s4.3-1.6,7.1-1.6c2.2,0,3.9,0.5,5.3,1.5c1.3,1,2.4,2.5,3.1,4.5h0.1V1h-4.9V0H350v51H354.7z M340.9,31.5
		c-0.2-1.8-0.5-3.5-1-5s-1.3-2.8-2.4-3.8c-1.1-1-2.5-1.5-4.2-1.5c-1.2,0-2.2,0.3-3.1,0.8c-0.8,0.5-1.5,1.4-2.1,2.6
		c-0.5,1.2-0.9,2.8-1.1,4.8c-0.2,2-0.3,4.4-0.3,7.3c0,2.4,0.1,4.5,0.2,6.4c0.1,1.9,0.4,3.5,0.8,4.9c0.4,1.3,1,2.4,1.8,3.1
		s1.9,1.1,3.2,1.1c2,0,3.6-0.5,4.7-1.5c1.1-1,2-2.3,2.6-3.9s0.9-3.2,1-5s0.2-3.4,0.2-4.9C341.2,35.1,341.1,33.4,340.9,31.5z"/>
	<path class="st0" d="M383.9,21.5c2.1,0.9,4,2.1,5.6,3.6s2.8,3.2,3.7,5.2s1.3,4.1,1.3,6.3c0,2.3-0.4,4.4-1.3,6.4
		c-0.9,2-2.1,3.7-3.7,5.2c-1.6,1.5-3.4,2.7-5.6,3.5c-2.1,0.9-4.5,1.3-6.9,1.3c-2.5,0-4.8-0.4-6.9-1.3c-2.1-0.9-4-2-5.6-3.5
		s-2.8-3.2-3.7-5.2s-1.3-4.1-1.3-6.4c0-2.2,0.4-4.3,1.3-6.3c0.9-2,2.1-3.7,3.7-5.2c1.6-1.5,3.4-2.7,5.6-3.6c2.1-0.9,4.5-1.3,6.9-1.3
		C379.5,20.2,381.8,20.6,383.9,21.5z M381.4,50.7c1.1-0.9,1.8-2.1,2.3-3.5s0.8-3.1,0.9-5c0.1-1.9,0.2-3.8,0.2-5.7
		c0-1.9-0.1-3.8-0.2-5.7c-0.1-1.8-0.4-3.5-0.9-4.9s-1.3-2.6-2.3-3.5c-1.1-0.9-2.5-1.3-4.4-1.3s-3.3,0.4-4.4,1.3
		c-1.1,0.9-1.8,2.1-2.3,3.5s-0.8,3.1-0.9,4.9c-0.1,1.8-0.2,3.7-0.2,5.7c0,1.9,0.1,3.8,0.2,5.7c0.1,1.9,0.4,3.5,0.9,5
		c0.5,1.4,1.3,2.6,2.3,3.5c1.1,0.9,2.5,1.3,4.4,1.3S380.3,51.6,381.4,50.7z"/>
</g>
</svg>
