<?xml version="1.0" encoding="utf-8"?>
<!-- Generator: Adobe Illustrator 21.1.0, SVG Export Plug-In . SVG Version: 6.00 Build 0)  -->
<svg version="1.1" id="Layer_1" xmlns="http://www.w3.org/2000/svg" xmlns:xlink="http://www.w3.org/1999/xlink" x="0px" y="0px"
	 viewBox="0 0 485.7 222" style="enable-background:new 0 0 485.7 222;" xml:space="preserve">
<style type="text/css">
	.st0{fill:#FFFFFF;}
</style>
<g>
	<g>
		<path class="st0" d="M32.8,1.5v1.4h-9.2v68.4h16.5c2.2,0,4.4-0.4,6.7-1.1c2.2-0.7,4.3-2,6.3-3.7s3.7-3.9,5.3-6.6
			c1.6-2.7,2.8-6,3.7-9.8h1.3v22.6H0v-1.4h9.2V2.9H0V1.5H32.8z"/>
		<path class="st0" d="M84.5,52.1c0,2.4,0.1,4.8,0.3,7.2c0.2,2.4,0.7,4.6,1.6,6.6s2.1,3.6,3.8,4.8c1.7,1.3,4,1.9,7,1.9
			c2.7,0,4.9-0.5,6.8-1.5c1.8-1,3.3-2.2,4.5-3.5s2-2.6,2.6-3.8c0.6-1.3,0.9-2.2,1-2.8l1.4,0.5c-0.3,1.3-0.9,2.6-1.7,4
			c-0.8,1.4-1.9,2.8-3.3,4s-3.1,2.3-5.2,3.1c-2.1,0.8-4.6,1.2-7.5,1.2c-3.5,0-6.7-0.5-9.7-1.5s-5.6-2.5-7.9-4.5
			c-2.2-2-4-4.4-5.2-7.2c-1.3-2.8-1.9-6-1.9-9.6c0-2.9,0.6-5.7,1.8-8.4c1.2-2.7,2.9-5.2,5-7.2s4.6-3.8,7.4-5.1c2.8-1.3,5.9-2,9.1-2
			c2.3,0,4.7,0.4,7,1.1s4.4,1.9,6.3,3.4s3.4,3.5,4.6,6c1.2,2.4,1.8,5.3,1.8,8.8H84.6L84.5,52.1L84.5,52.1z M100.5,39.5
			c0-0.7,0-1.6-0.1-2.7s-0.3-2.1-0.7-3.2c-0.4-1.1-1.1-2-2-2.7s-2.1-1.1-3.8-1.1c-2.3,0-4,0.5-5.2,1.6s-2.1,2.4-2.8,4
			c-0.6,1.6-1,3.4-1.1,5.3c-0.2,1.9-0.3,3.7-0.4,5.5h16v-6.7H100.5z"/>
		<path class="st0" d="M130.6,17.9c1,0.3,2.1,0.4,3.1,0.4s2-0.1,3-0.4s2-0.6,3-1v12.9h11.7v1.4h-11.6v33.5c0,1,0.1,1.9,0.2,2.8
			s0.4,1.7,0.8,2.4c0.4,0.7,0.9,1.2,1.6,1.6s1.6,0.6,2.8,0.6c1.3,0,2.4-0.3,3.2-0.8c0.9-0.5,1.7-1.2,2.4-2c0.7-0.8,1.2-1.8,1.6-2.8
			c0.4-1.1,0.8-2.1,1-3.1l1.5,0.3c-0.4,2.3-1.1,4.1-2,5.4c-1,1.4-2.1,2.4-3.3,3.2c-1.2,0.7-2.5,1.2-3.9,1.5c-1.4,0.2-2.7,0.3-4,0.3
			c-3.5,0-6.1-0.4-8.1-1.2c-1.9-0.8-3.3-1.8-4.2-3c-0.9-1.2-1.4-2.5-1.6-3.9c-0.1-1.4-0.2-2.7-0.2-3.9V31.3h-6.7v-1.4h6.7V17
			C128.6,17.3,129.6,17.6,130.6,17.9z"/>
		<path class="st0" d="M169.7,23.6c1.9-1.9,2.9-4,2.9-6.5c0-1.1-0.2-1.9-0.5-2.6s-0.7-1.2-1-1.5c-0.6,0.4-1.3,0.7-2,0.8
			c-0.7,0.1-1.5,0.2-2.2,0.2s-1.4-0.1-2.2-0.4c-0.8-0.3-1.6-0.7-2.2-1.2c-0.7-0.6-1.2-1.3-1.7-2.2c-0.5-0.9-0.7-2-0.7-3.2
			c0-1.3,0.2-2.3,0.7-3.2c0.5-0.9,1.1-1.6,1.8-2.2c0.7-0.6,1.5-1,2.5-1.2c0.9-0.3,1.8-0.4,2.6-0.4c2.5,0,4.7,1,6.5,3.1
			s2.7,5,2.7,8.8c0,2.6-0.5,4.9-1.4,6.9s-2.1,3.8-3.5,5.3c-1.4,1.6-3,2.9-4.6,4.1c-1.7,1.2-3.2,2.2-4.6,3l-0.7-1.3
			C165.1,27.6,167.7,25.5,169.7,23.6z"/>
		<path class="st0" d="M188.1,58.2c0.8,1.9,1.6,3.7,2.5,5.4c0.8,1.7,1.8,3.3,3,4.6c1.1,1.3,2.5,2.4,4.1,3.2c1.6,0.8,3.6,1.2,5.9,1.2
			c0.6,0,1.4,0,2.4-0.1s2-0.4,2.9-0.9c1-0.5,1.8-1.3,2.5-2.3s1.1-2.5,1.1-4.5c0-0.6-0.1-1.2-0.2-1.8c-0.2-0.6-0.5-1.3-1.1-2
			c-0.5-0.7-1.3-1.3-2.3-2c-1-0.6-2.5-1.3-4.2-2l-8.1-3c-0.9-0.3-1.9-0.8-3-1.3c-1.1-0.6-2.1-1.3-3-2.2c-0.9-0.9-1.6-2-2.2-3.3
			s-0.9-2.9-0.9-4.7c0-1.9,0.4-3.8,1.2-5.5c0.8-1.7,1.9-3.2,3.3-4.5s3.2-2.3,5.2-3.1c2-0.8,4.2-1.1,6.6-1.1c1.3,0,2.5,0.1,3.6,0.4
			s2.1,0.6,3,0.9s1.7,0.6,2.4,0.8c0.7,0.3,1.2,0.4,1.6,0.4c0.7,0,1.2-0.1,1.4-0.4c0.2-0.3,0.4-0.6,0.5-0.9h1.4v12.2h-1.3
			c-0.7-1.6-1.4-3.1-2-4.6c-0.7-1.5-1.5-2.8-2.5-3.8c-1-1.1-2.2-2-3.6-2.6s-3.1-1-5.2-1c-2.2,0-4.2,0.6-6.1,1.8
			c-1.8,1.2-2.8,2.9-2.8,5.2c0,0.5,0.1,1,0.2,1.6s0.4,1.2,0.9,1.9c0.5,0.6,1.2,1.3,2.2,1.9s2.3,1.2,4,1.9l8.5,2.9
			c3.6,1.3,6.3,2.9,8.2,5c1.9,2.1,2.8,4.7,2.8,7.9c0,2.2-0.5,4.2-1.5,6s-2.2,3.3-3.8,4.5c-1.6,1.2-3.4,2.2-5.5,2.8
			c-2.1,0.7-4.2,1-6.4,1c-1.2,0-2.5-0.1-3.9-0.4s-2.8-0.6-4.1-1c-1.3-0.4-2.5-0.7-3.5-1c-1.1-0.3-1.9-0.4-2.5-0.4
			c-0.5,0-0.9,0.1-1.1,0.3c-0.2,0.2-0.5,0.6-0.7,1.1h-1.4V58.2H188.1z"/>
		<path class="st0" d="M252.1,31.2v-1.4h25.4v1.4H271l10.3,26l7.9-21.3l-2-4.7h-5.1v-1.4h25v1.4h-6.7l10.3,26l9.6-26h-7v-1.4h13.5
			v1.4h-4.9l-16.4,44.2h-0.7L290,38l-13.9,37.4h-0.7L258,31.2H252.1z"/>
		<path class="st0" d="M364.2,30.2c3,1.2,5.5,2.9,7.8,5c2.2,2.1,3.9,4.5,5.1,7.2c1.2,2.8,1.9,5.7,1.9,8.8c0,3.1-0.6,6.1-1.9,8.8
			c-1.2,2.8-2.9,5.2-5.1,7.2c-2.2,2.1-4.8,3.7-7.8,4.9c-3,1.2-6.2,1.8-9.7,1.8s-6.7-0.6-9.6-1.8c-3-1.2-5.6-2.8-7.8-4.9
			s-3.9-4.5-5.2-7.2c-1.2-2.8-1.8-5.7-1.8-8.8c0-3.1,0.6-6,1.8-8.8s3-5.2,5.2-7.2c2.2-2.1,4.8-3.7,7.8-5c3-1.2,6.2-1.8,9.6-1.8
			C358,28.4,361.2,29,364.2,30.2z M360.6,70.8c1.5-1.2,2.5-2.9,3.2-4.9s1.1-4.3,1.3-6.9s0.2-5.2,0.2-7.9c0-2.7-0.1-5.3-0.2-7.8
			c-0.2-2.6-0.6-4.9-1.3-6.9s-1.8-3.6-3.2-4.8c-1.5-1.2-3.5-1.9-6.1-1.9s-4.6,0.6-6.1,1.9c-1.5,1.2-2.5,2.8-3.2,4.8
			s-1.1,4.3-1.3,6.9s-0.2,5.2-0.2,7.8c0,2.7,0.1,5.3,0.2,7.9c0.2,2.6,0.6,4.9,1.3,6.9s1.8,3.6,3.2,4.9c1.5,1.2,3.5,1.8,6.1,1.8
			C357.1,72.7,359.2,72.1,360.6,70.8z"/>
		<path class="st0" d="M404.9,29.8v8.4h0.2c1.2-2.5,2.8-4.7,4.8-6.5s4.7-2.8,8.1-2.8c2.8,0,5.1,0.8,6.8,2.2c1.7,1.5,2.6,3.6,2.6,6.2
			c0,2-0.5,3.6-1.5,4.7s-2.5,1.7-4.7,1.7c-1.5,0-2.9-0.3-4.2-0.9s-1.9-1.8-1.9-3.6c0-0.2,0-0.5,0.1-1s0.2-1,0.2-1.6
			c0.1-0.6,0.2-1.1,0.2-1.5c0.1-0.5,0.1-0.7,0.1-0.8c-0.1-0.5-0.2-0.9-0.3-1.2c-0.1-0.3-0.3-0.6-0.7-0.8c-0.3-0.2-0.8-0.3-1.3-0.3
			c-0.7,0-1.5,0.3-2.5,1c-1,0.6-1.9,1.5-2.8,2.8c-0.9,1.2-1.6,2.6-2.2,4.3c-0.6,1.7-0.9,3.6-0.9,5.8v25.4h7.9v1.4h-26.6v-1.4h6.5
			V31.2h-6.5v-1.4H404.9z"/>
		<path class="st0" d="M449,0.6v47.7h0.5l18.6-17.1h-7.3v-1.4h15.7v1.4h-6.4l-11.2,10.6l22.9,29.5h3.9v1.4h-26.5v-1.4h7.2
			l-16.9-21.6H449v21.6h6.2v1.4h-25v-1.4h6.6V2h-6.6V0.6L449,0.6L449,0.6z"/>
		<path class="st0" d="M58.5,137.9c1,0.3,2.1,0.4,3.1,0.4s2-0.1,3-0.4c1-0.3,2-0.6,3-1v12.9h11.7v1.4H67.6v33.5c0,1,0.1,1.9,0.2,2.8
			c0.1,0.9,0.4,1.7,0.8,2.4s0.9,1.2,1.6,1.6c0.7,0.4,1.6,0.6,2.8,0.6c1.3,0,2.4-0.3,3.2-0.8c0.9-0.5,1.7-1.2,2.4-2
			c0.7-0.8,1.2-1.8,1.6-2.8c0.4-1.1,0.8-2.1,1-3.1l1.5,0.3c-0.4,2.3-1.1,4.1-2,5.4c-1,1.4-2.1,2.4-3.3,3.2c-1.2,0.7-2.5,1.2-3.9,1.5
			c-1.4,0.2-2.7,0.3-4,0.3c-3.5,0-6.1-0.4-8.1-1.2c-1.9-0.8-3.3-1.8-4.2-3c-0.9-1.2-1.4-2.5-1.6-3.9c-0.1-1.4-0.2-2.7-0.2-3.9v-30.8
			h-6.7v-1.4h6.7V137C56.4,137.3,57.4,137.6,58.5,137.9z"/>
		<path class="st0" d="M119.8,150.2c3,1.2,5.5,2.9,7.8,5c2.2,2.1,3.9,4.5,5.1,7.2c1.2,2.8,1.9,5.7,1.9,8.8s-0.6,6.1-1.9,8.8
			c-1.2,2.8-3,5.2-5.1,7.2c-2.2,2.1-4.8,3.7-7.8,4.9s-6.2,1.8-9.7,1.8s-6.7-0.6-9.6-1.8c-3-1.2-5.5-2.8-7.8-4.9
			c-2.2-2.1-3.9-4.5-5.1-7.2c-1.2-2.8-1.9-5.7-1.9-8.8s0.6-6,1.9-8.8c1.2-2.8,3-5.2,5.1-7.2c2.2-2.1,4.8-3.7,7.8-5
			c3-1.2,6.2-1.8,9.6-1.8C113.6,148.4,116.8,149,119.8,150.2z M116.2,190.8c1.5-1.2,2.6-2.9,3.2-4.9c0.7-2,1.1-4.3,1.3-6.9
			c0.2-2.6,0.2-5.2,0.2-7.9s-0.1-5.3-0.2-7.8c-0.2-2.6-0.6-4.9-1.3-6.9c-0.7-2-1.8-3.6-3.2-4.8c-1.5-1.2-3.5-1.9-6.1-1.9
			s-4.6,0.6-6.1,1.9c-1.5,1.2-2.6,2.8-3.2,4.8c-0.7,2-1.1,4.3-1.3,6.9c-0.2,2.6-0.2,5.2-0.2,7.8c0,2.7,0.1,5.3,0.2,7.9
			c0.2,2.6,0.6,4.9,1.3,6.9c0.7,2,1.8,3.6,3.2,4.9c1.5,1.2,3.5,1.8,6.1,1.8C112.7,192.7,114.7,192.1,116.2,190.8z"/>
		<path class="st0" d="M173.8,186.3c2.3,0.5,4.3,1.3,6,2.5s3.1,2.8,4.2,4.8s1.6,4.6,1.6,7.7c0,2.6-0.5,5.1-1.6,7.6s-2.6,4.7-4.7,6.6
			c-2.1,1.9-4.5,3.5-7.4,4.7s-6.2,1.8-10,1.8c-4.2,0-7.5-0.5-10-1.4s-4.4-2-5.8-3.3c-1.3-1.3-2.2-2.6-2.6-4s-0.6-2.5-0.6-3.5
			c0-1.8,0.4-3.4,1.2-4.8c0.8-1.4,1.8-2.6,3.1-3.7c1.3-1,2.7-1.9,4.3-2.7c1.6-0.7,3.1-1.3,4.6-1.7v-0.2c-1.3,0-2.8-0.2-4.5-0.5
			s-3.3-0.9-4.8-1.7s-2.7-1.9-3.7-3.3c-1-1.4-1.5-3.1-1.5-5.2c0-0.3,0.1-0.9,0.2-1.8c0.2-0.9,0.6-1.9,1.2-3c0.6-1.2,1.5-2.4,2.8-3.7
			c1.2-1.3,2.9-2.5,4.9-3.6c-0.6-0.5-1.3-1-2-1.7c-0.7-0.6-1.4-1.4-2-2.2s-1.2-1.8-1.6-2.9c-0.4-1.1-0.6-2.4-0.6-3.9
			c0-2.1,0.4-4,1.4-5.8c0.9-1.8,2.2-3.4,3.8-4.8c1.7-1.4,3.7-2.5,6.2-3.2c2.4-0.8,5.1-1.2,8.1-1.2s5.6,0.5,7.8,1.4
			c2.2,0.9,4,2,5.5,3.2c1.7-1.5,3.2-2.7,4.5-3.5s3.1-1.1,5.3-1.1c1.9,0,3.4,0.5,4.3,1.5c1,1,1.5,2.2,1.5,3.8c0,1.3-0.4,2.4-1.2,3.1
			c-0.8,0.8-1.9,1.2-3.2,1.2c-0.9,0-1.7-0.1-2.2-0.4c-0.6-0.3-1-0.6-1.3-1s-0.5-0.8-0.6-1.2s-0.2-0.8-0.2-1.1
			c-0.1-0.9-0.3-1.6-0.4-2.1s-0.6-0.7-1.3-0.7c-0.4,0-0.9,0.2-1.4,0.5s-1.5,0.9-2.8,1.8c0.8,0.9,1.7,2,2.6,3.5
			c0.9,1.4,1.4,3.5,1.4,6.2c0,1.7-0.3,3.3-0.9,5c-0.6,1.6-1.7,3.1-3.1,4.5c-1.4,1.3-3.3,2.4-5.5,3.2c-2.3,0.8-5.1,1.2-8.4,1.2
			c-2.7,0-5-0.3-7.1-0.8s-3.8-1.1-5.1-1.6c-1.9,1.3-3.1,2.4-3.4,3.2c-0.3,0.9-0.5,1.7-0.5,2.5c0,1.7,0.7,2.9,2,3.7s3.1,1.2,5.4,1.2
			h11C169,185.6,171.5,185.8,173.8,186.3z M152.4,212.2c0.3,1.4,1,2.7,1.9,4c0.9,1.2,2.2,2.2,3.8,3c1.6,0.8,3.7,1.2,6.2,1.2
			c1.9,0,3.8-0.3,5.5-1s3.2-1.6,4.6-2.8c1.3-1.2,2.3-2.6,3.1-4.3c0.8-1.7,1.2-3.5,1.2-5.5s-0.3-3.6-1-4.8s-1.5-2.2-2.5-3
			c-1-0.7-2.1-1.2-3.3-1.5c-1.2-0.3-2.3-0.4-3.3-0.4h-10.4c-2,1.6-3.5,3.2-4.6,4.8s-1.6,3.7-1.6,6.4
			C151.9,209.5,152.1,210.8,152.4,212.2z M166.7,175.5c0.9-0.3,1.7-0.9,2.4-1.8c0.7-0.9,1.2-2.2,1.5-3.9c0.4-1.7,0.5-3.9,0.5-6.7
			c0-1.9-0.1-3.7-0.2-5.3s-0.5-3.1-1-4.2c-0.5-1.2-1.3-2.1-2.3-2.8s-2.4-1-4.2-1c-1.7,0-3,0.4-4.1,1.1c-1.1,0.7-1.9,1.6-2.5,2.8
			c-0.6,1.1-0.9,2.4-1.1,3.9s-0.3,3-0.3,4.5c0,3.1,0.2,5.6,0.6,7.5s0.9,3.3,1.6,4.2c0.7,1,1.5,1.6,2.5,1.9c1,0.3,2.1,0.4,3.2,0.4
			C164.7,176,165.8,175.8,166.7,175.5z"/>
		<path class="st0" d="M208.6,172.1c0,2.4,0.1,4.8,0.3,7.2c0.2,2.4,0.7,4.6,1.6,6.6s2.1,3.6,3.8,4.8c1.7,1.3,4,1.9,7,1.9
			c2.7,0,4.9-0.5,6.8-1.5c1.8-1,3.3-2.2,4.5-3.5s2-2.6,2.6-3.8c0.6-1.3,0.9-2.2,1-2.8l1.4,0.5c-0.3,1.3-0.9,2.6-1.7,4
			c-0.8,1.4-1.9,2.8-3.3,4s-3.1,2.3-5.2,3.1s-4.6,1.2-7.5,1.2c-3.5,0-6.7-0.5-9.7-1.5s-5.6-2.5-7.9-4.5c-2.2-2-4-4.4-5.2-7.2
			c-1.3-2.8-1.9-6-1.9-9.6c0-2.9,0.6-5.7,1.8-8.4c1.2-2.7,2.9-5.2,5-7.2s4.6-3.8,7.4-5.1s5.9-2,9.1-2c2.3,0,4.7,0.4,7,1.1
			c2.3,0.7,4.4,1.9,6.3,3.4s3.4,3.5,4.6,6c1.2,2.4,1.8,5.3,1.8,8.8h-29.5L208.6,172.1L208.6,172.1z M224.6,159.5
			c0-0.7,0-1.6-0.1-2.7c-0.1-1.1-0.3-2.1-0.7-3.2s-1.1-2-2-2.7s-2.1-1.1-3.8-1.1c-2.3,0-4,0.5-5.2,1.6s-2.1,2.4-2.8,4
			c-0.6,1.6-1,3.4-1.1,5.3c-0.2,1.9-0.3,3.7-0.4,5.5h16v-6.7H224.6z"/>
		<path class="st0" d="M254.7,137.9c1,0.3,2.1,0.4,3.1,0.4s2-0.1,3-0.4c1-0.3,2-0.6,3-1v12.9h11.7v1.4h-11.7v33.5
			c0,1,0.1,1.9,0.2,2.8c0.1,0.9,0.4,1.7,0.8,2.4c0.4,0.7,0.9,1.2,1.6,1.6c0.7,0.4,1.6,0.6,2.8,0.6c1.3,0,2.3-0.3,3.2-0.8
			s1.7-1.2,2.3-2c0.7-0.8,1.2-1.8,1.7-2.8c0.4-1.1,0.8-2.1,1-3.1l1.5,0.3c-0.4,2.3-1.1,4.1-2,5.4c-1,1.4-2.1,2.4-3.3,3.2
			c-1.2,0.7-2.5,1.2-3.9,1.5c-1.4,0.2-2.7,0.3-4,0.3c-3.5,0-6.2-0.4-8.1-1.2c-1.9-0.8-3.3-1.8-4.2-3c-0.9-1.2-1.4-2.5-1.6-3.9
			c-0.1-1.4-0.2-2.7-0.2-3.9v-30.8h-6.7v-1.4h6.7V137C252.7,137.3,253.7,137.6,254.7,137.9z"/>
		<path class="st0" d="M288.9,191.3V122h-6.6v-1.4h18.8v38.8h0.2c0.3-0.6,0.7-1.5,1.3-2.7s1.6-2.3,2.8-3.5c1.3-1.2,2.9-2.2,4.8-3
			c2-0.9,4.5-1.3,7.5-1.3c4.4,0,7.8,1.3,10.2,3.8s3.6,6,3.6,10.4v28.2h6.7v1.4h-25.1v-1.4h6.2v-31.6c0-2.8-0.6-4.8-1.7-6.2
			c-1.1-1.3-2.7-1.9-4.6-1.9c-1.6,0-3.1,0.4-4.6,1.1c-1.5,0.8-2.8,1.9-3.8,3.5c-1.1,1.5-2,3.4-2.7,5.7s-1,4.9-1,8v21.4h6.3v1.4
			h-25.1v-1.4H288.9z"/>
		<path class="st0" d="M358.6,172.1c0,2.4,0.1,4.8,0.3,7.2s0.7,4.6,1.6,6.6c0.9,2,2.1,3.6,3.8,4.8c1.7,1.3,4,1.9,7,1.9
			c2.7,0,4.9-0.5,6.8-1.5c1.8-1,3.3-2.2,4.5-3.5s2-2.6,2.6-3.8c0.6-1.3,0.9-2.2,1-2.8l1.4,0.5c-0.3,1.3-0.9,2.6-1.7,4
			s-1.9,2.8-3.3,4c-1.4,1.2-3.1,2.3-5.2,3.1s-4.6,1.2-7.5,1.2c-3.5,0-6.7-0.5-9.7-1.5s-5.6-2.5-7.9-4.5c-2.2-2-4-4.4-5.2-7.2
			c-1.3-2.8-1.9-6-1.9-9.6c0-2.9,0.6-5.7,1.8-8.4s2.9-5.2,5-7.2c2.1-2.1,4.6-3.8,7.4-5.1c2.8-1.3,5.9-2,9.1-2c2.3,0,4.7,0.4,7,1.1
			c2.3,0.7,4.4,1.9,6.3,3.4c1.9,1.5,3.4,3.5,4.6,6c1.2,2.4,1.8,5.3,1.8,8.8h-29.5L358.6,172.1L358.6,172.1z M374.6,159.5
			c0-0.7,0-1.6-0.1-2.7c-0.1-1.1-0.3-2.1-0.7-3.2s-1-2-1.9-2.7s-2.2-1.1-3.8-1.1c-2.3,0-4,0.5-5.2,1.6s-2.2,2.4-2.8,4
			s-1,3.4-1.2,5.3c-0.2,1.9-0.3,3.7-0.3,5.5h16V159.5z"/>
		<path class="st0" d="M414.2,149.8v8.4h0.2c1.2-2.5,2.8-4.7,4.9-6.5c2-1.8,4.7-2.8,8-2.8c2.8,0,5.1,0.8,6.8,2.2
			c1.7,1.5,2.6,3.6,2.6,6.2c0,2-0.5,3.6-1.5,4.7c-1,1.1-2.5,1.7-4.6,1.7c-1.5,0-2.9-0.3-4.2-0.9c-1.3-0.6-1.9-1.8-1.9-3.6
			c0-0.2,0-0.5,0.1-1s0.1-1,0.2-1.6c0.1-0.6,0.2-1.1,0.2-1.5c0.1-0.5,0.1-0.7,0.1-0.8c-0.1-0.5-0.2-0.9-0.3-1.2s-0.3-0.6-0.6-0.8
			s-0.8-0.3-1.4-0.3c-0.7,0-1.5,0.3-2.5,1c-1,0.6-1.9,1.5-2.8,2.8c-0.9,1.2-1.6,2.6-2.2,4.3c-0.6,1.7-1,3.6-1,5.8v25.4h7.9v1.4
			h-26.6v-1.4h6.5v-40.1h-6.5v-1.4H414.2z"/>
	</g>
</g>
</svg>
